<svg width="305" height="88" viewBox="0 0 305 88" fill="none" xmlns="http://www.w3.org/2000/svg">
<path d="M109 2H195.932V87H109V2Z" fill="#010202"/>
<path d="M112.484 5.05713H192.967V76.2102H112.484V5.05713Z" fill="#010202"/>
<path d="M129.116 14.4082C127.557 14.4082 126.036 14.5281 124.477 14.5281C121.512 14.5281 120.916 14.4082 120.338 14.4082C120.126 14.4082 119.799 14.588 119.799 14.9077C119.799 16.0666 123.014 15.0276 123.014 18.2046V33.1905C123.014 35.9879 120.608 34.809 120.608 35.9879C120.608 36.5474 121.301 36.4275 121.801 36.4275C122.725 36.4275 123.63 36.3076 124.554 36.3076C125.651 36.3076 127.307 36.4275 130.81 36.4275C134.025 36.4275 141.84 33.6301 141.84 24.6386C141.859 14.9077 133.139 14.4082 129.116 14.4082V14.4082ZM130.078 35.2486C128.904 35.2486 126.691 35.0288 126.691 32.9707V18.5043C126.691 16.3664 126.864 15.5871 129.116 15.5871C136.604 15.5871 138.086 22.6804 138.086 25.6376C138.086 32.0716 134.756 35.2486 130.078 35.2486" fill="#F4F3F4"/>
<path d="M157.413 32.5711C156.759 32.5711 156.605 34.1497 155.642 34.1497C155.103 34.1497 154.776 33.8699 154.776 32.691C154.776 31.2524 156.431 22.4806 156.431 22.141C156.431 21.9212 156.393 21.6814 156.046 21.6814C155.296 21.6814 154.872 23.7994 153.659 23.7994C153.332 23.7994 152.427 22.9602 150.907 22.9602C146.171 22.9602 143.168 27.9355 143.168 32.3314C143.168 34.6292 144.554 36.6473 146.884 36.6473C148.866 36.6473 150.271 35.3485 151.619 33.9099C151.792 34.7091 152.1 36.6473 153.833 36.6473C155.989 36.6473 157.779 34.1297 157.779 32.8509C157.76 32.691 157.644 32.5711 157.413 32.5711V32.5711ZM151.561 30.9127C151.138 32.6311 150.522 34.3894 148.481 34.3894C146.961 34.3894 146.537 32.5911 146.537 31.3523C146.537 28.7947 147.788 23.8593 150.945 23.8593C151.811 23.8593 152.678 24.259 152.678 25.298C152.678 26.317 151.831 29.8137 151.561 30.9127" fill="#F4F3F4"/>
<path d="M169.406 23.44C169.04 23.1403 168.559 23.0004 167.962 23.0004C167.211 23.0004 166.499 23.2402 165.806 23.7197C165.132 24.1993 164.42 24.8387 163.689 25.6779V23.3201C163.689 22.9205 163.689 22.7007 163.342 22.7007C162.976 22.7007 162.63 23.44 160.108 24.0394C159.069 24.3192 158.607 24.3591 158.607 24.8587C158.607 25.7378 160.532 24.8587 160.532 26.3572V33.6704C160.532 35.9682 159.088 35.1689 159.088 36.128C159.088 36.3678 159.203 36.4477 159.588 36.4477C160.339 36.4477 161.205 36.3279 162.611 36.3279C163.612 36.3279 165.306 36.4477 166.018 36.4477C166.345 36.4477 166.461 36.1081 166.461 35.9282C166.461 35.069 163.881 35.8883 163.689 33.4106V27.4562C163.689 26.8768 163.977 26.3173 164.574 25.7778C165.171 25.2383 165.652 24.9586 166.076 24.9586C166.326 24.9586 166.672 25.1184 167.134 25.4581C167.577 25.7978 168.02 25.9576 168.462 25.9576C168.905 25.9576 169.252 25.8177 169.54 25.558C169.829 25.2783 169.964 24.9586 169.964 24.5589C169.964 24.0994 169.791 23.7397 169.406 23.44" fill="#F4F3F4"/>
<path d="M183.323 34.5693C181.88 32.8509 178.8 28.6948 178.8 27.5959C178.8 27.2162 181.495 24.8584 183.766 24.279C183.997 24.219 184.574 24.0992 184.574 23.6196C184.574 23.3998 184.363 23.2999 183.881 23.2999C183.073 23.2999 182.245 23.4198 181.418 23.4198C180.59 23.4198 179.781 23.2999 178.934 23.2999C178.511 23.2999 178.241 23.2 178.241 23.7595C178.241 24.3789 179.685 24.219 179.685 24.7785C179.685 24.8984 179.801 25.0583 179.319 25.4579L175.123 29.2343V15.727C175.123 13.9887 175.45 13.1095 175.065 13.1095C174.545 13.1095 174.642 13.669 172.332 14.3483C170.407 15.0277 169.964 14.9078 169.964 15.4473C169.964 16.3465 171.947 15.3474 171.947 17.1857V33.4504C171.947 36.3676 170.176 35.1288 170.176 36.0879C170.176 36.4076 170.445 36.4076 170.676 36.4076C171.311 36.4076 172.659 36.2877 173.352 36.2877C174.257 36.2877 176.105 36.4076 176.701 36.4076C177.221 36.4076 177.337 36.3077 177.337 36.0079C177.337 35.3286 175.123 35.7682 175.123 33.5503V30.7529L176.239 29.7938L179.05 34.0498C180.686 36.5474 181.148 36.4076 181.302 36.4076C182.014 36.4076 182.553 36.2877 182.977 36.2877C183.516 36.2877 184.055 36.4076 184.574 36.4076C185.21 36.4076 185.652 36.4475 185.652 35.908C185.672 35.3486 184.189 35.5883 183.323 34.5693" fill="#F4F3F4"/>
<path d="M124.977 57.6278C124.977 59.2662 124.881 60.2253 126.71 60.2253C133.043 60.2253 132.696 56.7486 133.659 56.7486C133.755 56.7486 133.948 56.8285 133.948 57.328C133.948 59.4061 132.427 61.5641 130.348 61.5641C126.46 61.5641 124.92 61.4642 123.649 61.4642C122.86 61.4642 121.782 61.5641 120.377 61.5641C120.049 61.5641 119.895 61.4242 119.895 61.2643C119.895 60.0455 121.84 61.4841 121.84 58.2472V45.699C121.84 43.4411 118.952 44.1604 118.952 43.2213C118.952 42.9815 119.241 42.7817 119.78 42.7817C120.8 42.7817 122.282 42.8816 123.264 42.8816C125.439 42.8816 125.747 42.7817 126.152 42.7817C126.691 42.7817 126.825 42.8017 126.825 43.1214C126.825 44.1205 125.016 43.1414 125.016 45.1595V57.6278H124.977Z" fill="#F4F3F4"/>
<path d="M144.959 54.7104C144.959 58.1671 142.937 61.7637 139.241 61.7637C135.565 61.7637 134.66 58.6267 134.66 56.5886C134.66 52.6124 137.682 50.0947 140.55 50.0947C143.188 50.0947 144.959 51.9929 144.959 54.7104ZM139.261 60.8646C142.129 60.8646 142.11 54.5705 142.11 53.6114C142.11 52.2727 141.956 50.874 140.339 50.874C137.836 50.874 137.586 56.3089 137.586 58.1272C137.567 59.0863 137.644 60.8646 139.261 60.8646" fill="#F4F3F4"/>
<path d="M152.755 57.5675C152.812 57.6475 152.928 58.127 153.14 58.127C153.294 58.127 153.525 57.5875 153.563 57.4876L155.103 54.3306C155.392 53.7711 155.815 52.812 155.815 52.2925C155.815 51.0137 154.179 51.5532 154.179 50.8339C154.179 50.4143 154.468 50.3743 155.007 50.3743C155.546 50.3743 156.085 50.4742 156.585 50.4742C156.97 50.4742 157.355 50.3743 157.856 50.3743C158.164 50.3743 158.395 50.4143 158.395 50.694C158.395 51.1936 157.683 51.1536 157.278 52.0128L152.601 61.5038C152.447 61.8235 152.427 62.0034 152.158 62.0034C151.927 62.0034 151.869 61.7836 151.773 61.5638L147.557 52.3924C146.864 50.9138 146.152 51.2735 146.152 50.714C146.152 50.3743 146.614 50.3743 147.288 50.3743C147.827 50.3743 148.135 50.4742 149.078 50.4742C149.713 50.4742 150.714 50.3743 151.253 50.3743C151.503 50.3743 152.042 50.2944 152.042 50.694C152.042 51.4133 150.117 51.0936 150.56 52.1526L152.755 57.5675Z" fill="#F4F3F4"/>
<path d="M164.997 60.1453C167.019 60.1453 167.577 58.5868 168.27 58.5868C168.366 58.5868 168.578 58.6667 168.578 58.9664C168.578 59.2062 166.942 61.7838 163.207 61.7838C160.859 61.7838 159.146 60.3451 159.146 57.8674C159.146 52.6923 162.88 50.1147 165.941 50.1147C167.115 50.1147 168.693 50.7541 168.693 52.2128C168.693 55.0301 164.093 56.1291 161.956 56.3489C161.802 58.5268 162.668 60.1453 164.997 60.1453V60.1453ZM166.114 52.3726C166.114 51.7332 165.787 51.0938 165.094 51.0938C163.169 51.0938 161.995 53.6914 161.995 55.4497C163.689 55.5296 166.114 54.3707 166.114 52.3726Z" fill="#F4F3F4"/>
<path d="M172.062 45.1795C172.062 43.621 170.368 44.4602 170.368 43.7009C170.368 43.2413 170.753 43.3612 172.389 42.7618C174.353 42.1823 174.276 41.7028 174.719 41.7028C175.046 41.7028 174.776 42.4421 174.776 43.9207V59.1264C174.776 61.0046 176.663 60.6449 176.663 61.2244C176.663 61.4841 176.547 61.5641 176.124 61.5641C175.623 61.5641 174.026 61.4642 173.256 61.4642C172.678 61.4642 171.523 61.5641 170.984 61.5641C170.772 61.5641 170.561 61.5641 170.561 61.3043C170.561 60.4851 172.062 61.5441 172.062 59.0464V45.1795Z" fill="#F4F3F4"/>
<path d="M179.724 50.0947C181.687 50.0947 182.861 53.5115 184.863 57.8674C185.479 56.7684 186.037 55.0501 186.037 53.7313C186.037 52.4125 185.152 51.8731 185.152 51.1737C185.152 50.7741 185.652 50.0947 186.461 50.0947C187.404 50.0947 187.616 50.834 187.616 51.7132C187.616 54.8902 183.15 66.6591 178.395 66.6591C177.125 66.6591 176.817 65.6801 176.817 65.1006C176.817 64.2414 177.375 63.8817 177.876 63.8817C179.127 63.8817 179.031 64.681 180.089 64.681C181.264 64.681 183.073 61.8636 183.073 61.0444C183.073 60.1253 179.974 52.5724 178.626 52.5724C177.433 52.5724 177.722 54.7304 177.144 54.7304C176.913 54.7304 176.74 54.5905 176.74 54.1109C176.701 52.7522 177.856 50.0947 179.724 50.0947" fill="#F4F3F4"/>
<path d="M146.46 42.0025C147.095 42.0025 147.461 42.3422 147.596 42.3422C148.096 42.3422 148.269 41.463 148.577 41.463C148.731 41.463 148.731 41.5629 148.731 41.6628C148.731 41.8027 148.058 45.3993 148.058 45.9788C148.058 46.4583 148.192 46.5782 148.423 46.5782C148.808 46.5782 148.866 45.9188 149.155 45.9188C149.251 45.9188 149.309 45.9588 149.309 46.0387C149.309 46.5582 148.577 47.5972 147.692 47.5972C146.98 47.5972 146.864 46.798 146.787 46.4783C146.229 47.0577 145.671 47.5972 144.843 47.5972C143.881 47.5972 143.322 46.778 143.322 45.8189C143.284 44.0406 144.516 42.0025 146.46 42.0025V42.0025ZM144.67 45.4393C144.67 45.9388 144.843 46.6781 145.459 46.6781C146.287 46.6781 146.556 45.9588 146.73 45.2594C146.845 44.7999 147.192 43.3812 147.192 42.9616C147.192 42.542 146.845 42.3821 146.479 42.3821C145.19 42.3821 144.67 44.4002 144.67 45.4393" fill="#F4F3F4"/>
<path d="M150.002 47.4773C149.886 47.4773 149.886 47.3974 149.886 47.3174C149.886 47.2175 150.483 44.4002 150.483 43.9606C150.483 43.3811 150.271 43.2413 150.079 43.2413C149.713 43.2413 149.694 43.8607 149.405 43.8607C149.328 43.8607 149.251 43.7808 149.251 43.6609C149.251 43.0814 150.06 42.0024 150.695 42.0024C151.426 42.0024 151.542 42.8816 151.542 43.4611H151.561C152.081 42.6618 152.697 42.0024 153.813 42.0024C154.66 42.0024 155.045 42.7218 155.045 43.501C155.045 43.8607 154.968 44.4601 154.911 45.0396C154.834 45.5791 154.757 46.0786 154.757 46.2185C154.757 46.4383 154.834 46.5981 154.988 46.5981C155.411 46.5981 155.546 46.0187 155.796 46.0187C155.912 46.0187 155.95 46.0986 155.95 46.1785C155.95 46.4183 155.276 47.6172 154.179 47.6172C153.351 47.6172 153.409 46.678 153.409 46.5981C153.409 46.3783 153.486 45.7189 153.582 45.0795C153.679 44.4202 153.756 43.8008 153.756 43.6809C153.756 43.4811 153.736 42.7018 153.101 42.7018C151.696 42.7018 151.484 45.8189 151.272 46.9977C151.253 47.1176 151.234 47.4773 151.099 47.4773H150.002Z" fill="#F4F3F4"/>
<path d="M160.416 39.305C160.416 38.8654 160.07 38.9454 159.781 38.9454C159.627 38.9454 159.434 38.9653 159.434 38.7256C159.434 38.6257 159.55 38.5258 159.646 38.5058C161.205 38.3259 161.398 38.2061 161.571 38.2061C161.744 38.2061 161.802 38.306 161.802 38.4658C161.802 38.6656 161.61 40.1442 161.513 40.9635L161.032 45.5192C161.013 45.699 160.974 45.8389 160.974 45.9987C160.974 46.2585 161.128 46.4783 161.302 46.4783C161.687 46.4783 161.783 45.7989 162.072 45.7989C162.187 45.7989 162.226 45.8788 162.226 45.9787C162.226 46.2385 161.456 47.5772 160.666 47.5772C159.742 47.5772 159.762 46.5982 159.704 46.3983C159.377 46.778 158.838 47.5772 157.817 47.5772C156.759 47.5772 156.239 46.6781 156.239 45.679C156.239 43.541 157.856 41.9625 159.203 41.9625C159.511 41.9625 159.819 42.0424 160.089 42.1823L160.416 39.305ZM158.491 46.6581C158.645 46.6581 159.954 46.6781 159.954 43.1214C159.954 42.6818 159.819 42.4021 159.357 42.4021C158.414 42.4021 157.663 43.9007 157.663 45.2994C157.663 45.8988 157.779 46.6581 158.491 46.6581V46.6581Z" fill="#F4F3F4"/>
<path d="M186.461 67.5583C185.171 67.5583 184.132 66.4794 184.132 65.1406C184.132 63.7819 185.171 62.7229 186.461 62.7229C187.77 62.7229 188.79 63.8019 188.79 65.1406C188.79 66.4594 187.751 67.5583 186.461 67.5583ZM186.461 63.0826C185.364 63.0826 184.478 63.9817 184.478 65.1406C184.478 66.2796 185.364 67.1987 186.461 67.1987C187.558 67.1987 188.444 66.2796 188.444 65.1406C188.444 63.9817 187.558 63.0826 186.461 63.0826ZM187.096 66.5393L186.403 65.4403H185.941V66.5393H185.556V63.7619H186.653C187.096 63.7619 187.52 64.0816 187.52 64.6011C187.52 65.2205 187 65.4204 186.827 65.4204L187.539 66.5393H187.096ZM186.653 64.0816H185.941V65.0807H186.653C186.884 65.0807 187.135 64.8809 187.135 64.6011C187.135 64.2814 186.884 64.0816 186.653 64.0816V64.0816Z" fill="#F4F3F4"/>
<path d="M114.294 79.8668H114.082V81.7251H114.197C114.486 81.7251 114.698 81.6451 114.852 81.5053C115.006 81.3654 115.083 81.1256 115.083 80.8059C115.083 80.4862 115.025 80.2465 114.91 80.0866C114.775 79.9467 114.582 79.8668 114.294 79.8668Z" fill="url(#paint0_linear)"/>
<path d="M118.047 79.8668H117.836V81.6451H118.028C118.278 81.6451 118.49 81.5652 118.625 81.4254C118.76 81.2655 118.837 81.0257 118.837 80.6861C118.837 80.4063 118.76 80.1865 118.625 80.0666C118.509 79.9467 118.298 79.8668 118.047 79.8668V79.8668Z" fill="url(#paint1_linear)"/>
<path d="M169.771 79.8668H169.56V81.7251H169.675C169.964 81.7251 170.176 81.6451 170.33 81.5053C170.484 81.3654 170.561 81.1256 170.561 80.8059C170.561 80.4862 170.503 80.2465 170.387 80.0866C170.272 79.9467 170.06 79.8668 169.771 79.8668Z" fill="url(#paint2_linear)"/>
<path d="M123.418 80.3862C123.341 80.2063 123.245 80.0665 123.129 79.9466C123.014 79.8467 122.841 79.7867 122.667 79.7867C122.359 79.7867 122.109 79.9666 121.955 80.3063C121.782 80.6459 121.705 81.1255 121.705 81.7649C121.705 82.0246 121.724 82.2844 121.763 82.5242C121.801 82.7639 121.859 82.9638 121.936 83.1436C122.013 83.3234 122.109 83.4633 122.225 83.5632C122.34 83.6631 122.494 83.7031 122.667 83.7031C122.841 83.7031 122.995 83.6631 123.11 83.5432C123.226 83.4433 123.341 83.3034 123.399 83.1236C123.476 82.9438 123.534 82.744 123.572 82.5042C123.611 82.2644 123.63 82.0246 123.63 81.7249C123.63 81.4851 123.611 81.2454 123.591 81.0056C123.553 80.7658 123.495 80.566 123.418 80.3862Z" fill="url(#paint3_linear)"/>
<path d="M151.773 82.1244H152.851L152.312 80.6058L151.773 82.1244Z" fill="url(#paint4_linear)"/>
<path d="M177.394 79.8668H177.183V81.6451H177.375C177.625 81.6451 177.837 81.5652 177.972 81.4254C178.107 81.2655 178.184 81.0257 178.184 80.6861C178.184 80.4063 178.107 80.1865 177.972 80.0666C177.856 79.9467 177.645 79.8668 177.394 79.8668V79.8668Z" fill="url(#paint5_linear)"/>
<path d="M144.651 80.3862C144.574 80.2063 144.477 80.0665 144.362 79.9466C144.246 79.8467 144.073 79.7867 143.9 79.7867C143.592 79.7867 143.342 79.9666 143.188 80.3063C143.014 80.6459 142.937 81.1255 142.937 81.7649C142.937 82.0246 142.957 82.2844 142.995 82.5242C143.034 82.7639 143.091 82.9638 143.168 83.1436C143.245 83.3234 143.342 83.4633 143.457 83.5632C143.573 83.6631 143.727 83.7031 143.9 83.7031C144.073 83.7031 144.227 83.6631 144.343 83.5432C144.458 83.4433 144.554 83.3034 144.631 83.1236C144.708 82.9438 144.766 82.744 144.805 82.5042C144.843 82.2644 144.862 82.0246 144.862 81.7249C144.862 81.4851 144.843 81.2454 144.824 81.0056C144.766 80.7658 144.728 80.566 144.651 80.3862V80.3862Z" fill="url(#paint6_linear)"/>
<path d="M109 2V87H195.932V2H109ZM112.484 5.05712H192.967V76.2102H112.484V5.05712ZM115.949 81.2854C115.872 81.4652 115.737 81.6051 115.583 81.705C115.429 81.8249 115.237 81.9048 115.044 81.9448C114.852 82.0047 114.621 82.0247 114.371 82.0247H114.063V83.2236C114.063 83.3035 114.082 83.3634 114.101 83.4034C114.12 83.4633 114.178 83.5033 114.236 83.5233C114.274 83.5432 114.332 83.5632 114.409 83.5832C114.486 83.6032 114.563 83.6232 114.602 83.6232V83.8629H112.6V83.6232C112.657 83.6232 112.715 83.6032 112.792 83.6032C112.869 83.5832 112.927 83.5832 112.965 83.5632C113.042 83.5233 113.081 83.4833 113.1 83.4433C113.119 83.4034 113.139 83.3434 113.139 83.2435V80.2464C113.139 80.1664 113.119 80.1265 113.1 80.0665C113.081 80.0066 113.042 79.9666 112.965 79.9466C112.908 79.9267 112.85 79.9067 112.773 79.8867C112.696 79.8667 112.638 79.8467 112.6 79.8467V79.607H114.659C115.141 79.607 115.506 79.6869 115.737 79.8667C115.968 80.0465 116.103 80.3063 116.103 80.666C116.084 80.9057 116.045 81.1055 115.949 81.2854V81.2854ZM120.627 83.843H119.202C118.952 83.4234 118.76 83.0637 118.586 82.8039C118.432 82.5442 118.221 82.2445 117.97 81.9248H117.816V83.2036C117.816 83.2835 117.836 83.3434 117.855 83.3834C117.874 83.4433 117.932 83.4833 117.99 83.5033C118.028 83.5233 118.067 83.5432 118.144 83.5432C118.221 83.5632 118.278 83.5632 118.317 83.5832V83.823H116.334V83.5832C116.392 83.5832 116.45 83.5632 116.527 83.5632C116.604 83.5432 116.661 83.5432 116.7 83.5233C116.758 83.4833 116.815 83.4433 116.835 83.4034C116.854 83.3634 116.873 83.2835 116.873 83.2236V80.2264C116.873 80.1464 116.854 80.0865 116.835 80.0465C116.815 80.0066 116.777 79.9666 116.7 79.9267C116.642 79.9067 116.584 79.8867 116.507 79.8667C116.43 79.8467 116.373 79.8467 116.334 79.8268V79.587H118.413C118.875 79.587 119.241 79.6669 119.472 79.8467C119.703 80.0066 119.838 80.2663 119.838 80.606C119.838 80.9057 119.761 81.1455 119.607 81.3253C119.453 81.5052 119.222 81.645 118.933 81.7449C119.048 81.9248 119.183 82.1246 119.356 82.3444C119.51 82.5842 119.684 82.8039 119.857 83.0437C119.915 83.1236 119.992 83.2235 120.088 83.3235C120.184 83.4433 120.261 83.5033 120.338 83.5233C120.377 83.5432 120.434 83.5432 120.492 83.5632C120.55 83.5832 120.588 83.5832 120.627 83.5832V83.843ZM124.535 82.5842C124.438 82.8639 124.323 83.1037 124.15 83.3035C123.976 83.5233 123.765 83.6831 123.514 83.803C123.264 83.9229 122.975 83.9828 122.648 83.9828C122.379 83.9828 122.128 83.9229 121.878 83.823C121.647 83.7231 121.416 83.5832 121.243 83.3834C121.07 83.2036 120.916 82.9638 120.819 82.6841C120.704 82.4043 120.665 82.1046 120.665 81.7849C120.665 81.4452 120.723 81.1255 120.819 80.8458C120.916 80.5661 121.07 80.3263 121.243 80.1265C121.416 79.9267 121.628 79.7868 121.878 79.6669C122.128 79.567 122.398 79.507 122.667 79.507C122.956 79.507 123.206 79.567 123.457 79.6669C123.707 79.7668 123.919 79.9067 124.092 80.1065C124.284 80.3063 124.419 80.5261 124.535 80.8058C124.65 81.0856 124.689 81.3853 124.689 81.725C124.669 82.0047 124.631 82.3044 124.535 82.5842V82.5842ZM128.384 80.7459H128.173C128.115 80.586 128.038 80.4062 127.903 80.2264C127.768 80.0465 127.653 79.9466 127.537 79.9267C127.48 79.9267 127.422 79.9067 127.326 79.9067C127.23 79.9067 127.153 79.8867 127.076 79.8867H126.498V81.5451H126.864C126.96 81.5451 127.056 81.5252 127.133 81.5052C127.21 81.4852 127.287 81.4252 127.345 81.3653C127.384 81.3253 127.422 81.2254 127.48 81.1255C127.518 81.0056 127.557 80.9057 127.557 80.8258H127.749V82.6041H127.557C127.557 82.5042 127.518 82.4043 127.48 82.2844C127.441 82.1646 127.383 82.0646 127.364 82.0247C127.307 81.9647 127.249 81.9048 127.172 81.8848C127.095 81.8448 126.999 81.8449 126.883 81.8449H126.517V83.2435C126.517 83.3235 126.537 83.3834 126.556 83.4234C126.575 83.4833 126.633 83.5233 126.691 83.5432C126.729 83.5632 126.787 83.5832 126.845 83.5832C126.922 83.6032 126.979 83.6032 127.037 83.6232V83.8629H125.035V83.6232C125.093 83.6232 125.151 83.6032 125.247 83.6032C125.324 83.5832 125.382 83.5832 125.42 83.5632C125.478 83.5432 125.516 83.5033 125.555 83.4433C125.574 83.4034 125.593 83.3235 125.593 83.2435V80.2464C125.593 80.1864 125.574 80.1265 125.555 80.0665C125.536 80.0066 125.497 79.9666 125.42 79.9466C125.362 79.9267 125.305 79.9067 125.228 79.8867C125.151 79.8667 125.093 79.8467 125.035 79.8467V79.607H128.384V80.7459ZM132.138 83.843H128.654V83.6032C128.712 83.6032 128.769 83.5832 128.846 83.5832C128.923 83.5632 128.981 83.5632 129.02 83.5432C129.077 83.5033 129.135 83.4633 129.154 83.4234C129.174 83.3834 129.193 83.3035 129.193 83.2435V80.2464C129.193 80.1664 129.193 80.1065 129.154 80.0665C129.135 80.0266 129.097 79.9866 129.02 79.9466C128.981 79.9267 128.904 79.9067 128.827 79.8867C128.75 79.8667 128.673 79.8467 128.635 79.8467V79.607H131.926V80.6859H131.734C131.676 80.5261 131.599 80.3662 131.464 80.2064C131.349 80.0465 131.214 79.9466 131.099 79.9067C131.041 79.8867 130.983 79.8867 130.887 79.8867C130.791 79.8867 130.714 79.8867 130.656 79.8867H130.117V81.5251H130.502C130.598 81.5251 130.694 81.5052 130.771 81.4852C130.848 81.4652 130.925 81.4053 130.983 81.3453C131.022 81.3054 131.06 81.2254 131.099 81.1055C131.137 80.9857 131.156 80.8858 131.176 80.8058H131.368V82.5842H131.176C131.156 82.5042 131.137 82.3843 131.099 82.2645C131.06 82.1446 131.022 82.0447 130.983 82.0047C130.925 81.9248 130.848 81.8848 130.771 81.8648C130.694 81.8448 130.598 81.8249 130.502 81.8249H130.117V83.0437C130.117 83.1636 130.117 83.2635 130.136 83.3434C130.155 83.4234 130.194 83.4833 130.232 83.5233C130.271 83.5632 130.329 83.5832 130.406 83.6032C130.483 83.6232 130.579 83.6232 130.714 83.6232H130.925C131.002 83.6232 131.079 83.6232 131.156 83.6032C131.233 83.5832 131.291 83.5832 131.368 83.5632C131.445 83.5432 131.484 83.5233 131.503 83.4833C131.58 83.3834 131.676 83.2435 131.792 83.0437C131.888 82.8439 131.965 82.6841 132.003 82.6041H132.196L132.138 83.843ZM135.507 83.1436C135.43 83.3235 135.334 83.4633 135.199 83.5632C135.064 83.6831 134.891 83.783 134.718 83.843C134.525 83.9029 134.313 83.9429 134.082 83.9429C133.851 83.9429 133.64 83.9029 133.447 83.843C133.255 83.783 133.081 83.7031 132.947 83.6232L132.773 83.823H132.542L132.504 82.2844H132.735C132.793 82.4243 132.85 82.5842 132.927 82.744C133.004 82.9038 133.101 83.0437 133.197 83.1836C133.312 83.3235 133.428 83.4234 133.563 83.5033C133.697 83.5832 133.851 83.6232 134.025 83.6232C134.256 83.6232 134.448 83.5632 134.564 83.4234C134.698 83.2835 134.756 83.1236 134.756 82.9238C134.756 82.764 134.698 82.6241 134.602 82.5042C134.487 82.3843 134.333 82.3044 134.102 82.2045C133.948 82.1446 133.813 82.1046 133.697 82.0447C133.582 82.0047 133.466 81.9448 133.351 81.9048C133.101 81.7849 132.908 81.6251 132.793 81.4252C132.677 81.2054 132.6 80.9857 132.6 80.7059C132.6 80.5461 132.639 80.3862 132.696 80.2264C132.754 80.0665 132.85 79.9267 132.966 79.8068C133.081 79.6869 133.235 79.607 133.409 79.527C133.582 79.4471 133.774 79.4271 133.986 79.4271C134.198 79.4271 134.39 79.4671 134.564 79.527C134.737 79.587 134.891 79.6669 134.987 79.7268L135.141 79.547H135.372L135.391 80.9857H135.16C135.103 80.8258 135.045 80.666 134.968 80.5061C134.891 80.3463 134.814 80.2064 134.737 80.1065C134.66 79.9866 134.544 79.9067 134.448 79.8268C134.333 79.7468 134.198 79.7268 134.063 79.7268C133.871 79.7268 133.717 79.7868 133.601 79.9067C133.486 80.0266 133.428 80.1864 133.428 80.3662C133.428 80.5261 133.486 80.666 133.582 80.7858C133.678 80.8858 133.851 80.9857 134.063 81.0656C134.198 81.1255 134.333 81.1655 134.467 81.2054C134.602 81.2654 134.718 81.3054 134.833 81.3453C135.083 81.4652 135.276 81.6051 135.411 81.8049C135.545 82.0047 135.603 82.2445 135.603 82.5442C135.622 82.8039 135.584 82.9638 135.507 83.1436V83.1436ZM138.991 83.1436C138.914 83.3235 138.818 83.4633 138.683 83.5632C138.548 83.6831 138.375 83.783 138.202 83.843C138.009 83.9029 137.798 83.9429 137.567 83.9429C137.336 83.9429 137.124 83.9029 136.931 83.843C136.739 83.783 136.566 83.7031 136.431 83.6232L136.258 83.823H136.046L136.007 82.2844H136.238C136.296 82.4243 136.354 82.5842 136.431 82.744C136.508 82.9038 136.604 83.0437 136.7 83.1836C136.816 83.3235 136.931 83.4234 137.066 83.5033C137.201 83.5832 137.355 83.6232 137.528 83.6232C137.759 83.6232 137.952 83.5632 138.067 83.4234C138.202 83.2835 138.26 83.1236 138.26 82.9238C138.26 82.764 138.202 82.6241 138.106 82.5042C137.99 82.3843 137.836 82.3044 137.605 82.2045C137.451 82.1446 137.316 82.1046 137.201 82.0447C137.085 82.0047 136.97 81.9448 136.854 81.9048C136.604 81.7849 136.412 81.6251 136.296 81.4252C136.181 81.2054 136.123 80.9857 136.123 80.7059C136.123 80.5461 136.161 80.3862 136.219 80.2264C136.277 80.0665 136.373 79.9267 136.489 79.8068C136.604 79.6869 136.758 79.607 136.931 79.527C137.105 79.4471 137.316 79.4271 137.509 79.4271C137.721 79.4271 137.913 79.4671 138.086 79.527C138.26 79.587 138.414 79.6669 138.51 79.7268L138.664 79.547H138.895L138.914 80.9857H138.683C138.625 80.8258 138.568 80.666 138.491 80.5061C138.414 80.3463 138.337 80.2064 138.26 80.1065C138.163 79.9866 138.067 79.9067 137.971 79.8268C137.855 79.7468 137.721 79.7268 137.586 79.7268C137.393 79.7268 137.239 79.7868 137.124 79.9067C137.008 80.0266 136.951 80.1864 136.951 80.3662C136.951 80.5261 137.008 80.666 137.105 80.7858C137.201 80.8858 137.374 80.9857 137.586 81.0656C137.721 81.1255 137.836 81.1655 137.971 81.2054C138.106 81.2654 138.221 81.3054 138.337 81.3453C138.587 81.4652 138.779 81.6051 138.914 81.8049C139.049 82.0047 139.107 82.2445 139.107 82.5442C139.087 82.8039 139.049 82.9638 138.991 83.1436ZM141.513 79.8467C141.455 79.8467 141.397 79.8667 141.32 79.8667C141.243 79.8867 141.166 79.8867 141.128 79.9067C141.07 79.9267 141.012 79.9666 140.993 80.0266C140.974 80.0865 140.955 80.1464 140.955 80.2264V83.2236C140.955 83.3035 140.974 83.3634 140.993 83.4034C141.012 83.4633 141.07 83.5033 141.128 83.5233C141.166 83.5432 141.224 83.5632 141.32 83.5832C141.397 83.6032 141.474 83.6032 141.532 83.6232V83.8629H139.472V83.6232C139.511 83.6232 139.588 83.6032 139.684 83.6032C139.78 83.6032 139.838 83.5832 139.877 83.5632C139.934 83.5432 139.992 83.5033 140.011 83.4433C140.031 83.4034 140.05 83.3235 140.05 83.2635V80.2464C140.05 80.1864 140.031 80.1265 140.011 80.0665C139.992 80.0066 139.954 79.9666 139.877 79.9466C139.838 79.9267 139.78 79.9067 139.684 79.8867C139.607 79.8667 139.53 79.8467 139.472 79.8467V79.607H141.532V79.8467H141.513ZM145.767 82.5842C145.671 82.8639 145.555 83.1037 145.382 83.3035C145.209 83.5233 144.997 83.6831 144.747 83.803C144.497 83.9229 144.208 83.9828 143.881 83.9828C143.611 83.9828 143.361 83.9229 143.111 83.823C142.86 83.7231 142.649 83.5832 142.475 83.3834C142.283 83.2036 142.148 82.9638 142.033 82.6841C141.917 82.4043 141.879 82.1046 141.879 81.7849C141.879 81.4452 141.936 81.1255 142.033 80.8458C142.129 80.5661 142.283 80.3263 142.456 80.1265C142.629 79.9267 142.841 79.7868 143.091 79.6669C143.342 79.567 143.611 79.507 143.881 79.507C144.15 79.507 144.42 79.567 144.67 79.6669C144.92 79.7668 145.132 79.9067 145.305 80.1065C145.498 80.3063 145.632 80.5261 145.748 80.8058C145.863 81.0856 145.902 81.3853 145.902 81.725C145.902 82.0047 145.844 82.3044 145.767 82.5842V82.5842ZM150.079 79.9866C150.021 80.0465 149.963 80.1265 149.944 80.2663C149.925 80.4062 149.906 80.586 149.906 80.8458V83.8829H149.444L147.134 80.606V82.6041C147.134 82.8439 147.153 83.0437 147.172 83.1636C147.211 83.2835 147.249 83.3834 147.307 83.4433C147.345 83.4833 147.422 83.5233 147.538 83.5632C147.634 83.6032 147.73 83.6232 147.788 83.6232V83.8629H146.19V83.6232C146.267 83.6232 146.344 83.6032 146.421 83.5832C146.518 83.5632 146.575 83.5233 146.652 83.4833C146.729 83.4234 146.768 83.3434 146.787 83.2236C146.806 83.1037 146.826 82.9039 146.826 82.6441V80.626C146.826 80.5261 146.806 80.4262 146.787 80.3463C146.768 80.2663 146.71 80.1864 146.652 80.1265C146.595 80.0665 146.518 80.0066 146.441 79.9666C146.364 79.9267 146.267 79.9067 146.171 79.8667V79.6269H147.576L149.598 82.5042V80.9057C149.598 80.646 149.578 80.4661 149.559 80.3263C149.521 80.2064 149.482 80.1065 149.424 80.0465C149.367 80.0066 149.29 79.9666 149.193 79.9267C149.097 79.8867 149.02 79.8667 148.943 79.8667V79.6269H150.541V79.8667C150.483 79.8667 150.425 79.8867 150.329 79.9067C150.233 79.8867 150.156 79.9267 150.079 79.9866V79.9866ZM154.795 83.843H152.774V83.6032C152.87 83.6032 152.986 83.5832 153.101 83.5432C153.236 83.5033 153.294 83.4833 153.294 83.4234C153.294 83.4034 153.294 83.3834 153.294 83.3634C153.294 83.3434 153.294 83.3235 153.274 83.2835L152.966 82.4043H151.677C151.638 82.4842 151.619 82.5842 151.58 82.6841C151.542 82.8039 151.523 82.8839 151.484 82.9838C151.446 83.1037 151.426 83.1836 151.426 83.2236V83.3235C151.426 83.3834 151.465 83.4433 151.561 83.4833C151.638 83.5233 151.792 83.5632 151.985 83.5832V83.823H150.464V83.5832C150.522 83.5832 150.579 83.5632 150.656 83.5432C150.733 83.5233 150.791 83.5033 150.83 83.4633C150.907 83.4234 150.964 83.3634 151.003 83.2835C151.061 83.2236 151.099 83.1236 151.138 83.0437C151.33 82.4842 151.542 81.9248 151.754 81.3653C151.965 80.8058 152.177 80.1864 152.427 79.507H152.947C153.294 80.4661 153.563 81.2254 153.756 81.7849C153.948 82.3444 154.121 82.8039 154.256 83.1636C154.275 83.2236 154.314 83.2835 154.333 83.3235C154.372 83.3634 154.41 83.4234 154.487 83.4633C154.545 83.5033 154.583 83.5233 154.66 83.5432C154.718 83.5632 154.776 83.5632 154.834 83.5832V83.843H154.795ZM158.26 83.843H154.834V83.6032C154.891 83.6032 154.968 83.5832 155.045 83.5832C155.122 83.5632 155.18 83.5632 155.199 83.5432C155.257 83.5233 155.315 83.4833 155.334 83.4234C155.353 83.3834 155.373 83.3035 155.373 83.2236V80.2264C155.373 80.1464 155.353 80.0865 155.334 80.0465C155.315 80.0066 155.276 79.9666 155.199 79.9267C155.142 79.9067 155.084 79.8667 155.007 79.8667C154.93 79.8467 154.872 79.8467 154.834 79.8268V79.587H156.874V79.8268C156.816 79.8268 156.759 79.8467 156.682 79.8467C156.605 79.8667 156.547 79.8667 156.489 79.8867C156.412 79.9067 156.374 79.9466 156.354 80.0066C156.335 80.0665 156.316 80.1265 156.316 80.2064V83.0038C156.316 83.1436 156.316 83.2435 156.335 83.3235C156.354 83.4034 156.374 83.4633 156.431 83.4833C156.47 83.5233 156.547 83.5432 156.624 83.5632C156.701 83.5832 156.816 83.5832 156.97 83.5832C157.105 83.5832 157.24 83.5832 157.375 83.5632C157.509 83.5432 157.606 83.5033 157.663 83.4433C157.76 83.3434 157.837 83.2036 157.933 83.0237C158.029 82.8439 158.106 82.6641 158.164 82.5242H158.356L158.26 83.843ZM163.361 83.843H159.877V83.6032C159.935 83.6032 159.993 83.5832 160.07 83.5832C160.147 83.5632 160.204 83.5632 160.243 83.5432C160.301 83.5033 160.358 83.4633 160.378 83.4234C160.397 83.3834 160.416 83.3035 160.416 83.2435V80.2464C160.416 80.1664 160.416 80.1065 160.397 80.0665C160.378 80.0266 160.339 79.9866 160.262 79.9466C160.224 79.9267 160.147 79.9067 160.07 79.8867C159.993 79.8667 159.916 79.8467 159.877 79.8467V79.607H163.169V80.6859H162.976C162.919 80.5261 162.842 80.3662 162.707 80.2064C162.591 80.0465 162.457 79.9466 162.341 79.9067C162.283 79.8867 162.226 79.8867 162.129 79.8867C162.033 79.8867 161.956 79.8867 161.898 79.8867H161.359V81.5251H161.744C161.841 81.5251 161.937 81.5052 162.014 81.4852C162.091 81.4652 162.168 81.4053 162.226 81.3453C162.264 81.3054 162.303 81.2254 162.341 81.1055C162.38 80.9857 162.418 80.8858 162.418 80.8058H162.611V82.5842H162.418C162.399 82.5042 162.38 82.3843 162.341 82.2645C162.303 82.1446 162.264 82.0447 162.226 82.0047C162.168 81.9248 162.091 81.8848 162.014 81.8648C161.937 81.8448 161.841 81.8249 161.744 81.8249H161.359V83.0437C161.359 83.1636 161.359 83.2635 161.379 83.3434C161.398 83.4234 161.417 83.4833 161.475 83.5233C161.513 83.5632 161.571 83.5832 161.648 83.6032C161.725 83.6232 161.821 83.6232 161.956 83.6232H162.168C162.245 83.6232 162.322 83.6232 162.399 83.6032C162.476 83.5832 162.534 83.5832 162.611 83.5632C162.668 83.5432 162.726 83.5233 162.745 83.4833C162.822 83.3834 162.919 83.2435 163.034 83.0437C163.13 82.8439 163.207 82.6841 163.246 82.6041H163.438L163.361 83.843ZM167.904 83.843H165.633V83.6032C165.844 83.5832 165.998 83.5632 166.056 83.5432C166.114 83.5033 166.152 83.4833 166.152 83.4234C166.152 83.4034 166.133 83.3634 166.114 83.3035C166.095 83.2435 166.056 83.1836 166.018 83.1037C165.96 82.9838 165.883 82.8439 165.767 82.6641C165.671 82.4842 165.556 82.3044 165.44 82.1246C165.074 82.6041 164.843 82.9238 164.747 83.0837C164.651 83.2435 164.593 83.3434 164.593 83.4034C164.593 83.4234 164.593 83.4633 164.612 83.4633C164.612 83.4833 164.651 83.5033 164.67 83.5233C164.689 83.5432 164.728 83.5632 164.786 83.5632C164.843 83.5832 164.92 83.5832 164.997 83.6032V83.843H163.554V83.6032C163.631 83.6032 163.689 83.5832 163.727 83.5832C163.766 83.5632 163.823 83.5632 163.862 83.5233C163.958 83.4633 164.054 83.4034 164.131 83.3235C164.208 83.2435 164.285 83.1436 164.381 83.0437C164.497 82.8839 164.632 82.704 164.786 82.5042C164.94 82.3044 165.094 82.0846 165.267 81.8648C165.113 81.5851 164.94 81.3253 164.786 81.0656C164.632 80.8058 164.497 80.586 164.381 80.4062C164.324 80.3063 164.247 80.2264 164.17 80.1265C164.093 80.0266 163.997 79.9666 163.9 79.9267C163.862 79.9067 163.804 79.8867 163.746 79.8667C163.689 79.8467 163.631 79.8467 163.554 79.8268V79.587H165.825V79.8268C165.652 79.8268 165.517 79.8467 165.44 79.8867C165.363 79.9067 165.305 79.9466 165.305 80.0066C165.305 80.0266 165.305 80.0665 165.325 80.1065C165.344 80.1464 165.382 80.2264 165.421 80.3063C165.459 80.3862 165.536 80.5061 165.613 80.646C165.71 80.8058 165.806 80.9657 165.921 81.1655C166.249 80.7259 166.46 80.4262 166.537 80.2863C166.614 80.1465 166.672 80.0665 166.672 80.0066C166.672 79.9466 166.653 79.9067 166.595 79.8667C166.557 79.8467 166.441 79.8068 166.249 79.7868V79.547H167.692V79.7868C167.635 79.7868 167.577 79.7868 167.519 79.8068C167.481 79.8267 167.423 79.8467 167.365 79.8667C167.25 79.9267 167.173 79.9866 167.096 80.0665C167.019 80.1464 166.942 80.2464 166.865 80.3463C166.73 80.5061 166.614 80.666 166.499 80.8258C166.383 80.9857 166.229 81.1655 166.075 81.3853C166.287 81.7449 166.46 82.0447 166.614 82.3044C166.768 82.5442 166.903 82.784 167.038 83.0038C167.096 83.1037 167.153 83.1836 167.25 83.2835C167.327 83.3834 167.423 83.4433 167.5 83.4833C167.538 83.5033 167.596 83.5233 167.654 83.5432C167.712 83.5632 167.789 83.5632 167.866 83.5832V83.843H167.904ZM171.446 81.2854C171.369 81.4652 171.234 81.6051 171.08 81.705C170.926 81.8249 170.734 81.9048 170.541 81.9448C170.349 82.0047 170.118 82.0247 169.868 82.0247H169.56V83.2236C169.56 83.3035 169.579 83.3634 169.598 83.4034C169.617 83.4633 169.675 83.5033 169.733 83.5233C169.771 83.5432 169.829 83.5632 169.906 83.5832C169.983 83.6032 170.06 83.6232 170.099 83.6232V83.8629H168.077V83.6232C168.135 83.6232 168.193 83.6032 168.289 83.6032C168.366 83.5832 168.424 83.5832 168.462 83.5632C168.539 83.5233 168.578 83.4833 168.597 83.4433C168.616 83.4034 168.636 83.3434 168.636 83.2435V80.2464C168.636 80.1664 168.616 80.1265 168.597 80.0665C168.578 80.0066 168.52 79.9666 168.462 79.9466C168.405 79.9267 168.347 79.9067 168.27 79.8867C168.193 79.8667 168.135 79.8467 168.077 79.8467V79.607H170.137C170.618 79.607 170.984 79.6869 171.215 79.8667C171.446 80.0465 171.581 80.3063 171.581 80.666C171.562 80.9057 171.523 81.1055 171.446 81.2854ZM175.335 83.843H171.85V83.6032C171.908 83.6032 171.966 83.5832 172.043 83.5832C172.12 83.5632 172.178 83.5632 172.216 83.5432C172.274 83.5033 172.332 83.4633 172.351 83.4234C172.37 83.3834 172.389 83.3035 172.389 83.2435V80.2464C172.389 80.1664 172.37 80.1065 172.351 80.0665C172.332 80.0266 172.293 79.9866 172.216 79.9466C172.178 79.9267 172.101 79.9067 172.024 79.8867C171.947 79.8667 171.889 79.8467 171.831 79.8467V79.607H175.123V80.6859H174.93C174.873 80.5261 174.796 80.3662 174.661 80.2064C174.545 80.0465 174.411 79.9466 174.295 79.9067C174.237 79.8867 174.18 79.8867 174.083 79.8867C173.987 79.8867 173.91 79.8867 173.852 79.8867H173.313V81.5251H173.698C173.795 81.5251 173.891 81.5052 173.968 81.4852C174.045 81.4652 174.122 81.4053 174.18 81.3453C174.218 81.3054 174.257 81.2254 174.295 81.1055C174.334 80.9857 174.372 80.8858 174.372 80.8058H174.565V82.5842H174.372C174.353 82.5042 174.334 82.3843 174.295 82.2645C174.257 82.1446 174.218 82.0447 174.18 82.0047C174.122 81.9248 174.045 81.8848 173.968 81.8648C173.891 81.8448 173.795 81.8249 173.698 81.8249H173.313V83.0437C173.313 83.1636 173.313 83.2635 173.333 83.3434C173.352 83.4234 173.371 83.4833 173.429 83.5233C173.467 83.5632 173.525 83.5832 173.602 83.6032C173.679 83.6232 173.775 83.6232 173.91 83.6232H174.122C174.199 83.6232 174.276 83.6232 174.353 83.6032C174.43 83.5832 174.488 83.5832 174.565 83.5632C174.622 83.5432 174.68 83.5233 174.699 83.4833C174.776 83.3834 174.873 83.2435 174.988 83.0437C175.084 82.8439 175.161 82.6841 175.2 82.6041H175.392L175.335 83.843ZM179.974 83.843H178.549C178.299 83.4234 178.107 83.0637 177.933 82.8039C177.779 82.5442 177.568 82.2445 177.317 81.9248H177.183V83.2036C177.183 83.2835 177.202 83.3434 177.221 83.3834C177.24 83.4433 177.298 83.4833 177.356 83.5033C177.394 83.5233 177.433 83.5432 177.51 83.5432C177.587 83.5632 177.645 83.5632 177.683 83.5832V83.823H175.7V83.5832C175.758 83.5832 175.816 83.5632 175.893 83.5632C175.97 83.5432 176.028 83.5432 176.066 83.5233C176.124 83.4833 176.182 83.4433 176.201 83.4034C176.22 83.3634 176.239 83.2835 176.239 83.2236V80.2264C176.239 80.1464 176.22 80.0865 176.201 80.0465C176.182 80.0066 176.143 79.9666 176.066 79.9267C176.008 79.9067 175.951 79.8867 175.874 79.8667C175.797 79.8467 175.739 79.8467 175.7 79.8268V79.587H177.779C178.241 79.587 178.607 79.6669 178.838 79.8467C179.088 80.0066 179.204 80.2663 179.204 80.606C179.204 80.9057 179.127 81.1455 178.973 81.3253C178.819 81.5052 178.588 81.645 178.28 81.7449C178.395 81.9248 178.53 82.1246 178.703 82.3444C178.857 82.5842 179.031 82.8039 179.204 83.0437C179.262 83.1236 179.339 83.2235 179.416 83.3235C179.512 83.4433 179.589 83.5033 179.666 83.5233C179.704 83.5432 179.762 83.5432 179.82 83.5632C179.878 83.5832 179.935 83.5832 179.955 83.5832V83.843H179.974ZM183.439 80.8258H183.227C183.169 80.646 183.092 80.4462 182.957 80.2464C182.842 80.0465 182.726 79.9267 182.63 79.9067C182.572 79.9067 182.515 79.8867 182.419 79.8867C182.342 79.8867 182.265 79.8667 182.207 79.8667H182.091V83.2036C182.091 83.2835 182.111 83.3434 182.13 83.4034C182.149 83.4633 182.188 83.5033 182.265 83.5432C182.303 83.5632 182.361 83.5832 182.457 83.6032C182.534 83.6232 182.611 83.6432 182.669 83.6432V83.8829H180.59V83.6432C180.648 83.6432 180.705 83.6232 180.802 83.6232C180.898 83.6032 180.956 83.6032 180.994 83.5832C181.071 83.5433 181.11 83.5033 181.129 83.4633C181.148 83.4034 181.167 83.3434 181.167 83.2635V79.9067H181.052C180.994 79.9067 180.917 79.9067 180.84 79.9267C180.763 79.9267 180.686 79.9466 180.628 79.9466C180.532 79.9666 180.417 80.0665 180.301 80.2863C180.186 80.4861 180.089 80.6859 180.051 80.8658H179.839V79.6469H183.439V80.8258ZM185.71 79.8467C185.652 79.8467 185.595 79.8667 185.518 79.8667C185.441 79.8867 185.364 79.8867 185.325 79.9067C185.267 79.9267 185.21 79.9666 185.19 80.0266C185.171 80.0865 185.152 80.1464 185.152 80.2264V83.2236C185.152 83.3035 185.171 83.3634 185.19 83.4034C185.21 83.4633 185.267 83.5033 185.325 83.5233C185.364 83.5432 185.421 83.5632 185.518 83.5832C185.595 83.6032 185.672 83.6032 185.729 83.6232V83.8629H183.67V83.6232C183.727 83.6232 183.785 83.6032 183.881 83.6032C183.978 83.6032 184.035 83.5832 184.074 83.5632C184.132 83.5432 184.189 83.5033 184.209 83.4433C184.228 83.4034 184.247 83.3235 184.247 83.2635V80.2464C184.247 80.1864 184.228 80.1265 184.209 80.0665C184.189 80.0066 184.151 79.9666 184.074 79.9466C184.035 79.9267 183.978 79.9067 183.881 79.8867C183.804 79.8667 183.727 79.8467 183.67 79.8467V79.607H185.71V79.8467ZM189.04 83.1436C188.963 83.3235 188.867 83.4633 188.732 83.5632C188.598 83.6831 188.424 83.783 188.251 83.843C188.059 83.9029 187.847 83.9429 187.616 83.9429C187.385 83.9429 187.173 83.9029 186.981 83.843C186.788 83.783 186.615 83.7031 186.48 83.6232L186.307 83.823H186.095L186.057 82.2844H186.288C186.345 82.4243 186.403 82.5842 186.48 82.744C186.557 82.9038 186.653 83.0437 186.75 83.1836C186.865 83.3235 186.981 83.4234 187.115 83.5033C187.25 83.5832 187.404 83.6232 187.577 83.6232C187.808 83.6232 188.001 83.5632 188.116 83.4234C188.251 83.2835 188.309 83.1236 188.309 82.9238C188.309 82.764 188.251 82.6241 188.155 82.5042C188.039 82.3843 187.885 82.3044 187.654 82.2045C187.5 82.1446 187.366 82.1046 187.25 82.0447C187.135 82.0047 187.019 81.9448 186.904 81.9048C186.653 81.7849 186.461 81.6251 186.345 81.4252C186.23 81.2054 186.172 80.9857 186.172 80.7059C186.172 80.5461 186.211 80.3862 186.268 80.2264C186.326 80.0665 186.422 79.9267 186.538 79.8068C186.653 79.6869 186.807 79.607 186.981 79.527C187.154 79.4471 187.366 79.4271 187.577 79.4271C187.789 79.4271 187.982 79.4671 188.155 79.527C188.328 79.587 188.482 79.6669 188.578 79.7268L188.732 79.547H188.963L188.983 80.9857H188.752C188.694 80.8258 188.636 80.666 188.559 80.5061C188.482 80.3463 188.405 80.2064 188.328 80.1065C188.251 79.9866 188.136 79.9067 188.039 79.8268C187.924 79.7468 187.789 79.7268 187.654 79.7268C187.462 79.7268 187.308 79.7868 187.192 79.9067C187.077 80.0266 187.019 80.1864 187.019 80.3662C187.019 80.5261 187.077 80.666 187.173 80.7858C187.269 80.8858 187.443 80.9857 187.654 81.0656C187.789 81.1255 187.924 81.1655 188.039 81.2054C188.174 81.2654 188.29 81.3054 188.405 81.3453C188.655 81.4652 188.848 81.6051 188.983 81.8049C189.117 82.0047 189.175 82.2445 189.175 82.5442C189.156 82.8039 189.117 82.9638 189.04 83.1436V83.1436ZM193.025 83.843H189.541V83.6032C189.599 83.6032 189.656 83.5832 189.733 83.5832C189.81 83.5632 189.868 83.5632 189.907 83.5432C189.964 83.5033 190.022 83.4633 190.041 83.4234C190.061 83.3834 190.08 83.3035 190.08 83.2435V80.2464C190.08 80.1664 190.061 80.1065 190.041 80.0665C190.022 80.0266 189.984 79.9866 189.907 79.9466C189.868 79.9267 189.791 79.9067 189.714 79.8867C189.637 79.8667 189.579 79.8467 189.522 79.8467V79.607H192.833V80.6859H192.64C192.582 80.5261 192.505 80.3662 192.371 80.2064C192.236 80.0465 192.12 79.9466 192.005 79.9067C191.947 79.8867 191.87 79.8867 191.793 79.8867C191.697 79.8867 191.62 79.8867 191.562 79.8867H191.023V81.5251H191.408C191.504 81.5251 191.601 81.5052 191.678 81.4852C191.755 81.4652 191.832 81.4053 191.889 81.3453C191.928 81.3054 191.966 81.2254 192.005 81.1055C192.043 80.9857 192.082 80.8858 192.082 80.8058H192.274V82.5842H192.082C192.063 82.5042 192.043 82.3843 192.005 82.2645C191.966 82.1446 191.928 82.0447 191.889 82.0047C191.832 81.9248 191.774 81.8848 191.678 81.8648C191.601 81.8448 191.504 81.8249 191.408 81.8249H191.023V83.0437C191.023 83.1636 191.023 83.2635 191.042 83.3434C191.062 83.4234 191.1 83.4833 191.139 83.5233C191.177 83.5632 191.235 83.5832 191.312 83.6032C191.389 83.6232 191.485 83.6232 191.62 83.6232H191.832C191.909 83.6232 191.986 83.6232 192.063 83.6032C192.14 83.5832 192.197 83.5832 192.274 83.5632C192.332 83.5432 192.39 83.5233 192.409 83.4833C192.486 83.3834 192.582 83.2435 192.698 83.0437C192.794 82.8439 192.871 82.6841 192.91 82.6041H193.102L193.025 83.843Z" fill="url(#paint7_linear)"/>
<defs>
<linearGradient id="paint0_linear" x1="109.873" y1="80.8068" x2="194.07" y2="80.8068" gradientUnits="userSpaceOnUse">
<stop stop-color="#808080"/>
<stop offset="0.1648" stop-color="#E6E6E6"/>
<stop offset="0.3681" stop-color="#CFCFCF"/>
<stop offset="0.5385" stop-color="#808080"/>
<stop offset="0.7697" stop-color="#C4C4C4"/>
<stop offset="0.9326" stop-color="#E3E3E3"/>
<stop offset="1" stop-color="#808080"/>
</linearGradient>
<linearGradient id="paint1_linear" x1="109.872" y1="80.7627" x2="194.071" y2="80.7627" gradientUnits="userSpaceOnUse">
<stop stop-color="#808080"/>
<stop offset="0.1648" stop-color="#E6E6E6"/>
<stop offset="0.3681" stop-color="#CFCFCF"/>
<stop offset="0.5385" stop-color="#808080"/>
<stop offset="0.7697" stop-color="#C4C4C4"/>
<stop offset="0.9326" stop-color="#E3E3E3"/>
<stop offset="1" stop-color="#808080"/>
</linearGradient>
<linearGradient id="paint2_linear" x1="109.871" y1="80.8068" x2="194.069" y2="80.8068" gradientUnits="userSpaceOnUse">
<stop stop-color="#808080"/>
<stop offset="0.1648" stop-color="#E6E6E6"/>
<stop offset="0.3681" stop-color="#CFCFCF"/>
<stop offset="0.5385" stop-color="#808080"/>
<stop offset="0.7697" stop-color="#C4C4C4"/>
<stop offset="0.9326" stop-color="#E3E3E3"/>
<stop offset="1" stop-color="#808080"/>
</linearGradient>
<linearGradient id="paint3_linear" x1="109.873" y1="81.7257" x2="194.068" y2="81.7257" gradientUnits="userSpaceOnUse">
<stop stop-color="#808080"/>
<stop offset="0.1648" stop-color="#E6E6E6"/>
<stop offset="0.3681" stop-color="#CFCFCF"/>
<stop offset="0.5385" stop-color="#808080"/>
<stop offset="0.7697" stop-color="#C4C4C4"/>
<stop offset="0.9326" stop-color="#E3E3E3"/>
<stop offset="1" stop-color="#808080"/>
</linearGradient>
<linearGradient id="paint4_linear" x1="109.871" y1="81.3635" x2="194.07" y2="81.3635" gradientUnits="userSpaceOnUse">
<stop stop-color="#808080"/>
<stop offset="0.1648" stop-color="#E6E6E6"/>
<stop offset="0.3681" stop-color="#CFCFCF"/>
<stop offset="0.5385" stop-color="#808080"/>
<stop offset="0.7697" stop-color="#C4C4C4"/>
<stop offset="0.9326" stop-color="#E3E3E3"/>
<stop offset="1" stop-color="#808080"/>
</linearGradient>
<linearGradient id="paint5_linear" x1="109.872" y1="80.7627" x2="194.068" y2="80.7627" gradientUnits="userSpaceOnUse">
<stop stop-color="#808080"/>
<stop offset="0.1648" stop-color="#E6E6E6"/>
<stop offset="0.3681" stop-color="#CFCFCF"/>
<stop offset="0.5385" stop-color="#808080"/>
<stop offset="0.7697" stop-color="#C4C4C4"/>
<stop offset="0.9326" stop-color="#E3E3E3"/>
<stop offset="1" stop-color="#808080"/>
</linearGradient>
<linearGradient id="paint6_linear" x1="109.873" y1="81.7257" x2="194.067" y2="81.7257" gradientUnits="userSpaceOnUse">
<stop stop-color="#808080"/>
<stop offset="0.1648" stop-color="#E6E6E6"/>
<stop offset="0.3681" stop-color="#CFCFCF"/>
<stop offset="0.5385" stop-color="#808080"/>
<stop offset="0.7697" stop-color="#C4C4C4"/>
<stop offset="0.9326" stop-color="#E3E3E3"/>
<stop offset="1" stop-color="#808080"/>
</linearGradient>
<linearGradient id="paint7_linear" x1="109.873" y1="44.496" x2="194.068" y2="44.496" gradientUnits="userSpaceOnUse">
<stop stop-color="#808080"/>
<stop offset="0.1648" stop-color="#E6E6E6"/>
<stop offset="0.3681" stop-color="#CFCFCF"/>
<stop offset="0.5385" stop-color="#808080"/>
<stop offset="0.7697" stop-color="#C4C4C4"/>
<stop offset="0.9326" stop-color="#E3E3E3"/>
<stop offset="1" stop-color="#808080"/>
</linearGradient>
</defs>
</svg>
