<svg width="305" height="88" viewBox="0 0 305 88" fill="none" xmlns="http://www.w3.org/2000/svg">
<path fill-rule="evenodd" clip-rule="evenodd" d="M237.44 48.4187V28.6863H225.179V54.8137H253V48.4187H237.44ZM190.089 54.8137H219.872V48.5627H201.998V44.3322H216.462V38.5163H201.998V34.7033H219.872V28.6863H190.089V54.8137ZM116.739 54.8137H146.525V48.5627H128.649V44.3322H143.114V38.5163H128.649V34.7033H146.525V28.6863H116.739V54.8137ZM98.0618 54.8137H110.321V28.6863H98.0618V54.8137ZM161.373 46.5554C162.557 49.0255 165.063 49.6889 168.059 49.6889C170.894 49.6889 173.25 49.1027 173.238 47.8419C173.226 46.1837 169.953 45.4458 167.757 45.0467C165.558 44.6473 166.717 44.9856 161.094 43.8122C155.47 42.6429 151.091 40.715 151.331 35.7113C151.55 31.198 158.167 28 167.708 28C176.349 28 183.865 30.576 184.222 35.9588H173.565C172.573 34.4348 171.177 33.4526 167.62 33.4526C164.847 33.4526 163.341 34.1168 163.328 35.1319C163.306 36.6188 165.111 37.2169 167.802 37.7176C170.351 38.1938 171.08 38.2407 175.874 39.245C180.583 40.2309 185.734 42.4459 185.514 46.8592C185.247 52.2059 179.891 55.3155 166.919 55.3961C158.265 55.449 150.114 52.1448 149.928 46.5554H161.373ZM71.6893 48.9873H70.1746V34.4066H72.0804C78.98 34.6151 80.54 35.5515 80.5265 41.4995C80.51 47.4628 79.5881 48.8902 71.6893 48.9873ZM69.9779 28.6863H58V54.7848H69.9779C91.2065 54.7848 93.074 50.6295 93.2166 41.7531C93.3545 33.3075 91.1091 28.6863 69.9779 28.6863Z" fill="#231F20"/>
</svg>
