<svg width="305" height="88" viewBox="0 0 305 88" fill="none" xmlns="http://www.w3.org/2000/svg">
<path fill-rule="evenodd" clip-rule="evenodd" d="M116.635 44.9777C115.329 37.006 109.093 33.4218 103.926 33.4218C98.8185 33.4218 92.4639 37.006 91.276 44.9777H116.635ZM91.276 48.8709C91.573 55.4831 97.512 61.1064 103.867 61.1064C109.806 60.9831 114.022 57.3369 115.507 53.135H119.902C117.645 59.8707 111.409 65 103.926 65C94.8394 65 87 57.3369 87 47.3263C87 37.7476 94.4237 29.7142 103.867 29.5288C110.994 29.5905 116.042 33.9782 118.358 38.1802C120.258 41.3938 120.912 44.6688 120.912 47.6352C120.912 48.0678 120.852 48.4383 120.852 48.8709H91.276ZM130.127 54.1857C130.246 60.6124 134.462 61.1064 135.947 61.1064C139.867 61.1064 142.005 58.6966 142.005 55.0505C142.005 50.4161 137.966 49.3656 135.531 48.3149C132.205 47.1406 126.92 45.2866 126.92 38.9217C126.92 34.1634 130.186 29.5288 136.185 29.5288C140.995 29.5288 145.033 33.3601 145.033 38.6128V38.7365H140.876C140.579 34.596 137.848 33.4218 136.006 33.4218C132.681 33.4218 131.077 36.2028 131.077 38.4891C131.077 42.0735 134.522 43.3091 136.897 44.1127C140.698 45.4104 146.162 47.5732 146.162 54.5563V54.6799C146.162 60.4269 142.777 65 135.947 65C131.493 65 125.969 61.9102 125.969 54.5563V54.1857H130.127ZM154.924 54.1857C155.043 60.6124 159.26 61.1064 160.744 61.1064C164.664 61.1064 166.802 58.6966 166.802 55.0505C166.802 50.4161 162.764 49.3656 160.329 48.3149C157.003 47.1406 151.717 45.2866 151.717 38.9217C151.717 34.1634 154.983 29.5288 160.982 29.5288C165.792 29.5288 169.831 33.3601 169.831 38.6128V38.7365H165.674C165.377 34.596 162.645 33.4218 160.804 33.4218C157.478 33.4218 155.874 36.2028 155.874 38.4891C155.874 42.0735 159.319 43.3091 161.695 44.1127C165.495 45.4104 170.959 47.5732 170.959 54.5563V54.6799C170.959 60.4269 167.574 65 160.744 65C156.29 65 150.767 61.9102 150.767 54.5563V54.1857H154.924ZM176.233 64.1965V30.3938H180.391V64.1965H176.233ZM215.633 44.9777C214.326 37.006 208.09 33.4218 202.923 33.4218C197.816 33.4218 191.461 37.006 190.274 44.9777H215.633ZM190.274 48.8709C190.571 55.4831 196.509 61.1064 202.864 61.1064C208.803 60.9831 213.02 57.3369 214.504 53.135H218.899C216.643 59.8707 210.407 65 202.923 65C193.837 65 185.997 57.3369 185.997 47.3263C185.997 37.7476 193.421 29.7142 202.864 29.5288C209.991 29.5905 215.039 33.9782 217.355 38.1802C219.256 41.3938 219.909 44.6688 219.909 47.6352C219.909 48.0678 219.849 48.4383 219.849 48.8709H190.274ZM180.791 24.4924C180.791 25.869 179.718 26.985 178.396 26.985C177.072 26.985 176 25.869 176 24.4924C176 23.116 177.072 22 178.396 22C179.718 22 180.791 23.116 180.791 24.4924Z" fill="#1A1919"/>
</svg>
