<svg width="305" height="88" viewBox="0 0 305 88" fill="none" xmlns="http://www.w3.org/2000/svg">
<path fill-rule="evenodd" clip-rule="evenodd" d="M129.159 70.1412V67.7182H132.489C133.404 67.7182 134.207 67.8007 134.207 68.9235C134.207 70.0581 133.404 70.1412 132.489 70.1412H129.159ZM127.566 75.0447H129.159V71.6374H132.138C133.524 71.6374 135.802 71.6374 135.802 68.938C135.802 66.2345 133.524 66.2345 132.138 66.2345H127.566V75.0447Z" fill="black"/>
<path fill-rule="evenodd" clip-rule="evenodd" d="M140.963 71.5463L142.676 67.6049L144.392 71.5463H140.963ZM137.721 75.045H139.423L140.295 73.0279H145.024L145.883 75.045H147.574L143.592 66.2292H141.761L137.721 75.045Z" fill="black"/>
<path fill-rule="evenodd" clip-rule="evenodd" d="M153.164 70.1414V67.6512H156.274C157.583 67.6512 158.253 67.8604 158.253 68.896C158.253 69.933 157.583 70.1414 156.274 70.1414H153.164ZM151.569 75.045H153.164V71.5635H155.71L158.104 75.045H160.071L157.563 71.4472C158.769 71.3834 159.846 70.4822 159.846 68.8551C159.846 66.7009 158.457 66.2299 156.508 66.2299H151.569V75.045Z" fill="black"/>
<path fill-rule="evenodd" clip-rule="evenodd" d="M164.853 75.0454H166.448V66.2296H164.853V75.0454Z" fill="black"/>
<path fill-rule="evenodd" clip-rule="evenodd" d="M177.792 68.9045C177.536 68.1287 176.871 67.4464 174.922 67.4464C173.833 67.4464 172.744 67.7422 172.744 68.5464C172.744 68.9232 172.949 69.3209 174.584 69.5307L176.518 69.8528C178.359 70.1548 179.438 70.914 179.438 72.3888C179.438 74.4606 177.592 75.253 175.409 75.253C171.89 75.253 171.031 73.3737 170.842 72.7074L172.381 72.1927C172.677 72.8328 173.286 73.7644 175.45 73.7644C176.764 73.7644 177.843 73.3017 177.843 72.5418C177.843 71.9738 177.229 71.6039 176.058 71.4467L174.099 71.1558C172.207 70.8815 171.153 69.9907 171.153 68.6552C171.153 66.0299 174.335 66.0299 174.963 66.0299C178.497 66.0299 179.096 67.7762 179.305 68.3774L177.792 68.9045Z" fill="black"/>
<path fill-rule="evenodd" clip-rule="evenodd" d="M239.33 52.3938C240.006 58.4978 242.966 57.589 243.116 58.123C243.116 58.123 231.69 58.1071 231.685 58.0849C231.628 57.8681 234.969 58.0184 234.298 52.6515L231.322 28.8149C231.204 28.1866 231.204 27.4711 230.872 27.629C230.641 27.7454 220.797 53.383 220.797 53.383C220.654 53.8014 220.408 54.068 220.086 53.4578C219.856 53.0166 210.885 31.7574 210.885 31.7574C210.44 30.6927 209.653 28.9901 209.525 28.6909C209.29 28.1617 208.942 28.0952 208.968 29.8802L206.63 54.0431C206.083 58.2567 209.775 57.9353 209.73 58.1985H201.614C201.511 57.9935 204.33 58.389 204.952 53.96L207.617 27.2937C207.419 22.1235 204.059 22.4006 204.059 21.9684H212.563L212.686 22.2565L221.722 43.4755C221.851 43.7249 221.928 43.8579 221.993 44.002C222.259 44.6115 222.228 45.0361 222.536 44.2257L231.393 21.9407L239.577 21.9684C239.628 22.2815 236.288 22.1235 236.288 26.5498L239.33 52.3938Z" fill="black"/>
<path fill-rule="evenodd" clip-rule="evenodd" d="M52.6926 56.9287L48.0693 56.937C46.463 56.8705 44.5328 57.1947 44.5328 55.1353V27.0886C44.5328 22.7531 49.0047 22.7392 49.2967 22.3977H35.5393C35.3425 22.7059 39.746 22.8251 39.746 27.2465V54.3034C39.6763 57.8798 35 57.9629 35 58.1735H59.3662L60.724 50.4244C60.2026 50.3745 60.5732 56.8179 52.6926 56.9287Z" fill="black"/>
<path fill-rule="evenodd" clip-rule="evenodd" d="M104.609 54.436C105.08 58.8962 108.232 57.7609 108.235 58.1897L99.4002 58.1987C99.4258 57.7692 102.939 58.1813 102.88 54.1645V53.7579V26.9801C102.947 22.2892 99.1446 22.2816 99.0469 21.9152H107.9L126.242 46.3808L126.188 26.5257C126.065 21.724 122.657 22.0676 122.603 21.8154H131.855C131.819 22.0516 128.195 22.1396 128.011 26.5257L127.981 57.2698C127.981 57.2698 128.303 59.6034 126.981 57.7609C126.403 56.9594 104.938 27.6811 104.938 27.6811C104.739 27.4373 104.647 27.7116 104.632 28.4306L104.609 54.0315V54.436Z" fill="black"/>
<path fill-rule="evenodd" clip-rule="evenodd" d="M92.731 53.6271L80.3958 22.1238C79.4981 21.0418 79.1914 22.2727 79.1914 22.2727C77.9717 25.3004 66.7048 54.5082 66.7048 54.5082C65.1682 58.4059 63.1735 57.9432 63.1735 58.2064H71.1441C71.1441 57.7769 66.8377 58.4897 68.3137 54.4334L72.5785 43.1835C73.0238 42.4769 73.052 42.2636 74.1049 42.2636C75.8722 42.2636 81.2552 42.2497 82.0756 42.2497C83.0525 42.2497 83.0985 42.2497 83.5202 43.2929L87.5531 53.9242C88.7294 58.1815 85.1367 57.9432 85.1878 58.2064H96.5154C96.6176 57.8351 94.7871 59.0549 92.731 53.6271ZM74.8748 40.5229C73.9822 40.5229 74.1024 39.9653 74.448 39.0724C74.448 39.0724 77.4574 30.9999 77.8158 30.0128C78.2758 28.7569 78.7717 29.007 79.1122 30.0959L82.142 39.2192C82.4417 40.2285 82.8122 40.5229 81.7995 40.5229C80.999 40.5249 75.1764 40.5229 74.8748 40.5229Z" fill="black"/>
<path fill-rule="evenodd" clip-rule="evenodd" d="M196.995 20.197L183.442 13L169.906 20.197L183.442 15.7361L196.995 20.197Z" fill="black"/>
<path fill-rule="evenodd" clip-rule="evenodd" d="M183.519 21.2915C172.969 21.2915 166.157 30.3456 166.157 39.9711C166.157 49.5953 172.882 58.1818 183.432 58.1818C193.993 58.1818 200.907 49.5953 200.907 39.9711C200.907 30.3456 194.08 21.2915 183.519 21.2915ZM183.442 56.829C183.407 56.829 183.371 56.8352 183.335 56.8352H183.33C176.851 56.8352 172.57 50.2755 172.57 40.0487C172.57 28.3361 176.948 22.6644 183.427 22.6644H183.442C189.917 22.672 194.326 28.3444 194.326 40.0487C194.326 50.2208 189.866 56.7542 183.442 56.829Z" fill="black"/>
<path fill-rule="evenodd" clip-rule="evenodd" d="M151.348 56.7455C158.974 56.6132 162.383 50.9069 163.067 50.6492C163.406 50.5301 159.35 58.1233 151.251 58.1233C133.069 58.1233 133.389 40.3864 133.389 40.3864C133.951 27.9236 143.316 20.496 152.284 21.517C154.688 21.7913 155.742 22.1979 157.506 22.8109C158.334 23.0936 160.567 24.4027 161.457 24.0425C162.08 23.7918 162.536 22.3815 162.689 22.2894L162.776 32.0146C162.137 32.0146 160.137 22.6641 151.477 22.6641C144.385 22.6641 138.999 31.3988 139.114 39.9403C139.303 54.2283 148.556 56.801 151.348 56.7455Z" fill="black"/>
<path fill-rule="evenodd" clip-rule="evenodd" d="M255.025 40.3037L255.036 49.2358V53.9239C255.062 56.6288 254.836 56.9592 256.468 56.9703L265.469 56.9592C267.663 56.8124 269.074 56.2056 269.985 55.4346C272.056 53.6662 271.575 51.0153 271.995 50.9211L271.785 58.1818H246.495C246.393 57.9186 250.254 58.6141 250.254 52.6597V47.9606V27.6095C250.254 21.6497 246.695 22.5502 246.741 22.0819H271.785L272 29.2484C271.498 29.2069 272.823 23.6342 265.377 23.1438H257.061C255.62 23.1438 255.036 23.1576 255.036 26.1182L255.025 33.8333L255.057 35.5518C255.057 36.8714 255.077 36.994 256.8 36.994H264.84C268.89 36.994 268.343 33.0575 268.701 33.0575C268.716 33.0575 268.701 42.3803 268.701 42.3803C268.343 42.3803 268.875 38.0607 265.024 38.1944H256.892C255.108 38.1605 255.057 38.8483 255.057 40.1707L255.025 40.3037Z" fill="black"/>
</svg>
