<svg xmlns="http://www.w3.org/2000/svg" xmlns:xlink="http://www.w3.org/1999/xlink" width="305" height="88" viewBox="0 0 305 88" enable-background="new 0 0 305 88">
	<path fill="#005ECA" d="M70,77.4c-3.7-0.6-7.6-0.6-11.3,0c3.8-21.3,6.6-42.6,9.5-64c1.3,0.1,2.6,0.3,3.9,0.3c2.1,0,4.1-0.1,6.2-0.2
		h0.2c0.9-0.1,0.9-0.1,1.2,0.7c2.8,5.9,5.6,11.8,8.4,17.6c3.3,6.8,6.7,13.5,10,20.2l0.8,1.6l1.8-3.5c2.6-5,5.2-10.1,7.8-15.1
		c2.4-4.8,4.8-9.7,7.1-14.6c1.1-2.2,2-4.4,3-6.6c0.1-0.3,0.4-0.5,0.7-0.4c1.9,0.1,3.9,0.3,5.8,0.3c1.4,0,2.9-0.2,4.4-0.3
		c0.1,0.6,0.2,1.2,0.2,1.8c0.4,3.8,0.8,7.5,1.2,11.3c0.3,3.2,0.7,6.5,1,9.7c0.4,3.4,0.8,6.8,1.2,10.2c0.4,3.2,0.7,6.3,1.1,9.5
		c0.4,3.4,0.9,6.7,1.4,10c0.6,3.8,1.2,7.6,1.8,11.3c0,0,0,0.1,0,0.2c-6.3-0.6-12.6-0.6-18.8,0c-0.5-6.1-1-12.3-1.5-18.4
		s-1.2-12.2-2-18.3c-0.4,0.7-0.7,1.4-1.1,2.1c-3.9,8.1-7.8,16.3-11.7,24.5c-1.5,3.2-3,6.4-4.4,9.6c-0.2,0.4-0.4,0.4-0.7,0.4
		c-1.8,0-3.5,0-5.2,0c-0.3,0.1-0.6-0.1-0.7-0.4c-2.1-4.5-4.2-9-6.4-13.4c-3.8-7.8-7.6-15.6-11.3-23.3l-0.2-0.1
		C71.4,52.5,70.4,64.9,70,77.4z"/>
	<path fill="#005ECA" d="M227.4,74.1c-2.2,2.4-5.2,3.8-8.5,4.1c-3,0.5-6,0.2-8.8-0.9c-3.3-1.3-5.8-4.2-6.6-7.7
		c-0.8-2.9-0.7-5.9,0.1-8.7c0.8-2.7,2.7-5,5.2-6.4c3-1.6,6.1-2.8,9.4-3.6c1.7-0.3,3.4-0.9,4.9-1.6c1.4-0.6,2.3-1.8,2.6-3.2
		c0.2-2.1-0.6-4.1-2.3-5.3c-2.1-1.6-4.5-1.6-6.9-0.8c-2.2,0.8-4.1,2.4-5.4,4.4c-0.2,0.3-0.3,0.5-0.5,0.8c-0.2,0.1-0.4,0.2-0.5,0.2
		s-0.3-0.2-0.3-0.3c-0.8-2.1-1.5-4.2-2.3-6.3c-0.1-0.4,0.1-0.5,0.3-0.7c3.1-2.9,6.9-5,11.1-6c4.6-1.1,9.5-0.8,13.9,0.9
		c3.1,1.1,5.7,3.2,7.4,6c1,1.7,1.5,3.7,1.5,5.6c0,7.4,0,14.7,0,22.1c0,0.7,0.1,1.4,0.2,2c0.3,2,1.5,2.5,3.2,2.7c0.5,0,0.9,0,1.5,0
		v0.8c0,1.1,0,2.2,0,3.3c0,0.2-0.1,0.4-0.3,0.5c-1.9,0.7-3.8,1.5-5.8,2c-2.2,0.5-4.5,0.5-6.6-0.2c-1.9-0.4-3.7-1.3-5.2-2.6
		C228.1,74.9,227.8,74.5,227.4,74.1z M225.9,55.3c-2.1,0.6-4.1,1.7-5.6,3.3c-1,1.2-1.5,2.6-1.6,4.1c-0.2,1.6,0.1,3.3,0.9,4.7
		c0.7,1.2,2,1.8,3.4,1.6c1.2-0.1,2.3-1,2.6-2.2c0.5-1.7,0.7-3.5,0.6-5.3c0-1.1-0.1-2.3-0.2-3.4C226,57.2,225.9,56.3,225.9,55.3
		L225.9,55.3z"/>
	<path fill="#005ECA" d="M185.8,45.2c2.2-3.3,4.3-6.4,6.4-9.6c0.6-1,1.2-2,1.8-3c0.1-0.3,0.4-0.4,0.7-0.4c2.4,0.1,4.7,0.2,7.1,0.2
		c1,0,1.9-0.1,3-0.2l-1.1,1.4l-13.8,17.6c-0.2,0.2-0.2,0.5,0,0.7c4.6,7.6,9.1,15.2,13.6,22.8l1.5,2.5c0.1,0.1,0.1,0.2,0.2,0.4
		c-1.2-0.1-2.3-0.2-3.4-0.2c-3-0.1-6-0.1-9-0.1c-2,0-3.9,0.2-5.9,0.4c-0.5,0-0.6-0.4-0.7-0.6c-1.7-3-3.3-6.1-5-9.1l-2-3.6
		c-0.5,0.7-0.9,1.3-1.3,2c-2.3,3.6-4.6,7.2-6.9,10.8c-0.1,0.3-0.4,0.4-0.7,0.4c-2-0.1-4.1-0.2-6.1-0.2c-1.4,0-2.8,0.1-4.3,0.2
		L161,76l11.8-16.3c0.6-0.8,1.1-1.6,1.7-2.4c0.2-0.2,0.2-0.6,0-0.8c-2.9-4.9-5.8-9.9-8.7-14.9c-1.8-3-3.5-5.9-5.3-8.8
		c0-0.1-0.1-0.2-0.2-0.4l1.2,0.1c3.5,0.3,7,0.4,10.5,0.3c2.1-0.1,4.2-0.2,6.3-0.4c0.4-0.1,0.7,0.1,0.8,0.5l6.6,12.1L185.8,45.2z"/>
	<path fill="#005ECA" d="M157.3,77.6c-5.6-0.6-11.3-0.6-16.9,0c0.5-15.1,0.6-30.2,0-45.4c5.6,0.6,11.3,0.6,16.9,0
		C156.8,47.3,156.8,62.4,157.3,77.6z"/>
	<path fill="#005ECA" d="M157.6,18.3c0,4.8-3.9,8.7-8.7,8.8c-4.8,0-8.7-3.9-8.8-8.7l0,0c0-4.8,3.9-8.7,8.7-8.8
		C153.7,9.6,157.6,13.5,157.6,18.3z"/>
</svg>
