<svg version="1.2" xmlns="http://www.w3.org/2000/svg" viewBox="0 0 1190 447" width="1190" height="447">
	<title>LOREAL_0322140_ORI-ai</title>
	<style>
		tspan { white-space:pre } 
		.s0 { fill: #18171b } 
		.t1 { font-size: 39px;fill: #18181b;font-family: "Trenda" } 
	</style>
	<g id="Calque 1">
		<g id="&lt;Group&gt;">
			<g id="&lt;Group&gt;">
				<path id="&lt;Path&gt;" class="s0" d="m630.5 233.9h103.1v-12.6h-85.5v-40.3h64.2v-12.7h-64.2v-37.1h85.5v-12.6h-103.1z"/>
				<path id="&lt;Path&gt;" class="s0" d="m684.1 100l-14 15.6 43.8-15.6z"/>
				<path id="&lt;Path&gt;" class="s0" d="m890.6 118.6v115.3h104.2v-12.6h-88.1v-102.7z"/>
				<path id="&lt;Compound Path&gt;" fill-rule="evenodd" class="s0" d="m823 118.6l58.7 115.3h-19.6l-15.2-29.8h-70.3l-15 29.8h-19.8l58.6-115.3zm16.6 71l-27.9-55.1-27.7 55.1z"/>
				<path id="&lt;Compound Path&gt;" fill-rule="evenodd" class="s0" d="m609.9 233.9h-20.9l-34.8-48.3h-47.4v48.3h-16.5v-115.3h72.7c24.9 0 38.8 12.8 40.4 33.4 0.1 7-2.5 26.7-28.9 33.7 10.3 15.7 35.4 48.2 35.4 48.2zm-26.9-71.3c2.8-4.7 3.9-11.5 2.2-16.7-2.6-7.7-9.8-13.6-22.6-13.6h-55.8v39.6h53.9c8.8 0 17.6-1.6 22.3-9.3z"/>
				<path id="&lt;Compound Path&gt;" fill-rule="evenodd" class="s0" d="m469.3 172c0 42.4-35.2 71.7-78.6 71.7-43.5 0-78.7-29.7-78.7-71.7 0-39.9 31.9-72.9 78.7-72.9 46.3 0 78.6 33 78.6 72.9zm-18.9 0c0-31.3-25-58.5-59-58.5-34.9 0-60.3 27.2-60.3 58.5 0 31.3 26.7 57.3 59 57.3 32.4 0 60.3-26 60.3-57.3z"/>
				<path id="&lt;Path&gt;" class="s0" d="m270.3 159.4h11.9l21.7-40.8h-17.4z"/>
				<path id="&lt;Path&gt;" class="s0" d="m195.7 118.6v115.3h104.2v-12.6h-88.1v-102.7z"/>
			</g>
			<g id="&lt;Group&gt;">
				<path id="&lt;Compound Path&gt;" fill-rule="evenodd" class="s0" d="m179.1 310.1c0 16.5-11.5 27.5-28.7 27.5h-18.5v-54.8h18.5c17.2 0 28.7 10.9 28.7 27.3zm-5.7 0.1c0-13.4-9-22.4-22.7-22.4h-13.3v44.8h13.3c13.7 0 22.7-9 22.7-22.4z"/>
				<path id="&lt;Compound Path&gt;" fill-rule="evenodd" class="s0" d="m227 321.4h-29.3c0.8 7.2 6.5 12.2 14.2 12.2 5.2 0 8.4-2.1 10.8-4l2.5 4c-2.8 2.3-6.9 4.7-13.8 4.7-11.1 0-19.1-7.9-19.1-18.6 0-10.6 7.4-18.7 18.1-18.7 9.9 0 16.7 7.3 16.7 18 0 1.4-0.1 2.4-0.1 2.4zm-29.1-4.5h23.9c-0.4-6.8-5.1-11.1-11.2-11.1-6.7 0-11.6 4.4-12.7 11.1z"/>
				<path id="&lt;Compound Path&gt;" class="s0" d="m262.5 301.3l-0.5 5.5c-1-0.3-2-0.5-3.3-0.5-7.6 0-11 6.1-11.1 11.3v20h-5.5v-35.9h4.8l0.3 7.5c1.4-4.4 5.7-8.2 12.4-8.2 1.1 0 2.1 0.1 2.9 0.3z"/>
				<path id="&lt;Compound Path&gt;" class="s0" d="m333.8 317.6v20h-5.5v-19.3c0-7.4-3.8-12.2-10.2-12.2-6.5 0-10.7 5.5-10.7 11.9v19.6h-5.6v-19.3c0-7.4-3.8-12.3-10.2-12.2-6.5 0-10.2 5.3-10.7 10.2v21.3h-5.6v-35.9h4.5l0.3 6.7c2-4 6.6-7.4 12.4-7.4 6.4 0 11.1 3.2 13.3 8.4 1.9-4.4 6.6-8.4 12.9-8.4 9.2 0 15.1 6.7 15.1 16.6z"/>
				<path id="&lt;Compound Path&gt;" fill-rule="evenodd" class="s0" d="m385.1 301.7v35.9h-4.8l-0.1-6.5c-2.8 4.2-7.5 7.2-14.2 7.2-9.8 0-17.4-7.9-17.4-18.6 0-10.7 7.5-18.7 17.2-18.7 7 0 11.9 3.2 14.4 7.1l0.1-6.4zm-5.3 18c0-7.8-5.2-13.6-12.9-13.6-7.1 0-12.8 5.8-12.8 13.6 0 7.8 5.7 13.5 12.8 13.5 7.7 0 12.9-5.7 12.9-13.5z"/>
				<path id="&lt;Compound Path&gt;" class="s0" d="m405.4 325.9v-19.7h-7.3v-4.5h7.4v-12.3h5.4v12.3h15v4.5h-15v19.7c0 5.2 2.8 7.5 8 7.5 4.1 0 6.3-2.2 7.2-2.7l2.1 4.3c-1.1 0.8-4.3 3.3-10.2 3.3-7.3 0-12.6-4.4-12.6-12.4z"/>
				<path id="&lt;Compound Path&gt;" fill-rule="evenodd" class="s0" d="m437.1 319.7c0-10.6 8.4-18.6 18.7-18.6 10.2 0 18.7 8 18.7 18.6 0 10.7-8.5 18.6-18.7 18.6-10.3 0-18.7-7.9-18.7-18.6zm31.8 0c0-7.7-6-13.5-13.1-13.5-7.1 0-13.1 5.8-13.1 13.5 0 7.7 6 13.5 13.1 13.5 7.1 0 13.1-5.8 13.1-13.5z"/>
				<path id="&lt;Compound Path&gt;" class="s0" d="m490 281.9h5.5v55.7h-5.5z"/>
				<path id="&lt;Compound Path&gt;" fill-rule="evenodd" class="s0" d="m510.9 319.7c0-10.6 8.4-18.6 18.7-18.6 10.2 0 18.7 8 18.7 18.6 0 10.7-8.5 18.6-18.7 18.6-10.3 0-18.7-7.9-18.7-18.6zm31.8 0c0-7.7-6-13.5-13.1-13.5-7.1 0-13.1 5.8-13.1 13.5 0 7.7 6 13.5 13.1 13.5 7.1 0 13.1-5.8 13.1-13.5z"/>
				<path id="&lt;Compound Path&gt;" fill-rule="evenodd" class="s0" d="m597.6 301.8v33.9c0 10.1-6.6 17.8-18.9 17.8-7.9 0-12.6-2.2-15.8-4.4l2.5-4.2c2.7 1.7 6.9 3.8 13 3.8 8.7 0 13.7-5.4 13.7-12.4v-4.6c-2.8 3.8-7.4 6.6-13.6 6.6-9.7 0-17.4-7.9-17.4-18.6 0-10.7 7.5-18.7 17.3-18.7 6.9 0 11.7 3.3 14.2 7.2l0.2-6.4zm-5.2 17.9c0-7.8-5.3-13.6-13-13.6-7 0-12.8 5.8-12.8 13.6 0 7.8 5.8 13.5 12.8 13.5 7.7 0 13-5.7 13-13.5z"/>
				<path id="&lt;Compound Path&gt;" class="s0" d="m613.8 290c0-2.5 1.9-4.1 4.3-4.2 2.5 0 4.4 1.7 4.4 4.2 0 2.5-1.9 4.2-4.4 4.2-2.4 0-4.3-1.7-4.3-4.2zm1.7 11.7h5.5v35.9h-5.6z"/>
				<path id="&lt;Compound Path&gt;" class="s0" d="m636.3 319.7c0-10.6 8.4-18.7 19.3-18.7 6 0 9.5 1.7 12.2 3.8l-2.6 4c-2.3-1.5-5.2-2.7-9.1-2.7-8.4 0-14.2 5.8-14.2 13.6 0 7.8 5.7 13.5 13.7 13.5 4.6 0 7.2-1.1 9.6-2.6l2.4 4.3c-2.7 1.7-6 3.4-12 3.4-11.7 0-19.3-8-19.3-18.6z"/>
				<path id="&lt;Compound Path&gt;" fill-rule="evenodd" class="s0" d="m715.4 301.7v35.9h-4.8l-0.2-6.5c-2.7 4.2-7.5 7.2-14.2 7.2-9.7 0-17.4-7.9-17.4-18.6 0-10.7 7.5-18.7 17.3-18.7 7 0 11.8 3.2 14.3 7.1l0.2-6.4zm-5.3 18c0-7.8-5.3-13.6-13-13.6-7 0-12.8 5.8-12.8 13.6 0 7.8 5.8 13.5 12.8 13.5 7.7 0 13-5.7 13-13.5z"/>
				<path id="&lt;Compound Path&gt;" class="s0" d="m733.3 281.9h5.6v55.7h-5.6z"/>
				<path id="&lt;Compound Path&gt;" fill-rule="evenodd" class="s0" d="m823.1 322c0 9.8-6.8 15.6-19.3 15.6h-19.7v-54.8h17.8c13.8 0 19.6 6 19.6 14.6 0 5.5-3.5 9.9-8.1 12.1 6 2 9.7 6.9 9.7 12.5zm-21.4-34.2h-12v19.5h14.5c7.1 0 11.5-3.6 11.5-9.2 0-6.3-4.3-10.3-14-10.3zm15.7 33.9c0-4.8-3.9-9.4-13.2-9.4h-14.5v20.3h13.9c8.5 0 13.8-4 13.8-10.9z"/>
				<path id="&lt;Compound Path&gt;" fill-rule="evenodd" class="s0" d="m871.7 321.4h-29.3c0.8 7.2 6.5 12.2 14.2 12.2 5.2 0 8.3-2.1 10.7-4l2.6 4c-2.8 2.3-6.9 4.7-13.9 4.7-11 0-19-7.9-19-18.6 0-10.6 7.3-18.7 18.1-18.7 9.8 0 16.7 7.3 16.7 18 0 1.4-0.1 2.4-0.1 2.4zm-29.2-4.5h24c-0.4-6.8-5.2-11.1-11.2-11.1-6.8 0-11.7 4.4-12.8 11.1z"/>
				<path id="&lt;Compound Path&gt;" fill-rule="evenodd" class="s0" d="m920.9 301.7v35.9h-4.8l-0.2-6.5c-2.7 4.2-7.5 7.2-14.2 7.2-9.7 0-17.4-7.9-17.4-18.6 0-10.7 7.5-18.7 17.3-18.7 7 0 11.8 3.2 14.3 7.1l0.2-6.4zm-5.3 18c0-7.8-5.2-13.6-13-13.6-7 0-12.8 5.8-12.8 13.6 0 7.8 5.8 13.5 12.8 13.5 7.8 0 13-5.7 13-13.5z"/>
				<path id="&lt;Compound Path&gt;" class="s0" d="m971.2 301.7v35.9h-4.9l-0.1-6.2c-2.1 3.8-6.6 6.9-12.6 6.9-9.3 0-15.5-6.6-15.5-16.7v-19.9h5.5v18.9c0 7.5 4.2 12.4 10.6 12.4 7.6-0.1 11.3-6.2 11.4-11.3v-20z"/>
				<path id="&lt;Compound Path&gt;" class="s0" d="m991.4 325.9v-19.7h-7.3v-4.5h7.4v-12.3h5.4v12.3h15.1v4.5h-15.1v19.7c0 5.2 2.8 7.5 8 7.5 4.1 0 6.3-2.2 7.2-2.7l2.1 4.3c-1.1 0.8-4.3 3.3-10.2 3.3-7.3 0-12.6-4.4-12.6-12.4z"/>
				<path id="&lt;Compound Path&gt;" class="s0" d="m1043.7 336.6l-6.9 16.2h-5.7l6.3-15-15.7-36.1h6.2l12.4 29.7 12.4-29.7h6z"/>
			</g>
		</g>
		<text id="Dermatological Beauty
" style="transform: matrix(2,0,0,2,2.888,-455.344)" >
			<tspan x="43.2" y="29.6" class="t1" dx="0 3 3 3 3 3 3 3 3 3 3 3 3 3 3 3 3 3 3 3 3 3" >Dermatological Beauty
</tspan>
		</text>
	</g>
</svg>