<svg width="305" height="88" viewBox="0 0 305 88" fill="none" xmlns="http://www.w3.org/2000/svg">
<path d="M173.002 28.8108H167.562V58.7543H193.262V54.2426H173.002V28.8108Z" fill="#231F20"/>
<path d="M109.252 43.1051C109.252 48.0212 108.627 50.3211 107.327 51.9445C105.594 54.1084 102.707 54.9192 99.0982 54.9192C95.4874 54.9192 92.601 54.1084 90.8691 51.9445C89.5693 50.3211 88.9442 48.0212 88.9442 43.1051V28.8108H83.5042V43.197C83.5042 49.6446 84.6109 53.1616 86.9219 55.5057C89.5693 58.2119 93.7556 59.3849 99.0982 59.3849C104.439 59.3849 108.627 58.2119 111.273 55.5057C113.584 53.1616 114.689 49.6446 114.689 43.197V28.8108H109.252V43.1051Z" fill="#231F20"/>
<path d="M201.147 58.7543H227.625V54.2868H206.582V45.6311H226.759V41.1563H206.597V33.2783H227.625V28.8108H201.147V58.7543Z" fill="#231F20"/>
<path d="M157.384 55.0552V41.1562L143.582 42.9745V45.6293H151.946V52.3949C150.205 53.658 146.548 54.9192 141.784 54.9192C133.796 54.9192 128.156 50.231 128.156 43.6474C128.156 36.3412 135.144 32.4639 142.362 32.4639C147.318 32.4639 151.554 34.0854 154.297 36.1151L157.088 32.0134C153.815 29.7576 148.568 28 142.555 28C132.401 28 122.679 33.4548 122.679 43.6474C122.679 53.3418 131.099 59.3849 141.448 59.3849C147.607 59.3849 153.383 57.7615 157.384 55.0552Z" fill="#231F20"/>
<path d="M58.3757 41.1654L47.5672 28.8108H40L42.129 31.2633V58.7543H47.5672V36.6133L58.3757 48.8338L69.1842 36.6133V58.7543H74.6225V28.8108H69.1842L58.3757 41.1654Z" fill="#231F20"/>
<path d="M242.872 33.3059H253.559C255.721 33.3059 257.49 35.0745 257.49 37.2366C257.49 39.3987 255.721 41.1673 253.559 41.1673H242.872V33.3059ZM237.448 58.7653H242.872V45.6459H248.503L260.187 58.7653H265L255.806 45.6017C260.027 45.1697 263.347 41.5718 263.347 37.2366C263.347 32.6018 259.554 28.8108 254.921 28.8108H235.301L237.447 31.9031L237.448 58.7653Z" fill="#231F20"/>
</svg>
