<svg width="305" height="88" viewBox="0 0 305 88" fill="none" xmlns="http://www.w3.org/2000/svg">
<path fill-rule="evenodd" clip-rule="evenodd" d="M166.459 15.0335V16.2045C166.459 23.5036 160.118 29.4432 152.323 29.4432C144.529 29.4432 138.187 23.5036 138.187 16.2045V15.0335H132.678V16.2045C132.678 25.2816 140.021 32.9576 149.57 34.2257V45.9738H155.077V34.2257C164.623 32.9568 171.968 25.2789 171.968 16.2045V15.0335H170.745H166.459ZM154.172 52.1737C153.263 52.1737 152.506 52.7869 152.323 53.6013C152.134 52.7869 151.381 52.1737 150.472 52.1737C149.426 52.1737 148.576 52.9874 148.576 53.9859C148.576 54.3304 148.683 54.6511 148.861 54.9285L148.847 54.9334L148.902 55.0008L152.259 59.0566L155.756 54.9913H155.746C155.95 54.703 156.069 54.3604 156.069 53.9859C156.069 52.9874 155.218 52.1737 154.172 52.1737ZM124.779 15.0074V40.7065C109.817 39.5151 98.2464 29.0164 98.2464 16.2296V15.0586L96.9899 15.0074H92.707V45.9272H98.2145V32.2261C104.264 40.3339 114.516 45.4788 125.955 45.9144C126.005 45.9204 127.533 45.9477 127.533 45.9477L129.064 45.9204H130.287V15.0074H129.064H124.779ZM205.297 45.9651H210.807V44.7934C210.807 38.8051 207.153 33.4726 201.517 30.4827C207.153 27.4936 210.807 22.1638 210.807 16.1701V15H209.579H205.297V16.1701C205.297 22.6302 199.438 27.8858 192.24 27.8858C185.044 27.8858 179.191 22.6302 179.191 16.1701V15H173.679V16.1701C173.679 22.1177 177.281 27.4074 182.837 30.411C181.553 31.095 180.333 31.865 179.257 32.8158C175.66 35.9953 173.679 40.248 173.679 44.7901V45.9651H179.191V44.7934C179.191 41.6347 180.569 38.6712 183.082 36.4497C184.867 34.8696 187.075 33.8051 189.472 33.343C190.373 33.169 191.3 33.0796 192.24 33.0796C199.438 33.0796 205.297 38.3352 205.297 44.7934V45.9651ZM176.671 71.6697C176.665 71.6244 176.661 71.5647 176.661 71.4919C176.661 71.3773 176.667 71.293 176.677 71.2409C176.688 71.188 176.702 71.1313 176.715 71.0822L176.72 71.0626L176.699 71.0656C176.543 71.0882 176.337 71.1073 176.086 71.1226C175.828 71.1384 175.572 71.1501 175.327 71.1577C175.088 71.1648 174.854 71.1687 174.632 71.1687H174.021C174.015 70.9491 174.01 70.7189 174.005 70.4775L174 70.2577C173.993 69.9282 173.989 69.5788 173.989 69.2199C173.989 68.8751 173.99 68.4695 173.994 68.0738C173.997 67.7246 174.005 67.3684 174.016 66.9852C174.027 66.6233 174.038 66.263 174.049 65.901C174.058 65.55 174.074 65.1801 174.096 64.7707L174.097 64.7541L174.08 64.7566C173.947 64.7765 173.821 64.792 173.704 64.8027C173.591 64.8127 173.465 64.8177 173.329 64.8177C173.175 64.8177 173.057 64.8147 172.958 64.8076C172.848 64.8007 172.723 64.7836 172.588 64.7568L172.57 64.7533V64.7702C172.57 64.8204 172.572 64.9115 172.576 65.0329C172.58 65.1651 172.585 65.3007 172.592 65.436C172.6 65.5786 172.605 65.7134 172.608 65.8372C172.612 65.9779 172.613 66.0595 172.613 66.1105C172.621 66.3355 172.627 66.521 172.629 66.662L172.632 66.7615C172.635 66.8606 172.638 66.9481 172.641 67.0226C172.644 67.1194 172.646 67.2113 172.646 67.2959V69.0273C172.646 69.0712 172.644 69.1719 172.641 69.311C172.638 69.422 172.634 69.548 172.63 69.6884L172.625 69.8308C172.619 69.9994 172.612 70.2241 172.608 70.4655C172.605 70.6581 172.601 70.8834 172.592 71.0939C172.585 71.2802 172.58 71.4485 172.576 71.5947C172.572 71.7221 172.57 71.8124 172.57 71.8421V71.8565L172.586 71.8557C172.921 71.8377 173.26 71.8227 173.652 71.8088C173.967 71.7987 174.301 71.7938 174.644 71.7938C174.791 71.7938 174.956 71.7954 175.133 71.7987C175.321 71.8025 175.507 71.8074 175.687 71.8143C175.874 71.8216 176.056 71.8284 176.231 71.8344C176.408 71.8421 176.564 71.8492 176.7 71.8557L176.72 71.8568L176.715 71.8383C176.693 71.7693 176.679 71.7139 176.671 71.6697ZM163.502 68.9836C163.352 68.9896 163.189 68.9929 163.007 68.9929C162.82 68.9929 162.632 68.9877 162.447 68.9777C162.271 68.9678 162.089 68.9596 161.906 68.9528L162.984 66.4662L163.978 68.9534C163.828 68.9665 163.671 68.9763 163.502 68.9836ZM166.467 71.0015C166.323 70.6919 166.18 70.3809 166.037 70.0686C165.919 69.815 165.766 69.4822 165.616 69.1612C165.48 68.8716 165.361 68.6097 165.26 68.3828C165.171 68.1932 165.067 67.963 164.926 67.636C164.823 67.3952 164.685 67.0736 164.533 66.7234C164.393 66.4002 164.252 66.0603 164.114 65.7134C163.976 65.3692 163.84 65.0154 163.709 64.6622L163.704 64.6502L163.692 64.6537C163.565 64.6878 163.45 64.705 163.352 64.705C163.29 64.705 163.229 64.6998 163.17 64.6892C163.112 64.6796 163.056 64.6668 162.999 64.6535L162.986 64.6505L162.982 64.663C162.918 64.8736 162.832 65.1141 162.719 65.3986C162.612 65.6667 162.477 65.982 162.309 66.3625C162.153 66.7135 161.968 67.1199 161.743 67.6049C161.603 67.906 161.451 68.232 161.287 68.583L161.011 69.1768L159.761 71.8366L159.749 71.8601L159.776 71.8554C159.864 71.8404 159.94 71.8268 160.008 71.8137C160.088 71.8003 160.172 71.7935 160.259 71.7935C160.338 71.7935 160.428 71.8003 160.526 71.814C160.624 71.8287 160.705 71.8426 160.773 71.8554L160.786 71.8579L160.789 71.8459C160.876 71.5502 160.999 71.2006 161.155 70.8056C161.324 70.3831 161.485 69.9945 161.648 69.6183C161.849 69.6047 162.058 69.5946 162.285 69.5873C162.501 69.5804 162.719 69.5772 162.931 69.5772C163.157 69.5772 163.389 69.5804 163.62 69.5873C163.861 69.5943 164.083 69.6047 164.301 69.6183L164.749 70.7028L165.202 71.847L165.206 71.8565L165.216 71.8557C165.317 71.8489 165.439 71.8366 165.578 71.8197C165.721 71.8023 165.867 71.7935 166.013 71.7935C166.159 71.7935 166.313 71.802 166.485 71.8197C166.653 71.8372 166.773 71.8489 166.851 71.8557L166.876 71.8579L166.865 71.8363C166.738 71.5797 166.599 71.2832 166.467 71.0015ZM232.752 71.1155L232.728 71.1168C232.494 71.1308 232.242 71.1411 231.98 71.1474C231.716 71.155 231.463 71.1618 231.219 71.1684L231.205 71.1689C230.967 71.1755 230.746 71.1804 230.547 71.1842C230.377 71.1872 230.247 71.1891 230.169 71.1894V68.4226C230.408 68.4226 230.655 68.4245 230.903 68.4281C231.133 68.4308 231.378 68.436 231.651 68.4431L232.061 68.4638C232.207 68.4711 232.344 68.4815 232.48 68.4954L232.504 68.4979L232.495 68.4766C232.46 68.3959 232.442 68.2794 232.442 68.1302C232.442 68.0552 232.447 67.9887 232.458 67.9322C232.468 67.882 232.48 67.8223 232.495 67.7626L232.5 67.744L232.48 67.7459C232.336 67.7595 232.159 67.7713 231.953 67.7816C231.754 67.7923 231.543 67.8007 231.307 67.8078C231.085 67.8149 230.869 67.8182 230.666 67.8182H230.169V65.4226H231.124C231.228 65.4226 231.314 65.4243 231.387 65.4278C231.465 65.4311 231.553 65.4365 231.651 65.4431L232.664 65.4952L232.687 65.4963L232.679 65.4763C232.643 65.3896 232.625 65.2628 232.625 65.0997C232.625 65.0429 232.63 64.9881 232.641 64.9382C232.649 64.9028 232.658 64.8635 232.668 64.8209L232.683 64.756L232.665 64.7568C232.277 64.7705 231.909 64.7838 231.571 64.7975C231.236 64.8111 230.937 64.8179 230.682 64.8179C230.535 64.8179 230.375 64.8163 230.208 64.813C230.031 64.8092 229.854 64.8043 229.682 64.7975C229.513 64.7912 229.347 64.7844 229.188 64.7781L229.167 64.7773C229 64.7705 228.852 64.7634 228.723 64.7568L228.706 64.756L228.708 64.7713C228.729 65.0394 228.745 65.3476 228.755 65.6877C228.766 66.0126 228.775 66.3513 228.783 66.7236C228.79 67.0616 228.795 67.372 228.799 67.6461C228.802 67.9093 228.804 68.1089 228.804 68.2232C228.804 68.3451 228.802 68.5063 228.799 68.7024C228.796 68.8645 228.793 69.033 228.79 69.2081L228.777 70.0018C228.773 70.2266 228.768 70.4063 228.761 70.5525C228.757 70.6602 228.754 70.7672 228.75 70.8727C228.747 70.9821 228.743 71.0904 228.739 71.1976C228.733 71.3806 228.724 71.5789 228.708 71.8407L228.707 71.8563L228.723 71.8552C229.415 71.8148 230.096 71.7941 230.747 71.7941C231.417 71.7941 232.084 71.8148 232.728 71.8552L232.75 71.8565L232.743 71.8372C232.708 71.7436 232.69 71.6203 232.69 71.4706C232.69 71.3225 232.708 71.2098 232.742 71.1359L232.752 71.1155ZM255.031 67.1426C254.989 67.3152 254.912 67.4822 254.803 67.6384C254.693 67.7945 254.541 67.9284 254.351 68.0361C254.161 68.1449 253.915 68.2 253.619 68.2C253.515 68.2 253.423 68.1962 253.336 68.1889C253.236 68.1809 253.15 68.1717 253.066 68.1599V65.3285C253.175 65.3162 253.29 65.3064 253.416 65.2985C253.533 65.292 253.663 65.2884 253.801 65.2884C254.237 65.2884 254.565 65.4204 254.777 65.6804C254.988 65.9417 255.096 66.2772 255.096 66.6775C255.096 66.8107 255.074 66.9669 255.031 67.1426ZM256.301 65.706C256.161 65.4832 255.984 65.2961 255.775 65.1504C255.523 64.9712 255.256 64.8597 254.982 64.8185C254.711 64.7773 254.443 64.7563 254.183 64.7563C254.125 64.7563 254.027 64.7596 253.891 64.7667C253.757 64.7732 253.61 64.7784 253.455 64.7819C253.297 64.7852 253.153 64.7904 253.013 64.7972C252.853 64.8059 252.759 64.8073 252.718 64.8073C252.426 64.8073 252.22 64.8027 252.066 64.7923C251.906 64.7819 251.763 64.7699 251.642 64.7563L251.625 64.7544L251.68 66.0693C251.686 66.171 251.691 66.2976 251.696 66.4561C251.699 66.6222 251.701 66.7787 251.701 66.935V67.8321L251.68 70.3575C251.68 70.4789 251.675 70.6474 251.663 70.888C251.652 71.1198 251.632 71.4406 251.604 71.8413L251.603 71.8587L251.621 71.8554C251.743 71.8353 251.863 71.8197 251.977 71.8096C252.09 71.7987 252.217 71.7935 252.366 71.7935C252.516 71.7935 252.645 71.7987 252.761 71.8096C252.879 71.8194 253.001 71.835 253.124 71.8554L253.143 71.8587L253.141 71.841C253.134 71.7603 253.125 71.6743 253.114 71.5781C253.104 71.4919 253.095 71.3855 253.086 71.254C253.081 71.1414 253.074 70.9906 253.07 70.8209C253.067 70.6431 253.066 70.4287 253.066 70.2236V68.6926C253.176 68.7049 253.285 68.7147 253.389 68.7218C253.493 68.7284 253.629 68.7319 253.792 68.7319C254.308 68.7319 254.745 68.6675 255.092 68.5402C255.44 68.4125 255.724 68.245 255.935 68.0424C256.147 67.8386 256.298 67.6095 256.384 67.3616C256.47 67.1145 256.514 66.8636 256.514 66.6154C256.514 66.2357 256.442 65.9297 256.301 65.706ZM244.838 64.7975C244.671 64.825 244.491 64.8253 244.337 64.7975C244.289 64.7896 244.242 64.7814 244.195 64.7729C244.163 64.7675 244.132 64.7617 244.099 64.7566L244.082 64.7533L244.083 64.7707C244.126 65.4352 244.153 66.1132 244.164 66.7861C244.174 67.4464 244.18 68.1242 244.18 68.8009C244.18 69.0123 244.176 69.1942 244.169 69.3418C244.162 69.4885 244.153 69.6183 244.142 69.7274C244.132 69.8325 244.118 69.9235 244.099 69.9986C244.081 70.0703 244.062 70.1322 244.041 70.1878C243.921 70.4999 243.699 70.7563 243.383 70.9488C243.068 71.1428 242.688 71.2409 242.255 71.2409C241.879 71.2409 241.548 71.1858 241.269 71.0776C240.993 70.9687 240.774 70.8141 240.618 70.6172C240.539 70.5154 240.478 70.409 240.436 70.3013C240.393 70.19 240.361 70.0485 240.34 69.8815C240.318 69.7086 240.304 69.4891 240.297 69.2289C240.29 68.9648 240.286 68.6233 240.286 68.2134C240.286 67.7805 240.288 67.3191 240.292 66.842C240.295 66.377 240.304 65.9436 240.319 65.5541L240.351 64.7705L240.352 64.7541L240.321 64.7582C240.216 64.7713 240.109 64.7847 239.996 64.7972C239.763 64.8256 239.515 64.8256 239.261 64.7972C239.148 64.7857 239.038 64.7735 238.932 64.7615L238.868 64.7544L238.869 64.7705C238.875 64.9008 238.882 65.0473 238.89 65.2088C238.897 65.3833 238.903 65.5432 238.906 65.6978C238.907 65.7826 238.909 65.8672 238.911 65.9512C238.913 66.0303 238.914 66.1091 238.916 66.1874C238.92 66.3352 238.922 66.4825 238.922 66.6254V69.6819C238.922 69.8035 238.929 69.9004 238.944 69.9778C239.002 70.378 239.137 70.7115 239.345 70.9685C239.553 71.227 239.807 71.4332 240.098 71.5811C240.39 71.7292 240.709 71.8334 241.045 71.8912C241.381 71.9498 241.715 71.9793 242.04 71.9793C242.328 71.9793 242.642 71.9444 242.974 71.8756C243.308 71.8077 243.605 71.6923 243.857 71.5336C244.038 71.4231 244.196 71.3031 244.328 71.1763C244.462 71.0484 244.577 70.8945 244.67 70.7189C244.763 70.5454 244.834 70.3414 244.882 70.1126C244.928 69.8859 244.955 69.6181 244.962 69.3167C244.97 69.0666 244.976 68.7684 244.984 68.3681C244.988 68.149 244.992 67.9276 244.997 67.7036C245 67.5482 245.003 67.3919 245.006 67.234C245.013 66.8505 245.022 66.4779 245.033 66.1263C245.044 65.7611 245.057 65.4796 245.071 65.2652L245.103 64.7533L245.076 64.7582C245 64.771 244.921 64.7847 244.838 64.7975ZM222.472 71.4054C222.291 71.2126 222.12 71.0255 221.95 70.8334C221.77 70.6313 221.589 70.4205 221.395 70.1892C221.219 69.9795 221.045 69.7673 220.862 69.5403L220.761 69.4146C220.631 69.2531 220.51 69.1023 220.399 68.9632C220.33 68.8773 220.267 68.7985 220.21 68.7267C220.15 68.6517 220.096 68.5846 220.049 68.5246L219.484 67.8122C219.682 67.6022 219.84 67.4382 219.967 67.3101C220.101 67.1748 220.217 67.0578 220.322 66.9544C220.428 66.8497 220.529 66.7517 220.624 66.6604C220.712 66.5758 220.824 66.4727 220.974 66.3366C221.116 66.2081 221.239 66.0949 221.362 65.9809C221.513 65.8383 221.675 65.6921 221.813 65.5683C221.963 65.4357 222.124 65.2933 222.288 65.1515C222.446 65.0135 222.594 64.8886 222.729 64.7808L222.77 64.7481L222.717 64.7571C222.554 64.7838 222.415 64.8013 222.304 64.8078C222.08 64.8215 221.913 64.8237 221.72 64.8029C221.631 64.7934 221.556 64.7781 221.496 64.7576L221.486 64.7538L221.48 64.7626C221.397 64.8763 221.301 64.9939 221.196 65.1114C221.066 65.2557 220.954 65.3784 220.844 65.4982C220.729 65.6253 220.603 65.7603 220.468 65.8994C220.33 66.0437 220.21 66.1702 220.102 66.2867C219.951 66.4443 219.807 66.5938 219.671 66.7354C219.535 66.8761 219.393 67.0144 219.251 67.1464C219.107 67.2806 218.956 67.4194 218.799 67.5645C218.65 67.7001 218.477 67.8493 218.285 68.008V67.213C218.285 66.9487 218.288 66.6748 218.294 66.3991C218.294 66.305 218.296 66.192 218.3 66.0644C218.303 65.9867 218.304 65.9062 218.306 65.8233C218.308 65.7622 218.309 65.7 218.31 65.6362C218.315 65.4821 218.322 65.3296 218.333 65.1829C218.343 65.0339 218.359 64.8957 218.381 64.7724L218.384 64.7547L218.365 64.7568C218.243 64.7705 218.117 64.7841 217.989 64.7977C217.859 64.8114 217.732 64.8182 217.612 64.8182C217.499 64.8182 217.375 64.8114 217.242 64.7977C217.11 64.7841 216.982 64.7705 216.86 64.7568L216.843 64.7549L216.844 64.7713C216.864 65.0105 216.883 65.2399 216.899 65.4153C216.912 65.5904 216.921 65.7518 216.924 65.9089L216.928 66.0538C216.931 66.1732 216.934 66.2984 216.936 66.4302C216.94 66.6189 216.942 66.8617 216.942 67.1513V68.3623C216.942 68.6883 216.94 68.9831 216.936 69.2387C216.933 69.4533 216.929 69.647 216.926 69.8191L216.924 69.9039C216.921 70.0766 216.917 70.2798 216.908 70.4802C216.902 70.6608 216.894 70.8493 216.885 71.0489L216.883 71.089C216.871 71.302 216.859 71.553 216.844 71.8413L216.843 71.8565L216.859 71.8554C216.974 71.8486 217.101 71.8366 217.237 71.8194C217.373 71.8025 217.499 71.7941 217.612 71.7941C217.741 71.7941 217.876 71.8025 218.015 71.8194C218.152 71.8364 218.27 71.8484 218.365 71.8554L218.382 71.8568L218.381 71.8404C218.332 71.311 218.302 70.7494 218.294 70.1717C218.288 69.5815 218.285 69.036 218.285 68.5061C218.844 69.0979 219.345 69.6783 219.773 70.2312C220.183 70.7631 220.598 71.3078 221.006 71.85L221.011 71.8563L221.019 71.8554C221.176 71.8415 221.337 71.8282 221.498 71.8145C221.662 71.8006 221.805 71.7941 221.933 71.7941C222.036 71.7941 222.16 71.7957 222.3 71.799C222.443 71.8025 222.642 71.8214 222.891 71.8554L222.935 71.8617L222.902 71.832C222.781 71.7237 222.636 71.58 222.472 71.4054ZM153.936 64.7975C153.873 64.8111 153.791 64.8177 153.685 64.8177C153.58 64.8177 153.497 64.8111 153.431 64.7975C153.354 64.783 153.287 64.7696 153.226 64.7566L153.207 64.7525L153.209 64.7707C153.243 65.1851 153.274 65.6204 153.301 66.0644C153.325 66.4986 153.338 66.9408 153.338 67.3777V69.6391C153.213 69.5472 153.134 69.4871 153.075 69.4397C153.006 69.3832 152.921 69.3071 152.823 69.2136L151.552 68.0178C151.25 67.7369 150.951 67.4519 150.636 67.1464C150.374 66.8925 150.102 66.6282 149.806 66.3382C149.535 66.0709 149.274 65.8072 149.031 65.5546C148.779 65.2936 148.524 65.0285 148.266 64.7604L148.261 64.7552L148.253 64.7563C148.21 64.7631 148.17 64.7683 148.131 64.7716C148.091 64.7751 148.051 64.7767 148.008 64.7767C147.964 64.7767 147.921 64.7748 147.88 64.7716C147.836 64.7683 147.794 64.7631 147.752 64.7566L147.735 64.7536L147.735 64.7702C147.742 65.2497 147.747 65.7379 147.751 66.21L147.751 66.2139C147.755 66.6991 147.757 67.1879 147.757 67.6671V69.363C147.757 69.4809 147.755 69.6091 147.751 69.7438C147.749 69.8281 147.746 69.9096 147.744 69.9885C147.743 70.0348 147.742 70.0804 147.741 70.1251C147.737 70.2288 147.732 70.3242 147.725 70.4085L147.637 71.8595L147.655 71.8554C147.7 71.8459 147.747 71.8364 147.797 71.8265L147.86 71.8137C147.999 71.7875 148.138 71.7834 148.339 71.8197C148.433 71.8372 148.509 71.8492 148.567 71.8557L148.584 71.8576L148.583 71.841C148.564 71.6342 148.547 71.4417 148.534 71.269C148.523 71.1217 148.514 70.9927 148.507 70.8828C148.5 70.7808 148.494 70.6725 148.491 70.5683C148.486 70.4617 148.485 70.3248 148.485 70.1925C148.479 69.9508 148.472 69.6715 148.469 69.419C148.467 69.3289 148.466 69.2381 148.465 69.1468C148.463 68.994 148.461 68.8394 148.458 68.6823C148.454 68.433 148.452 68.1659 148.452 67.8886V66.9765C148.631 67.1341 148.846 67.3278 149.108 67.5683C149.372 67.8116 149.662 68.0803 149.969 68.3675C150.254 68.6324 150.567 68.9294 150.928 69.2747C151.249 69.581 151.575 69.8965 151.898 70.2127C152.197 70.5048 152.503 70.8078 152.809 71.1138C153.135 71.4417 153.383 71.6923 153.59 71.9026L153.595 71.9081L153.603 71.9067C153.642 71.8994 153.679 71.8947 153.714 71.8917C153.754 71.8882 153.791 71.8863 153.826 71.8863C153.86 71.8863 153.897 71.8882 153.933 71.8917C153.965 71.8947 153.999 71.8994 154.039 71.9067L154.056 71.9097V71.6612C154.056 71.5639 154.054 71.4692 154.05 71.3727C154.047 71.2761 154.045 71.1807 154.045 71.0893V70.327C154.045 70.0878 154.043 69.8393 154.039 69.5889C154.035 69.308 154.035 69.0423 154.035 68.8421V68.2546C154.035 67.9355 154.035 67.5664 154.039 67.2492C154.043 66.9334 154.049 66.6601 154.056 66.4143C154.062 66.1691 154.074 65.9114 154.094 65.6261C154.112 65.3651 154.131 65.0803 154.153 64.7707L154.155 64.7525L154.136 64.7566C154.071 64.7705 154.004 64.7838 153.936 64.7975ZM207.84 68.9836C207.69 68.9896 207.527 68.9929 207.344 68.9929C207.158 68.9929 206.97 68.9877 206.785 68.9777C206.609 68.9678 206.427 68.9596 206.244 68.9528L207.322 66.4662L208.316 68.9534C208.164 68.9665 208.008 68.9763 207.84 68.9836ZM210.805 71.0015C210.716 70.8094 210.627 70.6166 210.538 70.4235L210.374 70.0686C210.228 69.7495 210.086 69.4443 209.954 69.1612C209.819 68.8716 209.699 68.6097 209.598 68.3828C209.501 68.1782 209.392 67.9338 209.264 67.636C209.161 67.3952 209.024 67.0736 208.871 66.7234C208.735 66.4089 208.594 66.069 208.451 65.7134C208.31 65.3588 208.174 65.0053 208.047 64.6622L208.043 64.6502L208.03 64.6537C207.903 64.6878 207.789 64.705 207.69 64.705C207.628 64.705 207.567 64.6998 207.508 64.6892C207.449 64.6796 207.391 64.6663 207.337 64.6535L207.324 64.6502L207.32 64.663C207.256 64.8736 207.17 65.1141 207.057 65.3986C206.942 65.6831 206.804 66.0074 206.647 66.3625C206.491 66.7135 206.306 67.1199 206.081 67.6049C205.865 68.0688 205.621 68.5925 205.348 69.1768L204.099 71.8366L204.088 71.8601L204.114 71.8554C204.194 71.8418 204.271 71.8282 204.346 71.8137C204.426 71.8003 204.51 71.7935 204.597 71.7935C204.676 71.7935 204.766 71.8003 204.864 71.814C204.962 71.8287 205.043 71.8426 205.111 71.8554L205.124 71.8579L205.127 71.8459C205.214 71.5502 205.337 71.2006 205.493 70.8056C205.65 70.4118 205.815 70.0122 205.986 69.6183C206.187 69.6047 206.396 69.5946 206.623 69.5873C206.84 69.5804 207.057 69.5772 207.269 69.5772C207.497 69.5772 207.722 69.5804 207.958 69.5873C208.2 69.5946 208.422 69.6047 208.639 69.6183L209.087 70.7028L209.54 71.847L209.544 71.8565L209.555 71.8557C209.654 71.8489 209.772 71.8372 209.916 71.8197C210.059 71.8023 210.205 71.7935 210.35 71.7935C210.495 71.7935 210.654 71.8023 210.823 71.8197C211.001 71.8383 211.114 71.8492 211.189 71.8557L211.214 71.8579L211.203 71.8363C211.084 71.5952 210.954 71.3222 210.805 71.0015ZM198.776 71.2982C198.753 71.1608 198.728 71.0181 198.704 70.8703L198.653 70.5667C198.604 70.2743 198.566 70.0354 198.534 69.8147C198.498 69.5698 198.47 69.3696 198.447 69.2109C198.355 68.5333 198.277 67.9434 198.211 67.4074C198.141 66.8477 198.078 66.2643 198.017 65.6236L197.931 64.7686L197.93 64.7525L197.913 64.7568C197.742 64.8005 197.587 64.7934 197.458 64.7568L197.446 64.7536L197.441 64.7636C197.161 65.3048 196.925 65.7551 196.718 66.1399C196.472 66.5984 196.286 66.9386 196.115 67.2432C195.938 67.5613 195.746 67.8981 195.529 68.2731C195.307 68.6539 195.08 69.0407 194.854 69.4228L194.469 70.0719L193.899 69.1037C193.619 68.6263 193.412 68.2693 193.248 67.9797C193.086 67.696 192.927 67.4148 192.763 67.1197C192.618 66.8589 192.475 66.5935 192.337 66.3309C192.216 66.1001 192.074 65.8257 191.863 65.4133L191.529 64.7636L191.525 64.7544L191.514 64.7566C191.478 64.7631 191.438 64.7702 191.396 64.7767C191.282 64.7961 191.164 64.7871 191.035 64.7566L191.019 64.7527L191.017 64.7686C190.998 64.9486 190.967 65.2025 190.915 65.5928C190.87 65.9335 190.815 66.3162 190.747 66.7624C190.687 67.1644 190.618 67.6335 190.549 68.1133C190.483 68.5631 190.412 69.0194 190.339 69.4689C190.264 69.9189 190.196 70.3234 190.139 70.6594C190.076 71.0336 190.025 71.3154 189.983 71.5197L189.919 71.8394L189.915 71.8593L189.994 71.8443C190.046 71.8342 190.099 71.8244 190.15 71.8143C190.223 71.8004 190.302 71.7933 190.385 71.7933C190.519 71.7933 190.68 71.8134 190.877 71.8552L190.894 71.8587L190.894 71.8424C190.931 71.0645 190.991 70.2825 191.073 69.5185C191.153 68.7709 191.243 68.0282 191.341 67.3101C191.379 67.3793 191.441 67.4852 191.531 67.6374L191.58 67.7205C191.669 67.8708 191.763 68.029 191.859 68.1943C191.969 68.3822 192.078 68.571 192.182 68.7554C192.242 68.862 192.292 68.9501 192.332 69.0202C192.359 69.0674 192.381 69.1067 192.398 69.1372C192.582 69.4773 192.756 69.7948 192.915 70.0804C193.06 70.3395 193.187 70.5686 193.292 70.7609C193.4 70.9562 193.501 71.1387 193.594 71.3067C193.682 71.4662 193.778 71.6435 193.885 71.8481L193.89 71.8574L193.9 71.8552C193.938 71.8484 193.971 71.8432 194.001 71.8402C194.068 71.8333 194.133 71.8333 194.209 71.8402C194.241 71.8432 194.276 71.8481 194.315 71.8552L194.327 71.8574L194.331 71.8473C194.485 71.5022 194.676 71.1122 194.897 70.6883C195.11 70.2762 195.34 69.8496 195.58 69.4203C195.837 68.9629 196.066 68.5633 196.281 68.1987C196.5 67.8255 196.698 67.4917 196.872 67.2053C196.873 67.2219 196.875 67.24 196.877 67.2596C196.884 67.3226 196.891 67.402 196.9 67.4983C196.915 67.6532 196.934 67.8299 196.959 68.0238C196.982 68.1943 197.005 68.385 197.035 68.6422C197.052 68.7941 197.069 68.9416 197.085 69.0837L197.105 69.2608C197.126 69.4539 197.148 69.6344 197.169 69.7967C197.19 69.9546 197.205 70.0744 197.213 70.1527C197.22 70.202 197.228 70.2885 197.234 70.4099C197.241 70.5345 197.251 70.6665 197.261 70.8018C197.272 70.9395 197.281 71.0726 197.288 71.1981C197.295 71.3293 197.303 71.416 197.31 71.4619L197.342 71.8429L197.344 71.8574L197.359 71.8554C197.517 71.8358 197.656 71.8203 197.772 71.8093C197.892 71.7984 197.996 71.7933 198.089 71.7933C198.163 71.7933 198.274 71.8001 198.438 71.8145C198.607 71.8295 198.746 71.8432 198.863 71.8554L198.883 71.8576L198.879 71.8391C198.85 71.7144 198.818 71.5426 198.776 71.2982ZM60.2213 68.0143C60.079 68.0143 59.9442 68.0107 59.8202 68.0039C59.7076 67.9979 59.5987 67.9914 59.4958 67.9843V65.3389C59.5411 65.3353 59.5995 65.3302 59.6708 65.3242L59.8472 65.3089C60.0097 65.2955 60.1429 65.2887 60.2426 65.2887C60.4197 65.2887 60.5953 65.3056 60.7646 65.3394C60.9362 65.3741 61.0887 65.4409 61.2313 65.5432C61.4143 65.679 61.5351 65.8364 61.591 66.0107C61.648 66.1899 61.6768 66.3895 61.6768 66.6044C61.6768 66.7651 61.6497 66.9339 61.5961 67.1063C61.5437 67.2754 61.4599 67.4284 61.3476 67.5604C61.2338 67.6925 61.0822 67.8024 60.896 67.8866C60.7084 67.9715 60.4812 68.0143 60.2213 68.0143ZM63.4796 71.287C63.363 71.1452 63.2344 70.9851 63.0865 70.798C62.9542 70.6297 62.8108 70.444 62.6606 70.2465C62.562 70.1161 62.4494 69.9658 62.3222 69.7965L62.111 69.515C62.0226 69.3909 61.9283 69.2605 61.831 69.1279C61.7378 69.0003 61.6557 68.8866 61.5842 68.787L61.2626 68.347C61.4975 68.305 61.7287 68.2347 61.9502 68.1376C62.176 68.0388 62.3784 67.9096 62.552 67.7535C62.7242 67.5994 62.8647 67.4104 62.9696 67.1928C63.074 66.9768 63.127 66.7204 63.127 66.4299C63.127 66.2103 63.0851 65.997 63.0021 65.796C62.9177 65.5936 62.7914 65.415 62.627 65.2652C62.3969 65.0517 62.1409 64.9118 61.8664 64.8498C61.5944 64.7879 61.278 64.7566 60.9254 64.7566C60.8604 64.7566 60.7441 64.7598 60.5799 64.7669C60.4162 64.7735 60.2369 64.7787 60.0471 64.7822C59.8515 64.7855 59.6751 64.7907 59.5077 64.7975C59.3355 64.8043 59.2175 64.8076 59.1471 64.8076C58.8757 64.8076 58.6568 64.8027 58.4966 64.7926C58.3369 64.7822 58.1938 64.7702 58.0713 64.7566L58.0544 64.7547L58.0556 64.7707C58.075 65.059 58.0895 65.3312 58.0989 65.58C58.1063 65.7897 58.1135 65.9867 58.1206 66.1727C58.1274 66.3852 58.1311 66.5807 58.1311 66.77V68.4551C58.1311 68.676 58.1297 68.8953 58.1268 69.1249C58.1226 69.3069 58.1194 69.4806 58.116 69.6456L58.1152 69.7026C58.1115 69.8884 58.106 70.0826 58.0989 70.2795L58.0935 70.4243C58.0869 70.5891 58.0801 70.7674 58.0715 70.96C58.0653 71.1133 58.0579 71.2829 58.0499 71.4687C58.0447 71.5868 58.0393 71.7112 58.0339 71.8418L58.0333 71.8579L58.0499 71.856C58.1023 71.8503 58.1554 71.8443 58.2084 71.8383C58.2796 71.8301 58.3512 71.8219 58.4233 71.8143C58.6936 71.7854 58.9558 71.7886 59.1813 71.8143C59.2877 71.8265 59.3911 71.8396 59.4892 71.8516L59.5385 71.8579V71.8424C59.5385 71.7717 59.5365 71.6457 59.534 71.4703C59.5285 71.2548 59.5231 71.0748 59.5168 70.9038L59.516 70.8711C59.51 70.6821 59.5046 70.5034 59.5009 70.3319C59.4977 70.1573 59.4958 70.0234 59.4958 69.9448V68.4952H59.7307C59.9906 68.8415 60.2788 69.2329 60.6375 69.7258C60.9576 70.1679 61.2532 70.5945 61.5169 70.9935C61.5984 71.1144 61.6928 71.2587 61.7974 71.4215C61.9086 71.5958 62.0001 71.736 62.0773 71.85L62.0825 71.8571L62.0913 71.856C62.2438 71.8353 62.3778 71.8194 62.4893 71.8091C62.5967 71.7987 62.7513 71.7938 62.9619 71.7938C63.1538 71.7938 63.3254 71.8006 63.4722 71.8143C63.5341 71.8197 63.5962 71.826 63.6586 71.8317C63.7447 71.8396 63.8317 71.8481 63.9189 71.856L63.9523 71.859L63.9001 71.7963C63.7419 71.6053 63.601 71.4354 63.4796 71.287ZM87.7747 65.2944C87.7715 65.2451 87.7684 65.1973 87.7684 65.1616C87.7684 65.1057 87.7738 65.0457 87.7844 64.978C87.7895 64.9502 87.7949 64.9205 87.8009 64.8894C87.8077 64.8523 87.8149 64.8136 87.8226 64.7724L87.826 64.7557L87.808 64.7566C87.4885 64.7707 87.1569 64.7847 86.8223 64.7975C86.4662 64.8111 86.1127 64.8179 85.7721 64.8179C85.609 64.8179 85.4508 64.8163 85.2874 64.8127C85.1061 64.8097 84.9129 64.8048 84.6968 64.7975C84.4969 64.7907 84.3091 64.7838 84.1315 64.777C83.9476 64.7699 83.8148 64.7631 83.7255 64.7566L83.7093 64.7552L83.7104 64.7707C83.7404 65.2933 83.766 65.8277 83.7863 66.3587C83.8074 66.9198 83.8182 67.5367 83.8182 68.1924C83.8182 68.5704 83.8168 68.9141 83.8136 69.213C83.8105 69.4078 83.8076 69.5965 83.8051 69.7793L83.8022 69.9814C83.7985 70.2236 83.7894 70.4887 83.7754 70.7699L83.7586 71.1016C83.7478 71.317 83.7352 71.5639 83.721 71.8415L83.7201 71.8595L83.7384 71.8557C83.8393 71.8347 83.9416 71.8192 84.0514 71.8091C84.1583 71.799 84.2891 71.7938 84.4402 71.7938C84.5899 71.7938 84.7284 71.7971 84.8521 71.8039C84.977 71.8107 85.097 71.8279 85.2196 71.8557L85.2396 71.8603L85.237 71.8404C85.2242 71.7477 85.215 71.6591 85.2093 71.5781C85.2059 71.5131 85.2005 71.422 85.1934 71.3058C85.1934 71.2229 85.1917 71.1485 85.188 71.0784C85.1845 71.0099 85.1828 70.9235 85.1828 70.8214V68.4226H86.3165C86.444 68.4226 86.56 68.4245 86.6609 68.4278C86.7684 68.4313 86.897 68.4365 87.0435 68.4431L87.6361 68.4635L87.6544 68.4643L87.6504 68.4469C87.6347 68.376 87.6225 68.316 87.613 68.2622C87.6019 68.2085 87.5962 68.1553 87.5962 68.0997C87.5962 67.9903 87.6145 67.8771 87.6501 67.7631L87.6561 67.7443L87.6356 67.7456C87.4215 67.7595 87.1852 67.7713 86.9132 67.7825C86.6561 67.7926 86.3191 67.7975 85.9117 67.7975H85.1828V65.4223C85.4032 65.4223 85.6267 65.4243 85.8473 65.4275C86.0497 65.4305 86.2516 65.4365 86.4465 65.4417L86.4827 65.4428C86.7088 65.4515 86.9166 65.4616 87.1176 65.4744C87.3254 65.4875 87.5512 65.5012 87.8078 65.5153L87.8288 65.5164L87.822 65.4976C87.7926 65.4131 87.7773 65.3468 87.7747 65.2944ZM97.9497 71.1155L97.9257 71.1168C97.69 71.1308 97.438 71.1411 97.1766 71.1474C96.9183 71.155 96.67 71.1616 96.4314 71.1681L96.4012 71.1689C96.164 71.1755 95.9431 71.1804 95.7444 71.1842C95.5731 71.1872 95.4425 71.1891 95.3649 71.1894V68.4226C95.6075 68.4226 95.8479 68.4245 96.0993 68.4281C96.3279 68.4308 96.5731 68.436 96.8485 68.4431L97.2575 68.4638C97.4035 68.4711 97.5406 68.4815 97.6763 68.4954L97.7002 68.4979L97.6911 68.4766C97.6563 68.3959 97.6387 68.2794 97.6387 68.1302C97.6387 68.0555 97.6441 67.9889 97.6546 67.9322C97.6652 67.8785 97.6769 67.8206 97.6917 67.7626L97.6965 67.744L97.6766 67.7459C97.5318 67.7595 97.3542 67.7715 97.1495 67.7816C96.9505 67.7923 96.739 67.8007 96.5029 67.8078C96.282 67.8149 96.0668 67.8182 95.8633 67.8182H95.3649V65.4226H96.3205C96.4226 65.4226 96.5112 65.4245 96.5836 65.4278C96.6623 65.4313 96.7512 65.4365 96.8485 65.4431L97.8607 65.4952L97.8827 65.4963L97.875 65.4766C97.8399 65.3891 97.8223 65.2622 97.8223 65.0997C97.8223 65.0399 97.8274 64.9854 97.8371 64.9382C97.8453 64.9047 97.8536 64.8673 97.863 64.8272L97.8796 64.756L97.861 64.7568C97.4822 64.7702 97.1141 64.7836 96.7672 64.7975C96.4323 64.8111 96.1332 64.8179 95.8792 64.8179C95.731 64.8179 95.5713 64.8163 95.4046 64.813C95.2273 64.8092 95.0502 64.8043 94.8789 64.7975C94.7261 64.7917 94.5782 64.7857 94.4333 64.78L94.3638 64.7773C94.1962 64.7705 94.0482 64.7634 93.9194 64.7568L93.9031 64.756L93.9043 64.7713C93.9256 65.0334 93.9419 65.3416 93.9521 65.6875C93.9627 66.0344 93.9718 66.383 93.9792 66.7236C93.9861 67.0553 93.9915 67.3657 93.9952 67.6461C93.9986 67.9278 94.0003 68.1166 94.0003 68.2232C94.0003 68.3391 93.9986 68.4957 93.9952 68.7024C93.9915 68.9054 93.9881 69.1184 93.9844 69.3418L93.9738 70.0018C93.9701 70.2146 93.9647 70.3998 93.9576 70.5525C93.9527 70.6897 93.9482 70.8247 93.9442 70.9578C93.9413 71.0383 93.9387 71.1182 93.9362 71.1973C93.9291 71.4049 93.9185 71.6214 93.9043 71.8407L93.9031 71.8563L93.9194 71.8552C94.6115 71.8148 95.2925 71.7941 95.9434 71.7941C96.6136 71.7941 97.2806 71.8148 97.9257 71.8552L97.9477 71.8565L97.94 71.8369C97.9046 71.7444 97.8864 71.6212 97.8864 71.4706C97.8864 71.3217 97.9044 71.2093 97.9397 71.1359L97.9497 71.1155ZM75.7376 69.4471C75.645 69.815 75.4953 70.1516 75.2932 70.4483C75.0899 70.744 74.8265 70.9873 74.5107 71.1706C74.1957 71.3536 73.8048 71.4466 73.3484 71.4466C72.8861 71.4466 72.4918 71.3555 72.1768 71.1757C71.8609 70.9966 71.5978 70.7587 71.3951 70.4685C71.1913 70.1778 71.0428 69.8425 70.9541 69.473C70.8652 69.0987 70.8199 68.7166 70.8199 68.3375C70.8199 67.9914 70.8652 67.6281 70.9541 67.2577C71.0434 66.8903 71.1916 66.5518 71.3951 66.2512C71.597 65.9526 71.8601 65.7044 72.1771 65.5132C72.4924 65.3236 72.8866 65.2271 73.3484 65.2271C73.8188 65.2271 74.219 65.3116 74.538 65.478C74.8559 65.643 75.1173 65.8705 75.3146 66.1541C75.509 66.4351 75.6535 66.7681 75.7439 67.1439C75.8322 67.519 75.8773 67.9202 75.8773 68.3375C75.8773 68.7065 75.8303 69.0799 75.7376 69.4471ZM76.1376 65.5115C75.765 65.2235 75.3337 65.0094 74.8553 64.8755C74.3792 64.7418 73.8832 64.6739 73.3815 64.6739C72.8373 64.6739 72.3136 64.7486 71.8256 64.8959C71.3376 65.0435 70.9023 65.2748 70.5325 65.5844C70.1631 65.8937 69.8646 66.2908 69.6454 66.7643C69.427 67.237 69.3164 67.8075 69.3164 68.4611C69.3164 69.0248 69.4219 69.5332 69.6297 69.9718C69.8381 70.411 70.1274 70.7854 70.4898 71.0844C70.8521 71.3825 71.2831 71.6121 71.7709 71.7676C72.26 71.9217 72.7908 72 73.3484 72C73.9434 72 74.4961 71.9097 74.9919 71.7316C75.4879 71.5521 75.9175 71.296 76.2687 70.9704C76.6213 70.6425 76.8978 70.2418 77.0903 69.7803C77.2844 69.3167 77.3827 68.7895 77.3827 68.2129C77.3827 67.5959 77.2682 67.058 77.0418 66.6148C76.8157 66.1721 76.5116 65.8012 76.1376 65.5115ZM50.4288 67.1426C50.3846 67.3201 50.3097 67.4824 50.1999 67.6387C50.0916 67.7936 49.9394 67.9273 49.7481 68.0361C49.5579 68.1449 49.3119 68.2 49.0166 68.2C48.9125 68.2 48.8199 68.1962 48.7332 68.1889C48.6337 68.1809 48.5474 68.1717 48.463 68.1599V65.3285C48.5739 65.3162 48.6885 65.3064 48.8133 65.2985C48.9305 65.292 49.0602 65.2884 49.1985 65.2884C49.6352 65.2884 49.9633 65.4202 50.1737 65.6804C50.3852 65.9417 50.4927 66.2774 50.4927 66.6775C50.4927 66.8131 50.471 66.9697 50.4288 67.1426ZM51.1723 65.1504C50.9194 64.9715 50.6529 64.8599 50.3798 64.8185C50.1084 64.7773 49.8393 64.7563 49.5799 64.7563C49.522 64.7563 49.4265 64.7596 49.2877 64.7667C49.1537 64.7732 49.0072 64.7784 48.8521 64.7819C48.6936 64.7852 48.5488 64.7904 48.4097 64.7972C48.2503 64.8059 48.1562 64.8073 48.1143 64.8073C47.8233 64.8073 47.6166 64.8027 47.4638 64.7923C47.3033 64.7819 47.1602 64.7699 47.0385 64.7563L47.0219 64.7544L47.077 66.0693C47.0849 66.1983 47.0901 66.3249 47.0929 66.4561C47.0961 66.6222 47.0975 66.7787 47.0975 66.935V67.8321L47.077 70.3575C47.077 70.4944 47.0713 70.6728 47.0601 70.888C47.0496 71.1089 47.0299 71.4297 47.0014 71.8413L47 71.8587L47.018 71.8554C47.14 71.8353 47.2597 71.8197 47.3743 71.8096C47.4872 71.7987 47.6146 71.7935 47.7643 71.7935C47.9134 71.7935 48.0425 71.7987 48.1588 71.8096C48.2771 71.8194 48.3954 71.8347 48.5211 71.8554L48.5394 71.8587L48.5377 71.841C48.5308 71.76 48.522 71.6741 48.5112 71.5781C48.5009 71.49 48.4918 71.3841 48.4835 71.254C48.4775 71.1343 48.4721 70.9925 48.4673 70.8209C48.4641 70.6753 48.463 70.4909 48.463 70.2236V68.6926C48.5736 68.7049 48.6819 68.7147 48.7854 68.7218C48.8912 68.7284 49.0271 68.7319 49.1893 68.7319C49.7062 68.7319 50.1435 68.6675 50.4887 68.5402C50.8359 68.4131 51.1198 68.2459 51.3325 68.0424C51.5446 67.8378 51.6951 67.6087 51.7806 67.3616C51.867 67.1148 51.9106 66.8636 51.9106 66.6154C51.9106 66.2357 51.8391 65.9299 51.6982 65.706C51.5588 65.4829 51.3818 65.2958 51.1723 65.1504ZM139.751 69.4471C139.658 69.8145 139.508 70.1513 139.306 70.4483C139.103 70.7443 138.839 70.9873 138.523 71.1706C138.208 71.3536 137.818 71.4466 137.361 71.4466C136.899 71.4466 136.505 71.3555 136.19 71.1757C135.874 70.9966 135.611 70.7587 135.408 70.4685C135.203 70.1769 135.056 69.8417 134.968 69.473C134.879 69.1026 134.834 68.7207 134.834 68.3375C134.834 67.9873 134.879 67.624 134.968 67.2574C135.056 66.8908 135.204 66.5523 135.408 66.2512C135.61 65.9526 135.873 65.7044 136.19 65.5132C136.505 65.3236 136.9 65.2271 137.361 65.2271C137.832 65.2271 138.232 65.3116 138.551 65.478C138.87 65.6438 139.131 65.8713 139.328 66.1541C139.522 66.4353 139.667 66.7686 139.757 67.1439C139.845 67.519 139.89 67.9202 139.89 68.3375C139.89 68.7065 139.843 69.0799 139.751 69.4471ZM140.15 65.5115C139.778 65.2235 139.347 65.0094 138.869 64.8755C138.392 64.7418 137.896 64.6739 137.394 64.6739C136.85 64.6739 136.326 64.7486 135.838 64.8959C135.351 65.0435 134.915 65.2748 134.545 65.5844C134.176 65.8937 133.878 66.2905 133.658 66.7643C133.44 67.237 133.329 67.8075 133.329 68.4611C133.329 69.0248 133.435 69.5332 133.642 69.9718C133.851 70.411 134.14 70.7854 134.502 71.0844C134.865 71.3828 135.296 71.6124 135.785 71.7676C136.273 71.9217 136.803 72 137.361 72C137.956 72 138.509 71.9097 139.005 71.7316C139.501 71.5521 139.93 71.296 140.281 70.9704C140.634 70.6422 140.911 70.2418 141.103 69.7803C141.297 69.3167 141.395 68.7895 141.395 68.2129C141.395 67.5956 141.281 67.0578 141.055 66.6148C140.829 66.1721 140.524 65.8012 140.15 65.5115ZM119.059 69.1067C119.022 68.9817 118.969 68.8544 118.902 68.7281C118.833 68.6002 118.74 68.4755 118.624 68.3582C118.545 68.2756 118.462 68.2036 118.38 68.1452C118.292 68.0841 118.192 68.0266 118.082 67.9742C117.964 67.9186 117.832 67.861 117.688 67.8035C117.546 67.7478 117.371 67.6821 117.154 67.6027C116.917 67.5133 116.703 67.4301 116.519 67.3556C116.328 67.2779 116.176 67.1939 116.053 67.0992C115.929 67.0048 115.833 66.8941 115.766 66.7692C115.699 66.6454 115.665 66.4896 115.665 66.3063C115.665 66.0082 115.771 65.7477 115.979 65.5323C116.187 65.316 116.505 65.2063 116.923 65.2063C117.263 65.2063 117.564 65.2821 117.82 65.4311C118.074 65.5792 118.242 65.802 118.32 66.0933L118.323 66.1034H118.496L118.498 66.0928C118.522 65.9867 118.541 65.9081 118.558 65.8457C118.573 65.7848 118.592 65.7194 118.616 65.6457C118.635 65.5893 118.662 65.5137 118.698 65.4243C118.727 65.3479 118.77 65.2497 118.832 65.1155L118.837 65.1032L118.825 65.0975C118.56 64.9813 118.291 64.8807 118.025 64.7983C117.76 64.7159 117.425 64.6742 117.03 64.6742C116.541 64.6742 116.13 64.7402 115.807 64.8706C115.483 65.0018 115.223 65.1695 115.032 65.3694C114.841 65.5683 114.704 65.7936 114.624 66.039C114.545 66.2848 114.505 66.5237 114.505 66.749C114.505 66.9601 114.527 67.1573 114.57 67.3346C114.613 67.5097 114.688 67.6742 114.793 67.8236C114.897 67.9717 115.04 68.11 115.216 68.2344C115.392 68.358 115.613 68.4761 115.871 68.5865C116.012 68.6446 116.188 68.7136 116.426 68.8036C116.641 68.8835 116.828 68.9561 116.982 69.0199C117.02 69.0355 117.09 69.0666 117.207 69.1228C117.305 69.1689 117.4 69.237 117.499 69.3306C117.596 69.4228 117.68 69.5398 117.75 69.6786C117.821 69.8172 117.857 69.9901 117.857 70.1925C117.857 70.373 117.822 70.5443 117.755 70.7028C117.688 70.8583 117.593 70.9938 117.473 71.1054C117.352 71.2175 117.205 71.3067 117.035 71.3705C116.866 71.4349 116.672 71.4676 116.458 71.4676C116.302 71.4676 116.149 71.4537 116.004 71.427C115.859 71.4002 115.716 71.3451 115.577 71.263C115.441 71.1834 115.306 71.065 115.177 70.9106C115.05 70.7582 114.923 70.5495 114.802 70.2904L114.798 70.2825H114.625L114.616 70.3586C114.605 70.4549 114.595 70.5381 114.586 70.6082C114.576 70.6919 114.564 70.7745 114.548 70.861C114.534 70.9428 114.513 71.0309 114.484 71.122C114.457 71.2128 114.421 71.3217 114.38 71.448L114.374 71.4673L114.384 71.4728C114.482 71.523 114.598 71.577 114.729 71.6329C114.863 71.6902 115.013 71.7461 115.188 71.8036C115.36 71.8593 115.549 71.9064 115.751 71.943C115.954 71.9806 116.174 71.9995 116.405 71.9995C116.901 71.9995 117.327 71.9302 117.672 71.7933C118.017 71.6552 118.303 71.4755 118.521 71.2589C118.74 71.0424 118.903 70.7961 119.004 70.5271C119.105 70.2588 119.156 69.9898 119.156 69.7285C119.156 69.6631 119.149 69.5752 119.134 69.4593C119.12 69.3497 119.095 69.231 119.059 69.1067ZM126.232 64.8182C126.153 64.8182 126.034 64.8117 125.867 64.7977C125.708 64.7847 125.574 64.7707 125.469 64.7568L125.451 64.7544L125.453 64.7718C125.51 65.2696 125.542 65.7131 125.549 66.0898C125.556 66.4681 125.56 66.8254 125.56 67.1513C125.56 68.1114 125.555 68.9441 125.544 69.6974C125.533 70.5086 125.499 71.2295 125.441 71.8404L125.44 71.8565L125.456 71.8554C125.578 71.8486 125.709 71.8366 125.845 71.8194C125.981 71.8025 126.111 71.7941 126.232 71.7941C126.353 71.7941 126.479 71.8025 126.607 71.8194C126.736 71.8366 126.863 71.8486 126.985 71.8554L127.002 71.8565L127 71.8404C126.957 71.4179 126.928 70.9205 126.914 70.3627C126.9 69.7984 126.892 69.1236 126.892 68.3571V67.4661C126.892 67.1139 126.896 66.7853 126.904 66.461C126.91 66.1244 126.923 65.8039 126.941 65.508C126.959 65.2096 126.982 64.9622 127.011 64.7721L127.013 64.7549L126.607 64.7977C126.478 64.8114 126.352 64.8182 126.232 64.8182ZM108.424 69.1067C108.387 68.9809 108.334 68.8535 108.267 68.7281C108.199 68.6007 108.105 68.4763 107.99 68.3582C107.91 68.2759 107.828 68.2041 107.746 68.1452C107.659 68.0849 107.559 68.0274 107.447 67.9742C107.33 67.9186 107.197 67.861 107.053 67.8035C106.911 67.7475 106.736 67.6818 106.519 67.6027C106.281 67.513 106.067 67.4298 105.883 67.3556C105.693 67.2779 105.541 67.1941 105.418 67.0992C105.296 67.0059 105.199 66.8952 105.131 66.7692C105.064 66.6454 105.03 66.4896 105.03 66.3063C105.03 66.009 105.136 65.7483 105.345 65.5323C105.553 65.3162 105.87 65.2063 106.288 65.2063C106.628 65.2063 106.93 65.2821 107.185 65.4311C107.44 65.5797 107.608 65.8028 107.685 66.0933L107.688 66.1034H107.861L107.864 66.0928C107.887 65.9867 107.906 65.9081 107.923 65.8457C107.939 65.7818 107.959 65.7142 107.983 65.6455C108.007 65.5696 108.033 65.4974 108.063 65.4243C108.092 65.3471 108.136 65.2461 108.197 65.1155L108.203 65.1032L108.19 65.0975C107.923 64.9802 107.655 64.8796 107.391 64.7983C107.125 64.7159 106.79 64.6742 106.395 64.6742C105.906 64.6742 105.495 64.7402 105.172 64.8706C104.848 65.0023 104.587 65.1703 104.397 65.3694C104.205 65.5699 104.068 65.7952 103.99 66.039C103.911 66.2818 103.871 66.5207 103.871 66.749C103.871 66.9642 103.893 67.1611 103.936 67.3346C103.979 67.5111 104.054 67.6758 104.159 67.8236C104.263 67.972 104.405 68.1103 104.582 68.2344C104.757 68.358 104.978 68.4761 105.237 68.5865C105.379 68.6454 105.556 68.7142 105.793 68.8036C106.009 68.8846 106.196 68.9575 106.346 69.0199C106.401 69.042 106.478 69.0778 106.572 69.1228C106.669 69.1689 106.765 69.237 106.865 69.3306C106.961 69.4233 107.045 69.5403 107.115 69.6786C107.186 69.8169 107.222 69.9898 107.222 70.1925C107.222 70.3744 107.188 70.546 107.121 70.7025C107.053 70.8585 106.958 70.9941 106.838 71.1054C106.717 71.2175 106.57 71.3067 106.401 71.3705C106.231 71.4349 106.037 71.4676 105.824 71.4676C105.667 71.4676 105.514 71.4537 105.369 71.427C105.224 71.4002 105.081 71.3451 104.942 71.263C104.806 71.1837 104.672 71.065 104.542 70.9106C104.415 70.7582 104.288 70.5492 104.167 70.2904L104.163 70.2825H103.991L103.989 70.2942C103.984 70.3365 103.979 70.376 103.975 70.414C103.966 70.487 103.959 70.5517 103.951 70.6082C103.94 70.6946 103.928 70.7773 103.914 70.861C103.899 70.9428 103.878 71.0309 103.849 71.122C103.822 71.2137 103.786 71.323 103.742 71.4567L103.739 71.4673L103.749 71.4728C103.855 71.5265 103.971 71.5802 104.095 71.6329C104.227 71.6896 104.377 71.7455 104.553 71.8039C104.725 71.8595 104.915 71.9064 105.116 71.943C105.32 71.9806 105.541 71.9995 105.77 71.9995C106.266 71.9995 106.692 71.9302 107.037 71.7933C107.382 71.6561 107.667 71.476 107.887 71.2589C108.107 71.041 108.269 70.7947 108.369 70.5271C108.47 70.2588 108.521 69.9898 108.521 69.7285C108.521 69.6631 108.514 69.5752 108.499 69.4593C108.486 69.353 108.462 69.2376 108.424 69.1067Z" fill="black"/>
</svg>
