<svg width="305" height="88" viewBox="0 0 305 88" fill="none" xmlns="http://www.w3.org/2000/svg">
<path fill-rule="evenodd" clip-rule="evenodd" d="M90.9469 31.9025C91.7441 31.9025 92.5215 31.9774 93.3209 31.9774C94.1522 31.9774 94.9658 31.9025 95.8072 31.9025V32.4563H95.5591C94.3449 32.4563 93.3354 33.2779 92.5734 34.0837L89.6361 37.2256L94.417 43.1556C94.7974 43.704 95.3945 44.1623 96.1036 44.1623V44.715C95.4905 44.715 94.8375 44.6801 94.2045 44.6801C93.6155 44.6801 93.0426 44.715 92.4532 44.715C92.2812 44.3636 91.7441 43.6331 91.4793 43.3346L87.4782 38.3763L91.3677 34.0837C91.6094 33.8447 92.1884 33.2214 92.1884 32.8419C92.1884 32.4786 91.3873 32.4563 91.1491 32.4563H90.9469V31.9025ZM83.4013 44.1623H83.6615C84.323 44.1623 85.0303 44.0677 85.0303 43.1196V33.5033C85.0303 32.5477 84.323 32.4563 83.6615 32.4563H83.4013V31.9025C84.1428 31.9025 85.2567 31.9774 86.1983 31.9774C87.2038 31.9774 88.3906 31.9025 89.1555 31.9025V32.4563H88.9312C88.3778 32.4563 87.4004 32.4786 87.4004 33.5033V43.1196C87.4004 44.1443 88.3778 44.1623 88.9312 44.1623H89.1555V44.715C88.3906 44.715 87.2038 44.6416 86.1983 44.6416C85.2567 44.6416 84.1428 44.715 83.4013 44.715V44.1623ZM100.059 44.1625H100.32C100.993 44.1625 101.694 44.0674 101.694 43.1197V33.5034C101.694 32.5475 100.993 32.456 100.32 32.456H100.059V31.9026C100.791 31.9026 101.902 31.9775 102.818 31.9775C103.734 31.9775 104.848 31.9026 105.721 31.9026V32.456H105.465C104.803 32.456 104.082 32.5475 104.082 33.5034V43.1197C104.082 44.0674 104.803 44.1625 105.465 44.1625H105.721V44.7151C104.831 44.7151 103.722 44.6417 102.788 44.6417C101.882 44.6417 100.791 44.7151 100.059 44.7151V44.1625ZM121.645 41.0981L121.681 41.061V34.1829C121.681 32.675 120.623 32.4561 120.069 32.4561H119.654V31.9024C120.529 31.9024 121.381 31.9772 122.254 31.9772C123.024 31.9772 123.785 31.9024 124.543 31.9024V32.4561H124.262C123.484 32.4561 122.615 32.5983 122.615 34.7839V43.1353C122.615 43.7812 122.631 44.4225 122.723 44.9903H122.008L112.445 34.4533V42.0155C112.445 43.6145 112.765 44.1625 114.2 44.1625H114.512V44.7152C113.703 44.7152 112.924 44.6418 112.12 44.6418C111.275 44.6418 110.421 44.7152 109.592 44.7152V44.1625H109.852C111.135 44.1625 111.513 43.302 111.513 41.8308V34.1044C111.513 33.0794 110.662 32.4561 109.828 32.4561H109.592V31.9024C110.293 31.9024 111.019 31.9772 111.728 31.9772C112.281 31.9772 112.82 31.9024 113.371 31.9024L121.645 41.0981ZM74.3212 35.3364C76.2985 36.3283 78.3522 37.3495 78.3522 40.2803C78.3522 43.4563 75.4028 45.1734 72.6378 45.1734C71.3757 45.1734 70.073 44.8854 68.9274 44.3637L68.883 44.3431L68.3783 40.7102H69.1396L69.1599 40.7937C69.5466 42.4939 70.8105 44.2052 72.7743 44.2052C74.5995 44.2052 75.9377 42.9285 75.9377 41.1768C75.9377 39.18 74.399 38.3882 72.7743 37.5486C70.947 36.6067 68.8713 35.533 68.8713 32.5089C68.8713 29.5903 70.871 27.7764 74.0887 27.7764C74.8462 27.7764 75.6032 27.9024 76.3283 28.028L77.0943 28.1454L77.5105 31.3744H76.7574L76.7254 31.2851C76.4709 29.6551 75.4131 28.7564 73.7479 28.7564C72.0915 28.7564 70.995 29.901 70.995 31.6667C70.995 33.6697 72.614 34.4842 74.3212 35.3364ZM143.849 40.0953L144.607 40.2858L144.591 40.3877C144.591 40.3877 144.037 43.8363 143.985 43.9069C142.963 44.5384 140.269 45.1735 138.648 45.1735C133.05 45.1735 129.423 41.6479 129.423 36.1967C129.423 31.5574 133.53 27.7765 138.584 27.7765C140.471 27.7765 142.278 28.3544 144.254 29.0406L144.318 29.0608L144.575 32.6228H143.769L143.756 32.5328C143.346 30.0635 141.617 28.7562 138.752 28.7562C136.29 28.7562 132.12 30.3069 132.12 36.1196C132.12 40.5828 135.266 44.2053 139.136 44.2053C141.483 44.2053 143.368 42.5955 143.825 40.2152L143.849 40.0953ZM150.048 44.1625H150.3C150.973 44.1625 151.678 44.0674 151.678 43.1197V33.5034C151.678 32.5475 150.973 32.456 150.3 32.456H150.048V31.9026C151.176 31.9026 153.113 31.9775 154.661 31.9775C156.226 31.9775 158.16 31.9026 159.42 31.9026C159.38 32.6937 159.397 33.9031 159.453 34.715L158.903 34.8576C158.807 33.6658 158.586 32.7142 156.629 32.7142H154.063V37.5159H156.259C157.381 37.5159 157.621 36.8966 157.722 35.9025H158.278C158.246 36.6168 158.228 37.3416 158.228 38.0516C158.228 38.7523 158.246 39.4418 158.278 40.1443L157.722 40.2598C157.621 39.152 157.557 38.4376 156.275 38.4376H154.063V42.7154C154.063 43.9068 155.136 43.9068 156.319 43.9068C158.543 43.9068 159.529 43.7588 160.091 41.6727L160.597 41.7919C160.363 42.7701 160.136 43.7405 159.978 44.7151C158.791 44.7151 156.651 44.6417 154.976 44.6417C153.31 44.6417 151.094 44.7151 150.048 44.7151V44.1625ZM166.372 33.7896C166.372 32.4783 165.68 32.456 164.938 32.456H164.71V31.9026C165.519 31.9026 166.493 31.9775 167.665 31.9775C168.785 31.9775 169.719 31.9026 170.452 31.9026V32.456H170.228C169.486 32.456 168.749 32.4783 168.749 33.7896V40.1277C168.749 42.4579 169.629 44.0674 172.271 44.0674C174.723 44.0674 175.802 42.5353 175.802 40.0546V33.7896C175.802 32.4783 175.096 32.456 174.471 32.456H174.087V31.9026C174.84 31.9026 175.605 31.9775 176.342 31.9775C177.068 31.9775 177.777 31.9026 178.496 31.9026V32.456H178.106C177.598 32.456 176.915 32.4783 176.915 33.7896V39.6448C176.915 43.7973 174.679 44.9902 171.923 44.9902C168.348 44.9902 166.372 43.7041 166.372 40.4179V33.7896ZM184.515 32.8259C183.13 32.8259 183.067 33.1477 182.788 34.4897H182.229C182.313 33.9726 182.401 33.4667 182.462 32.9288C182.53 32.4158 182.558 31.9027 182.558 31.3745H183.002C183.155 31.9225 183.619 31.9027 184.129 31.9027H193.717C194.21 31.9027 194.677 31.8822 194.72 31.3338L195.16 31.413C195.081 31.9027 195.014 32.3992 194.954 32.8925C194.916 33.3879 194.916 33.8851 194.916 34.3824L194.358 34.5851C194.32 33.9031 194.23 32.8259 192.993 32.8259H189.946V42.5873C189.946 44.0001 190.584 44.1625 191.49 44.1625H191.832V44.7152C191.106 44.7152 189.804 44.6417 188.801 44.6417C187.691 44.6417 186.392 44.7152 185.667 44.7152V44.1625H186.016C187.045 44.1625 187.571 44.0674 187.571 42.6258V32.8259H184.515ZM199.012 44.1625H199.269C199.928 44.1625 200.642 44.0674 200.642 43.1197V33.5034C200.642 32.5475 199.928 32.456 199.269 32.456H199.012V31.9026C199.716 31.9026 200.851 31.9775 201.751 31.9775C202.677 31.9775 203.8 31.9026 204.673 31.9026V32.456H204.405C203.739 32.456 203.04 32.5475 203.04 33.5034V43.1197C203.04 44.0674 203.739 44.1625 204.405 44.1625H204.673V44.7151C203.779 44.7151 202.665 44.6417 201.732 44.6417C200.818 44.6417 199.716 44.7151 199.012 44.7151V44.1625ZM220.441 35.6792C219.92 33.9031 219.069 32.4394 216.282 32.4394C213.228 32.4394 211.637 34.8061 211.637 38.0106C211.637 41.0814 213.212 44.1847 216.726 44.1847C218.71 44.1847 220.036 42.953 220.517 41.1182L221.036 41.1916C220.794 42.1774 220.663 43.1683 220.573 44.1624C219.487 44.6193 218.025 44.9902 216.324 44.9902C212.138 44.9902 209.039 42.7316 209.039 38.1247C209.039 34.0111 212.398 31.6282 216.22 31.6282C218.398 31.6282 219.098 32.2835 220.854 32.5475C220.836 33.5585 220.866 34.585 220.998 35.6144L220.441 35.6792ZM231.038 33.9602H230.992L229.267 39.1518H232.735L231.038 33.9602ZM228.323 42.0927C228.126 42.7156 227.914 43.1945 227.914 43.5214C227.914 44.0676 228.692 44.1623 229.293 44.1623H229.507L229.501 44.7153C228.759 44.68 228.007 44.6419 227.253 44.6419C226.588 44.6419 225.924 44.68 225.253 44.7153V44.1623H225.358C226.083 44.1623 226.7 43.7407 226.976 42.9712L229.946 34.5528C230.194 33.8691 230.527 32.9491 230.635 32.2755C231.232 32.0684 231.974 31.6969 232.334 31.478C232.377 31.4618 232.42 31.4477 232.48 31.4477C232.531 31.4477 232.566 31.4477 232.608 31.5003C232.663 31.6483 232.719 31.8106 232.781 31.9568L236.191 41.5591C236.413 42.1964 236.644 42.8819 236.874 43.4339C237.103 43.9394 237.495 44.1623 238.102 44.1623H238.213V44.7153C237.383 44.68 236.55 44.6419 235.652 44.6419C234.739 44.6419 233.813 44.68 232.867 44.7153V44.1623H233.072C233.496 44.1623 234.216 44.096 234.216 43.633C234.216 43.3968 234.053 42.8978 233.853 42.3076L233.124 40.1808H228.913L228.323 42.0927ZM246.239 42.9167C246.239 43.6537 246.756 43.8705 247.353 43.9396C248.111 44.0001 248.952 44.0001 249.805 43.9068C250.591 43.8197 251.256 43.3711 251.593 42.9167C251.881 42.5105 252.053 41.9949 252.159 41.5971H252.706C252.502 42.6366 252.242 43.6717 252.029 44.7151C250.382 44.7151 248.749 44.6417 247.111 44.6417C245.482 44.6417 243.839 44.7151 242.208 44.7151V44.1625H242.472C243.142 44.1625 243.871 44.0674 243.871 42.935V33.5031C243.871 32.5475 243.142 32.456 242.472 32.456H242.208V31.9026C243.185 31.9026 244.155 31.9775 245.133 31.9775C246.091 31.9775 247.028 31.9026 247.964 31.9026V32.456H247.509C246.796 32.456 246.239 32.4784 246.239 33.4448V42.9167ZM263.907 34.6177C263.782 33.4263 262.999 32.2835 261.714 32.2835C260.246 32.2835 259.427 33.1476 259.427 34.6029C259.427 37.6483 265 36.7283 265 41.139C265 43.6716 262.885 44.9901 260.504 44.9901C259.461 44.9901 258.461 44.6193 257.555 44.1623C257.461 43.2305 257.327 42.3077 257.235 41.3741L257.759 41.2643C257.98 42.8212 258.872 44.1847 260.632 44.1847C261.895 44.1847 262.928 43.3969 262.928 42.0928C262.928 38.8476 257.461 39.8457 257.461 35.4296C257.461 33.0443 259.17 31.6282 261.574 31.6282C262.091 31.6282 263.666 31.8269 264.24 31.9025C264.24 32.7649 264.315 33.6499 264.419 34.5309L263.907 34.6177ZM40.3345 45.9491H59.6909V26.3453H40.3345V45.9491ZM59.5825 26H60.0236V46.2919H40V26H59.5825ZM47.1289 33.38C48.5588 32.158 53.1354 29.1944 58.8572 30.0063V45.1087H47.9659C49.9254 44.3494 51.901 43.3629 53.2616 42.3439C55.2229 40.8684 58.553 37.7205 57.4308 34.7979C56.2408 31.6482 51.1581 33.0412 48.6352 34.912C51.2398 33.5845 54.4818 33.4506 55.107 34.6359C55.7198 35.7582 54.598 37.4771 52.9008 38.9058C51.4684 40.1339 46.8921 43.0971 41.1703 42.2856V27.1835H52.0616C50.0982 27.9421 48.1184 28.9262 46.7642 29.9476C44.7887 31.4195 41.4806 34.5711 42.5803 37.4897C43.787 40.6426 48.8574 39.2489 51.3881 37.3802C48.7834 38.6991 45.55 38.8352 44.9084 37.6517C44.3195 36.5355 45.4217 34.8145 47.1289 33.38ZM43.2326 57.5801L42.3671 59.5766H44.0984L43.2326 57.5801ZM42.1151 60.139L41.5596 61.3757H40.9073L43.2326 56.2327L45.5582 61.3757H44.906L44.3504 60.139H42.1151ZM50.3962 60.8132H50.6094C51.8499 60.8132 52.9223 60.3418 52.9223 58.9088C52.9223 57.4693 51.8499 57.0045 50.6094 57.0045H50.3962V60.8132ZM49.7891 56.4414H50.7968C52.2889 56.4414 53.5294 57.24 53.5294 58.8826C53.5294 60.5644 52.3148 61.3759 50.7776 61.3759H49.7891V56.4414ZM59.6209 60.093L61.0679 56.4414H61.7332L59.6209 61.6377L57.5021 56.4414H58.1675L59.6209 60.093ZM67.1861 57.5801L66.3206 59.5766H68.0519L67.1861 57.5801ZM66.0686 60.139L65.513 61.3757H64.8608L67.1861 56.2327L69.5117 61.3757H68.8595L68.3039 60.139H66.0686ZM73.7361 56.2059L77.3925 60.0866V56.4414H77.9996V61.5783L74.3432 57.6984V61.3756H73.7361V56.2059ZM86.2875 57.3839C85.9385 57.0703 85.4604 56.9 85.0019 56.9C83.9104 56.9 83.0769 57.8228 83.0769 58.9155C83.0769 59.9953 83.9036 60.9178 84.9887 60.9178C85.4672 60.9178 85.9253 60.7349 86.2875 60.4072V61.1338C85.9129 61.3563 85.4348 61.4805 85.0083 61.4805C83.6192 61.4805 82.4698 60.3619 82.4698 58.935C82.4698 57.4757 83.626 56.3375 85.0598 56.3375C85.4864 56.3375 85.9189 56.4416 86.2875 56.6713V57.3839ZM90.8865 56.4415H93.5029V57.0043H91.4936V58.3855H93.445V58.9482H91.4936V60.8133H93.5029V61.3757H90.8865V56.4415ZM98.6836 60.8132H98.8968C100.137 60.8132 101.209 60.3418 101.209 58.9088C101.209 57.4693 100.137 57.0045 98.8968 57.0045H98.6836V60.8132ZM98.0765 56.4414H99.0838C100.576 56.4414 101.816 57.24 101.816 58.8826C101.816 60.5644 100.602 61.3759 99.0646 61.3759H98.0765V56.4414ZM112.649 58.758H112.843C113.463 58.758 114.135 58.6406 114.135 57.855C114.135 57.0834 113.412 56.9919 112.811 56.9919H112.649V58.758ZM112.649 61.3759H112.042V56.4414H112.74C114.239 56.4414 114.703 56.9653 114.703 57.8683C114.703 58.9088 113.922 59.3081 112.998 59.3081H112.649V61.3759ZM119.723 58.7777H119.917C120.537 58.7777 121.208 58.6603 121.208 57.875C121.208 57.1031 120.485 56.9918 119.884 56.9918H119.723V58.7777ZM122.145 61.3758H121.409L119.975 59.2886H119.723V61.3758H119.115V56.4416H119.852C120.285 56.4416 120.75 56.4485 121.137 56.671C121.544 56.9126 121.777 57.3774 121.777 57.8487C121.777 58.5555 121.312 59.1446 120.608 59.2292L122.145 61.3758ZM130.652 58.9088C130.652 57.8225 129.852 56.9127 128.708 56.9127C127.565 56.9127 126.764 57.8225 126.764 58.9088C126.764 60.0343 127.655 60.9046 128.708 60.9046C129.761 60.9046 130.652 60.0343 130.652 58.9088ZM131.26 58.9088C131.26 60.3746 130.116 61.4807 128.708 61.4807C127.3 61.4807 126.157 60.3746 126.157 58.9088C126.157 57.4956 127.313 56.3373 128.708 56.3373C130.104 56.3373 131.26 57.4956 131.26 58.9088ZM136.324 57.0045V58.3921H138.017V58.9545H136.324V61.3759H135.717V56.4417H138.075V57.0045H136.324ZM142.661 56.4415H145.277V57.0043H143.268V58.3855H145.219V58.9482H143.268V60.8133H145.277V61.3757H142.661V56.4415ZM152.066 57.3775C151.885 57.07 151.653 56.9127 151.285 56.9127C150.897 56.9127 150.471 57.1809 150.471 57.613C150.471 57.9997 150.845 58.202 151.149 58.3198L151.497 58.4573C152.189 58.7324 152.706 59.118 152.706 59.9429C152.706 60.8387 152.021 61.4807 151.149 61.4807C150.361 61.4807 149.747 60.8913 149.644 60.0995L150.257 59.9685C150.251 60.5118 150.678 60.9046 151.201 60.9046C151.724 60.9046 152.098 60.4596 152.098 59.9429C152.098 59.4122 151.679 59.1839 151.259 59.0068L150.923 58.8627C150.367 58.6212 149.863 58.3003 149.863 57.613C149.863 56.8151 150.561 56.3373 151.297 56.3373C151.84 56.3373 152.286 56.6052 152.551 57.0834L152.066 57.3775ZM159.411 57.3775C159.23 57.07 158.997 56.9127 158.629 56.9127C158.242 56.9127 157.815 57.1809 157.815 57.613C157.815 57.9997 158.19 58.202 158.493 58.3198L158.842 58.4573C159.534 58.7324 160.05 59.118 160.05 59.9429C160.05 60.8387 159.365 61.4807 158.493 61.4807C157.705 61.4807 157.092 60.8913 156.989 60.0995L157.602 59.9685C157.596 60.5118 158.022 60.9046 158.545 60.9046C159.068 60.9046 159.443 60.4596 159.443 59.9429C159.443 59.4122 159.023 59.1839 158.603 59.0068L158.267 58.8627C157.712 58.6212 157.208 58.3003 157.208 57.613C157.208 56.8151 157.906 56.3373 158.642 56.3373C159.185 56.3373 159.631 56.6052 159.895 57.0834L159.411 57.3775ZM164.572 61.3756V56.4414H165.179V61.3756H164.572ZM174.119 58.9088C174.119 57.8225 173.318 56.9127 172.175 56.9127C171.031 56.9127 170.23 57.8225 170.23 58.9088C170.23 60.0343 171.122 60.9046 172.175 60.9046C173.228 60.9046 174.119 60.0343 174.119 58.9088ZM174.726 58.9088C174.726 60.3746 173.583 61.4807 172.175 61.4807C170.766 61.4807 169.623 60.3746 169.623 58.9088C169.623 57.4956 170.78 56.3373 172.175 56.3373C173.57 56.3373 174.726 57.4956 174.726 58.9088ZM179.132 56.2059L182.788 60.0866V56.4414H183.396V61.5783L179.739 57.6984V61.3756H179.132V56.2059ZM189.945 57.5801L189.08 59.5766H190.811L189.945 57.5801ZM188.828 60.139L188.272 61.3757H187.62L189.945 56.2327L192.271 61.3757H191.619L191.063 60.139H188.828ZM197.161 60.8132H198.64V61.3759H196.553V56.4414H197.161V60.8132ZM210.823 57.3775C210.642 57.07 210.41 56.9127 210.042 56.9127C209.654 56.9127 209.227 57.1809 209.227 57.613C209.227 57.9997 209.602 58.202 209.906 58.3198L210.254 58.4573C210.946 58.7324 211.462 59.118 211.462 59.9429C211.462 60.8387 210.778 61.4807 209.906 61.4807C209.118 61.4807 208.504 60.8913 208.401 60.0995L209.014 59.9685C209.008 60.5118 209.435 60.9046 209.957 60.9046C210.481 60.9046 210.855 60.4596 210.855 59.9429C210.855 59.4122 210.436 59.1839 210.016 59.0068L209.68 58.8627C209.124 58.6212 208.62 58.3003 208.62 57.613C208.62 56.8151 209.318 56.3373 210.054 56.3373C210.597 56.3373 211.043 56.6052 211.308 57.0834L210.823 57.3775ZM218.678 56.4415H219.473L217.283 58.6602L219.511 61.3757H218.691L216.856 59.0789L216.611 59.3144V61.3757H216.004V56.4415H216.611V58.5817L218.678 56.4415ZM223.736 61.3756V56.4414H224.343V61.3756H223.736ZM229.071 56.2059L232.728 60.0866V56.4414H233.335V61.5783L229.678 57.6984V61.3756H229.071V56.2059ZM241.623 57.3839C241.274 57.0703 240.796 56.9 240.337 56.9C239.246 56.9 238.412 57.8228 238.412 58.9155C238.412 59.9953 239.239 60.9178 240.324 60.9178C240.802 60.9178 241.261 60.7349 241.623 60.4072V61.1338C241.248 61.3563 240.77 61.4805 240.344 61.4805C238.954 61.4805 237.805 60.3619 237.805 58.935C237.805 57.4757 238.961 56.3375 240.395 56.3375C240.822 56.3375 241.255 56.4416 241.623 56.6713V57.3839ZM248.031 57.5801L247.166 59.5766H248.897L248.031 57.5801ZM246.913 60.139L246.358 61.3757H245.706L248.031 56.2327L250.356 61.3757H249.704L249.149 60.139H246.913ZM255.246 58.7777H255.44C256.06 58.7777 256.732 58.6603 256.732 57.875C256.732 57.1031 256.009 56.9918 255.408 56.9918H255.246V58.7777ZM257.669 61.3758H256.932L255.498 59.2886H255.246V61.3758H254.639V56.4416H255.375C255.808 56.4416 256.273 56.4485 256.661 56.671C257.068 56.9126 257.3 57.3774 257.3 57.8487C257.3 58.5555 256.835 59.1446 256.131 59.2292L257.669 61.3758ZM262.022 56.4415H264.639V57.0043H262.63V58.3855H264.581V58.9482H262.63V60.8133H264.639V61.3757H262.022V56.4415Z" fill="#231F20"/>
</svg>
