<svg width="305" height="88" viewBox="0 0 305 88" fill="none" xmlns="http://www.w3.org/2000/svg">
<path d="M154.67 72.3202L154.765 72.3329C156.504 72.569 158.509 72.6887 160.726 72.6887C172.541 72.6883 187 69.3112 187.144 69.2768L187.294 69.2412H192.337L189.712 65.826L189.636 65.6107C188.527 62.4665 185.712 56.851 185.683 56.7948L185.617 56.6417C181.442 45.1774 168.788 27.5659 168.661 27.3895L168.608 27.3097L153.366 2.82312H148.13L111.188 68.1338L113.89 72.6802L154.67 72.3202ZM112.364 75.5171L108 68.1695L146.56 0H154.86L170.886 25.7436C171.724 26.9096 183.874 43.9006 188.15 55.5703C188.5 56.2693 190.98 61.2602 192.13 64.4275L198 72.0643H187.601C185.926 72.4522 172.326 75.5114 160.726 75.5118C158.431 75.5118 156.338 75.3882 154.504 75.1447L112.364 75.5171Z" fill="#252222"/>
<path d="M144.898 21.1195C144.898 21.1195 143.746 21.6333 143.881 22.8254C143.881 22.8254 144.102 24.0788 145.811 23.1938C145.811 23.1938 148.872 21.5182 151.544 21.8023C151.544 21.8023 154.358 21.8895 154.877 24.2475C154.877 24.2475 155.268 26.6133 151.572 27.7185C151.572 27.7185 147.521 28.1147 147.162 29.225C147.162 29.225 146.53 31.2175 149.009 30.7597C149.009 30.7597 152.682 29.4448 155.821 30.5907C155.821 30.5907 158.938 31.4143 157.224 35.0823C157.224 35.0823 156.587 37.9291 151.186 38.0134H147.082C147.082 38.0134 145.205 37.9011 145.51 39.6352C145.51 39.6352 145.729 40.4896 148.267 40.4C148.267 40.4 152.207 40.4307 154.274 39.8625C154.274 39.8625 158.712 39.0082 159.512 34.7114C159.512 34.7114 160.535 31.8977 157.721 29.5087C157.721 29.5087 155.544 28.4602 154.465 28.3195C154.465 28.3195 157.416 26.2657 156.37 23.1118C156.37 23.1118 155.791 19.9556 150.605 19.5819C150.605 19.5819 147.521 19.6126 144.898 21.1195Z" fill="#252222"/>
<path d="M145.094 46.1474C145.094 46.1474 144.048 45.7201 142.143 46.1474C142.143 46.1474 138.585 47.3731 136.823 49.1043C136.823 49.1043 132.715 51.511 134.12 55.8745C134.12 55.8745 135.409 59.678 140.271 60.9674C140.271 60.9674 142.393 61.4223 144.267 61.2205C144.267 61.2205 146.088 61.0259 145.922 62.53C145.922 62.53 145.783 63.727 143.963 63.5809C143.963 63.5809 140.299 63.6959 138.422 62.7551C138.422 62.7551 134.287 60.9363 132.908 58.7777C132.908 58.7777 129.378 53.8849 133.488 49.0221C133.488 49.0221 137.183 45.0115 141.539 44.4973C141.539 44.4973 144.013 44.3011 145.56 45.4851C145.56 45.4851 146.034 46.1757 145.094 46.1474Z" fill="#252222"/>
<path d="M158.27 46.1477V51.7237C158.27 51.7237 164.338 51.3528 164.752 51.3528L169.85 51.2377C169.85 51.2377 170.873 51.5517 170.897 52.35C170.897 52.35 171.09 53.3991 169.765 53.6293L158.27 54.0379L158.137 60.5939C158.137 60.5939 172.136 61.5961 172.499 61.6677C172.499 61.6677 173.02 62.1621 172.499 62.4198C172.499 62.4198 163.896 63.1537 162.128 63.0726L156.977 62.9547C156.977 62.9547 155.682 62.9265 155.844 61.1384L156.037 54.0379C156.037 54.0379 155.375 53.7161 155.489 52.6905C155.489 52.6905 155.544 52.35 156.014 52.0074V45.1221C156.014 45.1221 156.124 43.9326 157.088 43.8457H168.668C168.668 43.8457 169.961 44.1577 169.573 45.5798C169.573 45.5798 169.192 46.2344 168.143 46.2062L158.27 46.1477Z" fill="#252222"/>
<path d="M118.923 87.1058C117.635 87.1058 116.707 86.7952 115.889 85.9377L116.756 85.0551C117.383 85.7016 118.069 85.9002 118.949 85.9002C120.068 85.9002 120.719 85.4034 120.719 84.5456C120.719 84.1605 120.611 83.8373 120.381 83.6262C120.164 83.4149 119.948 83.3277 119.442 83.2533L118.43 83.104C117.732 83.0048 117.177 82.7564 116.804 82.3958C116.382 81.9857 116.178 81.4263 116.178 80.7054C116.178 79.1643 117.261 78.1082 119.045 78.1082C120.177 78.1082 120.972 78.4066 121.706 79.1146L120.876 79.9598C120.345 79.4378 119.731 79.2761 119.009 79.2761C117.997 79.2761 117.443 79.8729 117.443 80.656C117.443 80.9793 117.539 81.2648 117.768 81.4761C117.984 81.6748 118.333 81.8241 118.731 81.8861L119.707 82.0354C120.503 82.1592 120.948 82.3587 121.309 82.694C121.779 83.1164 122.007 83.7501 122.007 84.5085C122.007 86.1364 120.719 87.1058 118.923 87.1058Z" fill="#332D2B"/>
<path d="M126.659 79.3884V87.0313H125.357V79.3884H122.997V78.1825H129.019V79.3884H126.659Z" fill="#332D2B"/>
<path d="M133.308 83.3895V87.0307H132.007V83.3895L129.442 78.182H130.864L132.658 82.0722L134.453 78.182H135.875L133.308 83.3895Z" fill="#332D2B"/>
<path d="M137.055 87.0313V78.1825H138.356V85.8258H142.488V87.0313H137.055Z" fill="#332D2B"/>
<path d="M143.97 87.0313V78.1825H149.452V79.3884H145.271V81.9733H148.837V83.1665H145.271V85.8258H149.452V87.0313H143.97Z" fill="#332D2B"/>
<path d="M156.499 87.0313L152.536 80.8048V87.0313H151.235V78.1825H152.428L156.391 84.3966V78.1825H157.692V87.0313H156.499Z" fill="#332D2B"/>
<path d="M162.607 80.1837L161.27 84.1107H163.908L162.607 80.1837ZM164.859 87.0313L164.269 85.2541H160.885L160.295 87.0313H158.909L162.053 78.1825H163.101L166.245 87.0313H164.859Z" fill="#332D2B"/>
<path d="M172.727 87.0313L168.763 80.8048V87.0313H167.462V78.1825H168.655L172.619 84.3966V78.1825H173.92V87.0313H172.727Z" fill="#332D2B"/>
<path d="M180.497 79.9848C180.136 79.5747 179.655 79.3884 179.04 79.3884H177.462V85.8258H179.04C179.655 85.8258 180.136 85.6392 180.497 85.229C180.943 84.7195 180.955 83.7629 180.955 82.5446C180.955 81.3269 180.943 80.4939 180.497 79.9848ZM181.389 86.1985C180.846 86.7578 180.064 87.0313 179.172 87.0313H176.161V78.1825H179.172C180.064 78.1825 180.846 78.4561 181.389 79.0154C182.316 79.9724 182.256 81.2647 182.256 82.5446C182.256 83.8249 182.316 85.2414 181.389 86.1985Z" fill="#332D2B"/>
<path d="M186.738 80.1837L185.401 84.1107H188.039L186.738 80.1837ZM188.99 87.0313L188.4 85.2541H185.015L184.424 87.0313H183.04L186.184 78.1825H187.231L190.376 87.0313H188.99Z" fill="#332D2B"/>
</svg>
