<svg width="305" height="88" viewBox="0 0 305 88" fill="none" xmlns="http://www.w3.org/2000/svg">
<path fill-rule="evenodd" clip-rule="evenodd" d="M55.5361 58.9119C55.4916 56.5799 55.2107 56.561 54 56.45V55.9404H59.7758L59.9054 56.45C59.8626 56.45 59.6649 56.4727 59.5581 56.4916C57.8089 56.7778 57.6989 56.8213 57.6989 62.3657C57.6989 66.1958 57.9784 67.2307 58.8433 67.9354C59.7531 68.6841 60.9188 68.8168 61.6328 68.8168C62.0027 68.8168 64.705 68.7978 65.4835 66.7466C65.9575 65.4708 66.0898 62.9871 66.0898 60.2538C66.0898 56.6669 65.6762 56.6493 64.2487 56.561L64.1624 55.9404L65.334 55.8965C65.6598 55.8965 66.0452 55.9404 66.477 55.9404H68.5953V56.561C68.1212 56.5799 67.495 56.6017 67.3209 57.0169C67.17 57.3956 67.17 59.6841 67.17 60.2538C67.1473 62.1687 66.936 66.0405 66.2643 67.516C65.3513 69.4988 62.5226 69.805 60.8797 69.805C58.8642 69.805 55.4916 69.3217 55.4916 65.4708C55.4916 64.8978 55.5979 62.0605 55.5979 61.4246L55.5361 58.9119ZM97.3217 69.1211C98.8328 69.1211 98.9396 68.9213 98.9396 62.959C98.9396 57.4387 98.8541 57.3259 98.4869 56.8426C98.2229 56.4722 97.5543 56.4274 97.3217 56.4274V55.8304C97.9052 55.8771 98.4237 55.9187 99.5236 55.9187C99.719 55.9187 100.329 55.8771 100.951 55.8549C101.559 55.8105 102.208 55.7879 102.425 55.7879C105.278 55.7879 106.487 57.305 106.487 59.0229C106.487 60.3436 105.801 61.5962 103.676 62.06V62.1063C107.334 62.5867 107.849 64.8979 107.849 65.9744C107.849 67.5378 106.876 69.7181 102.771 69.7181C102.532 69.7181 101.862 69.6945 101.166 69.6755C100.476 69.6547 99.7871 69.6279 99.5236 69.6279C98.1611 69.6279 97.9266 69.6755 97.3217 69.737V69.1211ZM101.755 56.5374C101.3 56.5374 101.211 56.6017 101.166 56.8662C101.021 57.7929 101.021 60.7181 101.021 61.8381C103.46 62.0143 104.11 60.8698 104.11 59.4012C104.11 58.0565 103.57 56.5374 101.755 56.5374ZM101.755 62.565C101.537 62.565 101.257 62.5867 101.021 62.6112C101.021 67.3644 101.021 68.151 101.103 68.5306C101.19 68.9213 101.388 68.9893 102.226 68.9893C104.954 68.9893 105.512 67.5822 105.512 66.108C105.512 62.7611 102.465 62.565 101.755 62.565ZM118.774 66.5706C118.618 66.966 118.252 67.8487 118.252 68.1747C118.252 68.989 119.292 69.1213 119.899 69.2115V69.7183C119.744 69.7183 119.097 69.6947 118.471 69.6757C117.838 69.6558 117.257 69.6276 117.212 69.6276C116.955 69.6276 116.05 69.6276 115.702 69.6558V69.2115C116.05 69.1435 116.586 69.0343 116.998 68.3527C117.754 67.1204 121.499 57.7667 121.776 57.0181C121.995 56.4724 122.126 56.0752 122.252 55.6766H122.817C122.944 56.1219 123.073 56.6005 123.336 57.326C123.791 58.63 125.948 64.3029 126.384 65.4705C127.635 69.0135 128.004 69.0824 128.874 69.2115V69.6558C128.373 69.6068 127.878 69.562 126.969 69.562C125.629 69.562 124.611 69.6757 123.939 69.7183V69.2115C124.502 69.1213 125.019 68.9063 125.019 68.3995C125.019 68.0887 123.963 65.207 123.855 64.8981C123.467 64.8555 123.225 64.8319 122.299 64.8319C121.499 64.8319 120.464 64.8319 119.421 64.9818L118.774 66.5706ZM119.81 63.9298C120.396 64.019 121.216 64.1268 122.148 64.1268C122.857 64.1268 123.206 64.0824 123.553 64.038C122.971 62.4117 122.36 60.741 121.647 59.2668L119.81 63.9298ZM150.667 65.8192C150.667 65.1381 150.732 62.0385 150.732 61.4244C150.732 56.7328 150.557 56.514 148.524 56.3171L148.721 55.8292C148.85 55.8098 149.046 55.789 149.259 55.789C149.435 55.789 149.913 55.8098 150.404 55.8546C150.904 55.9189 151.424 55.9406 151.594 55.9406C151.706 55.9406 153.09 55.9189 153.367 55.9189V56.4734C153.067 56.4498 152.465 56.4498 152.201 56.9547C151.792 57.7468 151.748 61.4887 151.748 62.6517C151.729 63.4012 151.684 66.6807 151.684 67.3373C151.684 67.5824 151.729 68.4864 151.748 69.1005L151.792 69.9384H151.144C150.404 68.5303 149.259 67.3835 148.114 66.2825L141.474 59.7935C141.196 59.5082 140.869 59.1729 140.587 58.9561C140.564 59.4014 140.52 60.4066 140.52 60.851L140.439 65.9311C140.414 67.9787 140.414 68.7699 142.817 69.1435C142.879 69.4084 142.838 69.586 142.817 69.7372C142.537 69.7183 142.275 69.6748 141.953 69.6276C141.647 69.6068 141.282 69.586 140.764 69.586C140.286 69.586 138.189 69.7183 137.753 69.7372C137.736 69.4986 137.736 69.4343 137.753 69.1435C139.119 69.1213 139.247 68.3528 139.293 66.4823L139.399 60.0372C139.442 58.2056 139.423 56.7101 137.582 56.4266C137.563 56.1843 137.563 56.0969 137.582 55.7663C137.694 55.7663 138.145 55.8098 138.598 55.8292C139.054 55.8546 139.531 55.8764 139.704 55.8764H140.719C142.058 57.4389 142.122 57.5031 145.779 61.0711C146.776 62.081 147.768 63.0729 148.808 64.0389L150.667 65.8192ZM168.286 64.1059C168.286 63.2911 168.242 59.8573 168.156 58.759C168.026 56.9783 168.001 56.7091 166.747 56.6259V56.028L170.014 55.9633C170.856 55.9415 172.589 55.7445 173.368 55.7445C177.95 55.7445 181.236 58.6013 181.236 62.6114C181.236 65.6874 179.164 69.6757 173.13 69.6757C172.589 69.6757 170.276 69.5619 169.799 69.5619C169.406 69.5619 167.659 69.5864 167.287 69.5864H166.638V69.0343C168.045 68.9709 168.286 68.8836 168.286 65.5583V64.1059ZM172.933 56.4724C172.459 56.4724 171.619 56.514 170.665 56.9783C170.534 58.3618 170.492 59.5955 170.492 62.191C170.492 63.1621 170.511 66.547 170.554 68.3337C171.267 68.571 172.285 68.9224 173.389 68.9224C176.266 68.9224 178.557 66.4406 178.557 62.6752C178.557 58.0793 175.273 56.4724 172.933 56.4724ZM198.948 64.8989H198.448C198.19 63.0086 198.19 62.9202 194.773 62.9202C193.889 62.9202 193.606 62.9591 193.11 63.0483C193.11 63.3563 193.046 65.8871 193.046 65.9546C193.046 67.1629 193.197 67.9786 193.303 68.5709C194.016 68.7046 195.054 68.8835 196.287 68.8835C199.534 68.8835 200.119 67.1855 200.398 66.3962H200.872C200.768 67.6489 200.569 68.2856 199.943 69.7616C197.066 69.5864 196.287 69.5619 194.277 69.5619C192.289 69.5619 191.357 69.6072 189.238 69.7616L189.304 69.1859C190.085 69.0343 190.516 68.9224 190.643 68.2001C190.862 66.9663 190.899 63.1621 190.899 61.7073C190.899 61.157 190.749 58.4533 190.749 57.8318C190.667 56.6259 190.471 56.514 189.67 56.317C189.585 56.2938 189.455 56.274 189.433 56.2485V55.8763H196.266C197.783 55.8763 198.537 55.8763 199.943 55.7662C200.005 57.2843 199.686 58.6905 199.403 58.6905C199.296 58.6905 199.102 58.6457 198.948 58.629C199.011 58.3618 199.079 58.0575 199.079 57.7666C199.079 56.9315 198.169 56.5611 196.025 56.5611C195.143 56.5611 194.234 56.6675 193.303 56.8002C193.15 58.1199 193.09 58.9347 193.09 60.2096C193.09 60.6965 193.09 61.0905 193.11 62.1244C193.606 62.1471 194.32 62.1915 195.079 62.1915C196.591 62.1915 197.714 62.0384 197.891 61.9473C198.257 61.7956 198.448 60.7182 198.448 60.6965H198.948V64.8989ZM220.277 69.1862C218.241 69.7614 216.275 69.8039 216.04 69.8039C211.843 69.8039 208.686 66.8325 208.686 62.6953C208.686 57.9241 212.47 55.6351 216.492 55.6351C217.379 55.6351 218.201 55.7447 219.151 56.1211C219.392 56.2081 219.824 56.3597 220.037 56.3597C220.258 56.3597 220.431 56.2728 220.623 56.1854L220.905 56.2728C220.817 56.6904 220.365 58.7819 220.277 59.2679L219.93 59.1731C219.824 58.2519 219.798 57.968 219.499 57.6554C219.196 57.3063 217.919 56.4055 216.04 56.4055C211.237 56.4055 211.237 61.4426 211.237 62.5871C211.237 68.6197 215.517 69.0562 216.361 69.0562C218.267 69.0562 219.865 68.0408 220.474 66.1509L220.968 66.2193C220.949 66.5273 220.949 66.6988 220.797 67.2533C220.753 67.4049 220.54 68.1513 220.518 68.2858L220.277 69.1862ZM232.868 66.5706C232.716 66.966 232.353 67.8487 232.353 68.1747C232.353 68.989 233.389 69.1213 233.996 69.2115V69.7183C233.843 69.7183 233.194 69.6947 232.567 69.6757C231.941 69.6558 231.352 69.6276 231.312 69.6276C231.052 69.6276 230.149 69.6276 229.799 69.6558V69.2115C230.149 69.1435 230.686 69.0343 231.091 68.3527C231.854 67.1204 235.593 57.7667 235.875 57.0181C236.089 56.4724 236.224 56.0752 236.349 55.6766H236.914C237.046 56.1219 237.177 56.6005 237.432 57.326C237.886 58.63 240.046 64.3029 240.483 65.4705C241.736 69.0135 242.103 69.0824 242.973 69.2115V69.6558C242.468 69.6068 241.971 69.562 241.065 69.562C239.727 69.562 238.708 69.6757 238.039 69.7183V69.2115C238.6 69.1213 239.117 68.9063 239.117 68.3995C239.117 68.0887 238.059 65.207 237.953 64.8981C237.563 64.8555 237.322 64.8319 236.394 64.8319C235.593 64.8319 234.556 64.8319 233.52 64.9818L232.868 66.5706ZM233.906 63.9298C234.492 64.019 235.309 64.1268 236.24 64.1268C236.954 64.1268 237.303 64.0824 237.645 64.038C237.068 62.4117 236.458 60.741 235.741 59.2668L233.906 63.9298ZM255.916 63.1621C255.916 63.9977 255.916 68.0003 256.004 68.441C256.114 68.9053 257.322 69.1652 257.8 69.2341L257.754 69.7372C257.038 69.6748 255.916 69.5628 255.007 69.5628C254.51 69.5628 252.304 69.7372 251.874 69.7372L251.894 69.2341C253.237 69.1222 253.453 68.817 253.578 68.3758C253.709 67.9134 253.709 64.8754 253.709 64.1059C253.709 63.8414 253.709 63.7364 253.692 63.3346C253.02 62.2327 252.458 61.3097 250.208 58.2508C249.389 57.2201 248.735 56.4058 247.374 56.4058L247.285 55.8763C247.503 55.8763 248.109 55.8971 248.735 55.8971C249.367 55.9189 249.992 55.9415 250.208 55.9415L253.169 55.8971L253.082 56.4913C252.89 56.4913 251.937 56.4913 251.937 56.889C251.937 57.2844 254.314 60.6304 255.617 62.2327C258.342 57.8985 258.469 57.6807 258.469 57.1993C258.469 56.5385 257.738 56.5385 257.125 56.514L257.194 55.8763C257.386 55.8763 257.776 55.8971 258.227 55.9189C258.663 55.9415 259.159 55.9633 259.528 55.9633C259.872 55.9633 261.366 55.9189 261.692 55.9189L261.669 56.6259C260.178 56.6495 259.399 57.2201 256.802 61.6639L255.916 63.1621ZM97.3643 73.8193C97.4793 73.756 97.2125 74.531 96.5194 74.7737C95.296 75.2741 93.8022 74.7885 93.8022 74.7885C91.5766 74.1555 90.2605 73.2131 88.2104 70.8677C86.2998 68.7281 85.918 67.93 83.9061 64.6931C83.2694 63.4367 82.4159 62.9979 82.0255 62.9498C81.3888 62.8 80.7371 62.997 80.6239 63.0918C80.5994 63.5759 80.5794 63.9741 80.5794 65.2069C80.5794 65.931 80.5794 68.1321 80.8621 68.5936C81.1402 69.0135 82.0069 69.2104 82.3105 69.2548L82.2255 69.7824C81.5315 69.6946 81.1402 69.6747 80.7962 69.6557C80.4253 69.628 80.1036 69.628 79.5 69.628C78.6106 69.628 78.4398 69.628 76.8409 69.7824V69.2548C77.7712 68.9714 78.1144 68.8169 78.2666 68.1094C78.4189 67.5162 78.4607 62.474 78.4607 61.3559C78.4607 58.4954 78.4398 58.0321 78.3748 57.5266C78.2439 56.5385 77.379 56.514 76.9277 56.4922L77.0146 55.9188C77.3127 55.9188 78.5929 55.9406 78.8515 55.9406C79.1296 55.9406 79.8863 55.8971 80.6239 55.8296C81.3811 55.7672 82.1164 55.701 82.3718 55.701C85.9221 55.701 87.2828 57.7241 87.2828 59.3744C87.2828 61.0007 85.973 62.2326 84.2674 62.8083C84.2692 62.8162 84.2751 62.8236 84.2792 62.8361C85.3422 63.1875 86.6652 65.9319 88.0104 67.7996C89.9196 70.6694 91.533 72.003 92.471 72.667C95.0347 74.4931 96.9175 73.9474 97.3643 73.8193ZM81.6828 62.4106C82.7236 62.4106 84.9505 62.4106 84.9505 59.5955C84.9505 58.8034 84.5596 56.3595 81.941 56.3595C80.8171 56.3595 80.8171 56.6494 80.753 58.0566C80.6658 60.1448 80.6658 60.4065 80.6871 62.326C81.0134 62.3908 81.1002 62.4106 81.6828 62.4106ZM172.613 22.1665C178.736 24.4577 178.964 28.8095 178.964 34.856C178.964 42.9187 178.241 43.8791 174.504 44.7947C172.027 45.3926 170.361 46.3082 169.102 48.7811C166.535 46.4011 163.474 44.3392 160.008 43.3755V42.8267C161.628 42.6889 161.674 41.4968 161.674 40.9479V28.8095C162.347 29.0379 163.249 29.2664 164.059 29.2664C165.635 29.2664 167.617 29.1281 167.617 27.3904C164.69 26.565 160.953 24.731 160.953 20.9286C160.953 18.3719 162.472 16.2481 164.46 15.3917C164.553 15.3528 164.643 15.308 164.738 15.2724C164.747 15.2705 164.757 15.2682 164.765 15.2654C164.931 15.2062 165.101 15.1554 165.273 15.1133C165.28 15.1124 165.286 15.1114 165.298 15.1087C165.426 15.0768 165.553 15.0587 165.684 15.0398C165.881 15.0139 166.085 15 166.293 15C167.9 15 169.232 15.8134 169.513 16.8839C169.375 16.7502 169.102 16.3262 168.43 16.1334C165.304 15.197 164.435 17.0591 164.448 17.6857C164.467 18.7395 165.081 19.1506 166.036 19.5844C166.085 19.6038 166.128 19.6246 166.174 19.6463L172.613 22.1665ZM172.208 43.6521V31.9253C172.208 29.8167 171.577 28.3499 168.428 27.6627V40.8133C169.867 41.5439 171.126 42.6421 172.208 43.6521ZM159.801 39.8547L153.857 45.3528C151.652 44.1145 149.76 42.8308 149.715 39.8547L142.331 45.3528C140.856 43.85 139.064 42.3513 137.019 40.8628V40.3111C138.774 40.3111 139.45 39.7178 139.45 37.9292V27.5323C139.47 26.3351 138.446 23.0557 135.728 24.1086C134.968 24.4032 133.807 25.8755 135.868 28.4451C136.306 28.9991 136.792 29.0916 136.969 29.1693C135.889 29.3228 134.634 28.3883 134.013 26.8813C133.93 26.6852 133.868 26.4887 133.814 26.2944C133.781 26.165 133.748 26.0369 133.723 25.9042C133.723 25.8958 133.722 25.8898 133.72 25.8778C133.69 25.7026 133.672 25.5241 133.66 25.3442C133.66 25.3354 133.659 25.3271 133.659 25.3169C133.652 25.2152 133.656 25.1139 133.656 25.0099C133.66 22.8125 134.995 20.5642 137.312 19.5723C139.21 18.758 141.007 19.245 142.554 20.2521L142.556 20.2479C142.599 20.2738 142.636 20.302 142.675 20.3298C142.727 20.3635 142.773 20.3973 142.822 20.4315C146.152 22.7205 146.204 25.236 146.204 26.7532V38.5711C146.204 39.396 146.427 40.4485 147.284 40.4485C147.733 40.4485 148.005 40.2672 148.363 40.0392L149.715 39.0746V26.6611C149.728 25.6448 149.013 25.5389 148.113 25.4931L147.978 25.0612C149.7 23.5079 153.048 20.2479 153.048 20.2479C153.048 20.2479 156.378 24.0499 158.765 24.645V25.1939H158.044C156.784 25.1939 156.469 25.9735 156.469 27.7136V37.9292C156.469 39.5347 157.19 40.1285 158.044 40.1285C158.54 40.1285 159.123 39.6272 159.44 39.2577L159.801 39.8547Z" fill="black"/>
</svg>
