<svg width="305" height="88" viewBox="0 0 305 88" fill="none" xmlns="http://www.w3.org/2000/svg">
<path d="M51.5082 26.518L51.5852 27.3085H47.875L54.9382 54.6786C56.7674 48.1012 60.2227 36.7509 61.9256 30.065C62.1794 29.0549 61.7476 28.1546 61.0874 27.7735C60.5546 27.4738 59.3339 27.5823 58.6231 27.5552L58.5209 26.518H67.0585V27.3085C65.9148 27.3628 63.8823 27.5811 63.4758 28.8095C59.8679 39.315 55.9304 53.5057 53.3387 62.4818H52.9322L43.2015 27.3085H40.0758L40 26.518H51.5082ZM78.6425 50.5593L70.3863 50.4766C69.5468 53.1789 68.7856 56.4534 68.2263 59.1001C68.0231 60.1374 68.1506 60.4926 68.4548 60.9576C68.7591 61.4226 70.6401 61.1216 71.7838 61.2017L71.708 61.9664H63.8571L63.7813 61.2017C64.5185 61.1216 66.373 61.4213 66.6268 60.6295C69.3195 52.5266 73.3845 35.4153 76.0785 26.0013H76.5355L85.9366 61.2017H88.9084V61.9664H77.755V61.2017H81.5145L78.6425 50.5593ZM74.5775 34.5137L70.5895 49.876H78.5162L74.5775 34.5137ZM94.5729 27.5552H90.6859V26.518H102.474V27.5552H98.5356V61.2844C100.492 61.2844 102.525 61.1733 104.48 61.2289C111.925 61.4459 113.373 58.1455 113.348 50.6407L113.907 50.5606L113.831 61.9664H90.6354V61.2857H94.5729V27.5552ZM119.954 27.6637H116.549V26.6265H137.357L137.915 35.4954L137.381 35.414C137.052 32.5219 136.924 31.6745 135.781 30.0379C134.637 28.4 132.554 27.8549 130.293 27.8278L124.043 27.7464L123.967 43.9005C125.059 43.8734 126.176 43.8734 127.269 43.7907C128.363 43.7365 130.014 43.11 130.598 42.2084C131.183 41.3068 131.284 39.6973 131.386 37.4329H131.971L132.046 50.6123H131.233C131.233 50.5593 131.208 50.4766 131.208 50.3681C131.183 48.7858 131.386 47.4489 130.497 46.0293C129.965 45.129 128.236 44.4754 126.711 44.5283L123.968 44.611L124.044 61.3374C127.778 61.3102 134.283 62.0207 137.102 58.9632C138.297 57.6818 138.602 54.924 138.602 52.0332L139.365 52.0887L139.314 61.9651H116.626L116.55 61.256H119.955V27.6637H119.954ZM165.127 27.7464C164.646 27.2555 162.662 27.4467 161.723 27.4467L161.798 26.5193L169.93 26.5735V27.3098C167.21 27.3912 166.297 27.0101 166.219 29.9294C165.965 38.115 166.169 56.0168 166.144 62.4831L165.432 62.5386L146.708 28.8379C146.657 33.8316 146.53 51.4609 146.53 58.4736C146.53 61.9935 148.283 61.1203 150.646 61.0648V61.9651H142.032V61.2289C145.944 61.1203 145.919 61.3645 145.97 56.1808C146.045 46.9851 146.097 37.2146 146.122 27.3369C144.192 27.364 143.2 27.3912 142.235 27.3912V26.518L150.569 26.5722L165.483 53.2332C165.457 50.5593 165.557 35.0859 165.507 29.4644C165.484 28.4827 165.279 27.8549 165.127 27.7464ZM233.267 27.7735C232.786 27.2827 230.802 27.4738 229.863 27.4467L229.938 26.5464L238.07 26.6006V27.3369C235.35 27.3912 234.462 27.0088 234.359 29.9294C234.105 38.1421 234.309 56.0168 234.284 62.4831L233.572 62.5386L214.849 28.8379C214.798 33.8588 214.671 51.4609 214.671 58.4736C214.671 61.9935 216.424 61.1203 218.787 61.0648V61.9651H210.173V61.2289C214.087 61.1203 214.087 61.3645 214.112 56.208C214.187 46.9839 214.238 37.2418 214.265 27.3628C212.36 27.3899 211.342 27.3899 210.378 27.3899V26.5438L218.712 26.5981L233.625 53.2319C233.6 50.558 233.7 35.0846 233.65 29.4902C233.624 28.5098 233.419 27.882 233.267 27.7735ZM181.464 27.4726C177.933 27.3912 174.758 27.6909 173.536 29.3016C172.291 30.9124 172.417 33.1768 172.114 36.8052L171.555 36.8865L171.604 26.518H195.488L195.614 36.9692H194.978C194.649 32.8758 194.724 30.5843 193.43 29.2461C192.134 27.9091 188.425 27.3899 185.551 27.3899L185.477 61.1436L189.39 61.2263V61.991H177.396V61.2263H181.387L181.464 27.4726ZM201.256 27.5552H197.826V26.518H208.751V27.5552H205.244V61.1449H208.598V61.9923H197.596V61.1449H201.256V27.5552ZM252.551 26.6265C252.221 26.6265 251.866 26.6536 251.509 26.7363C251.138 26.8197 250.774 26.9288 250.417 27.0631C248.995 27.6624 247.673 29.1918 246.48 31.6745C245.285 34.1856 244.702 38.3333 244.702 44.1731C244.702 49.9587 245.284 54.0779 246.454 56.5877C247.647 59.0704 248.943 60.6269 250.341 61.2547C250.721 61.4433 251.102 61.5544 251.459 61.6357C251.814 61.7184 252.171 61.7442 252.551 61.7442C252.906 61.7442 253.263 61.7184 253.643 61.6357C254.023 61.5557 254.405 61.4446 254.787 61.2547C256.185 60.5985 257.479 59.0174 258.649 56.5322C259.842 54.0224 260.427 49.9018 260.427 44.1731C260.427 38.8784 259.92 35.0304 258.929 32.5748C257.938 30.1193 256.846 28.4543 255.649 27.6082C255.158 27.2381 254.607 26.97 254.023 26.8177C253.541 26.695 253.047 26.6309 252.551 26.6265ZM240.229 44.2545C240.229 39.0708 241.347 34.8947 243.583 31.7572C245.819 28.5925 248.258 26.7363 250.949 26.1628C251.228 26.1085 251.509 26.0814 251.788 26.0543C252.067 26 252.323 26 252.577 26C255.776 26 258.649 27.6921 261.188 31.1307C263.729 34.5421 265 38.9352 265 44.2558C265 49.2766 263.983 53.2874 261.951 56.3178C259.92 59.3481 257.683 61.2573 255.268 62.0478C254.837 62.2385 254.385 62.3675 253.922 62.4314C253.477 62.5083 253.027 62.5446 252.577 62.5399C251.873 62.5416 251.172 62.4408 250.494 62.2403C249.73 62.0491 248.969 61.7236 248.18 61.3115C246.2 60.1102 244.37 58.1197 242.718 55.3632C241.042 52.5783 240.204 48.8943 240.229 44.2545Z" fill="black"/>
</svg>
