<svg width="305" height="88" viewBox="0 0 305 88" fill="none" xmlns="http://www.w3.org/2000/svg">
<path fill-rule="evenodd" clip-rule="evenodd" d="M31.1719 18.0063C32.215 18.0214 32.6718 18.0365 32.7099 18.0667C32.7366 18.0932 32.8013 18.1802 32.8508 18.2633C32.8964 18.3465 33.3152 19.4428 33.7796 20.7016C34.2441 21.9604 35.1082 24.308 35.7021 25.9184C36.2959 27.5287 37.6436 31.2032 38.7019 34.0837C39.7602 36.9643 40.8147 39.8637 41.0507 40.5291C41.2867 41.1944 41.6027 42.0714 41.7549 42.4759C41.911 42.8804 42.1242 43.4172 42.2308 43.6667C42.3374 43.9162 42.4859 44.2299 42.5582 44.366C42.6305 44.5021 42.798 44.7554 42.9313 44.9331C43.0645 45.1107 43.3881 45.5001 43.6507 45.8025C43.9172 46.105 44.1228 46.362 44.1152 46.3771C44.1038 46.396 42.2041 46.4074 39.8896 46.4074C37.122 46.4074 35.6754 46.396 35.664 46.3696C35.6526 46.3469 35.7668 46.1919 35.9191 46.018C36.0675 45.8479 36.334 45.5606 36.5091 45.3754C36.6842 45.1939 36.8708 44.9558 36.9279 44.8461C37.0116 44.6836 37.0307 44.6004 37.0307 44.366C37.0307 44.0939 37.0078 44.022 36.5243 42.7405C36.2465 42.0034 35.8049 40.8126 35.546 40.0943C35.2833 39.3761 35.0397 38.7145 35.0016 38.62C34.9483 38.4877 34.9064 38.4386 34.8037 38.4046C34.7047 38.3705 33.4218 38.3592 29.5731 38.3592C25.5987 38.3554 24.4529 38.3668 24.3806 38.4046C24.3044 38.4386 24.2549 38.5444 24.1255 38.9225C24.0379 39.1833 23.7943 39.8713 23.5849 40.4535C23.3755 41.0356 23.1357 41.7312 23.0482 42.0034C22.9606 42.2756 22.8807 42.5704 22.8692 42.6649C22.854 42.7708 22.8692 42.9295 22.9073 43.0807C22.9454 43.2168 23.0177 43.4096 23.0748 43.5117C23.1319 43.6138 23.3184 43.867 23.4859 44.0787C23.6573 44.2904 24.0608 44.7176 24.3806 45.0276C24.7041 45.3413 25.1686 45.761 25.416 45.9651C25.6596 46.1654 25.8538 46.3469 25.8424 46.3696C25.831 46.396 24.4833 46.4074 21.9213 46.4074C19.3593 46.4074 18.0117 46.396 18.0003 46.3696C17.9889 46.3469 18.3087 45.9953 18.7122 45.5833C19.1119 45.175 19.6639 44.6004 19.9342 44.3093C20.2083 44.0183 20.5433 43.644 20.6841 43.4777C20.825 43.3113 21.0382 43.0316 21.16 42.8539C21.2818 42.6763 21.4531 42.389 21.5407 42.2113C21.632 42.0336 22.0279 40.9789 22.4276 39.8675C22.8274 38.7561 23.7791 36.1099 24.5404 33.9892C25.3056 31.8685 26.2154 29.3244 26.5657 28.3377C26.9159 27.3511 27.4869 25.718 27.8372 24.7087C28.1874 23.6993 28.5034 22.7656 28.5376 22.6295C28.5719 22.4934 28.6328 22.1457 28.6747 21.8546C28.7165 21.5635 28.7736 20.9927 28.7965 20.5882C28.8231 20.1459 28.8307 19.4806 28.7927 18.0176L29.2419 18.0025C29.4855 17.9987 30.3535 17.9987 31.1719 18.0063V18.0063ZM25.1153 36.0419L24.6813 37.3347C33.6045 37.3347 34.6133 37.3234 34.6019 37.2856C34.5943 37.2629 34.1299 36.0154 33.5702 34.5185C33.0106 33.0215 31.8496 29.9179 30.993 27.6195C30.1327 25.3211 29.417 23.4083 29.4018 23.3667C29.3827 23.3138 28.8231 24.9393 27.4641 29.0182C26.4134 32.1671 25.3551 35.3274 25.1153 36.0381V36.0419ZM277.645 25.6386C278.35 25.6462 278.768 25.6689 279.035 25.7104C279.244 25.7445 279.614 25.8163 279.853 25.8692C280.093 25.9259 280.489 26.0318 280.729 26.1111C280.969 26.1905 281.353 26.3342 281.585 26.4325C281.814 26.5308 282.168 26.6933 282.366 26.7992C282.564 26.905 282.865 27.0789 283.032 27.181C283.2 27.283 283.523 27.5098 283.755 27.68C283.984 27.8501 284.353 28.1487 284.574 28.3491C284.795 28.5456 285.095 28.8405 285.244 29.0068C285.392 29.1694 285.625 29.4416 285.758 29.6079C285.895 29.7742 286.138 30.1144 286.306 30.3639C286.473 30.6134 286.732 31.0557 286.881 31.3468C287.033 31.6379 287.235 32.0802 287.334 32.3297C287.433 32.5792 287.574 32.9874 287.646 33.2369C287.714 33.4864 287.817 33.8947 287.867 34.1442C287.916 34.3937 287.966 34.6772 288 34.957H272.011L271.988 35.1724C271.973 35.2934 271.973 35.5467 271.988 35.7319C272.004 35.9171 272.057 36.2574 272.103 36.488C272.152 36.7186 272.285 37.1835 272.403 37.5275C272.518 37.8715 272.693 38.3365 272.792 38.5671C272.891 38.7977 273.07 39.1795 273.191 39.4177C273.317 39.6558 273.534 40.0301 273.682 40.2493C273.827 40.4686 274.097 40.8315 274.28 41.0621C274.467 41.2927 274.825 41.682 275.076 41.9315C275.327 42.1848 275.677 42.5024 275.856 42.646C276.035 42.7859 276.359 43.0203 276.579 43.1677C276.8 43.3113 277.227 43.5533 277.531 43.7045C277.836 43.8557 278.323 44.0561 278.616 44.1506C278.909 44.2451 279.362 44.3698 279.625 44.4265C279.888 44.4794 280.272 44.5399 280.481 44.5588C280.725 44.5815 281.026 44.5815 281.319 44.5588C281.57 44.5361 281.94 44.487 282.137 44.4416C282.335 44.4001 282.697 44.3018 282.937 44.2224C283.177 44.143 283.546 43.9918 283.755 43.8859C283.965 43.7839 284.288 43.5949 284.479 43.4701C284.665 43.3454 284.958 43.1261 285.126 42.9825C285.293 42.8388 285.567 42.5591 285.731 42.3625C285.899 42.1659 286.123 41.8711 286.234 41.7047C286.34 41.5384 286.508 41.2473 286.599 41.0621C286.694 40.8769 286.816 40.6009 286.98 40.1926L287.151 40.2304C287.319 40.2682 287.322 40.2682 287.296 40.4005C287.284 40.4724 287.216 40.703 287.147 40.9109C287.075 41.1188 286.93 41.4666 286.82 41.6858C286.709 41.9051 286.542 42.2037 286.447 42.3474C286.352 42.491 286.173 42.7481 286.043 42.9144C285.918 43.0807 285.644 43.3945 285.43 43.61C285.221 43.8255 284.878 44.1392 284.669 44.3056C284.46 44.4719 284.109 44.7289 283.889 44.8688C283.668 45.0125 283.215 45.2657 282.88 45.4283C282.545 45.5908 282.004 45.8177 281.681 45.9311C281.357 46.0445 280.851 46.1995 280.558 46.2713C280.265 46.3469 279.697 46.4527 279.301 46.5132C278.639 46.6077 278.483 46.6191 277.474 46.6191C276.739 46.6191 276.256 46.6002 276.028 46.5699C275.837 46.5397 275.487 46.4754 275.247 46.4263C275.007 46.3771 274.596 46.2713 274.333 46.1881C274.071 46.105 273.667 45.9575 273.439 45.863C273.207 45.7685 272.841 45.5946 272.62 45.4812C272.4 45.364 272.034 45.1486 271.802 44.9973C271.574 44.8499 271.212 44.5929 271.002 44.4303C270.793 44.264 270.397 43.9086 270.123 43.6364C269.849 43.3643 269.438 42.9106 269.213 42.6309C268.989 42.3512 268.665 41.9089 268.49 41.648C268.315 41.3872 268.079 40.9978 267.965 40.7786C267.847 40.5593 267.691 40.238 267.614 40.0603C267.538 39.8826 267.424 39.5953 267.363 39.4177C267.298 39.24 267.199 38.8998 267.139 38.6616C267.078 38.4235 267.001 38.0643 266.967 37.8678C266.937 37.6712 266.895 37.2629 266.872 36.9605C266.845 36.5749 266.845 36.1591 266.872 35.5618C266.895 35.0931 266.941 34.5487 266.971 34.3521C267.002 34.1555 267.07 33.8078 267.127 33.5772C267.18 33.3466 267.298 32.9496 267.386 32.6888C267.477 32.428 267.63 32.0386 267.729 31.8193C267.824 31.6001 267.999 31.2523 268.117 31.0444C268.231 30.8365 268.463 30.4698 268.627 30.2316C268.791 29.9935 269.065 29.6268 269.244 29.4189C269.419 29.211 269.777 28.8367 270.036 28.5872C270.294 28.3377 270.713 27.9786 270.964 27.7934C271.216 27.6044 271.585 27.3511 271.783 27.2301C271.981 27.1054 272.316 26.9163 272.525 26.8067C272.735 26.6971 273.085 26.5308 273.306 26.44C273.526 26.3493 273.919 26.2057 274.181 26.1187C274.444 26.0355 274.863 25.9221 275.114 25.8654C275.365 25.8087 275.75 25.7407 275.97 25.7142C276.191 25.684 276.431 25.6537 276.503 25.6424C276.576 25.6348 277.09 25.6311 277.645 25.6386V25.6386ZM275.837 26.8143C275.647 26.8672 275.365 26.9693 275.209 27.0411C275.053 27.1167 274.821 27.2452 274.695 27.3284C274.569 27.4116 274.356 27.5779 274.223 27.6951C274.09 27.8123 273.869 28.0429 273.736 28.2092C273.599 28.3755 273.397 28.6666 273.287 28.8518C273.176 29.0371 273.016 29.3471 272.933 29.5323C272.849 29.7175 272.712 30.0842 272.628 30.345C272.544 30.6059 272.438 30.9877 272.396 31.1956C272.35 31.4035 272.278 31.8042 272.236 32.084C272.194 32.3637 272.148 32.8892 272.133 33.2483L272.106 33.8985H283.927C283.889 33.6792 283.816 33.3579 283.736 33.0479C283.656 32.7342 283.519 32.2692 283.432 32.0084C283.34 31.7475 283.177 31.3241 283.063 31.0633C282.948 30.8025 282.762 30.4206 282.644 30.2127C282.526 30.0048 282.335 29.6911 282.214 29.5134C282.096 29.3357 281.894 29.0635 281.768 28.9085C281.639 28.7536 281.384 28.4814 281.201 28.3037C281.014 28.126 280.733 27.8841 280.577 27.7669C280.421 27.6497 280.135 27.4683 279.949 27.3624C279.758 27.2566 279.435 27.1016 279.225 27.0222C279.016 26.939 278.639 26.8294 278.388 26.7727C278.011 26.6857 277.821 26.6668 277.284 26.6555C276.926 26.6517 276.534 26.6593 276.408 26.6782C276.283 26.7009 276.024 26.7576 275.837 26.8143V26.8143ZM170.616 59.4946C170.742 59.4946 171.031 59.5098 171.263 59.5325C171.492 59.5551 171.834 59.6118 172.025 59.661C172.211 59.7063 172.52 59.8084 172.71 59.884C172.897 59.9596 173.182 60.1033 173.338 60.2016C173.494 60.2961 173.681 60.4284 173.883 60.606L173.559 61.2109C173.35 61.5927 173.182 61.8611 173.095 61.9367C172.977 62.0425 172.931 62.0614 172.756 62.0614C172.588 62.0614 172.482 62.0236 172.025 61.7968C171.732 61.6494 171.389 61.5057 171.263 61.4755C171.138 61.4453 170.898 61.4188 170.73 61.4188C170.563 61.4188 170.323 61.4453 170.198 61.4755C170.072 61.5095 169.901 61.5814 169.817 61.6381C169.733 61.6985 169.615 61.8195 169.558 61.914C169.482 62.0312 169.444 62.1484 169.429 62.3261C169.41 62.5378 169.417 62.5982 169.497 62.757C169.547 62.8591 169.649 62.9876 169.722 63.0443C169.794 63.101 169.961 63.2031 170.091 63.2674C170.224 63.3316 170.711 63.5093 171.176 63.6643C171.644 63.8155 172.177 64.0121 172.367 64.099C172.554 64.186 172.813 64.3334 172.938 64.4203C173.064 64.5111 173.262 64.685 173.376 64.8097C173.49 64.9344 173.65 65.1613 173.726 65.3163C173.806 65.4712 173.902 65.7056 173.936 65.8417C173.982 66.0156 174.001 66.2386 173.997 66.5978C173.997 66.9342 173.974 67.2026 173.932 67.3916C173.898 67.5466 173.814 67.8037 173.753 67.9587C173.688 68.1136 173.563 68.3518 173.475 68.4879C173.384 68.624 173.243 68.8092 173.159 68.9037C173.075 68.9982 172.897 69.157 172.763 69.2591C172.63 69.3574 172.39 69.5048 172.234 69.5842C172.078 69.6598 171.838 69.7618 171.701 69.8034C171.564 69.8488 171.298 69.9093 171.111 69.9433C170.921 69.9735 170.563 70 170.312 70C170.06 70 169.699 69.9735 169.512 69.9433C169.322 69.9131 169.014 69.845 168.827 69.7921C168.637 69.7354 168.34 69.6333 168.161 69.5577C167.982 69.4859 167.708 69.3498 167.552 69.2591C167.396 69.1721 167.163 69.0134 167.042 68.9151C166.916 68.8168 166.798 68.7071 166.779 68.6769C166.752 68.6353 166.836 68.4728 167.125 68.0154C167.335 67.6827 167.556 67.3765 167.613 67.3349C167.696 67.2782 167.784 67.2593 167.99 67.2593C168.248 67.2593 168.267 67.2669 168.656 67.4937C168.877 67.6222 169.185 67.7885 169.341 67.8604C169.497 67.9322 169.737 68.0116 169.874 68.038C170.019 68.0645 170.277 68.0758 170.502 68.0645C170.799 68.0532 170.928 68.0267 171.092 67.9549C171.206 67.902 171.366 67.7923 171.446 67.7092C171.53 67.626 171.617 67.4823 171.652 67.3727C171.686 67.2669 171.713 67.0816 171.713 66.9569C171.713 66.8321 171.694 66.6696 171.671 66.5978C171.648 66.5259 171.545 66.3861 171.446 66.2878C171.336 66.1819 171.145 66.0572 170.978 65.9778C170.822 65.906 170.365 65.7472 169.969 65.63C169.569 65.5128 169.09 65.3503 168.903 65.2709C168.713 65.1877 168.465 65.0668 168.351 64.9987C168.237 64.9344 168.031 64.7681 167.894 64.632C167.757 64.4959 167.59 64.2918 167.525 64.1784C167.457 64.065 167.358 63.8495 167.308 63.7059C167.255 63.5622 167.194 63.2863 167.167 63.101C167.141 62.9044 167.133 62.6096 167.148 62.4017C167.16 62.2051 167.198 61.9405 167.232 61.8157C167.266 61.691 167.342 61.4793 167.407 61.3432C167.468 61.2071 167.594 60.9954 167.681 60.8707C167.773 60.7459 167.94 60.5569 168.05 60.4548C168.165 60.349 168.332 60.2091 168.427 60.1449C168.523 60.0806 168.724 59.9672 168.873 59.8916C169.025 59.816 169.299 59.7139 169.482 59.661C169.668 59.6081 169.946 59.5514 170.102 59.5325C170.258 59.5135 170.491 59.4984 170.616 59.4946V59.4946ZM157.578 18.1537C158.442 18.165 158.834 18.1839 159.28 18.2444C159.599 18.2898 160.098 18.3729 160.383 18.4334C160.673 18.4939 161.133 18.6073 161.404 18.6829C161.674 18.7623 162.131 18.9097 162.413 19.0118C162.694 19.1139 163.227 19.3445 163.593 19.5184C163.958 19.696 164.457 19.9569 164.697 20.1005C164.936 20.2404 165.321 20.4899 165.553 20.6487C165.782 20.8112 166.151 21.0872 166.372 21.2686C166.592 21.4463 166.966 21.779 167.205 22.0096C167.441 22.2364 167.776 22.5879 167.951 22.7845C168.123 22.9811 168.37 23.2797 168.496 23.4461C168.625 23.6124 168.717 23.7598 168.701 23.7787C168.686 23.7938 167.358 23.8014 165.744 23.7938C162.957 23.7863 162.805 23.7825 162.622 23.7107C162.47 23.654 162.321 23.5292 161.861 23.068C161.545 22.7505 161.126 22.3498 160.924 22.1759C160.722 22.002 160.372 21.7147 160.144 21.537C159.919 21.3594 159.516 21.0721 159.253 20.9019C158.99 20.7281 158.537 20.4672 158.244 20.3273C157.951 20.1837 157.532 20.0098 157.311 19.9342C157.091 19.8624 156.721 19.7603 156.493 19.7074C156.261 19.6582 155.918 19.594 155.732 19.5675C155.534 19.5373 155.069 19.5146 154.628 19.5146C154.209 19.5146 153.703 19.5373 153.505 19.5675C153.307 19.594 152.937 19.6582 152.686 19.7112C152.435 19.7641 151.989 19.8813 151.696 19.9758C151.403 20.0703 150.958 20.2366 150.707 20.3425C150.455 20.4521 150.059 20.6373 149.831 20.7621C149.599 20.883 149.222 21.1099 148.993 21.2648C148.761 21.4198 148.445 21.6542 148.289 21.7827C148.133 21.9151 147.848 22.1797 147.657 22.3762C147.467 22.569 147.242 22.811 147.159 22.9168C147.075 23.0189 146.9 23.2684 146.766 23.465C146.637 23.6615 146.447 23.9866 146.348 24.1832C146.249 24.3798 146.104 24.7124 146.024 24.9204C145.948 25.1283 145.841 25.4685 145.792 25.6764C145.742 25.8843 145.67 26.3002 145.628 26.6026C145.586 26.905 145.533 27.4305 145.506 27.7745C145.48 28.1601 145.468 28.7157 145.484 29.2299C145.495 29.6873 145.533 30.2921 145.567 30.5719C145.598 30.8516 145.67 31.3279 145.723 31.6303C145.78 31.9328 145.899 32.4771 145.99 32.84C146.081 33.2029 146.268 33.8342 146.409 34.2387C146.546 34.6432 146.785 35.2632 146.938 35.6185C147.09 35.9701 147.322 36.4728 147.452 36.7337C147.581 36.9945 147.794 37.3915 147.92 37.622C148.046 37.8526 148.278 38.2496 148.434 38.5104C148.59 38.7712 148.906 39.2551 149.131 39.5878C149.355 39.9204 149.721 40.4119 149.938 40.6841C150.155 40.9525 150.509 41.3721 150.729 41.6102C150.95 41.8484 151.3 42.1999 151.51 42.3927C151.715 42.5855 152.043 42.8653 152.233 43.0165C152.427 43.1677 152.717 43.3869 152.88 43.5079C153.048 43.6251 153.368 43.833 153.6 43.9691C153.828 44.109 154.19 44.2942 154.399 44.3849C154.609 44.4757 154.932 44.6004 155.122 44.6647C155.309 44.7252 155.663 44.8197 155.903 44.8764C156.143 44.9293 156.554 45.0011 156.816 45.0389C157.163 45.0843 157.566 45.1032 158.301 45.1032C159.097 45.107 159.405 45.0918 159.748 45.0389C159.988 45.0011 160.418 44.918 160.699 44.8575C160.981 44.7932 161.495 44.6496 161.842 44.5361C162.188 44.4227 162.649 44.2375 162.869 44.1279C163.09 44.0183 163.475 43.8066 163.726 43.6553C163.977 43.5041 164.362 43.2546 164.582 43.1034C164.803 42.9484 165.153 42.68 165.363 42.5061C165.572 42.3323 165.858 42.0676 166.257 41.648L166.158 41.4855C166.105 41.3985 165.972 41.149 165.862 40.9298C165.751 40.7105 165.58 40.3363 165.485 40.0981C165.389 39.86 165.249 39.4593 165.172 39.2098C165.096 38.9603 164.994 38.552 164.944 38.3025C164.891 38.053 164.826 37.6258 164.792 37.3574C164.761 37.0777 164.735 36.5485 164.735 36.1288C164.735 35.6903 164.758 35.1989 164.792 34.9192C164.826 34.6583 164.895 34.2425 164.948 33.993C165.001 33.7435 165.127 33.2936 165.23 32.9912C165.329 32.6888 165.492 32.2579 165.595 32.0273C165.698 31.7967 165.9 31.4073 166.04 31.1578C166.185 30.9083 166.417 30.5416 166.554 30.345C166.695 30.1485 166.935 29.8309 167.091 29.6457C167.247 29.4605 167.556 29.1278 167.776 28.9085C168.001 28.6893 168.363 28.368 168.58 28.1941C168.8 28.0164 169.166 27.7518 169.398 27.6006C169.626 27.4531 169.988 27.2339 170.198 27.1205C170.407 27.0071 170.753 26.8332 170.967 26.7387C171.183 26.6442 171.56 26.4967 171.804 26.4098C172.051 26.3266 172.451 26.2094 172.691 26.1489C172.931 26.0885 173.342 26.0053 173.605 25.9599C173.867 25.9184 174.355 25.8692 174.69 25.8465C175.112 25.8163 175.493 25.8163 175.927 25.8427C176.273 25.8654 176.76 25.9184 177.012 25.9599C177.263 26.0015 177.632 26.0809 177.83 26.13C178.028 26.1792 178.329 26.2661 178.496 26.3191C178.664 26.3758 179.007 26.5043 179.258 26.6064C179.509 26.7084 179.939 26.9126 180.209 27.06C180.48 27.2074 180.857 27.4305 181.047 27.5552C181.234 27.68 181.569 27.9219 181.789 28.092C182.006 28.2583 182.402 28.6099 182.665 28.8707C182.928 29.1316 183.285 29.5209 183.464 29.7402C183.639 29.9595 183.917 30.3413 184.081 30.5908C184.249 30.8403 184.5 31.275 184.644 31.5547C184.785 31.8345 184.96 32.2012 185.025 32.3675C185.094 32.5338 185.2 32.8136 185.261 32.9912C185.322 33.1689 185.421 33.5091 185.482 33.7473C185.543 33.9854 185.627 34.3937 185.668 34.6545C185.71 34.9154 185.764 35.3312 185.787 35.5807C185.806 35.8302 185.825 36.2044 185.825 36.4124C185.825 36.6203 185.806 36.987 185.787 37.2251C185.764 37.4633 185.707 37.8904 185.653 38.1702C185.604 38.4499 185.501 38.8847 185.429 39.1342C185.356 39.3836 185.235 39.7503 185.158 39.9469C185.082 40.1435 184.903 40.5366 184.766 40.8164C184.625 41.0961 184.363 41.546 184.184 41.8181C184.005 42.0865 183.719 42.4797 183.552 42.6876C183.384 42.8955 183.042 43.2698 182.794 43.5155C182.543 43.7612 182.162 44.109 181.942 44.2829C181.721 44.4605 181.352 44.7289 181.123 44.8802C180.891 45.0314 180.533 45.2506 180.324 45.364C180.114 45.4774 179.764 45.6513 179.543 45.7496C179.322 45.8479 178.896 46.0105 178.592 46.1087C178.287 46.2108 177.842 46.3356 177.602 46.3885C177.362 46.4414 176.974 46.5132 176.745 46.551C176.41 46.604 176.098 46.6191 175.165 46.6191C174.138 46.6153 173.947 46.6077 173.509 46.5321C173.239 46.4868 172.79 46.3885 172.52 46.3167C172.249 46.2486 171.861 46.1314 171.663 46.0596C171.465 45.9878 171.111 45.8441 170.883 45.7421C170.651 45.64 170.274 45.4472 170.045 45.3187C169.813 45.1864 169.489 44.986 169.322 44.8688C169.154 44.7516 168.899 44.5626 168.751 44.4492C168.602 44.332 168.321 44.0939 168.123 43.9124C167.925 43.7347 167.613 43.421 167.43 43.2131C167.247 43.0089 166.981 42.6838 166.581 42.1432L166.238 42.4872C166.048 42.6725 165.74 42.956 165.553 43.1186C165.363 43.2773 165.074 43.5155 164.906 43.6402C164.739 43.765 164.404 43.9956 164.164 44.1506C163.924 44.3056 163.589 44.5097 163.421 44.6042C163.254 44.6987 162.961 44.8537 162.774 44.9444C162.584 45.0389 162.234 45.2015 161.994 45.3035C161.754 45.4094 161.324 45.5795 161.042 45.6853C160.76 45.7874 160.254 45.95 159.919 46.0445C159.584 46.139 159.112 46.2599 158.872 46.3129C158.632 46.3658 158.21 46.4414 157.94 46.483C157.669 46.5246 157.247 46.5775 157.007 46.6077C156.748 46.6342 156.12 46.6531 155.465 46.6531C154.65 46.6531 154.213 46.638 153.79 46.5851C153.474 46.551 152.987 46.4792 152.705 46.4263C152.423 46.3734 151.951 46.2713 151.658 46.1995C151.365 46.1239 150.878 45.984 150.573 45.8819C150.269 45.7836 149.831 45.6211 149.603 45.5228C149.37 45.4245 149.005 45.2544 148.784 45.1448C148.563 45.0351 148.228 44.8575 148.042 44.7478C147.851 44.6382 147.501 44.4152 147.261 44.2526C147.022 44.0901 146.633 43.8103 146.405 43.6289C146.173 43.4437 145.773 43.0921 145.514 42.8388C145.255 42.5893 144.882 42.1999 144.684 41.9693C144.482 41.7388 144.197 41.3834 144.045 41.1755C143.892 40.9676 143.664 40.6349 143.538 40.4383C143.413 40.2418 143.207 39.894 143.081 39.6634C142.956 39.4328 142.746 39.0132 142.621 38.7259C142.491 38.4424 142.312 37.9812 142.213 37.7052C142.118 37.433 141.985 36.9832 141.913 36.7148C141.84 36.4426 141.749 36.0532 141.707 35.8453C141.665 35.6374 141.604 35.2632 141.574 35.0137C141.54 34.7642 141.494 34.2538 141.475 33.8796C141.452 33.4297 141.452 32.9648 141.475 32.5074C141.498 32.1293 141.54 31.619 141.57 31.3733C141.604 31.1313 141.665 30.7533 141.707 30.5341C141.749 30.3148 141.837 29.9406 141.894 29.7024C141.955 29.4642 142.065 29.0824 142.141 28.8518C142.217 28.6212 142.366 28.213 142.472 27.9446C142.579 27.6724 142.807 27.181 142.975 26.8483C143.146 26.5156 143.409 26.0393 143.561 25.7898C143.713 25.5403 143.987 25.1283 144.17 24.875C144.353 24.6217 144.688 24.187 144.92 23.911C145.149 23.6351 145.56 23.1852 145.834 22.913C146.104 22.6446 146.515 22.2628 146.747 22.0663C146.976 21.8697 147.372 21.5597 147.623 21.3745C147.874 21.1855 148.224 20.9397 148.403 20.8188C148.582 20.7016 148.906 20.4975 149.127 20.3651C149.347 20.2366 149.751 20.0136 150.021 19.8737C150.292 19.7301 150.764 19.5108 151.068 19.3823C151.373 19.2538 151.868 19.0647 152.172 18.9627C152.477 18.8568 152.949 18.717 153.219 18.6451C153.489 18.5733 153.939 18.475 154.209 18.4221C154.479 18.3729 154.917 18.3011 155.18 18.2671C155.442 18.2369 155.834 18.1915 156.055 18.1726C156.276 18.1575 156.961 18.1461 157.578 18.1537V18.1537ZM171.873 27.1469C171.682 27.1961 171.374 27.2981 171.187 27.3738C170.997 27.4494 170.715 27.593 170.559 27.6875C170.403 27.7858 170.163 27.9748 170.026 28.1109C169.885 28.2508 169.695 28.4965 169.6 28.6628C169.501 28.8292 169.36 29.1089 169.284 29.2866C169.208 29.4642 169.105 29.744 169.055 29.9103C169.006 30.0766 168.945 30.3828 168.918 30.5908C168.892 30.7987 168.869 31.4073 168.869 31.9517C168.865 32.6699 168.884 33.0971 168.934 33.5394C168.972 33.872 169.036 34.3483 169.078 34.5978C169.12 34.8473 169.204 35.2707 169.265 35.5429C169.326 35.8113 169.451 36.299 169.543 36.6203C169.638 36.9416 169.802 37.4368 169.904 37.7166C170.011 37.9963 170.213 38.4802 170.35 38.7939C170.491 39.1039 170.708 39.5575 170.833 39.7957C170.963 40.0339 171.18 40.4157 171.313 40.6463C171.45 40.8769 171.697 41.2662 171.865 41.5157C172.032 41.7652 172.299 42.1395 172.455 42.3474C172.611 42.5553 172.881 42.8955 173.053 43.1034C173.224 43.3113 173.529 43.6364 173.723 43.8217C173.921 44.0107 174.183 44.2413 174.309 44.3396C174.435 44.4341 174.682 44.6004 174.861 44.7138C175.04 44.8234 175.344 44.986 175.535 45.0767C175.729 45.1675 176.03 45.2809 176.201 45.33C176.376 45.3791 176.688 45.4396 176.898 45.4661C177.126 45.4926 177.423 45.5001 177.64 45.485C177.838 45.4737 178.139 45.4359 178.306 45.4056C178.474 45.3716 178.729 45.3149 178.877 45.2695C179.026 45.2279 179.288 45.1297 179.467 45.054C179.646 44.9784 179.909 44.8386 180.057 44.7403C180.206 44.6458 180.434 44.4492 180.571 44.3056C180.754 44.1128 180.88 43.9313 181.055 43.5949C181.18 43.3454 181.34 42.9976 181.401 42.8199C181.466 42.6422 181.542 42.3549 181.576 42.1773C181.61 41.9996 181.648 41.5573 181.66 41.1944C181.679 40.703 181.668 40.4119 181.622 40.0603C181.591 39.7995 181.519 39.3496 181.466 39.0585C181.412 38.7675 181.291 38.2155 181.195 37.83C181.104 37.4444 180.956 36.8925 180.872 36.6014C180.788 36.3103 180.632 35.8075 180.525 35.4862C180.419 35.1649 180.232 34.6281 180.107 34.2954C179.981 33.9628 179.776 33.4524 179.65 33.1613C179.524 32.8703 179.281 32.3524 179.106 32.0084C178.934 31.6644 178.694 31.2145 178.573 31.0066C178.451 30.7987 178.219 30.432 178.055 30.1938C177.891 29.9557 177.609 29.5739 177.427 29.3433C177.244 29.1127 176.962 28.8027 176.806 28.6477C176.646 28.4927 176.38 28.2621 176.212 28.1336C176.045 28.0051 175.794 27.8274 175.649 27.7404C175.508 27.6573 175.28 27.5287 175.135 27.4569C174.994 27.3889 174.75 27.283 174.594 27.2301C174.438 27.1734 174.191 27.1016 174.042 27.0676C173.894 27.0373 173.551 27.0071 173.281 26.9995C173.011 26.9919 172.657 27.0033 172.501 27.0222C172.345 27.0449 172.059 27.1016 171.873 27.1469V27.1469ZM91.2247 18.4561C91.4646 18.4637 91.7653 18.5015 91.8909 18.5355C92.0166 18.5657 92.2374 18.6489 92.3858 18.717C92.5305 18.785 92.7627 18.9249 92.8959 19.0269C93.033 19.129 93.2233 19.3142 93.3261 19.439C93.4251 19.5637 93.5698 19.7754 93.6421 19.9115C93.7144 20.0476 93.8058 20.2933 93.8515 20.4597C93.9048 20.6713 93.9276 20.883 93.9276 21.159C93.9276 21.435 93.9048 21.6467 93.8515 21.8584C93.8058 22.0247 93.7106 22.278 93.6307 22.4254C93.5355 22.6068 93.387 22.7921 93.1662 23.0113C92.9416 23.2344 92.7589 23.378 92.5762 23.4725C92.4277 23.5481 92.1879 23.6464 92.0432 23.688C91.8948 23.7334 91.6321 23.7863 91.4532 23.8052C91.2438 23.8279 91.0001 23.8279 90.7679 23.8014C90.5547 23.7825 90.273 23.7182 90.0827 23.654C89.9038 23.5897 89.6639 23.4839 89.5497 23.4196C89.4355 23.3516 89.2033 23.1588 89.0358 22.9924C88.8379 22.7959 88.6818 22.5955 88.5904 22.4254C88.5143 22.278 88.4115 22.0247 88.3696 21.8584C88.3125 21.6467 88.2859 21.4387 88.2859 21.159C88.2859 20.9133 88.3087 20.66 88.3468 20.4975C88.381 20.35 88.4686 20.1119 88.5409 19.9682C88.6133 19.8208 88.7541 19.6015 88.8569 19.4768C88.9559 19.352 89.1424 19.1706 89.2642 19.0685C89.3899 18.9702 89.5878 18.8417 89.702 18.7812C89.8162 18.7207 89.9951 18.6413 90.1017 18.6073C90.2045 18.5733 90.4025 18.5204 90.5395 18.4901C90.7032 18.4561 90.9354 18.4448 91.2247 18.4561V18.4561ZM83.318 18.5544C83.3789 18.5506 83.3903 18.5998 83.4093 18.9551C83.4207 19.1819 83.4207 24.7881 83.4093 31.4224C83.3979 38.828 83.4055 43.576 83.4245 43.7272C83.4436 43.8633 83.5083 44.109 83.5654 44.2753C83.6225 44.4416 83.7329 44.6722 83.809 44.7856C83.8852 44.8991 84.2316 45.2771 84.578 45.6249C84.9282 45.9764 85.21 46.2864 85.21 46.3167C85.21 46.3658 84.7074 46.3734 80.9273 46.3734C78.1102 46.3734 76.637 46.362 76.6255 46.3356C76.6141 46.3129 76.7055 46.1919 76.8235 46.0596C76.9453 45.9311 77.2765 45.5871 77.5582 45.296C77.996 44.8499 78.0988 44.7214 78.213 44.4832C78.2891 44.3282 78.3691 44.1128 78.3957 44.0107C78.4338 43.8633 78.4452 41.5724 78.4528 33.2747C78.4566 26.9882 78.4452 22.6446 78.4262 22.5199C78.4033 22.4065 78.3386 22.2061 78.2777 22.0738C78.213 21.934 78.0874 21.7601 77.9655 21.6391C77.8513 21.5332 77.6496 21.3858 77.5163 21.314C77.3831 21.2422 77.1128 21.0872 76.9187 20.9624C76.7283 20.8415 76.5646 20.7205 76.5608 20.694C76.5532 20.66 77.5925 20.3198 79.8994 19.6015C81.7419 19.0269 83.2799 18.5582 83.318 18.5544V18.5544ZM193.96 18.5544C193.998 18.5506 194.009 21.159 194.017 31.1654C194.028 43.334 194.032 43.7914 194.101 44.0296C194.139 44.1657 194.222 44.3849 194.287 44.521C194.352 44.6571 194.478 44.8499 194.565 44.9558C194.653 45.0578 194.984 45.4056 195.3 45.7194C195.616 46.0369 195.871 46.3204 195.863 46.3431C195.852 46.3809 194.953 46.396 191.561 46.3998C188.722 46.4074 187.271 46.3998 187.271 46.3734C187.271 46.3507 187.465 46.1276 187.705 45.8706C187.945 45.6173 188.261 45.2657 188.413 45.0881C188.562 44.9104 188.756 44.6231 188.847 44.4454C188.95 44.2413 189.026 44.0296 189.057 43.8595C189.091 43.6591 189.098 40.9903 189.079 22.2742L188.965 22.0511C188.9 21.9226 188.771 21.7563 188.661 21.6618C188.554 21.5673 188.375 21.4387 188.261 21.3745C188.147 21.3102 187.861 21.1401 187.633 20.9965C187.401 20.849 187.206 20.7243 187.195 20.7167C187.184 20.7092 187.191 20.6865 187.214 20.6676C187.233 20.6449 188.752 20.161 190.583 19.5902C192.414 19.0194 193.937 18.5544 193.96 18.5544ZM50.1186 21.3707C50.1414 21.382 50.1566 22.1268 50.149 25.4685H53.8036V26.3758H50.1871L50.1985 34.1707C50.2099 41.4174 50.2175 41.9958 50.2784 42.3663C50.3165 42.5855 50.3888 42.9069 50.4421 43.0845C50.4916 43.2622 50.5982 43.5419 50.6782 43.7083C50.7543 43.8746 50.8951 44.1203 50.9865 44.2564C51.0779 44.3925 51.2644 44.6193 51.4015 44.7592C51.5385 44.9028 51.7821 45.1032 51.9382 45.2128C52.0943 45.3187 52.376 45.4774 52.5663 45.5644C52.7529 45.6551 53.0384 45.761 53.1945 45.8063C53.3506 45.8479 53.6323 45.9084 53.8226 45.9386C54.0091 45.9689 54.2375 45.9953 54.3251 45.9953C54.4698 45.9953 54.4964 46.0105 54.5459 46.1087C54.5992 46.2108 54.5954 46.2259 54.5345 46.2562C54.5002 46.2751 54.3594 46.3167 54.2223 46.3507C54.0853 46.3809 53.796 46.4376 53.5752 46.4754C53.2973 46.517 52.9432 46.5359 52.4141 46.5359C51.8354 46.5359 51.5157 46.517 51.0817 46.4565C50.7657 46.4112 50.3051 46.3242 50.0538 46.2637C49.8026 46.2032 49.4409 46.0974 49.2544 46.0331C49.0641 45.9651 48.7405 45.8252 48.5311 45.7232C48.3217 45.6173 48.0058 45.4359 47.8268 45.3187C47.6479 45.2015 47.3205 44.9293 47.0997 44.71C46.8523 44.4643 46.6048 44.1732 46.4602 43.954C46.3269 43.7574 46.1633 43.4852 46.0947 43.3491C46.0262 43.2131 45.9082 42.9333 45.8283 42.7254C45.7521 42.5175 45.6455 42.1773 45.5998 41.9693C45.5504 41.7614 45.4818 41.4137 45.4514 41.1944C45.4209 40.9751 45.3752 40.5328 45.3524 40.2115C45.3334 39.8902 45.2953 39.2702 45.2725 38.8317C45.2458 38.3554 45.223 35.7017 45.2001 26.3758H42.916L42.8285 26.2057C42.7828 26.1149 42.7523 26.0318 42.7638 26.0242C42.7752 26.0166 44.4235 24.9619 46.4335 23.6804C48.4397 22.3989 50.0995 21.3594 50.1186 21.3707V21.3707ZM242.177 25.5063C242.192 25.5063 242.204 26.3153 242.204 29.0976L242.097 29.1618C242.006 29.2223 241.823 29.2336 240.415 29.2563C239.547 29.2714 238.74 29.2979 238.405 29.3433L238.641 29.9292C238.774 30.2505 238.953 30.6588 239.044 30.8365C239.132 31.0141 239.28 31.3355 239.368 31.5547C239.459 31.774 239.585 32.1142 239.653 32.3108C239.718 32.5074 239.813 32.8325 239.863 33.029C239.912 33.2256 239.992 33.6074 240.042 33.8796C240.11 34.2916 240.125 34.5147 240.125 35.2783C240.129 35.9852 240.114 36.2763 240.061 36.6014C240.022 36.8282 239.954 37.1609 239.916 37.3385C239.874 37.5162 239.805 37.777 239.76 37.9245C239.714 38.0681 239.623 38.3403 239.55 38.5293C239.478 38.7145 239.349 39.0207 239.265 39.2098C239.177 39.395 239.014 39.7201 238.899 39.928C238.785 40.1359 238.549 40.5177 238.378 40.7786C238.207 41.0394 237.936 41.4061 237.78 41.5913C237.624 41.7766 237.335 42.0865 237.137 42.2756C236.939 42.4608 236.608 42.7443 236.398 42.8993C236.189 43.0543 235.862 43.2698 235.675 43.3756C235.485 43.4852 235.134 43.6553 234.895 43.7574C234.655 43.8595 234.232 44.0145 233.962 44.1014C233.692 44.1884 233.254 44.298 232.991 44.3509C232.729 44.4001 232.302 44.4681 232.04 44.5021C231.777 44.5361 231.221 44.574 230.802 44.5853C230.33 44.6004 229.847 44.5891 229.527 44.5626C229.245 44.5361 228.868 44.4908 228.69 44.4605C228.511 44.4303 228.21 44.3623 228.023 44.3056C227.833 44.2526 227.502 44.1354 227.281 44.0485C227.06 43.9615 226.752 43.8255 226.596 43.7461C226.44 43.6667 226.154 43.5117 225.968 43.3983C225.777 43.2849 225.427 43.0429 225.191 42.8653C224.951 42.6838 224.582 42.3738 224.373 42.1735C224.159 41.9731 223.843 41.6367 223.665 41.425C223.486 41.2133 223.189 40.8126 223.002 40.5404C222.819 40.2645 222.53 39.7692 222.366 39.4366C222.203 39.1039 222.001 38.6276 221.913 38.3781C221.826 38.1286 221.708 37.7279 221.647 37.4897C221.59 37.2516 221.51 36.866 221.472 36.6392C221.415 36.3103 221.399 36.023 221.399 35.2594C221.399 34.4958 221.415 34.2085 221.472 33.8796C221.51 33.649 221.59 33.2672 221.647 33.029C221.708 32.7909 221.818 32.4166 221.894 32.1974C221.974 31.9781 222.111 31.6303 222.206 31.4224C222.298 31.2145 222.462 30.8894 222.568 30.7042C222.675 30.5152 222.88 30.1938 223.021 29.9859C223.162 29.778 223.413 29.4453 223.581 29.2488C223.748 29.0522 224.06 28.7195 224.277 28.5116C224.494 28.2999 224.818 28.0164 224.997 27.8728C225.176 27.7291 225.507 27.4909 225.739 27.336C225.968 27.1847 226.337 26.9693 226.558 26.8596C226.778 26.7462 227.136 26.5837 227.357 26.4967C227.578 26.4136 227.997 26.2813 228.29 26.2057C228.583 26.13 229.036 26.0318 229.299 25.9864C229.702 25.9184 229.927 25.907 230.764 25.907C231.541 25.9032 231.849 25.9184 232.192 25.9751C232.432 26.0129 232.854 26.0998 233.124 26.1679C233.395 26.2359 233.764 26.3455 233.943 26.4136C234.122 26.4778 234.48 26.6328 234.742 26.7576C235.005 26.8823 235.363 27.0751 235.542 27.181C235.721 27.2868 236.037 27.5023 236.246 27.6573C236.455 27.8123 236.711 27.9786 236.817 28.0277C236.943 28.0844 237.08 28.1147 237.217 28.1147C237.331 28.1147 237.487 28.0958 237.559 28.0769C237.632 28.058 237.822 27.9673 237.978 27.8765C238.134 27.7858 239.135 27.215 240.205 26.6101C241.271 26.0015 242.158 25.5063 242.173 25.5063H242.177ZM227.665 27.2377C227.551 27.2755 227.346 27.3624 227.209 27.4267C227.072 27.4909 226.858 27.627 226.733 27.7291C226.607 27.8312 226.421 28.0202 226.318 28.1563C226.215 28.2886 226.059 28.5494 225.968 28.7384C225.876 28.9237 225.758 29.2488 225.705 29.4567C225.652 29.6646 225.591 30.0313 225.568 30.2694C225.541 30.5265 225.537 30.965 225.553 31.3468C225.564 31.6984 225.602 32.2352 225.633 32.5376C225.663 32.84 225.732 33.3239 225.781 33.615C225.831 33.906 225.93 34.3899 226.002 34.6923C226.074 34.9948 226.238 35.5467 226.364 35.9209C226.489 36.2952 226.699 36.8471 226.828 37.1495C226.957 37.4519 227.14 37.8489 227.235 38.0379C227.33 38.2231 227.521 38.5747 227.658 38.8128C227.791 39.051 228.05 39.4668 228.229 39.739C228.404 40.0074 228.69 40.4157 228.861 40.6463C229.032 40.8731 229.352 41.2738 229.573 41.5346C229.79 41.7955 230.106 42.1432 230.277 42.3096C230.444 42.4759 230.7 42.6914 230.848 42.7859C230.993 42.8842 231.229 43.0203 231.377 43.0959C231.526 43.1677 231.788 43.2735 231.967 43.334C232.264 43.4323 232.336 43.4399 232.881 43.4399C233.456 43.4399 233.482 43.4399 233.852 43.3113C234.069 43.2357 234.346 43.1072 234.499 43.0089C234.647 42.9106 234.876 42.7141 235.013 42.5666C235.15 42.4192 235.332 42.1773 235.42 42.0223C235.511 41.8673 235.641 41.58 235.713 41.3834C235.785 41.1868 235.884 40.8277 235.934 40.5896C236.014 40.2002 236.021 40.0565 236.021 39.2098C236.018 38.4537 236.002 38.1399 235.934 37.6409C235.888 37.2969 235.797 36.7715 235.736 36.4691C235.675 36.1666 235.553 35.6639 235.469 35.3539C235.382 35.0401 235.233 34.5752 235.138 34.3143C235.043 34.0535 234.887 33.6528 234.792 33.426C234.697 33.1954 234.487 32.7531 234.327 32.4431C234.171 32.1293 233.901 31.6455 233.73 31.3657C233.558 31.086 233.269 30.6437 233.086 30.3828C232.904 30.122 232.637 29.7553 232.493 29.5701C232.348 29.3811 232.043 29.0182 231.815 28.7573C231.59 28.4965 231.248 28.1487 231.057 27.9824C230.871 27.816 230.574 27.5968 230.399 27.4985C230.224 27.4002 229.919 27.2641 229.721 27.1999C229.409 27.0978 229.295 27.0827 228.865 27.0713C228.537 27.0638 228.286 27.0751 228.122 27.1129C227.985 27.1394 227.78 27.1961 227.665 27.2377V27.2377ZM64.8853 25.7898C65.5324 25.7974 65.9892 25.8238 66.2557 25.8654C66.4765 25.8995 66.8762 25.9788 67.1503 26.0431C67.4206 26.1074 67.866 26.2359 68.1401 26.3266C68.4104 26.4173 68.9433 26.6442 69.3202 26.8294C69.6971 27.0108 70.2186 27.3019 70.4813 27.4758C70.744 27.6497 71.1285 27.9295 71.3378 28.0958C71.5434 28.2621 71.9127 28.5948 72.1563 28.8329C72.3961 29.0711 72.7388 29.4453 72.9139 29.6646C73.0928 29.8839 73.3897 30.2921 73.5725 30.5719C73.759 30.8516 74.0369 31.3355 74.193 31.6492C74.3452 31.9592 74.5356 32.3864 74.6117 32.5943C74.6917 32.8022 74.8097 33.1576 74.8782 33.3882C74.9467 33.615 75.0381 33.9817 75.0838 34.2009C75.1295 34.4202 75.1789 34.7112 75.2208 35.1082H59.2511L59.2321 35.1913C59.2207 35.2405 59.2131 35.4144 59.2131 35.5807C59.2131 35.747 59.2397 36.0532 59.2702 36.2612C59.3006 36.4691 59.3882 36.8584 59.4605 37.1306C59.5367 37.399 59.6851 37.8526 59.7879 38.1324C59.8945 38.4121 60.1381 38.964 60.3361 39.361C60.5302 39.7541 60.7891 40.2266 60.9109 40.4081C61.0366 40.5858 61.2802 40.9184 61.4591 41.1453C61.638 41.3683 62.0301 41.7992 62.3347 42.1017C62.6507 42.4154 63.0732 42.7934 63.3245 42.9749C63.5643 43.1564 63.9412 43.4096 64.162 43.5382C64.3828 43.6705 64.714 43.8481 64.9043 43.9351C65.0908 44.022 65.3916 44.1468 65.5705 44.211C65.7494 44.2753 66.0463 44.3736 66.2367 44.4265C66.4232 44.4794 66.7849 44.5664 67.0361 44.6155C67.2874 44.6647 67.6452 44.7138 67.8356 44.7289C68.0221 44.7441 68.3647 44.7327 68.5969 44.71C68.8253 44.6874 69.1794 44.6382 69.3773 44.5966C69.5753 44.5588 69.9027 44.4719 70.1006 44.4076C70.2986 44.3434 70.6602 44.1959 70.9001 44.0825C71.1399 43.9653 71.5015 43.765 71.6995 43.6327C71.8975 43.5041 72.1982 43.2773 72.3657 43.1337C72.5332 42.99 72.8149 42.7027 72.9862 42.4948C73.1613 42.2907 73.3935 41.9769 73.5039 41.7992C73.6143 41.6216 73.7666 41.3569 73.8389 41.2133C73.9113 41.0659 74.0217 40.8277 74.0788 40.6841C74.1359 40.5366 74.193 40.4043 74.2082 40.3892C74.2196 40.3703 74.3034 40.3665 74.5546 40.4005L74.5318 40.5404C74.5204 40.6198 74.4671 40.8201 74.4138 40.9865C74.3605 41.1528 74.2272 41.4741 74.1206 41.7047C74.0102 41.9315 73.8351 42.2566 73.7323 42.423C73.6296 42.5893 73.4316 42.8691 73.2984 43.0467C73.1613 43.2244 72.8796 43.5457 72.6702 43.7612C72.4609 43.9767 72.1182 44.2904 71.9089 44.4568C71.6995 44.6231 71.3493 44.8802 71.1285 45.02C70.9077 45.1637 70.5308 45.3791 70.291 45.5001C70.0511 45.6249 69.7085 45.7836 69.5296 45.8555C69.3507 45.9311 68.9243 46.0823 68.5779 46.1995C68.2315 46.3129 67.6909 46.4565 67.3787 46.5208C67.0628 46.5813 66.4994 46.672 66.1225 46.7174C65.5286 46.7854 65.304 46.7967 64.4475 46.7778C63.6062 46.7627 63.374 46.7476 62.9057 46.6644C62.6012 46.6115 62.1405 46.5057 61.8779 46.4376C61.6152 46.3658 61.1964 46.2259 60.9452 46.1276C60.6939 46.0294 60.2866 45.8479 60.0392 45.7269C59.7955 45.6022 59.4339 45.4056 59.2397 45.2884C59.0494 45.1675 58.6839 44.918 58.4327 44.7327C58.1738 44.5399 57.7246 44.143 57.401 43.8217C57.0813 43.5117 56.6397 43.024 56.4189 42.7443C56.1943 42.4646 55.8783 42.0374 55.7184 41.7992C55.5585 41.5611 55.2806 41.0772 55.0979 40.7219C54.8885 40.3023 54.7058 39.8751 54.5802 39.4933C54.4698 39.172 54.3403 38.7032 54.287 38.4537C54.2375 38.2042 54.1728 37.83 54.1462 37.622C54.1157 37.399 54.0967 36.8887 54.1005 36.3746C54.1005 35.8945 54.1233 35.301 54.1424 35.0515C54.1652 34.802 54.2261 34.3748 54.2832 34.1064C54.3365 33.8342 54.4317 33.4449 54.4926 33.2369C54.5535 33.029 54.6982 32.6208 54.8162 32.3297C54.9342 32.0386 55.1245 31.6228 55.2387 31.4035C55.3568 31.1843 55.608 30.7684 55.806 30.4774C56.0001 30.1863 56.297 29.7856 56.4645 29.589C56.6282 29.3924 56.9861 29.0182 57.2564 28.7573C57.5267 28.4965 57.9644 28.1222 58.2271 27.9257C58.4936 27.7291 58.9276 27.4342 59.1979 27.2755C59.4681 27.1167 59.8869 26.8937 60.1267 26.7803C60.3666 26.6668 60.7358 26.5119 60.9452 26.4325C61.1546 26.3569 61.5238 26.2359 61.7637 26.1679C62.0035 26.0998 62.388 26.0053 62.6202 25.9637C62.8486 25.9184 63.2369 25.8579 63.4767 25.8276C63.7889 25.7898 64.1924 25.7785 64.8853 25.7898V25.7898ZM62.9133 27.0146C62.723 27.0789 62.4717 27.1772 62.3613 27.2301C62.2547 27.2868 62.0606 27.4002 61.935 27.4834C61.8093 27.5665 61.5962 27.7291 61.4629 27.8463C61.3297 27.9635 61.1089 28.1941 60.9756 28.3604C60.8386 28.5267 60.633 28.8254 60.515 29.022C60.397 29.2185 60.2409 29.5247 60.161 29.7024C60.0848 29.8801 59.963 30.2014 59.8869 30.4206C59.8146 30.6399 59.708 31.0217 59.6509 31.2712C59.5938 31.5207 59.5176 31.9441 59.4758 32.2163C59.4339 32.4847 59.3882 33.0215 59.373 33.4033L59.3463 34.0951C68.4903 34.0535 71.1513 34.0384 71.1589 34.0346C71.1627 34.0346 71.117 33.8078 71.0561 33.5394C70.9952 33.2672 70.881 32.8438 70.8049 32.5943C70.7288 32.3448 70.6069 31.9781 70.5308 31.7815C70.4585 31.585 70.2795 31.1767 70.1311 30.8743C69.9864 30.5719 69.777 30.1825 69.6705 30.0048C69.5639 29.8271 69.3469 29.5134 69.1908 29.3055C69.0347 29.0976 68.7187 28.7384 68.4865 28.5116C68.2543 28.281 67.9003 27.9824 67.7023 27.8425C67.5044 27.7026 67.1503 27.4947 66.9219 27.3813C66.6897 27.2679 66.3395 27.1243 66.1415 27.0638C65.9436 26.9995 65.6352 26.9201 65.4563 26.8861C65.2698 26.8483 64.8776 26.8181 64.5236 26.8067C64.1201 26.7992 63.8041 26.8105 63.5909 26.8445C63.412 26.8748 63.1075 26.9504 62.9133 27.0146V27.0146ZM107.998 25.7785C108.394 25.7747 108.9 25.7898 109.121 25.8087C109.341 25.8314 109.707 25.8806 109.939 25.9221C110.168 25.9637 110.571 26.0544 110.834 26.1263C111.096 26.1981 111.481 26.3153 111.69 26.3909C111.9 26.4665 112.36 26.6744 112.718 26.8483C113.072 27.0222 113.571 27.3019 113.822 27.4645C114.073 27.6308 114.458 27.9106 114.679 28.0844C114.899 28.2621 115.257 28.5834 115.478 28.7989C115.699 29.0182 116.026 29.3735 116.205 29.589C116.384 29.8082 116.643 30.1485 116.78 30.345C116.917 30.5416 117.138 30.8894 117.271 31.12C117.401 31.3468 117.602 31.74 117.717 31.9895C117.827 32.239 117.987 32.6397 118.071 32.8778C118.154 33.116 118.272 33.5091 118.333 33.7473C118.394 33.9854 118.47 34.3332 118.505 34.5222C118.535 34.7075 118.562 34.9192 118.562 35.1082H102.611L102.584 35.2102C102.573 35.2707 102.569 35.5202 102.581 35.7697C102.596 36.0532 102.641 36.3935 102.706 36.677C102.763 36.9265 102.862 37.2932 102.923 37.4897C102.988 37.6863 103.113 38.0341 103.201 38.2647C103.289 38.4915 103.445 38.8582 103.544 39.0774C103.646 39.2967 103.822 39.6445 103.936 39.8524C104.05 40.0603 104.267 40.4005 104.415 40.6085C104.564 40.8164 104.849 41.1831 105.051 41.4212C105.253 41.6594 105.611 42.0412 105.851 42.268C106.09 42.4948 106.483 42.8275 106.722 43.0051C106.962 43.1866 107.347 43.4399 107.579 43.576C107.807 43.7083 108.127 43.8746 108.283 43.9464C108.439 44.0183 108.713 44.1317 108.892 44.1997C109.071 44.2677 109.368 44.366 109.558 44.419C109.745 44.4719 110.114 44.5588 110.377 44.6118C110.64 44.6609 111.005 44.7138 111.195 44.7289C111.382 44.7441 111.725 44.7327 111.957 44.71C112.185 44.6874 112.539 44.6344 112.737 44.5966C112.935 44.555 113.263 44.4719 113.46 44.4038C113.658 44.3396 114.02 44.1959 114.26 44.0787C114.5 43.9653 114.835 43.7839 115.002 43.6742C115.17 43.5646 115.467 43.3416 115.665 43.1753C115.863 43.0127 116.144 42.7367 116.293 42.5629C116.441 42.389 116.658 42.1092 116.772 41.9391C116.887 41.769 117.054 41.493 117.142 41.3267C117.229 41.1604 117.355 40.8882 117.42 40.7219C117.484 40.5555 117.553 40.4043 117.564 40.3892C117.579 40.3703 117.663 40.3665 117.914 40.4005L117.892 40.5404C117.88 40.6198 117.819 40.8353 117.758 41.0243C117.694 41.2095 117.564 41.5346 117.461 41.7425C117.362 41.9504 117.184 42.2718 117.066 42.4608C116.951 42.646 116.708 42.9787 116.533 43.1979C116.357 43.4172 116.049 43.7499 115.855 43.9351C115.657 44.1241 115.36 44.3887 115.193 44.521C115.025 44.6533 114.724 44.865 114.526 44.9973C114.328 45.1259 113.967 45.3338 113.727 45.4623C113.487 45.5871 113.152 45.7458 112.985 45.8177C112.817 45.8895 112.372 46.052 111.995 46.1768C111.591 46.3129 111.074 46.4527 110.739 46.5208C110.423 46.5813 109.859 46.672 109.482 46.7174C108.888 46.7854 108.668 46.7967 107.807 46.7778C107.038 46.7627 106.711 46.7438 106.342 46.6796C106.079 46.6342 105.637 46.5397 105.36 46.4679C105.085 46.396 104.648 46.2562 104.389 46.1617C104.134 46.0634 103.677 45.863 103.372 45.7118C103.068 45.5568 102.607 45.2922 102.345 45.1183C102.082 44.9444 101.686 44.6571 101.469 44.4757C101.248 44.298 100.879 43.9578 100.643 43.7196C100.411 43.4852 100.026 43.0543 99.7939 42.7632C99.5617 42.4721 99.2343 42.0298 99.0668 41.7803C98.8993 41.5308 98.6405 41.0885 98.492 40.7975C98.3435 40.5064 98.1456 40.0717 98.0542 39.8335C97.959 39.5953 97.8258 39.1757 97.7535 38.9073C97.6811 38.6352 97.586 38.1777 97.5403 37.8867C97.4718 37.4444 97.4565 37.2062 97.4603 36.4124C97.4603 35.8907 97.4832 35.2556 97.506 34.9948C97.5289 34.7339 97.5936 34.3105 97.6469 34.0497C97.704 33.7889 97.803 33.3882 97.8753 33.1613C97.9438 32.9307 98.077 32.5565 98.1684 32.3297C98.2598 32.0991 98.4121 31.7702 98.4996 31.5925C98.591 31.4149 98.7699 31.0935 98.8993 30.8743C99.0326 30.655 99.299 30.2657 99.4932 30.0048C99.6873 29.744 100.072 29.3055 100.346 29.0257C100.616 28.746 101.027 28.368 101.26 28.179C101.488 27.9937 101.865 27.7178 102.097 27.5628C102.325 27.4116 102.702 27.1847 102.935 27.06C103.163 26.9315 103.525 26.7538 103.734 26.6631C103.943 26.5723 104.294 26.4362 104.514 26.3569C104.735 26.2813 105.135 26.1603 105.409 26.0922C105.679 26.0242 106.144 25.9297 106.437 25.8881C106.73 25.8465 107.038 25.8049 107.122 25.7974C107.206 25.7898 107.598 25.7823 107.998 25.7785V25.7785ZM106.266 27.0184C106.068 27.0827 105.782 27.1999 105.637 27.2792C105.489 27.3549 105.268 27.4947 105.143 27.5854C105.017 27.6762 104.777 27.8879 104.61 28.058C104.442 28.2243 104.217 28.4889 104.111 28.6439C104.004 28.7989 103.837 29.0711 103.742 29.2488C103.646 29.4264 103.494 29.7478 103.41 29.967C103.323 30.1863 103.193 30.5756 103.121 30.8365C103.049 31.0973 102.954 31.4942 102.912 31.7248C102.87 31.9517 102.813 32.3713 102.782 32.651C102.752 32.9307 102.725 33.3693 102.725 33.6225V34.0875C111.858 34.0497 114.511 34.0384 114.515 34.0346C114.519 34.0346 114.481 33.8418 114.431 33.615C114.378 33.3844 114.287 33.0177 114.222 32.7909C114.161 32.5678 114.028 32.1709 113.933 31.9025C113.837 31.6379 113.643 31.1843 113.502 30.8932C113.361 30.6021 113.144 30.2014 113.026 30.0048C112.905 29.8082 112.684 29.4831 112.532 29.2866C112.383 29.09 112.09 28.7573 111.881 28.5456C111.671 28.3377 111.363 28.0618 111.195 27.9408C111.028 27.816 110.735 27.6308 110.548 27.5212C110.358 27.4153 110.042 27.2641 109.844 27.1885C109.646 27.1091 109.326 27.0071 109.14 26.9617C108.949 26.9126 108.641 26.8559 108.454 26.8332C108.264 26.8105 107.922 26.7916 107.693 26.7954C107.461 26.7992 107.13 26.8218 106.951 26.8483C106.772 26.8748 106.464 26.9504 106.266 27.0184V27.0184ZM208.289 25.8352C208.612 25.8427 209.077 25.8768 209.317 25.907C209.556 25.9373 209.926 25.9977 210.135 26.0393C210.344 26.0847 210.71 26.1754 210.942 26.2472C211.178 26.3191 211.544 26.4438 211.753 26.527C211.962 26.6101 212.339 26.7803 212.59 26.905C212.842 27.0298 213.207 27.2301 213.397 27.3473C213.592 27.4645 213.889 27.6611 214.056 27.7782C214.224 27.8954 214.524 28.1298 214.722 28.2961C214.92 28.4625 215.263 28.7838 215.484 29.0068C215.704 29.2336 216.017 29.5814 216.176 29.778C216.336 29.9746 216.599 30.3337 216.759 30.5719C216.919 30.81 217.189 31.2863 217.364 31.6303C217.535 31.9743 217.749 32.4506 217.836 32.6888C217.924 32.927 218.038 33.2747 218.091 33.4638C218.145 33.649 218.232 34.0081 218.282 34.2576C218.331 34.5071 218.396 34.8625 218.422 35.0515C218.453 35.2632 218.472 35.7773 218.472 36.4124C218.472 37.2213 218.457 37.52 218.403 37.8489C218.365 38.0757 218.285 38.4688 218.225 38.7183C218.164 38.9678 218.046 39.3723 217.958 39.6142C217.874 39.86 217.73 40.2304 217.634 40.4383C217.539 40.6463 217.376 40.9751 217.269 41.1642C217.162 41.3569 216.961 41.6858 216.824 41.8937C216.683 42.1017 216.439 42.4343 216.283 42.6309C216.123 42.8275 215.822 43.1677 215.617 43.3832C215.407 43.5986 215.038 43.9389 214.798 44.1392C214.559 44.3396 214.197 44.6155 213.999 44.7516C213.801 44.8877 213.481 45.0918 213.295 45.2015C213.104 45.3111 212.788 45.4812 212.59 45.5795C212.392 45.6778 212.031 45.8366 211.791 45.9311C211.551 46.0256 211.14 46.1617 210.877 46.2373C210.615 46.3091 210.23 46.4036 210.021 46.4452C209.811 46.4868 209.416 46.5472 209.145 46.5813C208.856 46.6153 208.327 46.638 207.87 46.638C207.428 46.638 206.88 46.6153 206.614 46.5813C206.351 46.551 205.925 46.483 205.662 46.4301C205.399 46.3734 204.904 46.2373 204.558 46.1239C204.162 45.9953 203.705 45.8063 203.321 45.6211C202.986 45.4548 202.556 45.2242 202.369 45.107C202.179 44.986 201.829 44.7441 201.589 44.5626C201.349 44.3849 200.938 44.0334 200.679 43.7839C200.42 43.5344 200.062 43.1601 199.887 42.9522C199.712 42.7443 199.396 42.3171 199.183 42.0072C198.966 41.6858 198.673 41.1793 198.505 40.8353C198.341 40.5026 198.136 40.0376 198.052 39.8033C197.965 39.5727 197.835 39.1531 197.763 38.8771C197.69 38.6049 197.599 38.174 197.557 37.9245C197.515 37.675 197.458 37.2327 197.435 36.9416C197.409 36.6316 197.401 36.1553 197.413 35.7886C197.428 35.4446 197.473 34.9267 197.515 34.6356C197.561 34.3446 197.652 33.8834 197.725 33.615C197.793 33.3428 197.923 32.927 198.01 32.6888C198.098 32.4506 198.296 31.997 198.448 31.687C198.604 31.3733 198.897 30.8667 199.107 30.553C199.32 30.2392 199.636 29.8158 199.811 29.6079C199.986 29.4 200.329 29.0409 200.565 28.814C200.804 28.5834 201.162 28.2697 201.36 28.1185C201.558 27.9635 201.908 27.714 202.141 27.5628C202.369 27.4116 202.807 27.1621 203.111 27.0071C203.416 26.8521 203.869 26.6442 204.12 26.5459C204.371 26.4476 204.775 26.3115 205.015 26.2435C205.255 26.1754 205.677 26.0771 205.947 26.0242C206.218 25.9713 206.629 25.9108 206.861 25.8881C207.09 25.8654 207.375 25.839 207.489 25.8314C207.603 25.8238 207.965 25.8238 208.289 25.8352V25.8352ZM204.501 27.1658C204.333 27.2074 204.105 27.2792 203.995 27.3208C203.888 27.3624 203.69 27.4494 203.557 27.5136C203.427 27.5817 203.226 27.6951 203.111 27.7745C202.997 27.8501 202.822 27.9937 202.719 28.092C202.62 28.1865 202.472 28.3717 202.384 28.5003C202.301 28.6326 202.156 28.8896 202.065 29.0787C201.977 29.2639 201.863 29.5285 201.817 29.6646C201.771 29.8007 201.699 30.0615 201.657 30.2505C201.6 30.5227 201.581 30.8025 201.562 31.6492C201.547 32.4809 201.554 32.8438 201.604 33.3504C201.638 33.7019 201.703 34.2123 201.745 34.4844C201.787 34.7528 201.874 35.2065 201.935 35.4862C202 35.7659 202.106 36.2007 202.179 36.4502C202.251 36.6997 202.396 37.1571 202.506 37.4708C202.613 37.7808 202.788 38.242 202.898 38.4915C203.005 38.741 203.229 39.2173 203.397 39.55C203.564 39.8826 203.861 40.4194 204.055 40.7408C204.25 41.0621 204.573 41.5573 204.771 41.837C204.969 42.1168 205.304 42.5666 205.517 42.8388C205.734 43.1072 206.081 43.5004 206.29 43.7121C206.499 43.92 206.842 44.2186 207.051 44.3736C207.261 44.5286 207.569 44.7327 207.737 44.8272C207.904 44.9255 208.159 45.054 208.308 45.1183C208.456 45.1826 208.685 45.2657 208.822 45.3111C208.959 45.3527 209.172 45.4056 209.298 45.4321C209.423 45.4585 209.766 45.4812 210.059 45.4812C210.394 45.4812 210.725 45.4548 210.953 45.4132C211.151 45.3791 211.494 45.2884 211.715 45.2166C211.936 45.1448 212.252 45.0125 212.419 44.9255C212.587 44.8386 212.849 44.6685 212.998 44.5513C213.15 44.4303 213.352 44.2262 213.443 44.0939C213.535 43.9653 213.694 43.6894 213.801 43.4815C213.904 43.2735 214.033 42.9749 214.087 42.8199C214.14 42.6649 214.212 42.4154 214.246 42.2718C214.287 42.0954 214.315 41.7299 214.33 41.1755C214.345 40.5177 214.338 40.2493 214.288 39.8902C214.254 39.6407 214.163 39.1379 214.09 38.775C214.018 38.4121 213.889 37.8413 213.805 37.5086C213.717 37.176 213.538 36.5447 213.405 36.1099C213.276 35.6714 213.097 35.1271 213.013 34.9003C212.933 34.6697 212.796 34.3068 212.712 34.0875C212.628 33.8682 212.457 33.4486 212.328 33.15C212.198 32.8551 211.947 32.3183 211.768 31.9592C211.585 31.6039 211.311 31.0973 211.151 30.8365C210.995 30.5756 210.752 30.2014 210.611 30.0048C210.47 29.8082 210.2 29.4567 210.013 29.2299C209.827 28.9993 209.537 28.6893 209.37 28.5343C209.206 28.3831 208.94 28.1601 208.784 28.0429C208.628 27.9295 208.361 27.7556 208.194 27.6573C208.026 27.5628 207.771 27.4305 207.623 27.3662C207.474 27.3057 207.246 27.215 207.109 27.1696C206.972 27.1243 206.697 27.0638 206.499 27.0335C206.302 27.0033 205.982 26.9844 205.795 26.9844C205.605 26.9882 205.308 27.0108 205.129 27.0373C204.95 27.0638 204.668 27.1243 204.501 27.1658V27.1658ZM258.558 25.941C259.087 25.9524 259.384 25.9788 259.662 26.0318C259.871 26.0771 260.18 26.1565 260.347 26.2094C260.515 26.2661 260.804 26.3833 260.994 26.4741C261.181 26.561 261.474 26.7235 261.641 26.8332C261.813 26.9466 262.129 27.215 262.365 27.4494C262.597 27.68 262.871 27.9975 262.974 28.1525C263.077 28.3075 263.233 28.5797 263.32 28.7573C263.408 28.935 263.514 29.1883 263.556 29.3244C263.602 29.4605 263.663 29.6722 263.693 29.7969C263.724 29.9217 263.77 30.1674 263.796 30.345C263.827 30.5756 263.849 32.4885 263.868 37.2251C263.891 43.3113 263.899 43.799 263.96 44.0107C263.998 44.1354 264.089 44.366 264.165 44.521C264.283 44.763 264.394 44.8953 264.919 45.4283C265.258 45.7723 265.582 46.1012 265.635 46.1654C265.688 46.2259 265.722 46.2902 265.707 46.3053C265.696 46.3242 263.758 46.3356 261.405 46.3356C258.01 46.3356 257.13 46.3242 257.13 46.2864C257.13 46.2637 257.29 46.0785 257.484 45.8819C257.679 45.6853 257.972 45.3678 258.139 45.175C258.307 44.986 258.501 44.7365 258.566 44.6269C258.634 44.5172 258.737 44.3169 258.901 43.9351L258.923 42.4797C258.939 41.6783 258.95 39.0926 258.954 36.7337C258.954 34.3332 258.939 32.2012 258.92 31.895C258.901 31.5925 258.847 31.2032 258.805 31.0255C258.764 30.8478 258.691 30.6097 258.649 30.4963C258.604 30.3828 258.527 30.2014 258.474 30.0993C258.421 29.9935 258.307 29.8082 258.215 29.6835C258.128 29.5587 257.953 29.3622 257.823 29.2488C257.698 29.1354 257.503 28.9841 257.389 28.9199C257.279 28.8518 257.077 28.7498 256.94 28.6968C256.803 28.6401 256.575 28.5683 256.426 28.5305C256.278 28.4927 255.981 28.4436 255.76 28.4171C255.539 28.3944 255.242 28.3869 255.094 28.3982C254.945 28.4133 254.683 28.4473 254.504 28.4814C254.325 28.5116 254.016 28.5872 253.818 28.6515C253.62 28.712 253.285 28.8518 253.076 28.9539C252.867 29.056 252.57 29.2299 252.414 29.3357C252.258 29.4453 251.995 29.6646 251.831 29.8234C251.641 30.0124 251.519 30.1711 251.489 30.2581C251.451 30.3677 251.439 31.8609 251.428 36.8282C251.424 40.3627 251.432 43.4512 251.451 43.6894C251.477 44.0334 251.508 44.1695 251.588 44.3509C251.645 44.4757 251.755 44.6533 251.831 44.7478C251.907 44.8423 252.098 45.0616 252.254 45.2393C252.414 45.4132 252.703 45.7232 252.893 45.9273C253.088 46.1314 253.24 46.3129 253.228 46.3356C253.217 46.362 251.717 46.3734 248.851 46.3734C246.452 46.3734 244.484 46.362 244.473 46.3431C244.465 46.328 244.743 46.0445 245.093 45.708C245.443 45.3754 245.813 44.9936 245.915 44.8575C246.014 44.7252 246.148 44.521 246.205 44.4076C246.262 44.2942 246.342 44.0901 246.38 43.954C246.426 43.7839 246.445 43.5722 246.445 43.2546C246.445 43.0051 246.437 39.9696 246.414 30.2127L246.296 29.967C246.231 29.8309 246.106 29.6533 246.022 29.5701C245.934 29.4869 245.756 29.3584 245.626 29.279C245.493 29.2034 245.234 29.0522 245.051 28.9388C244.865 28.8292 244.671 28.7006 244.613 28.6553C244.556 28.6137 244.518 28.5645 244.53 28.5532C244.541 28.5419 246.087 27.9975 247.964 27.3397C249.844 26.6857 251.397 26.1489 251.42 26.1489C251.443 26.1489 251.458 26.6517 251.458 29.022L251.77 28.7611C251.945 28.6212 252.25 28.3831 252.448 28.2394C252.646 28.0958 253.015 27.8387 253.266 27.6724C253.518 27.5061 253.895 27.2755 254.104 27.1621C254.313 27.0487 254.702 26.8596 254.968 26.7387C255.238 26.6215 255.65 26.4627 255.882 26.3795C256.118 26.3002 256.491 26.1905 256.712 26.1376C256.932 26.0847 257.275 26.0129 257.473 25.9826C257.736 25.941 258.029 25.9297 258.558 25.941V25.941ZM133.941 26.0393C134.288 26.0355 134.577 26.0431 134.588 26.0544C134.6 26.0658 134.516 26.3682 134.406 26.7273C134.291 27.0827 134.014 27.9635 133.781 28.6817C133.549 29.4 133.317 30.1031 133.26 30.2468C133.176 30.4622 133.138 30.5189 133.028 30.5719C132.955 30.6097 132.757 30.6664 132.59 30.7004C132.422 30.7306 131.832 30.8365 131.276 30.9272C130.721 31.0217 130.077 31.1389 129.849 31.1918C129.617 31.241 129.011 31.4035 128.497 31.5509C127.984 31.6984 127.443 31.876 127.298 31.9441C127.15 32.0121 126.963 32.1369 126.883 32.2201C126.8 32.2994 126.685 32.4695 126.628 32.5943C126.567 32.7266 126.503 32.9496 126.48 33.1235C126.449 33.3314 126.442 35.0628 126.449 38.6994C126.461 43.9426 126.461 43.9729 126.541 44.1808C126.583 44.2942 126.663 44.4643 126.72 44.5588C126.773 44.6533 126.94 44.8726 127.093 45.0503C127.245 45.2279 127.58 45.5984 128.307 46.3734H123.967C121.58 46.3734 119.628 46.3658 119.628 46.3545C119.628 46.3431 119.825 46.1276 120.069 45.8706C120.313 45.6173 120.621 45.2733 120.751 45.107C120.884 44.9406 121.051 44.6949 121.124 44.5588C121.196 44.4227 121.299 44.1921 121.432 43.7839L121.443 36.9038C121.459 30.0577 121.459 30.0237 121.379 29.7667C121.322 29.5739 121.257 29.468 121.116 29.313C121.009 29.1996 120.808 29.0484 120.633 28.9501C120.465 28.8594 120.164 28.6779 119.959 28.5532C119.757 28.4247 119.589 28.3037 119.589 28.2848C119.589 28.2621 121.108 27.7669 122.966 27.181C124.828 26.5912 126.369 26.1111 126.392 26.1111C126.43 26.1111 126.442 26.6593 126.442 31.3468L126.605 30.9877C126.693 30.7911 126.834 30.5076 126.914 30.3639C126.994 30.2165 127.154 29.9557 127.268 29.778C127.386 29.6003 127.591 29.313 127.728 29.1354C127.869 28.9577 128.17 28.6212 128.402 28.3831C128.631 28.1449 128.973 27.8236 129.164 27.6686C129.35 27.5098 129.685 27.2641 129.906 27.1205C130.127 26.9768 130.458 26.7878 130.648 26.6971C130.835 26.6064 131.162 26.4816 131.372 26.4136C131.581 26.3493 131.916 26.2586 132.114 26.2208C132.312 26.1792 132.662 26.1225 132.894 26.0922C133.123 26.0658 133.595 26.0431 133.941 26.0393V26.0393ZM93.8134 26.1905C93.901 26.1868 93.9086 26.2019 93.9238 26.44C93.9314 26.5837 93.9352 30.5492 93.9314 35.2594C93.92 43.232 93.9238 43.8368 93.9847 44.0485C94.019 44.1732 94.1027 44.3849 94.1712 44.521C94.2626 44.7063 94.4111 44.8915 94.7689 45.2582C95.0316 45.5266 95.3628 45.8744 95.5036 46.0218C95.6445 46.173 95.7511 46.3129 95.7397 46.3356C95.7282 46.362 94.255 46.3734 91.4379 46.3734C88.6209 46.3734 87.1476 46.362 87.1362 46.3356C87.1248 46.3129 87.2656 46.1314 87.4484 45.9311C87.6349 45.7269 87.9623 45.3754 88.1831 45.1448C88.4039 44.918 88.6323 44.6533 88.6856 44.5588C88.7389 44.4643 88.8226 44.2677 88.9521 43.8595V36.9416C88.9521 31.1578 88.9406 29.9973 88.8988 29.8536C88.8683 29.7591 88.7998 29.6079 88.7465 29.5134C88.6932 29.4189 88.5828 29.2828 88.5029 29.211C88.4191 29.1354 88.2173 29.003 88.0498 28.9123C87.8823 28.8216 87.5968 28.6477 87.4103 28.523C87.2276 28.402 87.0791 28.2886 87.0829 28.2659C87.0829 28.247 87.2352 28.1827 87.4141 28.126C87.5968 28.0693 89.0891 27.6119 90.7337 27.1091C92.3782 26.6064 93.7639 26.1943 93.8134 26.1905ZM237.544 45.5228C238.092 45.5304 238.564 45.5606 238.8 45.5984C239.01 45.6324 239.326 45.6891 239.505 45.7269C239.684 45.7685 239.965 45.8441 240.133 45.9008C240.3 45.9537 240.582 46.0672 240.761 46.1503C240.94 46.2335 241.256 46.4149 241.465 46.5548C241.686 46.6985 242.002 46.9593 242.211 47.1672C242.409 47.3638 242.664 47.6549 242.775 47.8099C242.885 47.9648 243.026 48.1917 243.087 48.3089C243.148 48.4298 243.239 48.6869 243.293 48.8759C243.346 49.0687 243.403 49.4127 243.422 49.6433C243.441 49.8739 243.441 50.2595 243.422 50.5127C243.407 50.7622 243.357 51.1176 243.319 51.3066C243.277 51.4918 243.19 51.7905 243.125 51.9681C243.057 52.1458 242.942 52.3991 242.87 52.5352C242.794 52.6713 242.649 52.8905 242.55 53.0266C242.451 53.1627 242.208 53.4235 242.01 53.6126C241.815 53.7978 241.507 54.0473 241.332 54.1645C241.153 54.2817 240.818 54.4707 240.59 54.5841C240.357 54.6975 240.053 54.8374 239.904 54.8903C239.756 54.9432 239.52 55.0226 239.372 55.0642C239.223 55.1058 238.899 55.1776 238.648 55.223C238.275 55.291 238.047 55.3061 237.392 55.3061C236.741 55.3023 236.509 55.2872 236.136 55.223C235.884 55.1776 235.515 55.0982 235.317 55.0491C235.119 54.9999 234.777 54.8978 234.556 54.8185C234.335 54.7429 233.985 54.6068 233.775 54.516C233.566 54.4253 233.216 54.2476 232.995 54.1229C232.774 53.9981 232.443 53.7789 232.253 53.639C232.066 53.4992 231.792 53.2723 231.377 52.8792L231.491 52.762C231.552 52.6977 231.617 52.6486 231.632 52.6486C231.651 52.6486 231.796 52.7544 231.956 52.883C232.119 53.0115 232.405 53.2156 232.595 53.3404C232.782 53.4614 233.067 53.6277 233.223 53.7071C233.38 53.7865 233.619 53.8961 233.756 53.949C233.893 54.0057 234.175 54.0927 234.385 54.1456C234.594 54.1947 234.937 54.2476 235.146 54.2628C235.382 54.2741 235.652 54.2665 235.85 54.2401C236.029 54.2136 236.311 54.1494 236.478 54.0964C236.646 54.0435 236.912 53.9339 237.068 53.8545C237.224 53.7751 237.472 53.6163 237.62 53.5067C237.784 53.3857 238.012 53.1514 238.21 52.9057C238.389 52.6864 238.641 52.3311 238.77 52.1156C238.899 51.9001 239.059 51.5863 239.128 51.42C239.193 51.2537 239.292 50.955 239.345 50.7585C239.432 50.4296 239.444 50.3313 239.444 49.6433C239.448 49.0233 239.436 48.8419 239.375 48.6415C239.337 48.5054 239.253 48.2748 239.185 48.1312C239.116 47.9837 238.995 47.7645 238.907 47.6397C238.823 47.515 238.644 47.3109 238.511 47.1861C238.378 47.0614 238.157 46.895 238.02 46.8194C237.883 46.74 237.655 46.638 237.506 46.5888C237.358 46.5359 237.103 46.4754 236.935 46.449C236.73 46.4149 236.44 46.4074 236.06 46.4225C235.599 46.4376 235.424 46.4603 235.146 46.5435C234.956 46.5964 234.64 46.7211 234.442 46.8119C234.244 46.9064 233.916 47.0916 233.718 47.2201C233.52 47.3487 233.227 47.5604 233.071 47.6851C232.915 47.8099 232.66 48.0291 232.504 48.1728C232.348 48.3164 232.066 48.6037 231.876 48.8116C231.686 49.0233 231.229 49.6093 230.863 50.1158C230.498 50.6262 230.03 51.2726 229.82 51.5523C229.611 51.8321 229.314 52.2252 229.154 52.4218C228.998 52.6184 228.773 52.8868 228.659 53.0191C228.541 53.1514 228.313 53.3706 228.149 53.5105C227.981 53.6504 227.726 53.8469 227.578 53.9452C227.426 54.0473 227.159 54.2023 226.98 54.293C226.801 54.38 226.501 54.5085 226.314 54.5727C226.124 54.6408 225.8 54.7315 225.591 54.7769C225.275 54.8449 225.084 54.8563 224.449 54.86C223.851 54.86 223.619 54.8449 223.364 54.792C223.185 54.7504 222.903 54.6786 222.736 54.6257C222.568 54.5727 222.252 54.4404 222.031 54.327C221.811 54.2136 221.536 54.0473 221.415 53.9603C221.297 53.8734 221.091 53.7071 220.958 53.5899C220.828 53.4765 220.6 53.2308 220.459 53.0417C220.318 52.8565 220.117 52.5352 220.01 52.3273C219.907 52.1194 219.789 51.8132 219.743 51.6468C219.702 51.4805 219.656 51.2008 219.644 51.0231C219.633 50.8416 219.641 50.5619 219.667 50.3804C219.694 50.2028 219.766 49.9041 219.827 49.7189C219.892 49.5299 220.033 49.2086 220.139 49.0006C220.246 48.7927 220.459 48.4601 220.608 48.2635C220.756 48.0669 221.004 47.7872 221.16 47.6435C221.316 47.5037 221.594 47.2844 221.784 47.1597C221.97 47.0349 222.359 46.8194 222.64 46.6796C222.922 46.5397 223.379 46.3545 223.649 46.2637C223.92 46.173 224.369 46.052 224.639 45.9916C224.909 45.9311 225.134 45.8857 225.134 45.8895C225.138 45.897 225.157 45.9462 225.183 46.0029C225.21 46.0634 225.229 46.1352 225.229 46.1654C225.229 46.1995 225.096 46.2864 224.894 46.3809C224.711 46.4679 224.433 46.638 224.277 46.7552C224.121 46.8761 223.885 47.0803 223.756 47.2126C223.626 47.3449 223.459 47.5528 223.383 47.6775C223.31 47.8023 223.211 48.014 223.166 48.1501C223.105 48.3353 223.082 48.4827 223.086 48.736C223.086 48.9855 223.109 49.1367 223.17 49.3031C223.215 49.4278 223.307 49.613 223.375 49.7151C223.444 49.8172 223.581 49.9759 223.687 50.0667C223.79 50.1574 223.973 50.2784 224.087 50.3426C224.201 50.4031 224.433 50.4863 224.601 50.5316C224.768 50.5732 224.989 50.6073 225.096 50.6073C225.199 50.6073 225.397 50.5808 225.534 50.5543C225.671 50.5241 225.968 50.422 226.2 50.3237C226.428 50.2254 226.858 50.0251 227.152 49.8814C227.445 49.734 228.02 49.4354 228.427 49.2161C228.834 48.9969 229.607 48.5735 230.14 48.271C230.673 47.9686 231.392 47.5679 231.739 47.3751C232.085 47.1823 232.485 46.9555 232.633 46.8648C232.782 46.7741 233.086 46.6077 233.319 46.4868C233.547 46.3696 233.924 46.1995 234.156 46.1125C234.385 46.0218 234.739 45.9008 234.937 45.8403C235.134 45.7836 235.477 45.7005 235.698 45.6551C235.919 45.6135 236.227 45.5606 236.383 45.5417C236.539 45.5228 237.065 45.5152 237.544 45.5228V45.5228ZM131.893 59.5967L134.124 59.6118C136.046 59.627 136.408 59.6383 136.72 59.695C136.918 59.7328 137.238 59.8122 137.424 59.8765C137.611 59.9369 137.923 60.0655 138.11 60.1638C138.388 60.3036 138.525 60.4057 138.818 60.7006C139.134 61.0143 139.206 61.105 139.358 61.4188C139.454 61.6154 139.56 61.8951 139.602 62.0425C139.655 62.2542 139.671 62.447 139.671 63.0065C139.671 63.6189 139.659 63.7474 139.583 64.0272C139.533 64.2049 139.438 64.4657 139.366 64.6131C139.297 64.7568 139.141 65.0063 139.016 65.1613C138.894 65.3163 138.673 65.5355 138.528 65.6414C138.38 65.751 138.14 65.8984 137.996 65.974C137.847 66.0458 137.607 66.1441 137.463 66.1933C137.314 66.2462 137.059 66.3142 136.892 66.3483C136.724 66.3823 136.389 66.4239 136.149 66.4466C135.909 66.4655 135.399 66.4844 134.322 66.4844V69.8866H131.886L131.893 59.5967ZM134.322 64.632C135.692 64.6282 135.97 64.6131 136.149 64.5715C136.286 64.5375 136.48 64.4657 136.583 64.4128C136.686 64.3561 136.823 64.2502 136.884 64.1784C136.949 64.1028 137.048 63.944 137.109 63.8193C137.166 63.687 137.23 63.4601 137.253 63.29C137.284 63.0746 137.284 62.912 137.253 62.723C137.234 62.5756 137.166 62.3563 137.105 62.2316C137.044 62.103 136.922 61.9367 136.831 61.8535C136.739 61.7741 136.56 61.657 136.435 61.6003C136.309 61.5436 136.077 61.4793 135.913 61.4566C135.749 61.4339 135.327 61.4188 134.969 61.4188H134.322V64.632ZM146.214 59.6232L148.202 64.7265C149.294 67.5315 150.185 69.8412 150.174 69.8564C150.166 69.8715 149.694 69.8866 149.123 69.8828C148.202 69.8828 148.068 69.8752 147.931 69.8148C147.848 69.777 147.73 69.69 147.665 69.6182C147.577 69.5161 147.475 69.2704 146.904 67.5769L143.021 67.5995L142.697 68.5484C142.446 69.2931 142.351 69.5275 142.259 69.622C142.198 69.69 142.076 69.777 141.993 69.8148C141.859 69.8752 141.734 69.8828 140.805 69.8828C140.234 69.8866 139.762 69.8715 139.75 69.8564C139.743 69.8412 140.622 67.5579 141.707 64.7832C142.788 62.0047 143.683 59.7063 143.698 59.6685C143.725 59.6081 143.812 59.6043 146.214 59.6232V59.6232ZM144.905 62.035C144.878 62.1446 144.57 63.0632 144.22 64.0839L143.588 65.9362C144.684 65.9513 145.305 65.9513 145.67 65.9438L146.344 65.9362L144.951 61.8422L144.905 62.035ZM151.837 59.6005H153.672C154.685 59.6005 155.709 59.6194 155.949 59.6383C156.188 59.661 156.523 59.7026 156.691 59.7328C156.858 59.763 157.132 59.8349 157.3 59.8878C157.467 59.9445 157.757 60.0655 157.947 60.1638C158.217 60.2998 158.358 60.4057 158.617 60.659C158.868 60.9085 158.975 61.0446 159.082 61.2638C159.154 61.4226 159.249 61.6494 159.287 61.7741C159.34 61.9594 159.356 62.1295 159.356 62.6814C159.352 63.3278 159.348 63.377 159.249 63.6643C159.188 63.8306 159.07 64.0952 158.983 64.2502C158.895 64.4014 158.701 64.6509 158.556 64.8021C158.408 64.9533 158.153 65.1613 157.985 65.2671C157.818 65.373 157.612 65.4901 157.376 65.5847L157.601 65.7396C157.726 65.8266 157.879 65.9589 157.943 66.0345C158.008 66.1139 158.568 66.9985 159.188 68.0002C159.809 69.0058 160.304 69.8412 160.292 69.8564C160.281 69.8715 159.702 69.879 159.013 69.8753C157.94 69.8677 157.738 69.8564 157.643 69.8034C157.578 69.7694 157.475 69.69 157.414 69.6295C157.349 69.5653 156.896 68.8168 156.405 67.9587C155.914 67.1043 155.457 66.352 155.397 66.2878C155.332 66.2273 155.221 66.1593 155.149 66.1404C155.077 66.1215 154.848 66.1025 154.274 66.1025V69.8828H151.837V59.6005ZM154.274 64.4581C155.416 64.4203 155.739 64.3901 155.88 64.3485C156.002 64.3183 156.169 64.254 156.253 64.2124C156.337 64.1708 156.474 64.0725 156.561 63.9969C156.645 63.9176 156.756 63.7852 156.805 63.7021C156.855 63.6189 156.923 63.4412 156.957 63.3052C157.003 63.1388 157.018 62.9649 157.007 62.757C156.995 62.5151 156.969 62.4055 156.87 62.2013C156.786 62.0274 156.695 61.9027 156.584 61.8195C156.497 61.7477 156.371 61.6645 156.31 61.6343C156.245 61.6003 156.093 61.5473 155.968 61.5133C155.808 61.4679 155.515 61.4415 155.012 61.4264L154.285 61.4075L154.274 64.4581ZM162.344 59.6005H164.78V69.8828H162.344V59.6005Z" fill="black"/>
</svg>
