<svg xmlns="http://www.w3.org/2000/svg" xmlns:xlink="http://www.w3.org/1999/xlink" width="305" height="88" viewBox="0 0 305 88">
<path d="M32.1,46.2h0.4c3.2,0.1,6.2,0.1,9.1,0.1c1,0,2.1,0,3.1-0.1H45l-5.6-12.7L32.1,46.2z M37.7,31.8l0.6-1l0.7-1.3
	c1.3,0.1,2.5,0.1,3.8,0.1l1-0.1l0.6,1.4l0.4,1.1c0.7,1.7,1.4,3.4,2.1,5c4.9,11.1,7.4,16.4,10.5,21.3c-2.4-0.1-4.8-0.1-7,0l-0.7-2
	l-1-2.2c-0.8-2.1-1.7-3.9-2.7-6c-5-0.3-9.9-0.3-14.7-0.1c-1.4,2.1-2.7,4.2-3.6,6.4c-0.7,1.3-1.3,2.5-1.8,3.9c-1.3-0.1-2.5-0.1-3.8,0
	l0.8-1.3l0.8-1.3c2.1-3.2,5.3-8.7,11.5-19.6C36,34.7,36.8,33.2,37.7,31.8z"/>
<path d="M73.1,31.9c0.1-0.8,0.1-1.7,0-2.5c9.7,0.1,19.6,0.1,29.4,0c-8,8.5-15.5,17.2-22.5,26.3L79.7,56h0.4c7.6,0.4,15,0.1,22.4-0.4
	c-0.1,0.8-0.1,1.8,0,2.8c-10.6-0.1-21.3-0.1-31.9,0c2.9-3.2,5.9-6.4,8.8-9.7c4.8-5.5,9.4-11.1,13.7-16.7l0.3-0.3L89,31.4
	C83.9,31.4,78.4,31.7,73.1,31.9z"/>
<path d="M118,31.9c0.1-0.8,0.1-1.7,0-2.5c9.7,0.1,19.6,0.1,29.4,0c-8,8.5-15.5,17.2-22.5,26.3l-0.3,0.3h0.4c7.6,0.4,15,0.1,22.4-0.4
	c-0.1,0.8-0.1,1.8,0,2.8c-10.6-0.1-21.3-0.1-31.9,0c2.9-3.2,5.9-6.4,8.8-9.7c4.8-5.5,9.4-11.1,13.7-16.7l0.4-0.3l-4.3-0.4
	C128.8,31.4,123.3,31.7,118,31.9z"/>
<path d="M169.4,46.2h0.4c3.2,0.1,6.2,0.1,9.1,0.1c1,0,2.1,0,3.1-0.1h0.3l-5.6-12.7L169.4,46.2z M175,31.8l0.6-1l0.7-1.3
	c1.3,0.1,2.5,0.1,3.8,0.1l1-0.1l0.6,1.4l0.6,1.3c0.7,1.7,1.4,3.4,2.1,5c4.9,11.1,7.6,16.4,10.6,21.3c-2.4-0.1-4.8-0.1-7,0l-0.7-2
	l-1-2.2c-0.8-2.1-1.7-3.9-2.5-6c-5-0.3-9.9-0.3-14.7-0.1c-1.4,2.1-2.7,4.2-3.6,6.4c-0.7,1.3-1.3,2.5-1.8,3.9c-1.3-0.1-2.5-0.1-3.8,0
	l0.8-1.3l0.8-1.3c2.1-3.2,5.3-8.7,11.5-19.6C173.4,34.7,174.1,33.2,175,31.8z"/>
<path d="M215.6,31l-0.8,0.1h-1.1v12.2c0.7,0.1,1,0.1,1.3,0.1c5.9,0.4,9.4-1.3,10.4-4.5c1.5-5.3-2.1-8-8-8
	C216.6,31,216.1,31,215.6,31z M217.5,29.3c3.6-0.1,5.5,0.1,7.6,0.7c6,1.7,7.8,6.9,4.1,10.6c-1.7,1.8-3.9,2.7-7.7,3.1
	c-0.1,0-0.4,0-0.7,0.1h-0.3l0.7,1.3l0.4,0.6c2.4,2.5,5.9,6,9.8,9.5c1.1,1.1,2.4,2.1,3.6,3.1c-2.7-0.1-5,0-7.7,0.1
	c-3.8-4.9-8.1-9.5-13.2-13.9h-0.3c-0.3,0.6-0.3,1-0.4,1.4l-0.1,1.3c0,3.8,0.1,7.4,0.4,11.1c-0.4,0-0.8,0-1.3,0c-1.7,0-3.4,0-4.9,0
	c0.6-8.3,0.7-16.4,0.3-24.9c0-1.4-0.1-2.7-0.3-4.1c2.2,0.1,3.4,0.1,7.4-0.1C216,29.4,216.8,29.4,217.5,29.3z"/>
<path d="M267.9,30.8c-10.2-2.5-18.6,2.4-18.8,13c-0.1,7.6,3.6,12,9.8,13.4c10.2,2.2,18.6-2.8,18.6-13.4c0-5.9-2-9.4-6-11.6
	C270.6,31.7,269.3,31.2,267.9,30.8z M243.3,44c0.1-8.7,8.1-14.8,20-15c9.8,0,17.2,4.2,19.5,10.5c3.2,9-2.9,17.1-14.3,19
	C253.9,60.9,243.1,53.9,243.3,44z"/>
</svg>
