<svg width="305" height="88" viewBox="0 0 305 88" fill="none" xmlns="http://www.w3.org/2000/svg">
<path d="M66.4683 39.7736C65.5288 39.1146 64.5131 38.5733 63.4438 38.1616C63.8146 37.9247 65.2904 36.8327 65.2904 36.8327C66.2973 35.8875 67.0985 34.7419 67.6432 33.4683C68.1879 32.1948 68.4644 30.8212 68.455 29.4344C68.5063 27.4635 67.9131 25.5302 66.7667 23.9327C65.5511 22.2265 63.484 20.2333 58.1941 19.9467L56.0989 19.8961H48V58.5252H55.8663C60.8127 58.5252 65.1628 58.1819 67.9929 54.1788C69.2619 52.2509 69.9243 49.9819 69.8936 47.6686C69.8936 43.1232 67.7477 40.7609 66.4668 39.7741L66.4683 39.7736ZM53.1217 40.932H55.6423C58.6663 40.932 61.7626 40.932 63.7493 43.5844C64.6023 44.7695 65.0437 46.205 65.0051 47.6686C65.0557 49.0517 64.6358 50.4107 63.8151 51.5203C62.3684 53.3981 60.3792 53.6973 58.274 53.8649L56.4109 53.9155H53.1232L53.1217 40.932ZM58.926 36.0576L56.0236 36.4368H53.1232V24.5402H55.7051C58.0158 24.5402 60.6444 24.5402 62.2554 26.6068C62.7351 27.1946 63.3655 28.1692 63.3655 30.1397C63.3655 33.1196 61.741 35.2743 58.9275 36.055" fill="black"/>
<path d="M72.8895 19.8956V58.5247H78.0634V19.8956H72.8895V19.8956Z" fill="black"/>
<path d="M114.606 24.1716C110.989 20.9001 106.43 19.2486 101.117 19.2486C92.5272 19.2486 87.6452 23.7236 85.4947 26.3446C82.6126 29.9935 81.0485 34.5224 81.0598 39.1863C81.0598 47.5713 85.549 54.6142 92.8316 57.6372C95.412 58.6946 98.1771 59.2176 100.962 59.1752C109.2 59.0603 116.233 54.4081 119.347 47.0858C120.44 44.5053 121.007 41.7298 121.016 38.9241C121.016 36.8073 120.564 29.4774 114.606 24.1716ZM91.6884 27.3338C94.3125 25.1693 97.6141 24.0146 101.004 24.0754C107.074 24.0754 112.214 27.3819 114.411 32.7136C115.217 34.7206 115.618 36.8687 115.593 39.0334C115.593 46.1284 111.639 49.9098 109.939 51.2282C107.49 53.1115 104.519 54.177 101.44 54.276C94.9605 54.5337 91.2965 51.1026 89.6655 49.0218C87.5396 46.1734 86.4003 42.7004 86.4225 39.1362C86.4225 36.9592 86.9248 31.4104 91.6884 27.3338" fill="black"/>
<path d="M118.162 19.8956V24.6546H127.464V58.5247H132.631V24.6546H142.053V19.8956H118.162Z" fill="black"/>
<path d="M172.974 39.799H187.829V35.1918H172.974V24.7554H187.994V19.8951H167.825L167.787 20.047V35.3518H149.393V19.8956H144.32V58.5247H149.393V40.1255H167.787V58.5247H188.153V53.748H172.974V39.799Z" fill="black"/>
<path d="M204.339 40.5472C205.801 40.3474 207.223 39.9205 208.556 39.2815C209.499 38.7952 210.335 38.1239 211.017 37.307C212.696 35.2944 213.578 32.7276 213.494 30.0997V29.8334C213.533 27.6885 212.88 25.5887 211.635 23.8491C209.359 20.7441 205.854 20.1194 203.068 19.9427L200.135 19.8921H191.964V58.5211H197.125V40.9279H199.053C199.053 41.1122 208.828 58.4335 208.828 58.4335L214.513 58.5211H214.79C214.79 58.5211 204.506 40.9593 204.271 40.5437L204.339 40.5472ZM205.824 35.4844C204.441 36.2656 202.459 36.4373 199.495 36.4869H197.125V24.5402H200.837C203.358 24.6192 205.961 24.6521 207.489 26.9972C208.116 28.0423 208.424 29.2498 208.375 30.4697C208.375 33.7945 206.42 35.1488 205.824 35.4819" fill="black"/>
<path d="M215.77 58.5009H220.754C220.92 58.3667 223.965 39.0436 223.965 39.0436C223.965 39.0436 224.613 34.8349 224.851 33.2123C225.08 33.8826 225.454 34.9139 225.454 34.9139L226.299 36.9977L235.53 59.3023L237.155 59.316C237.301 59.2011 247.128 35.4834 247.128 35.4834C247.142 35.4682 247.701 34.0178 248.033 33.1905C248.1 33.755 248.701 38.1049 248.701 38.1049L251.899 58.5009H256.998L250.206 19H249.279C249.146 19.0911 238.808 43.7469 238.808 43.7469C238.808 43.7469 237.044 48.509 236.512 49.9473C236.294 49.319 235.525 47.1562 235.525 47.1562L234.606 44.7493L234.081 43.4042L223.95 19.0015H222.956L215.77 58.5009Z" fill="black"/>
<path d="M50.3207 69.7859H49.4412V65.0775H48V64.3211H51.7543V65.0775H50.3207V69.7859Z" fill="black"/>
<path d="M54.0349 64.3206H54.9145V66.3386H57.5843V64.3206H58.4639V69.7884H57.5843V67.1335H54.9145V69.7859H54.0349V64.3206Z" fill="black"/>
<path d="M61.313 64.3206H64.339V65.077H62.1926V66.4439H64.339V67.2236H62.1926V68.9915H64.339V69.7864H61.313V64.3206Z" fill="black"/>
<path d="M70.8506 64.3206H71.7302V66.3386H74.402V64.3206H75.2816V69.7884H74.402V67.1335H71.7322V69.7859H70.8506V64.3206Z" fill="black"/>
<path d="M78.1287 64.3206H81.1546V65.077H79.0082V66.4439H81.1546V67.2236H79.0082V68.9915H81.1546V69.7864H78.1287V64.3206Z" fill="black"/>
<path d="M86.7344 68.3799H84.588L83.9586 69.7859H83.0328L85.6575 64.1064L88.2816 69.7859H87.3488L86.7344 68.3799ZM86.4235 67.6377L85.871 66.3923C85.7898 66.1902 85.7214 65.9833 85.666 65.7726C85.6159 65.9838 85.5501 66.191 85.4691 66.3923L84.9165 67.6377H86.4235Z" fill="black"/>
<path d="M90.3953 64.3206H91.2748V68.9915H93.2469V69.7864H90.3953V64.3206Z" fill="black"/>
<path d="M96.4604 64.3206H95.5808V69.7858H96.4604V64.3206Z" fill="black"/>
<path d="M99.3336 64.1064L102.777 67.4478C102.988 67.6561 103.186 67.878 103.369 68.1121V64.3211H104.18V70.0005L100.669 66.5988C100.476 66.4119 100.3 66.2071 100.145 65.9872V69.7843H99.3336V64.1064Z" fill="black"/>
<path d="M112.176 66.9882C112.184 67.2099 112.192 67.3785 112.192 67.501C112.192 69.0522 111.266 69.9311 109.689 69.9311C109.303 69.9522 108.917 69.8924 108.556 69.7556C108.194 69.6188 107.864 69.4079 107.588 69.1363C107.061 68.5789 106.775 67.8341 106.792 67.0646C106.781 66.6818 106.849 66.3009 106.991 65.9458C107.134 65.5907 107.347 65.2691 107.618 65.001C108.177 64.4698 108.921 64.1814 109.689 64.198C110.081 64.1841 110.47 64.2634 110.826 64.4295C111.182 64.5955 111.494 64.8437 111.737 65.1539L111.092 65.643C110.924 65.4376 110.712 65.2736 110.471 65.1637C110.23 65.0537 109.968 65.0007 109.704 65.0086C109.171 65.0241 108.664 65.2489 108.293 65.6351C107.921 66.0212 107.714 66.5382 107.715 67.0761C107.716 67.614 107.925 68.1303 108.298 68.5151C108.671 68.8998 109.178 69.1227 109.712 69.1363C110.728 69.1363 111.335 68.6244 111.335 67.8139V67.7369H110.029V66.9882H112.176Z" fill="black"/>
<path d="M119.447 69.7859H118.62V64.318H119.955C120.426 64.2625 120.902 64.3616 121.312 64.6005C121.491 64.7474 121.634 64.9345 121.729 65.1468C121.823 65.3592 121.868 65.591 121.858 65.8237C121.868 66.0576 121.824 66.2906 121.729 66.5043C121.634 66.718 121.491 66.9065 121.312 67.055C120.9 67.2882 120.425 67.3846 119.955 67.3304H119.447V69.7859ZM119.728 66.6059C120.539 66.6059 120.949 66.5143 120.949 65.8794C120.949 65.2212 120.547 65.085 119.728 65.085H119.5V66.6039L119.728 66.6059Z" fill="black"/>
<path d="M128.971 69.0902C128.422 69.6294 127.686 69.9312 126.919 69.9312C126.153 69.9312 125.416 69.6294 124.868 69.0902C124.597 68.8286 124.383 68.5139 124.239 68.1656C124.094 67.8172 124.021 67.4427 124.026 67.0651C124.022 66.6864 124.095 66.3108 124.239 65.9613C124.384 65.6117 124.598 65.2955 124.868 65.0319C125.419 64.4973 126.154 64.1986 126.919 64.1986C127.684 64.1986 128.419 64.4973 128.971 65.0319C129.241 65.2956 129.455 65.6116 129.601 65.961C129.748 66.3104 129.822 66.686 129.82 67.0651C129.823 67.4432 129.75 67.818 129.603 68.1663C129.457 68.5145 129.242 68.829 128.971 69.0902ZM128.318 65.6121C128.137 65.4226 127.92 65.2721 127.68 65.1697C127.44 65.0672 127.182 65.015 126.922 65.0162C126.66 65.0156 126.401 65.0681 126.16 65.1705C125.919 65.2728 125.7 65.423 125.518 65.6121C125.148 66.0024 124.942 66.5213 124.942 67.0611C124.942 67.6008 125.148 68.1197 125.518 68.51C125.7 68.6985 125.918 68.8482 126.158 68.9505C126.399 69.0528 126.657 69.1055 126.918 69.1055C127.179 69.1055 127.437 69.0528 127.677 68.9505C127.918 68.8482 128.135 68.6985 128.318 68.51C128.692 68.122 128.901 67.6022 128.901 67.0611C128.901 66.5199 128.692 66.0001 128.318 65.6121" fill="black"/>
<path d="M132.662 64.3206L133.686 67.0798C133.792 67.3704 133.89 67.6529 133.974 67.9435C134.133 67.4165 134.239 67.1178 134.27 67.0266L135.362 64.1064L136.507 67.0798C136.607 67.34 136.704 67.6301 136.795 67.9516C136.867 67.6636 136.956 67.38 137.061 67.1026L138.077 64.318H138.957L136.856 69.9975L135.62 66.8788C135.513 66.6105 135.422 66.3518 135.354 66.1143C135.278 66.3816 135.195 66.6414 135.096 66.894L133.883 69.9975L131.79 64.318L132.662 64.3206Z" fill="black"/>
<path d="M141.16 64.3206H144.186V65.077H142.039V66.4439H144.186V67.2236H142.039V68.9915H144.186V69.7864H141.16V64.3206Z" fill="black"/>
<path d="M147.628 69.7859H146.801V64.3211H148.03C148.501 64.2674 148.976 64.3743 149.379 64.6248C149.551 64.7716 149.688 64.9559 149.779 65.1638C149.869 65.3718 149.912 65.5978 149.903 65.8247C149.925 66.0053 149.909 66.1885 149.858 66.3629C149.806 66.5372 149.719 66.6988 149.602 66.8374C149.485 66.9761 149.341 67.0889 149.179 67.1686C149.016 67.2483 148.839 67.2932 148.659 67.3005L150.525 69.7843H149.531L147.726 67.3385H147.625L147.628 69.7859ZM147.84 66.652C148.614 66.652 149.001 66.5598 149.001 65.9032C149.001 65.2304 148.629 65.085 147.84 65.085H147.68V66.6545L147.84 66.652Z" fill="black"/>
<path d="M161.261 69.0902C160.712 69.6293 159.975 69.9311 159.209 69.9311C158.442 69.9311 157.706 69.6293 157.157 69.0902C156.887 68.8285 156.673 68.5138 156.528 68.1655C156.384 67.8172 156.311 67.4427 156.315 67.0651C156.312 66.6864 156.384 66.3109 156.529 65.9613C156.674 65.6118 156.888 65.2956 157.157 65.0319C157.709 64.4972 158.444 64.1986 159.209 64.1986C159.974 64.1986 160.709 64.4972 161.261 65.0319C161.531 65.2957 161.745 65.6118 161.891 65.9612C162.037 66.3106 162.111 66.686 162.11 67.0651C162.113 67.4432 162.039 67.8178 161.893 68.1661C161.747 68.5144 161.532 68.8289 161.261 69.0902ZM160.608 65.6121C160.427 65.4226 160.211 65.272 159.971 65.1696C159.731 65.0672 159.473 65.015 159.212 65.0162C158.951 65.0157 158.692 65.0682 158.451 65.1706C158.21 65.2729 157.992 65.4231 157.809 65.6121C157.439 66.0023 157.233 66.5213 157.233 67.0611C157.233 67.6008 157.439 68.1198 157.809 68.51C157.991 68.6984 158.209 68.8482 158.449 68.9504C158.689 69.0527 158.948 69.1054 159.208 69.1054C159.469 69.1054 159.728 69.0527 159.968 68.9504C160.208 68.8482 160.426 68.6984 160.608 68.51C160.982 68.122 161.191 67.6022 161.191 67.0611C161.191 66.5199 160.982 66.0001 160.608 65.6121" fill="black"/>
<path d="M164.723 64.3206H167.749V65.077H165.603V66.4383H167.749V67.2195H165.603V69.7879H164.723V64.3206Z" fill="black"/>
<path d="M174.208 64.3206H175.088V68.9915H177.06V69.7864H174.208V64.3206Z" fill="black"/>
<path d="M180.273 64.3206H179.393V69.7858H180.273V64.3206Z" fill="black"/>
<path d="M183.145 64.3206H186.171V65.077H184.025V66.4383H186.171V67.2195H184.025V69.7879H183.145V64.3206Z" fill="black"/>
<path d="M188.733 64.3206H191.759V65.077H189.613V66.4439H191.759V67.2236H189.613V68.9915H191.759V69.7864H188.733V64.3206Z" fill="black"/>
<path d="M199.097 69.7858H198.27V64.318H199.605C200.076 64.2623 200.552 64.3614 200.962 64.6005C201.141 64.7473 201.284 64.9344 201.379 65.1468C201.474 65.3592 201.518 65.591 201.508 65.8237C201.518 66.0576 201.474 66.2906 201.379 66.5043C201.284 66.718 201.141 66.9065 200.962 67.055C200.55 67.2883 200.075 67.3847 199.605 67.3304H199.097V69.7858ZM199.378 66.6059C200.189 66.6059 200.599 66.5143 200.599 65.8794C200.599 65.2212 200.197 65.085 199.378 65.085H199.15V66.6039L199.378 66.6059Z" fill="black"/>
<path d="M203.911 64.3206H204.791V68.9915H206.763V69.7864H203.911V64.3206Z" fill="black"/>
<path d="M212.047 68.3799H209.901L209.271 69.7859H208.346L210.97 64.1064L213.594 69.7859H212.662L212.047 68.3799ZM211.736 67.6377L211.183 66.3923C211.103 66.1901 211.035 65.9831 210.979 65.7726C210.929 65.9839 210.863 66.191 210.782 66.3923L210.229 67.6377H211.736Z" fill="black"/>
<path d="M215.705 64.1064L219.148 67.4478C219.36 67.6558 219.557 67.8777 219.74 68.1121V64.3211H220.551V70.0005L217.04 66.5988C216.847 66.4116 216.672 66.2069 216.516 65.9872V69.7843H215.705V64.1064Z" fill="black"/>
<path d="M223.403 64.3206H224.283V66.5831L226.232 64.3206H227.308L225.162 66.7507L227.566 69.7853H226.428L224.282 66.9952V69.7853H223.402L223.403 64.3206Z" fill="black"/>
<path d="M231.181 69.7859H230.301V65.0775H228.86V64.3211H232.615V65.0775H231.181V69.7859Z" fill="black"/>
<path d="M239.324 69.0902C238.775 69.6293 238.039 69.9311 237.272 69.9311C236.506 69.9311 235.769 69.6293 235.22 69.0902C234.95 68.8285 234.736 68.5138 234.591 68.1655C234.447 67.8172 234.374 67.4427 234.378 67.0651C234.375 66.6864 234.448 66.3109 234.592 65.9613C234.737 65.6118 234.951 65.2956 235.22 65.0319C235.772 64.4972 236.507 64.1986 237.272 64.1986C238.037 64.1986 238.772 64.4972 239.324 65.0319C239.594 65.2957 239.808 65.6118 239.954 65.9611C240.1 66.3105 240.175 66.686 240.173 67.0651C240.176 67.4432 240.102 67.8179 239.956 68.1662C239.81 68.5144 239.595 68.8289 239.324 69.0902V69.0902ZM238.671 65.6121C238.49 65.4226 238.274 65.272 238.034 65.1696C237.794 65.0672 237.536 65.015 237.275 65.0162C237.014 65.0157 236.755 65.0682 236.514 65.1706C236.273 65.2729 236.055 65.4231 235.872 65.6121C235.502 66.0023 235.296 66.5213 235.296 67.0611C235.296 67.6008 235.502 68.1198 235.872 68.51C236.054 68.6984 236.272 68.8482 236.512 68.9504C236.753 69.0527 237.011 69.1054 237.272 69.1054C237.532 69.1054 237.791 69.0527 238.031 68.9504C238.271 68.8482 238.489 68.6984 238.671 68.51C239.046 68.1224 239.256 67.6024 239.256 67.0611C239.256 66.5197 239.046 65.9997 238.671 65.6121" fill="black"/>
<path d="M242.786 64.1064L246.229 67.4478C246.441 67.6558 246.639 67.8777 246.821 68.1121V64.3211H247.633V70.0005L244.121 66.5988C243.928 66.4116 243.753 66.2069 243.598 65.9872V69.7843H242.786V64.1064Z" fill="black"/>
<path d="M251.43 67.5142H250.917V64.7691H250.078V64.3287H252.266V64.7691H251.43V67.5142Z" fill="black"/>
<path d="M256.115 65.5042C256.088 65.6574 256.039 65.8059 255.97 65.9452L255.142 67.6428L254.317 65.9098C254.253 65.7797 254.201 65.6442 254.161 65.5047C254.156 65.6532 254.137 65.8009 254.104 65.9457L253.764 67.5152H253.291L254.038 64.2046L254.971 66.2049C254.997 66.2631 255.054 66.4074 255.142 66.6368C255.205 66.4591 255.275 66.3168 255.324 66.2049L256.234 64.2046L257 67.5152H256.522L256.171 65.9417C256.158 65.8839 256.144 65.7392 256.113 65.5053" fill="black"/>
</svg>
