<svg width="305" height="88" viewBox="0 0 305 88" fill="none" xmlns="http://www.w3.org/2000/svg">
<path fill-rule="evenodd" clip-rule="evenodd" d="M237.176 14V74H184.236L158.248 14H237.176ZM210.947 35.3577C203.271 35.3577 197.484 41.5461 197.484 49.7548C197.484 57.9635 203.502 64.1507 211.476 64.1507C216.196 64.1507 219.751 62.5587 223.006 58.987L223.227 58.745L220.202 56.0763L219.98 56.3079C217.527 58.8318 214.866 60.0128 211.589 60.0128C206.66 60.0128 202.975 56.6251 202.321 51.5401H223.96L223.992 51.2518C224.035 50.8252 224.053 50.3965 224.046 49.9678C224.046 41.23 218.785 35.3612 210.951 35.3612L210.947 35.3577ZM219.219 47.922H202.318C202.961 42.8833 206.428 39.3961 210.839 39.3961C216.322 39.3961 218.749 43.7366 219.215 47.922H219.219ZM199.125 26.3941L186.106 57.2954L173.142 26.3941H167.758L183.979 63.786H188.125L204.348 26.3941H199.125ZM70.3481 72.7809C70.0686 73.0564 69.6619 73.1895 69.1945 73.1895H67.6294V68.8479H69.1933C69.6607 68.8479 70.0674 68.981 70.3469 69.2554C70.831 69.7185 70.7989 70.3588 70.7989 70.9921C70.7989 71.6254 70.8322 72.3085 70.3481 72.7809ZM69.8879 69.7336C69.6906 69.5296 69.4103 69.4219 69.1232 69.4395H68.3037V72.5968H69.1232C69.4097 72.6151 69.6899 72.5086 69.8879 72.3062C70.115 72.0549 70.1257 71.586 70.1257 70.9874C70.1257 70.3889 70.115 69.9836 69.8879 69.7336ZM71.7718 73.1895V68.8479H74.5953V69.4395H72.4423V70.713H74.2788V71.2989H72.4388V72.6014H74.5882V73.1942L71.7718 73.1895ZM76.9471 73.1895H76.4247L74.9741 68.8479H75.6682L76.6835 72.0074L77.7012 68.8479H78.4071L76.9471 73.1895ZM79.0235 73.1895V68.8479H81.8471V69.4395H79.6965V70.713H81.5294V71.2989H79.6965V72.6014H81.8471V73.1942L79.0235 73.1895ZM82.7741 73.1895V68.8479H83.4435V72.5968H85.5718V73.1895H82.7741ZM88.7718 72.7635C88.465 73.0679 88.0449 73.2352 87.6094 73.2266C87.1743 73.237 86.7542 73.0693 86.4494 72.7635C86.0129 72.3374 86.0212 71.8558 86.0212 71.0187C86.0212 70.1816 86.0129 69.7 86.4494 69.2751C86.7542 68.9693 87.1743 68.8016 87.6094 68.812C88.0449 68.8033 88.465 68.9707 88.7718 69.2751C89.2071 69.7 89.1953 70.1828 89.1953 71.0187C89.1953 71.8546 89.2071 72.3374 88.7718 72.7635ZM88.2659 69.671C87.9019 69.3144 87.3134 69.3144 86.9494 69.671C86.7329 69.9026 86.6882 70.1469 86.6882 71.0187C86.6882 71.8905 86.7329 72.136 86.9494 72.3675C87.1235 72.5403 87.3604 72.6374 87.6076 72.6374C87.8548 72.6374 88.0918 72.5403 88.2659 72.3675C88.48 72.136 88.5235 71.8917 88.5235 71.0187C88.5235 70.1457 88.48 69.9038 88.2659 69.671ZM91.9163 71.483H90.8846V73.1895H90.1976V68.8479H91.9163C92.804 68.8479 93.3676 69.4094 93.3676 70.1666C93.3676 70.9238 92.804 71.483 91.9163 71.483ZM91.8812 69.4395H90.8846V70.8844H91.8812C92.3589 70.8844 92.683 70.6227 92.683 70.1666C92.683 69.7104 92.3589 69.4395 91.8812 69.4395ZM94.1047 73.1895V68.8479H96.9282V69.4395H94.7776V70.713H96.6094V71.2989H94.7776V72.6014H96.9259V73.1942L94.1047 73.1895ZM100.572 72.7809C100.291 73.0564 99.8855 73.1895 99.421 73.1895H97.8588V68.8479H99.4269C99.8914 68.8479 100.296 68.981 100.578 69.2554C101.062 69.7185 101.028 70.3588 101.028 70.9921C101.028 71.6254 101.056 72.3085 100.572 72.7809ZM100.111 69.7336C99.915 69.5291 99.6351 69.4212 99.3485 69.4395H98.5324V72.5968H99.3485C99.6345 72.6157 99.9142 72.5092 100.111 72.3062C100.34 72.0549 100.349 71.586 100.349 70.9874C100.349 70.3889 100.34 69.9836 100.111 69.7336ZM107.088 73.1895H106.5L105.604 70.1469L104.711 73.1895H104.131L102.978 68.8479H103.684L104.455 71.9507L105.34 68.8479H105.882L106.771 71.9507L107.539 68.8479H108.245L107.088 73.1895ZM108.9 73.1895V68.8479H109.574V73.1895H108.9ZM112.222 69.4395V73.1895H111.555V69.4395H110.34V68.8479H113.439V69.4395H112.222ZM116.672 73.1895V71.2943H114.882V73.1895H114.211V68.8479H114.882V70.7003H116.672V68.8479H117.344V73.1895H116.672ZM122.717 72.7809C122.436 73.0564 122.034 73.1895 121.566 73.1895H120V68.8479H121.567C122.035 68.8479 122.437 68.981 122.718 69.2554C123.204 69.7185 123.169 70.3588 123.169 70.9921C123.169 71.6254 123.203 72.3085 122.717 72.7809ZM122.254 69.7336C122.059 69.5291 121.78 69.4211 121.494 69.4395H120.675V72.5968H121.494C121.779 72.616 122.058 72.5093 122.254 72.3062C122.486 72.0549 122.492 71.586 122.492 70.9874C122.492 70.3889 122.486 69.9836 122.254 69.7336ZM124.136 73.1895V68.8479H126.96V69.4395H124.808V70.713H126.642V71.2989H124.808V72.6014H126.958V73.1942L124.136 73.1895ZM130.321 73.1895L129.393 71.3614H128.559V73.1895H127.889V68.8479H129.598C130.436 68.8479 130.967 69.3781 130.967 70.1156C130.989 70.6574 130.622 71.1403 130.088 71.2734L131.104 73.1919L130.321 73.1895ZM129.548 69.4395H128.559V70.8034H129.548C129.993 70.8034 130.295 70.5521 130.295 70.126C130.295 69.7 129.993 69.4395 129.548 69.4395ZM135.185 73.1895V70.287L134.167 72.4023H133.673L132.631 70.287V73.1895H131.958V68.8479H132.631L133.919 71.549L135.185 68.8479H135.853V73.1895H135.185ZM139.551 73.1895L139.246 72.3189H137.504L137.199 73.1895H136.486L138.106 68.8479H138.646L140.265 73.1895H139.551ZM138.391 69.832L137.7 71.7608H139.059L138.391 69.832ZM142.022 69.4395V73.1895H141.351V69.4395H140.136V68.8479H143.239V69.4395H142.022ZM146.471 72.7635C145.823 73.3796 144.796 73.3796 144.148 72.7635C143.712 72.3374 143.72 71.8558 143.72 71.0187C143.72 70.1816 143.712 69.7 144.148 69.2751C144.796 68.659 145.823 68.659 146.471 69.2751C146.907 69.7 146.894 70.1828 146.894 71.0187C146.894 71.8546 146.912 72.3374 146.471 72.7635ZM145.965 69.671C145.601 69.3145 145.013 69.3145 144.649 69.671C144.435 69.9026 144.388 70.1469 144.388 71.0187C144.388 71.8905 144.435 72.136 144.649 72.3675C144.823 72.5402 145.06 72.6373 145.307 72.6373C145.554 72.6373 145.791 72.5402 145.965 72.3675C146.184 72.136 146.222 71.8917 146.222 71.0187C146.222 70.1457 146.188 69.9038 145.969 69.671H145.965ZM147.899 73.1895V68.8479H148.571V72.5968H150.696V73.1895H147.899ZM153.899 72.7635C153.25 73.3793 152.223 73.3793 151.574 72.7635C151.14 72.3374 151.146 71.8558 151.146 71.0187C151.146 70.1816 151.146 69.7 151.574 69.2751C152.223 68.6593 153.25 68.6593 153.899 69.2751C154.335 69.7 154.322 70.1828 154.322 71.0187C154.322 71.8546 154.335 72.3374 153.899 72.7635ZM153.391 69.671C153.216 69.4997 152.98 69.4034 152.734 69.4034C152.488 69.4034 152.252 69.4997 152.078 69.671C151.861 69.9026 151.816 70.1469 151.816 71.0187C151.816 71.8905 151.861 72.136 152.078 72.3675C152.251 72.54 152.487 72.6371 152.734 72.6371C152.981 72.6371 153.217 72.54 153.391 72.3675C153.607 72.136 153.648 71.8917 153.648 71.0187C153.648 70.1457 153.607 69.9038 153.391 69.671ZM157.965 72.7322C157.314 73.3773 156.258 73.3912 155.591 72.7635C155.154 72.3374 155.165 71.8558 155.165 71.0187C155.165 70.1816 155.154 69.7 155.591 69.2751C155.896 68.9696 156.316 68.802 156.751 68.812C157.692 68.812 158.233 69.414 158.354 70.1585H157.68C157.569 69.6838 157.246 69.4024 156.751 69.4024C156.505 69.3989 156.268 69.4957 156.098 69.6699C155.882 69.9014 155.833 70.1457 155.833 71.0175C155.833 71.8893 155.882 72.1418 156.098 72.3722C156.268 72.5457 156.505 72.6414 156.751 72.6361C157.024 72.6421 157.287 72.5295 157.468 72.3282C157.627 72.1375 157.707 71.8946 157.691 71.6485V71.4019H156.749V70.8392H158.359V71.5038C158.36 72.0688 158.259 72.4243 157.965 72.7322ZM159.36 73.1895V68.8479H160.031V73.1895H159.36ZM162.353 73.2254C161.693 73.2254 161.215 73.0749 160.794 72.6523L161.239 72.2216C161.562 72.5389 161.913 72.6373 162.366 72.6373C162.941 72.6373 163.274 72.3907 163.274 71.9716C163.287 71.8028 163.224 71.6369 163.104 71.5166C162.995 71.4135 162.882 71.373 162.619 71.3383L162.099 71.263C161.791 71.2353 161.499 71.1139 161.265 70.9157C161.041 70.6978 160.924 70.3958 160.942 70.0867C160.942 69.3295 161.498 68.8131 162.416 68.8131C163.005 68.8131 163.408 68.9555 163.788 69.3063L163.36 69.7208C163.081 69.4626 162.772 69.3862 162.399 69.3862C161.876 69.3862 161.588 69.6768 161.588 70.0589C161.583 70.2119 161.645 70.3596 161.759 70.4641C161.902 70.5742 162.074 70.6438 162.254 70.6656L162.755 70.7374C163.166 70.7999 163.395 70.8971 163.579 71.0627C163.826 71.2917 163.958 71.6169 163.939 71.9507C163.942 72.7519 163.278 73.2254 162.353 73.2254ZM166.345 69.4395V73.1895H165.678V69.4395H164.464V68.8479H167.564V69.4395H166.345ZM169.508 73.2254C168.845 73.2254 168.367 73.0749 167.946 72.6523L168.393 72.2216C168.715 72.5389 169.069 72.6373 169.521 72.6373C170.098 72.6373 170.431 72.3907 170.431 71.9716C170.441 71.8026 170.378 71.6372 170.258 71.5166C170.148 71.4135 170.035 71.373 169.774 71.3383L169.253 71.263C168.944 71.2341 168.652 71.1129 168.415 70.9157C168.194 70.6962 168.078 70.3951 168.095 70.0867C168.095 69.3295 168.651 68.8131 169.568 68.8131C170.156 68.8131 170.562 68.9555 170.941 69.3063L170.513 69.7208C170.239 69.4626 169.925 69.3862 169.552 69.3862C169.031 69.3862 168.746 69.6768 168.746 70.0589C168.74 70.2121 168.802 70.3602 168.916 70.4641C169.058 70.5757 169.228 70.6455 169.408 70.6656L169.909 70.7374C170.316 70.7999 170.549 70.8971 170.733 71.0627C170.981 71.2913 171.114 71.6166 171.094 71.9507C171.096 72.7519 170.431 73.2254 169.508 73.2254ZM96.7647 54.5202L96.9929 54.306L100.212 57.4147L99.9765 57.6463C96.7565 60.858 92.4471 64.1519 84.9176 64.1519C74.1341 64.1519 66 55.9223 66 45.0102C66 34.0425 74.2024 25.7654 85.08 25.7654C92.4212 25.7654 96.48 28.5904 99.7647 31.6412L100 31.8658L96.6847 35.3589L96.4494 35.1342C92.76 31.6887 89.3494 30.2206 85.0235 30.2206C77.0353 30.2206 71.0071 36.5329 71.0071 44.9048C71.0071 53.3358 77.0353 59.6886 85.0235 59.6886C90.2035 59.6886 93.4624 57.6254 96.7647 54.5202ZM113.895 35.3577V35.3612C121.727 35.3612 126.987 41.23 126.987 49.9678C126.993 50.3964 126.976 50.825 126.935 51.2518L126.902 51.5401H105.266C105.92 56.6251 109.602 60.0128 114.531 60.0128C117.807 60.0128 120.473 58.8318 122.922 56.3079L123.142 56.0763L126.174 58.745L125.953 58.987C122.7 62.5587 119.144 64.1507 114.424 64.1507C106.446 64.1507 100.431 57.9635 100.431 49.7548C100.431 41.5461 106.218 35.3577 113.895 35.3577ZM105.266 47.9185H122.164C121.692 43.7331 119.268 39.3926 113.791 39.3926C109.372 39.3926 105.909 42.8798 105.266 47.9185ZM144.948 40.4392H144.299C137.906 40.4392 133.773 45.1584 133.773 52.4663V63.5267H129.036V35.9296H133.773V41.9027C136.14 37.6848 140.109 35.2778 144.628 35.4619L144.948 35.4735V40.4392ZM146.862 35.5696H155.379C163.101 35.5696 167.358 39.5338 167.358 46.7306V63.5301H162.779V60.044C160.986 62.0308 157.969 64.0963 153.205 64.0963C148.124 64.0963 142.652 61.3489 142.652 55.3284C142.652 49.6436 147.151 46.2502 154.692 46.2502C158.259 46.2502 160.702 46.7364 162.779 47.2922V46.7827C162.779 42.3137 160.06 39.8279 155.132 39.7666H146.862V35.5696ZM154 60.2675V60.2686C159.027 60.2686 162.824 57.27 162.824 53.2965V50.9357C160.315 50.2328 157.721 49.8744 155.113 49.8706C150.311 49.8706 147.448 51.8538 147.448 55.1732C147.448 58.6755 150.844 60.2675 154 60.2675Z" fill="black"/>
</svg>
