<svg width="305" height="88" viewBox="0 0 305 88" fill="none" xmlns="http://www.w3.org/2000/svg">
<path fill-rule="evenodd" clip-rule="evenodd" d="M118.083 69.9048V69.8233H119.283V69.9048C119.056 69.9048 119.013 69.9048 119.013 70.1734V74.5341C119.013 74.8259 119.056 74.8259 119.283 74.8259V74.9049H118.083V74.8259H118.146C118.367 74.8259 118.423 74.8259 118.423 74.5341V72.4297H115.858V74.5341C115.858 74.8259 115.909 74.8259 116.144 74.8259V74.9049H115V74.8259C115.226 74.8259 115.27 74.8259 115.27 74.5341V70.1734C115.27 69.9048 115.226 69.9048 115 69.9048V69.8233H116.144V69.9048C115.909 69.9048 115.858 69.9048 115.858 70.1734V72.2963H118.423V70.1734C118.423 69.9048 118.367 69.9048 118.146 69.9048H118.083ZM122.751 74.7805C123.6 74.7805 123.647 74.6993 123.804 74.4936H123.902L123.804 74.905H120.262V74.826H120.32C120.548 74.826 120.608 74.8099 120.608 74.5341V70.1734C120.608 69.9048 120.548 69.9048 120.32 69.9048V69.8233H123.549L123.647 70.2278H123.549C123.399 70.0243 123.348 69.9475 122.494 69.9475H121.201V72.2961H122.345C122.829 72.2961 122.865 72.1494 122.865 72.0206H122.905V72.7099H122.865C122.865 72.5741 122.829 72.4297 122.345 72.4297H121.201V74.3464C121.201 74.7603 121.285 74.7805 121.725 74.7805H122.751ZM127.548 74.7805C128.402 74.7805 128.462 74.6993 128.609 74.4936H128.71L128.609 74.905H124.807V74.826C125.091 74.826 125.151 74.8099 125.151 74.5341V70.1734C125.151 69.9048 125.091 69.9048 124.807 69.9048V69.8233H126.083V69.9048C125.797 69.9048 125.721 69.9048 125.721 70.1734V74.3464C125.721 74.7603 125.844 74.7805 126.279 74.7805H127.548ZM131.979 74.7805C132.835 74.7805 132.882 74.6993 133.045 74.4936H133.139L133.045 74.905H129.488V74.826H129.561C129.789 74.826 129.841 74.8099 129.841 74.5341V70.1734C129.841 69.9048 129.789 69.9048 129.561 69.9048V69.8233H132.797L132.882 70.2278H132.797C132.634 70.0243 132.578 69.9475 131.727 69.9475H130.431V72.2961H131.572C132.064 72.2961 132.086 72.1494 132.086 72.0206H132.144V72.7099H132.086C132.086 72.5741 132.064 72.4297 131.572 72.4297H130.431V74.3464C130.431 74.7603 130.522 74.7805 130.962 74.7805H131.979ZM138.052 69.9048V69.8233H138.785V69.9048C138.561 69.9048 138.512 69.9048 138.512 70.1734V74.941H138.457L134.589 70.5623V74.5341C134.589 74.8235 134.642 74.8235 134.868 74.8235V74.9049H134.124V74.8235C134.347 74.8235 134.401 74.8235 134.401 74.5341V70.1734C134.401 69.9048 134.347 69.9048 134.124 69.9048V69.8233H134.772L138.336 73.8808V70.1734C138.336 69.9048 138.275 69.9048 138.052 69.9048ZM140.414 72.7777H142.074L141.221 70.5872L140.414 72.7777ZM143.401 74.534C143.513 74.8259 143.6 74.8258 143.826 74.8258V74.9049H142.548V74.8258C142.749 74.8258 142.851 74.794 142.778 74.6088C142.706 74.4231 142.118 72.9249 142.118 72.9249H140.351L139.759 74.534C139.661 74.8098 139.739 74.8258 139.965 74.8258V74.9049H139.21V74.8258C139.447 74.8258 139.529 74.8259 139.63 74.534L141.158 70.4583L141.062 70.2121C141.062 70.2121 141.346 70.0605 141.524 69.724C141.58 69.8548 141.632 69.9793 141.632 69.9793L143.401 74.534ZM161.058 69.9048V69.8233H162.204V69.9048C161.989 69.9048 161.947 69.9048 161.947 70.1734V74.5341C161.947 74.8259 161.989 74.8259 162.204 74.8259V74.9049H161.058V74.8259C161.288 74.8259 161.346 74.8259 161.346 74.5341V70.1734C161.346 69.9048 161.288 69.9048 161.058 69.9048ZM183.185 69.9048V69.8233H184.34V69.9048C184.103 69.9048 184.049 69.9048 184.049 70.1734V74.5341C184.049 74.8259 184.103 74.8259 184.34 74.8259V74.9049H183.185V74.8259C183.415 74.8259 183.457 74.8259 183.457 74.5341V70.1734C183.457 69.9048 183.415 69.9048 183.185 69.9048ZM181.058 74.7805C181.909 74.7805 181.965 74.6993 182.117 74.4936H182.208L182.117 74.905H178.566V74.826H178.629C178.861 74.826 178.917 74.8099 178.917 74.5341V70.1734C178.917 69.9048 178.861 69.9048 178.629 69.9048V69.8233H181.857L181.965 70.2278H181.857C181.708 70.0243 181.652 69.9475 180.794 69.9475H179.498V72.2961H180.649C181.156 72.2961 181.16 72.1494 181.16 72.0206H181.223V72.7099H181.16C181.16 72.5741 181.156 72.4297 180.649 72.4297H179.498V74.3464C179.498 74.7603 179.592 74.7805 180.032 74.7805H181.058ZM167.803 69.8233H167.993H168.261V69.9047C168.04 69.9047 167.993 69.9047 167.993 70.1734V74.9412H167.94L164.067 70.5623V74.5341C164.067 74.8234 164.112 74.8234 164.338 74.8234V74.9049H163.598V74.8234C163.828 74.8234 163.873 74.8234 163.873 74.5341V70.1734C163.873 69.9047 163.828 69.9047 163.598 69.9047V69.8233H164.251L167.803 73.8807V70.1734C167.803 69.9047 167.759 69.9047 167.528 69.9047V69.8233H167.803ZM189.644 69.8233H190.395V69.9047C190.174 69.9047 190.114 69.9047 190.114 70.1734V74.9412H190.051L186.192 70.5623V74.5341C186.192 74.8234 186.235 74.8234 186.467 74.8234V74.9049H185.719V74.8234C185.946 74.8234 186.003 74.8234 186.003 74.5341V70.1734C186.003 69.9047 185.946 69.9047 185.719 69.9047V69.8233H186.369L189.93 73.8807V70.1734C189.93 69.9047 189.875 69.9047 189.644 69.9047V69.8233ZM177.069 69.8233C177.433 69.8028 177.59 69.7601 177.59 69.7601L177.699 70.2277H177.601C177.458 70.0242 177.402 69.9475 176.54 69.9475H175.588V74.5341C175.588 74.8234 175.637 74.8234 175.872 74.8234V74.9049H174.728V74.8234C174.954 74.8234 175.005 74.8234 175.005 74.5341V69.9475H174.042C173.195 69.9475 173.141 70.0242 172.983 70.2277H172.896L173.006 69.7601C173.006 69.7601 173.164 69.8028 173.528 69.8233H177.069ZM170.619 72.0206C171.41 72.4295 172.212 72.6668 172.212 73.6053C172.212 74.2584 171.758 74.9998 170.456 74.9998C170.013 74.9998 169.526 74.7376 169.2 74.4391L169.135 74.5635H169.075V73.8584H169.142C169.175 74.2221 169.338 74.3825 169.499 74.5341C169.739 74.7603 170.092 74.9206 170.433 74.9206C171.22 74.9206 171.68 74.4937 171.68 73.8584C171.68 73.248 171.251 73.0241 170.467 72.6174C169.604 72.1675 169.158 71.9122 169.158 71.0912C169.158 70.3996 169.787 69.7601 170.644 69.7601C171.081 69.7601 171.559 70.0468 171.881 70.3498L171.975 70.2073H172.024V70.9147H171.959C171.915 70.5624 171.761 70.3838 171.595 70.2325C171.367 70.0085 170.999 69.8367 170.661 69.8367C170.078 69.8367 169.643 70.1624 169.643 70.7861C169.643 71.3243 169.908 71.6769 170.619 72.0206ZM158.153 74.8258C159.183 74.8258 159.556 74.371 159.556 73.5599C159.556 72.4296 158.803 72.3143 157.992 72.3121H157.675V74.534C157.675 74.81 157.728 74.8258 157.992 74.8258H158.153ZM157.675 70.1733V72.2284H158.046C158.705 72.2239 159.303 71.9005 159.303 71.0711C159.303 70.5872 159.114 70.1733 158.651 70.0042C158.399 69.9047 158.153 69.9047 158.01 69.9047C157.728 69.9047 157.675 69.9047 157.675 70.1733ZM158.861 72.2239C159.672 72.3052 160.222 72.8005 160.222 73.5306C160.222 74.5185 159.348 74.9251 158.104 74.9251C157.858 74.9251 157.5 74.9049 157.299 74.9049H156.801V74.8258C157.027 74.8258 157.085 74.8259 157.085 74.534V70.1733C157.085 69.9047 157.027 69.9047 156.801 69.9047V69.8232H158.169C158.593 69.8232 158.984 69.8548 159.373 70.0469C159.701 70.2121 159.916 70.6165 159.916 71.001C159.916 71.5637 159.587 72.0499 158.861 72.2079V72.2239ZM155.009 69.9048V69.8233H155.746V69.9048C155.521 69.9048 155.467 69.9048 155.467 70.1734V73.2343C155.467 74.177 155.134 75 153.646 75C152.2 75 151.825 74.222 151.825 73.3067V70.1734C151.825 69.9048 151.774 69.9048 151.544 69.9048V69.8233H152.69V69.9048C152.451 69.9048 152.408 69.9048 152.408 70.1734V73.5101C152.408 74.0482 152.616 74.8235 153.774 74.8235C154.75 74.8235 155.284 74.2832 155.284 73.2343V70.1734C155.284 69.9048 155.232 69.9048 155.009 69.9048ZM148.429 72.3052C149.421 72.3052 149.828 71.8669 149.828 71.0913C149.828 70.3138 149.343 69.9047 148.143 69.9047C147.857 69.9047 147.796 69.9047 147.796 70.1733V72.3052H148.429ZM150.679 74.3962C150.891 74.7175 151.235 74.8528 151.459 74.8528H151.591V74.9251H151.369C151.213 74.9251 150.927 74.9049 150.683 74.8412C150.261 74.6745 149.993 74.453 149.562 73.7923C149.305 73.4061 149.07 72.8409 148.731 72.5743C148.592 72.4387 148.418 72.3844 148.201 72.3844H147.796V74.534C147.796 74.8259 147.85 74.8258 148.078 74.8258V74.9049H146.932V74.8258C147.158 74.8258 147.202 74.8259 147.202 74.534V70.1733C147.202 69.9047 147.158 69.9047 146.932 69.9047V69.8232H148.489C149.378 69.8232 150.393 70.0807 150.393 71.141C150.393 71.8669 149.953 72.3484 149.197 72.3933L149.05 72.4069C149.271 72.4637 149.421 72.5743 149.651 72.8409C149.948 73.1755 150.301 73.8807 150.679 74.3962ZM160.116 39.1418C169.826 39.1418 173.709 34.8491 173.709 27.1749C173.709 19.7851 168.997 15.7704 157.357 15.7074C155.591 15.7074 154.712 15.7299 154.308 16.4555C154.115 16.8395 154.066 17.4523 154.066 18.3859V39.1418H160.116ZM189.663 63.84C189.765 63.84 190.691 63.8691 190.849 63.8691V64.7168H188.746C187.173 64.7168 184.387 64.3691 182.061 63.6071C177.951 62.1128 175.423 59.9679 171.199 53.5636C168.675 49.775 166.487 44.3432 163.101 41.5924C161.775 40.4734 159.994 39.8808 157.919 39.8808H154.066V60.8519C154.066 63.4713 154.554 63.5284 156.79 63.5284V64.24H144.977V63.5284H145.558C147.785 63.5284 148.286 63.4713 148.286 60.8519V40.3287H123.464V60.8519C123.464 63.4713 123.969 63.5284 126.192 63.5284V64.24H115.018V63.5284C117.252 63.5284 117.76 63.4713 117.76 60.8519V18.3859C117.76 15.7704 117.252 15.7074 115.018 15.7074V15.0044L126.192 15V15.7074C123.969 15.7074 123.464 15.7704 123.464 18.3859V38.9972H148.286V18.3859C148.286 15.7704 147.785 15.7074 145.558 15.7074H144.977V15H160.702C169.354 15 179.23 17.4523 179.23 27.742C179.23 34.8039 175.027 39.585 167.597 39.9692C167.352 39.9692 166.058 40.0732 166.058 40.0732C168.276 40.6653 169.826 41.5924 172.039 44.2279C174.895 47.5847 178.291 54.346 181.956 59.5225C184.09 62.5538 187.354 63.84 189.663 63.84Z" fill="#090403"/>
</svg>
