<svg width="305" height="88" viewBox="0 0 305 88" fill="none" xmlns="http://www.w3.org/2000/svg">
<path d="M118.904 18.6732C120.171 19.1303 120.673 21.2421 120.171 21.7154C118.839 23.6673 117.564 31.6263 117.901 32.0634C118.251 32.4942 143.714 25.8353 161.321 28.097C161.94 28.1894 162.281 28.5966 162.342 28.689C162.96 29.6418 165.422 35.7587 165.104 36.3806C164.79 36.9963 164.027 37.1262 163.654 37.1262C162.258 37.1562 160.091 37.1374 157.242 36.1783C157.054 36.1034 156.487 35.7412 156.065 35.7087C148.495 35.1917 135.446 35.7712 117.057 39.5839C116.248 61.1278 118.048 66.8001 120.307 71.753C120.875 73.0206 117.98 74.1059 115.002 73.0818C110.635 71.5869 110.681 52.3134 110.581 46.8148L110.454 46.6849C108.079 51.3531 100.88 67.5831 94.3956 73.926C92.8283 75.4484 87.897 75.2211 85.5828 74.0634C83.2697 72.8932 82.3031 69.645 81.7993 67.2622C79.253 55.1521 84.5466 32.7402 84.5466 31.9847C84.5466 31.2254 84.2252 29.9078 85.1162 29.4146C85.4922 29.2247 89.6653 27.6712 90.766 32.3843C90.8094 32.5866 90.7846 32.7402 90.7548 32.9126C90.1033 36.1783 83.6544 58.208 89.8676 72.3312C90.6133 72.6097 97.5462 64.9218 107.075 42.3601C99.2487 44.7879 96.927 45.8232 96.149 46.1304C95.6191 46.3464 93.4513 46.1616 92.2476 44.6268C89.9644 40.8702 89.9904 38.3263 91.3045 38.0066C92.564 37.6994 92.8507 38.3263 93.5555 38.3201C95.0247 38.3014 100.178 36.4855 110.729 33.6894C111.813 29.2972 113.337 22.1363 113.396 21.4819C113.452 20.805 112.803 19.3813 113.493 18.8705C114.187 18.3835 117.209 18.0688 118.904 18.6732ZM96.8359 20.7617C96.8359 20.7617 96.0653 21.0876 95.9053 21.4335C95.6608 21.988 95.9909 22.0292 95.8507 22.1216C95.7042 22.2078 91.0348 24.0324 90.2989 24.4632C87.5776 26.0955 86.982 26.7536 86.2859 26.7536C85.5823 26.7536 80.1608 22.7448 80.002 20.9877C79.971 20.6018 80.3122 20.2434 80.5653 20.1023C80.9426 19.8625 88.2949 15.5627 90.49 15.0082C91.3586 14.7934 95.8879 18.8647 96.1745 19.1531C96.5307 19.5128 96.7937 19.6826 96.8049 19.9237C96.8359 20.3183 96.8359 20.3108 96.8359 20.7617ZM137.095 46.7985C136.035 45.8606 134.575 45.3299 133.189 45.3299C129.873 45.3299 127.343 48.1261 127.343 51.4218C127.343 54.6775 129.855 57.4637 133.152 57.4637C134.606 57.4637 135.986 56.913 137.095 55.9264V58.1181C135.951 58.785 134.496 59.1659 133.201 59.1659C128.986 59.1659 125.5 55.779 125.5 51.483C125.5 47.0858 129.01 43.6452 133.365 43.6452C134.654 43.6452 135.967 43.9574 137.095 44.6493V46.7985ZM154.192 51.4084C154.192 55.8218 150.737 59.1663 146.451 59.1663C142.171 59.1663 138.693 55.8218 138.693 51.4084C138.693 47.1411 142.207 43.6456 146.451 43.6456C150.681 43.6456 154.192 47.1411 154.192 51.4084ZM152.349 51.4084C152.349 48.1264 149.917 45.384 146.451 45.384C142.976 45.384 140.541 48.1264 140.541 51.4084C140.541 54.794 143.256 57.4266 146.451 57.4266C149.636 57.4266 152.349 54.794 152.349 51.4084ZM162.837 46.7864C162.282 45.861 161.571 45.384 160.458 45.384C159.273 45.384 157.981 46.1932 157.981 47.4908C157.981 48.6534 159.119 49.2666 160.044 49.6275L161.096 50.0372C163.207 50.8639 164.771 52.0328 164.771 54.5193C164.771 57.2255 162.69 59.1663 160.044 59.1663C157.659 59.1663 155.786 57.3841 155.483 54.9963L157.337 54.6055C157.325 56.2339 158.615 57.4266 160.198 57.4266C161.791 57.4266 162.929 56.0866 162.929 54.5193C162.929 52.9332 161.657 52.2351 160.38 51.6969L159.362 51.261C157.679 50.5392 156.145 49.5663 156.145 47.4908C156.145 45.0792 158.262 43.6456 160.502 43.6456C162.142 43.6456 163.498 44.4536 164.296 45.8922L162.837 46.7864ZM169.825 49.0145H169.787L168.066 58.8467H166.156L169.185 43.3335L174.264 55.0452L179.344 43.3335L182.362 58.8467H180.457L178.735 49.0145H178.685L174.264 59.1664L169.825 49.0145ZM184.79 43.9578H192.741V45.655H186.641V49.8174H192.566V51.5258H186.641V57.1456H192.741V58.8465H184.79V43.9578ZM199.945 58.8467H198.102V45.6551H194.585V43.9579H203.461V45.6551H199.945V58.8467ZM205.749 43.9569H207.599V58.8469H205.749V43.9569ZM221.864 46.7985C220.805 45.8606 219.353 45.3299 217.959 45.3299C214.637 45.3299 212.105 48.1261 212.105 51.4218C212.105 54.6775 214.625 57.4637 217.924 57.4637C219.372 57.4637 220.763 56.913 221.864 55.9264V58.1181C220.721 58.785 219.28 59.1659 217.982 59.1659C213.756 59.1659 210.274 55.779 210.274 51.483C210.274 47.0858 213.777 43.6452 218.13 43.6452C219.43 43.6452 220.754 43.9574 221.864 44.6493V46.7985ZM231.552 46.7864C230.991 45.861 230.286 45.384 229.167 45.384C227.998 45.384 226.709 46.1932 226.709 47.4908C226.709 48.6534 227.834 49.2666 228.765 49.6275L229.822 50.0372C231.916 50.8639 233.487 52.0328 233.487 54.5193C233.487 57.2255 231.419 59.1663 228.765 59.1663C226.369 59.1663 224.508 57.3841 224.202 54.9963L226.052 54.6055C226.033 56.2339 227.331 57.4266 228.923 57.4266C230.511 57.4266 231.644 56.0866 231.644 54.5193C231.644 52.9332 230.379 52.2351 229.1 51.6969L228.07 51.261C226.38 50.5392 224.854 49.5663 224.854 47.4908C224.854 45.0792 226.982 43.6456 229.216 43.6456C230.856 43.6456 232.215 44.4536 233.024 45.8922L231.552 46.7864ZM236.447 44.5756L237.194 42.9084L237.674 45.3698H237.257L237.049 44.1422L236.447 45.4111L235.847 44.1422L235.634 45.3698H235.22L235.7 42.9084L236.447 44.5756ZM233.685 43.1144H235.082V43.4978H234.588V45.3698H234.179V43.4978H233.685V43.1144Z" fill="#231F20"/>
</svg>
