<svg width="450" height="123" viewBox="0 0 450 123" fill="none" xmlns="http://www.w3.org/2000/svg">
<g clip-path="url(#clip0)">
<path d="M64.8172 105.439C64.8746 105.482 64.9221 105.537 64.9565 105.6C64.9909 105.663 65.0115 105.733 65.0167 105.804C65.0167 106.214 62.6139 107.781 59.6769 107.781C54.0026 107.781 52 103.775 52 98.4608C52 93.5834 53.6352 89.4748 59.4433 89.4748C62.3803 89.4748 64.7844 91.0406 64.7844 91.4518C64.7788 91.5234 64.758 91.593 64.7234 91.656C64.6888 91.7189 64.6411 91.7738 64.5836 91.8168L63.8816 92.5091C63.8425 92.5638 63.7929 92.6101 63.7356 92.6454C63.6784 92.6807 63.6147 92.7043 63.5483 92.7147C63.3147 92.7147 61.4459 91.2 59.5103 91.2C55.9054 91.2 55.0087 93.8449 55.0087 98.209C55.0087 102.954 56.347 106.066 59.7536 106.066C61.6892 106.066 63.558 104.551 63.7916 104.551C63.8914 104.551 64.0252 104.673 64.1262 104.757L64.8172 105.439Z" fill="#161615"/>
<path d="M79.8293 107.777C75.3277 107.777 73.3872 104.978 73.3872 101.307C73.3872 97.7637 75.3229 94.7368 80.1638 94.7368C84.7359 94.7368 86.6716 97.5618 86.6716 101.185C86.6777 104.772 84.7092 107.777 79.8293 107.777ZM83.9354 101.152C83.9354 98.636 83.0339 96.3257 80.03 96.3257C77.0261 96.3257 76.1246 98.5326 76.1246 101.071C76.1246 103.998 76.9921 106.18 80.0629 106.18C83.04 106.184 83.9415 104.104 83.9415 101.152H83.9354Z" fill="#161615"/>
<path d="M108.907 107.109C108.907 107.314 108.773 107.416 108.506 107.416H106.769C106.503 107.416 106.369 107.314 106.369 107.109V98.5326C106.369 97.4291 106.004 96.4534 104.2 96.4534C102.6 96.4873 101.055 97.0365 99.793 98.0192V107.109C99.793 107.314 99.6604 107.416 99.3927 107.416H97.6578C97.3901 107.416 97.2563 107.314 97.2563 107.109V98.2503C97.3027 97.7416 97.2577 97.2286 97.1237 96.7356C96.9706 96.3645 96.7921 96.0044 96.5896 95.6577C96.5896 95.6066 96.6224 95.5543 96.7563 95.4789L98.2576 94.8353C98.3398 94.7851 98.4305 94.7505 98.5253 94.7331C99.1263 94.7331 99.5265 96.2745 99.5594 96.4789C101.142 95.3849 103.01 94.778 104.933 94.7331C108.639 94.7331 108.906 96.7356 108.906 98.5837L108.907 107.109Z" fill="#161615"/>
<path d="M127.495 96.788C127.362 96.9936 127.295 97.0958 127.094 97.0958C126.01 96.7005 124.874 96.4669 123.723 96.4023C122.384 96.4023 121.253 96.9157 121.253 98.0971C121.253 100.921 128.663 100.125 128.663 104.13C128.663 106.543 126.194 107.78 123.322 107.78C121.72 107.78 118.249 107.06 118.249 106.547C118.26 106.432 118.307 106.324 118.383 106.239L118.85 105.443C118.95 105.264 119.051 105.213 119.151 105.213C120.531 105.731 121.983 106.034 123.456 106.111C124.892 106.111 126.127 105.494 126.127 104.262C126.127 101.592 118.716 102.183 118.716 98.3063C118.716 96.2259 120.82 94.7368 123.757 94.7368C125.101 94.7938 126.429 95.0535 127.696 95.5069C127.963 95.6103 128.061 95.7125 128.061 95.8402C128.061 95.9181 127.961 95.9947 127.927 96.0969L127.495 96.788Z" fill="#161615"/>
<path d="M147.587 95.4035C147.58 95.3322 147.601 95.2611 147.644 95.2041C147.687 95.1471 147.75 95.1084 147.821 95.0957L149.49 94.7866C149.622 94.7597 149.756 94.7426 149.89 94.7355C150.124 94.7355 150.124 94.9411 150.124 95.0701V104.209C150.078 104.798 150.205 105.387 150.489 105.904C150.735 106.205 150.947 106.531 151.123 106.878C151.123 106.981 150.956 107.032 150.822 107.083L149.52 107.699C149.437 107.74 149.347 107.767 149.254 107.777C148.753 107.777 148.385 106.852 148.019 106.262C146.635 107.172 145.033 107.695 143.379 107.777C138.877 107.777 138.506 105.774 138.506 103.925V95.4035C138.499 95.3322 138.52 95.2611 138.563 95.2041C138.606 95.1471 138.669 95.1084 138.74 95.0957L140.408 94.7866C140.54 94.7597 140.674 94.7426 140.809 94.7355C141.043 94.7355 141.043 94.9411 141.043 95.0701V103.978C141.043 105.083 141.61 106.059 143.779 106.059C145.126 105.896 146.423 105.45 147.585 104.75L147.587 95.4035Z" fill="#161615"/>
<path d="M161.604 98.3027C161.62 97.697 161.553 97.0919 161.405 96.5045C161.237 95.9144 160.97 95.7599 160.97 95.6322C160.97 95.5811 161.004 95.53 161.137 95.4521L162.573 94.8353C162.667 94.7855 162.768 94.751 162.873 94.7331C163.373 94.7331 163.74 96.0714 163.773 96.2478C165.073 95.3925 166.564 94.8721 168.113 94.7331C170.282 94.7331 171.218 95.2465 171.651 96.2745C172.978 95.4209 174.488 94.8928 176.058 94.7331C179.762 94.7331 180.03 96.7356 180.03 98.5837V107.109C180.03 107.314 179.896 107.416 179.628 107.416H177.89C177.622 107.416 177.488 107.314 177.488 107.109V98.5326C177.488 97.4291 177.123 96.4534 175.352 96.4534C174.184 96.4894 173.051 96.8546 172.082 97.507V107.109C172.082 107.314 171.948 107.416 171.681 107.416H169.945C169.678 107.416 169.545 107.314 169.545 107.109V98.5326C169.545 97.4291 169.18 96.4534 167.376 96.4534C166.215 96.495 165.091 96.8691 164.137 97.5313V107.109C164.137 107.314 164.004 107.416 163.737 107.416H162.001C161.734 107.416 161.6 107.314 161.6 107.109L161.604 98.3027Z" fill="#161615"/>
<path d="M201.857 106.231C201.89 106.309 201.957 106.36 201.957 106.437C201.957 106.721 199.153 107.775 196.683 107.775C192.244 107.75 189.64 105.156 189.64 101.254C189.59 100.377 189.727 99.4994 190.043 98.6795C190.358 97.8596 190.845 97.1163 191.47 96.4992C192.095 95.8821 192.845 95.4053 193.669 95.1005C194.493 94.7958 195.372 94.6701 196.249 94.7319C201.823 94.7319 202.323 98.8915 202.323 101.1C202.323 101.465 202.323 101.665 201.958 101.665H192.379C192.349 102.269 192.449 102.871 192.673 103.432C192.897 103.992 193.24 104.498 193.677 104.915C194.114 105.331 194.636 105.649 195.206 105.846C195.777 106.042 196.384 106.114 196.985 106.055C198.409 105.975 199.803 105.617 201.09 105.003C201.191 105.003 201.224 105.079 201.29 105.156L201.857 106.231ZM199.587 100.07C199.638 99.5892 199.585 99.1026 199.433 98.6434C199.28 98.1842 199.031 97.7629 198.702 97.4079C198.373 97.0529 197.972 96.7723 197.526 96.585C197.08 96.3977 196.599 96.3081 196.115 96.322C195.616 96.2939 195.116 96.3716 194.649 96.5502C194.182 96.7287 193.759 97.0041 193.406 97.3581C193.053 97.7121 192.778 98.1368 192.601 98.6043C192.424 99.0717 192.348 99.5714 192.377 100.07H199.587Z" fill="#161615"/>
<path d="M215.037 107.109C215.037 107.314 214.903 107.416 214.637 107.416H212.901C212.634 107.416 212.5 107.314 212.5 107.109V98.3027C212.509 97.61 212.312 96.9303 211.933 96.35C211.766 96.1655 211.642 95.9466 211.568 95.7088C211.584 95.6503 211.613 95.5965 211.654 95.5518C211.694 95.5071 211.745 95.4729 211.802 95.4521L213.037 94.862C213.138 94.7958 213.252 94.7518 213.371 94.7331C213.971 94.7331 214.538 96.3256 214.672 96.8902C215.541 96.1711 216.74 94.7331 218.678 94.7331C219.446 94.7331 220.313 94.9387 220.313 95.1698C220.313 95.2221 220.247 95.2976 220.214 95.3754L219.484 96.6845C219.451 96.7356 219.417 96.8646 219.283 96.8646C218.931 96.7368 218.562 96.659 218.188 96.6334C217.02 96.6334 215.852 97.9717 215.05 98.636L215.037 107.109Z" fill="#161615"/>
<path d="M248.013 107.109C248.013 107.314 247.878 107.416 247.612 107.416H245.675C245.408 107.416 245.275 107.314 245.275 107.109V90.1379C245.275 89.9322 245.408 89.83 245.675 89.83H250.85C253.419 89.83 257.625 89.9578 257.625 94.5019C257.625 98.8404 253.919 99.9962 250.414 99.9962H248.013V107.109ZM250.182 98.2017C252.652 98.2017 254.888 97.715 254.888 94.5518C254.888 91.7012 252.484 91.6246 250.582 91.6246H248.013V98.1944L250.182 98.2017Z" fill="#161615"/>
<path d="M270.11 107.109C270.11 107.314 269.976 107.416 269.71 107.416H267.974C267.706 107.416 267.574 107.314 267.574 107.109V98.3027C267.582 97.6098 267.385 96.9299 267.005 96.35C266.839 96.1651 266.714 95.9464 266.64 95.7088C266.656 95.6504 266.686 95.5965 266.727 95.5519C266.767 95.5072 266.818 95.473 266.875 95.4521L268.109 94.862C268.21 94.7962 268.324 94.7523 268.443 94.7331C269.044 94.7331 269.613 96.3256 269.745 96.8902C270.614 96.1711 271.814 94.7331 273.75 94.7331C274.518 94.7331 275.387 94.9387 275.387 95.1698C275.387 95.2221 275.32 95.2976 275.287 95.3754L274.557 96.6845C274.523 96.7356 274.49 96.8646 274.356 96.8646C274.004 96.7368 273.635 96.659 273.261 96.6334C272.093 96.6334 270.924 97.9717 270.124 98.636L270.11 107.109Z" fill="#161615"/>
<path d="M288.797 107.777C284.295 107.777 282.354 104.978 282.354 101.307C282.354 97.7637 284.29 94.7368 289.131 94.7368C293.703 94.7368 295.639 97.5618 295.639 101.185C295.639 104.772 293.67 107.777 288.797 107.777ZM292.901 101.152C292.901 98.636 292.001 96.3257 288.996 96.3257C285.991 96.3257 285.091 98.5326 285.091 101.071C285.091 103.998 285.959 106.18 289.03 106.18C292.001 106.184 292.901 104.104 292.901 101.152Z" fill="#161615"/>
<path d="M317.233 103.36C317.133 104.233 317.258 105.117 317.598 105.927C317.766 106.235 318.199 106.724 318.199 106.877C318.199 106.981 318.031 107.032 317.898 107.083L316.596 107.699C316.513 107.74 316.423 107.767 316.33 107.777C315.862 107.777 315.262 106.672 315.128 106.262C313.664 107.212 311.965 107.736 310.22 107.777C306.649 107.777 305.014 104.695 305.014 101.512C305.014 97.8136 306.717 94.7331 310.588 94.7331C312.007 94.6802 313.418 94.9804 314.694 95.6066V89.4967C314.687 89.4251 314.707 89.3535 314.751 89.2963C314.794 89.239 314.858 89.2002 314.928 89.1877L316.562 88.8799C316.694 88.8519 316.828 88.8348 316.963 88.8288C317.23 88.8288 317.23 89.0344 317.23 89.1622L317.233 103.36ZM314.696 97.3014C313.504 96.7466 312.206 96.4561 310.89 96.4498C308.02 96.4498 307.753 98.967 307.753 101.457C307.753 103.613 307.988 106.053 310.691 106.053C312.13 105.884 313.505 105.364 314.696 104.538V97.3014Z" fill="#161615"/>
<path d="M336.89 95.4035C336.883 95.3321 336.904 95.261 336.947 95.204C336.991 95.1471 337.054 95.1084 337.125 95.0957L338.794 94.7866C338.926 94.7597 339.06 94.7426 339.194 94.7355C339.426 94.7355 339.426 94.9411 339.426 95.0701V104.209C339.382 104.798 339.508 105.386 339.791 105.904C340.038 106.204 340.251 106.531 340.427 106.878C340.427 106.981 340.26 107.032 340.125 107.083L338.824 107.699C338.74 107.74 338.65 107.767 338.557 107.777C338.057 107.777 337.69 106.852 337.323 106.262C335.939 107.172 334.337 107.695 332.683 107.777C328.181 107.777 327.809 105.774 327.809 103.925V95.4035C327.802 95.3321 327.823 95.2608 327.866 95.2038C327.91 95.1468 327.973 95.1082 328.044 95.0957L329.712 94.7866C329.844 94.7598 329.977 94.7427 330.112 94.7355C330.345 94.7355 330.345 94.9411 330.345 95.0701V103.978C330.345 105.083 330.914 106.059 333.083 106.059C334.429 105.896 335.726 105.45 336.887 104.75L336.89 95.4035Z" fill="#161615"/>
<path d="M360.749 106.231C360.782 106.309 360.85 106.36 360.85 106.437C360.85 106.721 358.052 107.775 355.576 107.775C351.604 107.775 349.3 105.387 349.3 101.639C349.3 97.3513 351.976 94.7319 356.076 94.7319C358.312 94.7319 360.883 95.9388 360.883 96.3244C360.883 96.4011 360.816 96.4461 360.782 96.5301L360.014 97.608C359.948 97.6846 359.915 97.7625 359.815 97.7625C358.785 96.9971 357.557 96.5425 356.277 96.4522C353.005 96.4522 352.037 98.3258 352.037 101.254C352.037 103.589 352.639 106.055 355.877 106.055C357.3 105.975 358.695 105.617 359.982 105.003C360.081 105.003 360.115 105.079 360.182 105.156L360.749 106.231Z" fill="#161615"/>
<path d="M379.312 106.466C379.346 106.549 379.368 106.636 379.377 106.724C379.377 107.056 376.875 107.777 375.072 107.777C373.953 107.846 372.846 107.528 371.934 106.878C371.557 106.503 371.272 106.046 371.103 105.542C370.934 105.038 370.885 104.502 370.961 103.976V96.6846H368.463C368.229 96.6846 368.229 96.5045 368.229 96.3768V95.4035C368.229 95.2246 368.229 95.0957 368.463 95.0957H370.969V91.576C370.969 91.4214 371.104 91.3192 371.334 91.2682L373.103 90.8825C373.204 90.8825 373.271 90.8569 373.337 90.8569C373.503 90.8569 373.503 90.9786 373.503 91.1392V95.0932H378.444C378.645 95.0932 378.809 95.1188 378.809 95.2733C378.809 95.3244 378.776 95.3755 378.776 95.4521L378.343 96.4534C378.298 96.5271 378.234 96.5873 378.157 96.6279C378.081 96.6686 377.995 96.6881 377.909 96.6846H373.502V103.976C373.502 105.004 373.502 106.056 375.506 106.056C376.6 105.969 377.677 105.735 378.709 105.363C378.843 105.363 378.944 105.439 378.944 105.517L379.312 106.466Z" fill="#161615"/>
<path d="M395.831 96.788C395.697 96.9936 395.631 97.0958 395.431 97.0958C394.347 96.7009 393.211 96.4672 392.059 96.4023C390.721 96.4023 389.59 96.9157 389.59 98.0971C389.59 100.921 397 100.125 397 104.13C397 106.543 394.529 107.78 391.659 107.78C390.057 107.78 386.584 107.06 386.584 106.547C386.595 106.432 386.642 106.324 386.718 106.239L387.185 105.443C387.285 105.264 387.386 105.213 387.486 105.213C388.867 105.731 390.319 106.034 391.792 106.111C393.227 106.111 394.468 105.494 394.468 104.262C394.468 101.592 387.059 102.183 387.059 98.3063C387.059 96.2259 389.161 94.7368 392.098 94.7368C393.443 94.7938 394.771 95.0534 396.038 95.5069C396.304 95.6103 396.403 95.7125 396.403 95.8402C396.403 95.9181 396.303 95.9947 396.269 96.0969L395.831 96.788Z" fill="#161615"/>
<path d="M243.112 62.625H279.528V58.1235H249.324V43.9461H272.029V39.3995H249.324V26.3426H279.528V21.7851H243.112V62.625Z" fill="#161615"/>
<path d="M262.041 15.3236L257.053 20.8544L272.591 15.3236H262.041Z" fill="#161615"/>
<path d="M340.609 58.1271V21.7851H334.93V62.625H371.688V58.1235L340.609 58.1271Z" fill="#161615"/>
<path d="M303.073 21.7851L282.391 62.625H289.406L294.669 52.0732H319.472L324.871 62.625H331.766L311.023 21.7851H303.073ZM297.314 46.9122L307.076 27.5495L316.95 46.9122H297.314Z" fill="#161615"/>
<path d="M223.349 45.6165C232.676 43.0981 233.593 36.1815 233.553 33.6765C232.99 26.4168 228.128 21.7851 219.318 21.7851H193.601V62.625H199.508V45.5508H216.185L228.487 62.625H235.86C235.86 62.625 227.032 51.1047 223.349 45.6165ZM218.525 40.6989H199.508V26.7246H219.19C223.67 26.7246 226.247 28.8282 227.17 31.4999C227.449 32.4957 227.522 33.5377 227.385 34.5626C227.248 35.5875 226.904 36.5738 226.373 37.4614C224.715 40.1125 221.557 40.6989 218.525 40.6989Z" fill="#161615"/>
<path d="M158.439 15C141.953 15 130.778 26.6663 130.778 40.7135C130.778 55.5491 143.144 66.0024 158.439 66.0024C173.84 66.0024 186.205 55.661 186.205 40.7135C186.205 26.6638 174.885 15 158.439 15ZM158.244 60.9887C146.901 60.9887 137.487 51.8116 137.487 40.733C137.58 35.2161 139.838 29.9569 143.772 26.0886C147.707 22.2204 153.004 20.0527 158.522 20.0527C164.039 20.0527 169.336 22.2204 173.271 26.0886C177.205 29.9569 179.463 35.2161 179.556 40.733C179.556 51.8092 169.69 60.9862 158.244 60.9862V60.9887Z" fill="#161615"/>
<path d="M115.977 36.3263H120.246L127.898 21.7851H121.759L115.977 36.3263Z" fill="#161615"/>
<path d="M95.3679 58.1271V21.7851H89.7471V62.625H126.466V58.1235L95.3679 58.1271Z" fill="#161615"/>
</g>
<defs>
<clipPath id="clip0">
<rect width="345" height="92.7766" fill="white" transform="translate(52 15)"/>
</clipPath>
</defs>
</svg>
