<svg version="1.2" xmlns="http://www.w3.org/2000/svg" viewBox="0 0 1445 441" width="305" height="93">
	<title>LOREAL_0296692_ORI-ai</title>
	<style>
		.s0 { fill: #000001 } 
		.s1 { fill: #fefefe } 
	</style>
	<g id="volumes">
	</g>
	<g id="Logo">
	</g>
	<g id="Calque 3">
	</g>
	<g id="Calque 4">
	</g>
	<g id="Calque 5">
	</g>
	<g id="VOLUMES">
	</g>
	<g id="Etiquettes">
	</g>
	<g id="INFO">
	</g>
	<g id="ETUI">
	</g>
	<g id="TUBE">
	</g>
	<g id="TOP">
	</g>
	<g id="TEXTE">
	</g>
	<g id="VOLUME">
		<g id="&lt;Group&gt;">
			<g id="&lt;Group&gt;">
				<path id="&lt;Path&gt;" class="s0" d="m1161.9 331.8h-430.6-430.6v-44.6-44.6h430.6 430.6v44.6z"/>
			</g>
			<g id="&lt;Group&gt;">
				<path id="&lt;Compound Path&gt;" fill-rule="evenodd" class="s1" d="m352.9 297.9v13.5h-10.6v-47.6c7.6 0 14.9 0 22.5 0 12.2 0 18.2 7.9 18.2 17 0 9.6-6.1 17-18.2 17.1zm0-9.7h11.8c5.1 0 7.6-3.3 7.6-7.2 0-3.8-2.5-7.2-7.6-7.2h-11.8z"/>
				<path id="&lt;Compound Path&gt;" fill-rule="evenodd" class="s1" d="m447.9 311.4h-11.8l-12.2-15.6h-7.7v15.6h-10.6v-47.6c7.7 0 14.9 0 22.6 0 11.5 0 17.6 7.6 17.6 16-0.1 6.2-1.9 11.7-11 15l13.1 15.8zm-31.7-38.5v13.8h12.1c4.9 0 7-3.6 7-6.6 0-3.3-2.2-7.2-7.1-7.2z"/>
				<path id="&lt;Compound Path&gt;" fill-rule="evenodd" class="s1" d="m493.3 312.6c-15.3 0-25.7-9.5-25.7-25 0-15.5 10.4-25 25.7-25 15.2 0 25.7 9.5 25.7 25 0 15.5-10.5 25-25.7 25zm0-40.5c-9.1 0-15.3 6.8-15.3 15.5 0 8.9 6.2 15.4 15.3 15.4 9.2 0 15.3-6.6 15.3-15.4 0-8.7-6.1-15.5-15.3-15.5z"/>
				<path id="&lt;Compound Path&gt;" class="s1" d="m542.6 311.4v-47.6h34.7v9.8h-24.1v11.3h22.6v9.4h-22.6v17.1z"/>
				<path id="&lt;Compound Path&gt;" class="s1" d="m637.2 311.4h-36.3c0-15.9 0-31.8 0-47.6h35.3v9.7h-24.9v9.2h23.5v9.3h-23.5v9.6h25.9z"/>
				<path id="&lt;Compound Path&gt;" class="s1" d="m689.4 275.3c-2.6-2.8-7.3-4.1-11-4.1-4.7 0-8.5 2-8.5 5.3 0 4.3 4.1 5.2 10.3 5.7 9.4 0.8 18.3 4.4 18.3 15.5 0 10.6-9.8 15.2-20.1 15.3-8.2 0-16.8-3.2-20.8-9.8l6.3-6.6c3.7 4.7 9.7 6.7 14.6 6.7 5.6 0 9.5-2.2 9.5-5.6 0.1-4.1-3.1-5.9-9.6-6.4-10.1-1-19.1-3.5-18.9-14.7 0-9.5 9-14.5 18.8-14.5 7.4 0 12.9 1.6 17.8 7.3z"/>
				<path id="&lt;Compound Path&gt;" class="s1" d="m749.6 275.3c-2.6-2.8-7.3-4.1-11-4.1-4.7 0-8.5 2-8.5 5.3 0 4.3 4.1 5.2 10.3 5.7 9.4 0.8 18.3 4.4 18.3 15.5 0 10.6-9.8 15.2-20.1 15.3-8.2 0-16.8-3.2-20.8-9.8l6.3-6.6c3.7 4.7 9.7 6.7 14.6 6.7 5.6 0 9.5-2.2 9.5-5.6 0.1-4.1-3.1-5.9-9.6-6.4-10.1-1-19.1-3.5-18.9-14.7 0-9.5 9-14.5 18.8-14.5 7.4 0 12.9 1.6 17.8 7.3z"/>
				<path id="&lt;Compound Path&gt;" class="s1" d="m781.6 311.4v-47.6h10.6v47.6z"/>
				<path id="&lt;Compound Path&gt;" fill-rule="evenodd" class="s1" d="m841.5 312.6c-15.3 0-25.7-9.5-25.7-25 0-15.5 10.4-25 25.7-25 15.2 0 25.7 9.5 25.7 25 0 15.5-10.5 25-25.7 25zm0-40.5c-9.1 0-15.3 6.8-15.3 15.5 0 8.9 6.2 15.4 15.3 15.4 9.3 0 15.3-6.6 15.3-15.4 0-8.7-6-15.5-15.3-15.5z"/>
				<path id="&lt;Compound Path&gt;" class="s1" d="m924 294.7l-0.7-14.9v-16h10.7v47.6h-9.1l-23.7-30.5 0.4 15.7v14.8h-10.8v-47.6h9.1z"/>
				<path id="&lt;Compound Path&gt;" class="s1" d="m993.4 294.7l-0.7-14.9v-16h10.7v47.6h-9.2l-23.6-30.5 0.4 15.7v14.8h-10.8v-47.6h9.1z"/>
				<path id="&lt;Compound Path&gt;" class="s1" d="m1066 311.4h-36.3c0-15.9 0-31.8 0-47.6h35.3v9.7h-24.9v9.2h23.5v9.3h-23.5v9.6h25.9z"/>
				<path id="&lt;Compound Path&gt;" class="s1" d="m1100.6 263.8v37.9h23.9v9.7h-34.5v-47.6z"/>
			</g>
			<g id="&lt;Group&gt;">
				<g id="&lt;Group&gt;">
					<path id="&lt;Path&gt;" class="s0" d="m840.8 367.3l-7.9 5c-2.5-3.9-7.2-6.2-13.5-6.2-5.6 0-9.7 1.8-9.7 4.7 0 3.6 4.7 4.4 10.5 5.5l6.3 1.1c7.6 1.4 14.8 3.9 14.8 12.1 0 10.5-11.8 14-22.5 14-8.4 0-17.2-3-22.2-9l8.3-4.9c3.7 4.4 9.2 6.5 15.5 6.5 4.7 0 10.9-1.3 10.9-5.5 0-3.3-3.8-4.3-10.6-5.6l-5.8-1.1c-8.1-1.6-15.3-4-15.3-11.8 0-9.1 10.3-13.5 19.8-13.5 8.8 0 16 2.8 21.4 8.7z"/>
					<path id="&lt;Path&gt;" class="s0" d="m784.3 402.4h-9.6v-42.7h9.6z"/>
					<path id="&lt;Compound Path&gt;" fill-rule="evenodd" class="s0" d="m750.3 385.2l11.3 17.2h-11.1l-9.9-15.7h-9.2v15.7h-9.7v-42.7h21.4c10.8 0 17.3 5.5 17.3 13 0 9.6-7.7 11.8-10.1 12.5zm-8.4-5.5c4.8 0 8.4-2.4 8.4-6.4 0-3.9-3.2-6.4-9.9-6.4h-9v12.8z"/>
					<path id="&lt;Compound Path&gt;" fill-rule="evenodd" class="s0" d="m692.8 359.7l17.2 42.7h-10.1l-2.9-8.3h-19.4l-3 8.3h-10.1l17.1-42.7zm1.5 27.4l-7-19.6h-0.1l-7.1 19.6z"/>
					<path id="&lt;Compound Path&gt;" fill-rule="evenodd" class="s0" d="m656.3 374.1c0 8.5-7 13.9-17.2 13.9h-11.3v14.4h-9.6v-42.7h20.3c12 0 17.8 6.3 17.8 14.4zm-19 7.2c6.1 0 9-3 9-7.2 0-5.8-3.9-7.7-9.4-7.7h-9.1v14.9z"/>
				</g>
			</g>
			<g id="&lt;Group&gt;">
				<path id="&lt;Path&gt;" class="s0" d="m769.3 214.6h111.2v-13.5h-92.1v-43.5h69.1v-13.7h-69.1v-40h92.1v-13.6h-111.2z"/>
				<path id="&lt;Path&gt;" class="s0" d="m827.1 70.3l-15.1 16.9 47.2-16.9z"/>
				<path id="&lt;Path&gt;" class="s0" d="m1067.1 201.1v-110.8h-17.4v124.3h112.4v-13.5z"/>
				<path id="&lt;Compound Path&gt;" fill-rule="evenodd" class="s0" d="m976.9 90.3l63.2 124.3h-21.1l-16.3-32.1h-75.9l-16.2 32.1h-21.3l63.2-124.3zm18 76.6l-30.2-59.4-29.8 59.4z"/>
				<path id="&lt;Compound Path&gt;" fill-rule="evenodd" class="s0" d="m747.1 214.7h-22.5l-37.6-52.2h-51v52.2h-17.8v-124.4h78.3c26.9 0 41.9 13.8 43.6 36 0.1 7.6-2.6 28.7-31.2 36.4 11.2 16.8 38.2 52 38.2 52zm-29-77c3.1-5 4.3-12.4 2.4-18-2.8-8.2-10.6-14.6-24.4-14.6h-60.1v42.7h58.1c9.4 0 19-1.7 24-10.1z"/>
				<path id="&lt;Compound Path&gt;" fill-rule="evenodd" class="s0" d="m595.6 147.9c0 45.7-38 77.3-84.8 77.3-46.8 0-84.8-32-84.8-77.3 0-43.1 34.4-78.6 84.8-78.6 49.9 0 84.8 35.5 84.8 78.6zm-20.4 0c0-33.7-27-63.1-63.7-63.1-37.6 0-64.9 29.4-64.9 63.1 0 33.8 28.7 61.8 63.6 61.8 34.9 0 65-28 65-61.8z"/>
				<path id="&lt;Path&gt;" class="s0" d="m381 134.3h12.9l23.4-44h-18.8z"/>
				<path id="&lt;Path&gt;" class="s0" d="m318 201.1v-110.8h-17.4v124.3h112.4v-13.5z"/>
			</g>
		</g>
	</g>
	<g id="OMBRE">
	</g>
	<g id="TEXTES">
	</g>
	<g id="Fond blanc">
	</g>
	<g id="Aplat couleur">
	</g>
	<g id="Matière">
	</g>
	<g id="Dégradé blanc dessus">
	</g>
	<g id="Textes">
	</g>
	<g id="Calque 1">
	</g>
	<g id="ombre">
	</g>
	<g id="Calque 2">
	</g>
	<g id="Format">
	</g>
</svg>