<svg width="305" height="88" viewBox="0 0 305 88" fill="none" xmlns="http://www.w3.org/2000/svg">
<path fill-rule="evenodd" clip-rule="evenodd" d="M125.304 66.3755C127.503 66.3755 128.997 65.7777 128.997 63.9662C128.997 62.2659 127.428 61.7232 125.404 61.7232H120.421V66.3755H125.304ZM126.138 60.173C129.503 60.173 131.526 61.7802 131.526 63.9472C131.526 65.8148 130.084 67.9257 126.138 67.9257H120.421V73.5854H117.966V60.173H126.138ZM156.94 66.3755H161.823C164.025 66.3755 165.517 65.7777 165.517 63.9662C165.517 62.2659 163.947 61.7232 161.924 61.7232H156.94V66.3755ZM168.619 73.4903H165.848L162.144 68.0498C162.098 67.9777 162.007 67.9427 161.914 67.9257H162.034C161.995 67.9197 161.955 67.9167 161.914 67.9257H156.94V73.5854H154.487V60.173H162.657C166.022 60.173 168.046 61.7802 168.046 63.9472C168.046 65.4913 167.054 67.1977 164.483 67.7444L168.619 73.4903ZM137.919 68.0749H144.164L141.196 62.1728H141.139L137.919 68.0749ZM139.739 60.173H142.82L150.103 73.5854H147.134L145.145 69.6821H137.078L134.978 73.5854H132.177L139.739 60.173ZM192.164 66.3595C194.432 66.7711 196.14 67.8175 196.14 69.9464C196.14 73.1228 192.285 74 189.285 74C186.04 74 184.772 73.253 183.991 72.7112C182.504 71.6838 182.21 70.5633 182.21 69.3116H184.43C184.43 71.7399 187.016 72.4499 189.26 72.4499C190.968 72.4499 193.847 72.1134 193.847 70.1888C193.847 68.7889 192.994 68.3412 190.115 67.8175L186.528 67.1817C185.381 66.9764 182.795 66.3595 182.795 64.0253C182.795 61.9325 184.576 59.8796 188.821 59.8796C194.944 59.8796 195.554 62.6795 195.652 64.1565H193.432C193.31 62.0827 191.066 61.4288 189.089 61.4288C187.601 61.4288 185.09 61.7472 185.09 63.783C185.09 64.9226 186.139 65.2961 187.163 65.4823L192.164 66.3595ZM174.367 62.5052V60.0999H176.697V62.5052H174.367ZM174.384 73.5103V63.9242H176.711V73.5103H174.384ZM166.407 51.2538V17.6818H195.443V21.3388H171.388V32.1446H189.454V35.8557H171.388V47.5908H195.443V51.2538H166.407ZM181.498 12.2604H189.906L177.564 16.8246L181.498 12.2604ZM244.188 47.5908H269V51.2538H239.648V17.6818H244.188V47.5908ZM209.642 38.3611H225.298L217.422 22.3252L209.642 38.3611ZM214.258 17.6818H220.614L237.14 51.2538H231.617L227.354 42.5659H207.554L203.328 51.2538H197.748L214.258 17.6818ZM146.764 33.2061C149.242 33.2061 151.734 32.7294 153.045 30.4843C153.843 29.1295 154.154 27.1358 153.67 25.6157C152.938 23.4016 150.906 21.6592 147.295 21.6592H131.603V33.2061H146.764ZM150.652 37.2176C153.557 41.7748 160.607 51.2538 160.607 51.2538H154.726L144.925 37.1735H131.603V51.2538H126.936V17.6818H147.4C154.427 17.6818 158.334 21.3999 158.78 27.3971C158.815 29.4409 158.091 35.1648 150.652 37.2176ZM98.7397 49.919C107.848 49.919 115.709 42.3496 115.709 33.2321C115.709 24.1216 108.671 16.1887 99.0923 16.1887C89.2755 16.1887 82.1204 24.1216 82.1204 33.2321C82.1204 42.3496 89.6271 49.919 98.7397 49.919ZM98.8956 12C111.945 12 121.033 21.5992 121.033 33.2211C121.033 45.574 111.122 54.0857 98.8956 54.0857C86.668 54.0857 76.7514 45.4529 76.7514 33.2211C76.7514 21.5992 85.7284 12 98.8956 12ZM65.0013 29.5601L69.5595 17.6818H74.4781L68.3662 29.5601H65.0013ZM48.5408 47.5908H73.3526V51.2538H44V17.6818H48.5408V47.5908Z" fill="black"/>
</svg>
