<svg width="305" height="88" viewBox="0 0 305 88" fill="none" xmlns="http://www.w3.org/2000/svg">
<path d="M183.06 35.0156H175.683V43.512H183.06C185.615 43.512 187.275 41.7233 187.275 39.2507C187.275 36.7517 185.351 35.0156 183.06 35.0156ZM183.323 46.0372H175.683V54.8492H172.575V32.4641H183.323C187.722 32.4641 190.383 35.7259 190.383 39.2507C190.383 42.7755 187.722 46.0372 183.323 46.0372Z" fill="#333436"/>
<path d="M200.63 34.8038C195.914 34.8038 192.806 38.5916 192.806 43.6684C192.806 48.7451 195.914 52.5067 200.63 52.5067C205.346 52.5067 208.401 48.7451 208.401 43.6684C208.401 38.5916 205.346 34.8038 200.63 34.8038ZM200.63 55.216C194.307 55.216 189.75 50.0077 189.75 43.6947C189.75 37.3816 194.307 32.1207 200.63 32.1207C206.953 32.1207 211.51 37.3553 211.51 43.6947C211.51 50.0077 206.953 55.216 200.63 55.216Z" fill="#333436"/>
<path d="M220.31 55.216C217.36 55.216 214.225 54.611 211.222 53.401L211.907 51.0073C214.646 51.9543 217.676 52.5856 220.258 52.5856C223.893 52.5856 225.974 51.1651 225.974 49.1923C225.974 47.4036 224.894 46.5093 219.783 44.6153C213.882 42.4321 212.012 40.9064 212.012 37.4605C212.012 33.8042 215.015 32.1207 220.521 32.1207C222.839 32.1207 226.211 32.5679 228.398 33.2518L227.818 35.6981C225.553 35.1194 222.892 34.7512 220.574 34.7512C216.596 34.7512 215.042 35.3825 215.042 37.4342C215.042 39.5912 216.49 40.3014 221.812 42.3795C227.608 44.6679 229.03 45.9306 229.03 49.1134C229.03 52.6645 225.632 55.1897 220.31 55.1897V55.216Z" fill="#333436"/>
<path d="M238.016 35.8311L233.854 46.8H242.179L238.043 35.8311H238.016ZM245.261 54.8492L243.048 49.1674H233.011L230.745 54.8492H227.689L236.725 32.4641H239.307L248.343 54.8492H245.287H245.261Z" fill="#333436"/>
<path d="M254.798 45.8268V54.8492H251.69V45.8268L243.102 32.4641H246.289L253.244 43.0911L260.146 32.4641H263.334L254.798 45.8268Z" fill="#333436"/>
<path d="M140.335 54.2967H172.527V10H140.335V54.2967Z" stroke="#333436"/>
<path d="M29 54.8492V32.4641H32.1086V52.1924H43.5418V54.8492H29Z" fill="#333436"/>
<path d="M53.1828 35.8311L49.0204 46.8H57.3451L53.2091 35.8311H53.1828ZM60.4273 54.8492L58.2144 49.1674H48.1774L45.9118 54.8492H42.856L51.8919 32.4641H54.4736L63.5096 54.8492H60.4537H60.4273Z" fill="#333436"/>
<path d="M79.0327 35.0156H71.6301V43.2489H79.0327C81.5881 43.2489 83.2741 41.5918 83.2741 39.1191C83.2741 36.6202 81.3246 35.0156 79.0327 35.0156ZM85.0654 54.8492L78.3741 45.7479H71.6301V54.8492H68.5215V32.4641H79.4015C83.7219 32.4641 86.409 35.6206 86.409 39.1191C86.409 41.9074 84.723 44.4589 81.7198 45.327L88.7272 54.8492H85.0654Z" fill="#333436"/>
<path d="M97.9664 34.8038C93.2509 34.8038 90.1423 38.5916 90.1423 43.6684C90.1423 48.7451 93.2509 52.5067 97.9664 52.5067C102.682 52.5067 105.738 48.7451 105.738 43.6684C105.738 38.5916 102.682 34.8038 97.9664 34.8038ZM97.9664 55.216C91.6439 55.216 87.0864 50.0077 87.0864 43.6947C87.0864 37.3816 91.6439 32.1207 97.9664 32.1207C104.289 32.1207 108.846 37.3553 108.846 43.6947C108.846 50.0077 104.289 55.216 97.9664 55.216Z" fill="#333436"/>
<path d="M126.258 35.4614C124.809 35.0668 122.913 34.8301 121.306 34.8301C115.484 34.8301 111.769 38.4338 111.769 43.6684C111.769 48.903 115.484 52.533 121.306 52.533C122.781 52.533 124.414 52.2962 126.258 51.8491L126.864 54.348C125.073 54.8741 123.097 55.216 121.095 55.216C113.85 55.216 108.661 50.0604 108.661 43.6421C108.661 37.2238 113.85 32.1207 121.095 32.1207C123.229 32.1207 125.047 32.3575 126.891 32.9625L126.258 35.4614Z" fill="#333436"/>
<path d="M143.626 54.8492V44.722H131.929V54.8492H128.82V32.4641H131.929V42.0126H143.626V32.4641H146.734V54.8492H143.626Z" fill="#333436"/>
<path d="M149.495 54.8492V32.4641H164.985V35.1209H152.63V41.9337H164.221V44.5905H152.63V52.1924H164.985V54.8492H149.495Z" fill="#333436"/>
<path d="M68.2773 67.5544V58.795H69.0677V66.8705H73.6778V67.5544H68.2773Z" fill="#333436"/>
<path d="M77.5283 59.7683L75.6315 64.4768H79.3987L77.5019 59.7683H77.5283ZM80.6632 67.5544L79.6885 65.1081H75.3944L74.4197 67.5544H73.603L77.2385 58.795H77.818L81.4535 67.5544H80.6632Z" fill="#333436"/>
<path d="M85.645 63.3713H82.5628V66.8698H85.6714C86.8305 66.8698 87.5945 66.2385 87.5945 65.1337C87.5945 64.1079 86.9622 63.3713 85.645 63.3713ZM85.3025 59.5046H82.5364V62.7137H85.2499C86.3563 62.7137 87.3047 62.214 87.3047 61.1092C87.3047 60.0044 86.488 59.5046 85.3025 59.5046ZM85.724 67.5801H81.7725V58.8207H85.3025C87.1993 58.8207 88.1213 59.715 88.1213 61.0566C88.1213 61.8457 87.6471 62.6611 86.7515 62.9768C87.8579 63.345 88.3848 64.1342 88.3848 65.1601C88.3848 66.4227 87.41 67.5801 85.724 67.5801Z" fill="#333436"/>
<path d="M92.6501 59.3472C90.6744 59.3472 89.3045 60.9781 89.3045 63.1877C89.3045 65.371 90.6744 67.0018 92.6501 67.0018C94.6259 67.0018 95.9958 65.371 95.9958 63.1877C95.9958 60.9781 94.6259 59.3472 92.6501 59.3472ZM92.6501 67.6857C90.2002 67.6857 88.5142 65.634 88.5142 63.1877C88.5142 60.7151 90.1738 58.6633 92.6501 58.6633C95.1001 58.6633 96.7861 60.7151 96.7861 63.1877C96.7861 65.634 95.1001 67.6857 92.6501 67.6857Z" fill="#333436"/>
<path d="M101.574 59.479H98.4129V63.0827H101.574C102.76 63.0827 103.445 62.3461 103.445 61.2677C103.445 60.1892 102.575 59.479 101.574 59.479ZM104.261 67.5544L101.469 63.7666H98.4129V67.5544H97.6226V58.795H101.574C103.286 58.795 104.235 59.9787 104.235 61.2677C104.235 62.3461 103.524 63.372 102.285 63.6614L105.157 67.5281H104.261V67.5544Z" fill="#333436"/>
<path d="M108.817 59.7683L106.92 64.4768H110.687L108.79 59.7683H108.817ZM111.952 67.5544L110.977 65.1081H106.683L105.708 67.5544H104.892L108.527 58.795H109.107L112.742 67.5544H111.952Z" fill="#333436"/>
<path d="M115.221 59.479V67.5544H114.431V59.479H111.401V58.795H118.224V59.479H115.221Z" fill="#333436"/>
<path d="M121.841 59.3472C119.865 59.3472 118.495 60.9781 118.495 63.1877C118.495 65.371 119.865 67.0018 121.841 67.0018C123.816 67.0018 125.186 65.371 125.186 63.1877C125.186 60.9781 123.816 59.3472 121.841 59.3472ZM121.841 67.6857C119.391 67.6857 117.705 65.634 117.705 63.1877C117.705 60.7151 119.391 58.6633 121.841 58.6633C124.291 58.6633 125.977 60.7151 125.977 63.1877C125.977 65.634 124.317 67.6857 121.841 67.6857Z" fill="#333436"/>
<path d="M126.865 67.5544H127.656V58.795H126.865V67.5544Z" fill="#333436"/>
<path d="M133.133 59.479H129.971V63.0827H133.133C134.318 63.0827 135.003 62.3461 135.003 61.2677C135.003 60.1892 134.134 59.479 133.133 59.479ZM135.82 67.5544L133.027 63.7666H129.971V67.5544H129.181V58.795H133.133C134.845 58.795 135.793 59.9787 135.793 61.2677C135.793 62.3461 135.109 63.372 133.844 63.6614L136.716 67.5281H135.82V67.5544Z" fill="#333436"/>
<path d="M137.17 67.5544V58.795H143.019V59.479H137.961V62.6881H142.676V63.372H137.961V66.8705H143.019V67.5544H137.17Z" fill="#333436"/>
<path d="M147.493 59.479H146.413V66.8705H147.493C149.6 66.8705 151.734 65.529 151.734 63.1879C151.734 60.8468 149.6 59.5053 147.493 59.5053V59.479ZM147.361 67.5544H145.623V58.795H147.361C150.338 58.795 152.525 60.6364 152.525 63.1616C152.525 65.6868 150.364 67.5281 147.361 67.5281V67.5544Z" fill="#333436"/>
<path d="M153.162 67.5544V58.795H159.01V59.479H153.978V62.6881H158.694V63.372H153.978V66.8705H159.01V67.5544H153.162Z" fill="#333436"/>
<path d="M164.009 59.479H160.822V63.0827H164.009C165.168 63.0827 165.88 62.3461 165.88 61.2677C165.88 60.1892 165.01 59.479 164.009 59.479ZM166.696 67.5544L163.904 63.7666H160.848V67.5544H160.058V58.795H164.009C165.695 58.795 166.67 59.9787 166.67 61.2677C166.67 62.3461 165.985 63.372 164.72 63.6614L167.592 67.5281H166.696V67.5544Z" fill="#333436"/>
<path d="M175.396 67.5544V60.2418L172.34 66.397H171.84L168.81 60.2418V67.5544H168.046V58.795H168.81L172.103 65.3712L175.396 58.795H176.16V67.5544H175.396Z" fill="#333436"/>
<path d="M180.398 59.7683L178.502 64.4768H182.269L180.372 59.7683H180.398ZM183.533 67.5544L182.559 65.1081H178.265L177.29 67.5544H176.473L180.109 58.795H180.688L184.324 67.5544H183.507H183.533Z" fill="#333436"/>
<path d="M186.802 59.479V67.5544H186.012V59.479H182.982V58.795H189.806V59.479H186.802Z" fill="#333436"/>
<path d="M193.41 59.3472C191.434 59.3472 190.064 60.9781 190.064 63.1877C190.064 65.371 191.434 67.0018 193.41 67.0018C195.386 67.0018 196.756 65.371 196.756 63.1877C196.756 60.9781 195.386 59.3472 193.41 59.3472ZM193.41 67.6857C190.96 67.6857 189.274 65.634 189.274 63.1877C189.274 60.7151 190.96 58.6633 193.41 58.6633C195.886 58.6633 197.546 60.7151 197.546 63.1877C197.546 65.634 195.886 67.6857 193.41 67.6857Z" fill="#333436"/>
<path d="M198.395 67.5544V58.795H199.185V66.8705H203.796V67.5544H198.395Z" fill="#333436"/>
<path d="M207.51 59.3472C205.534 59.3472 204.164 60.9781 204.164 63.1877C204.164 65.371 205.534 67.0018 207.51 67.0018C209.485 67.0018 210.855 65.371 210.855 63.1877C210.855 60.9781 209.485 59.3472 207.51 59.3472ZM207.51 67.6857C205.033 67.6857 203.374 65.634 203.374 63.1877C203.374 60.7151 205.033 58.6633 207.51 58.6633C209.96 58.6633 211.646 60.7151 211.646 63.1877C211.646 65.634 209.986 67.6857 207.51 67.6857Z" fill="#333436"/>
<path d="M216.518 67.7115C213.726 67.7115 211.697 65.7124 211.697 63.1871C211.697 60.583 213.541 58.6891 216.518 58.6891C217.229 58.6891 218.125 58.7943 218.784 58.9784L218.652 59.6097C217.862 59.4519 217.15 59.373 216.466 59.373C214.121 59.373 212.461 60.7934 212.461 63.1871C212.461 65.4756 214.2 67.0276 216.466 67.0276C216.992 67.0276 217.704 66.9487 218.362 66.8172V63.6869H219.074V67.3169C218.257 67.58 217.229 67.6852 216.518 67.6852V67.7115Z" fill="#333436"/>
<path d="M220.331 67.5544H221.121V58.795H220.331V67.5544Z" fill="#333436"/>
<path d="M226.075 59.3467C224.1 59.3467 222.73 60.9776 222.73 63.1608C222.73 65.3441 224.1 67.0013 226.075 67.0013C228.051 67.0013 229.421 65.3441 229.421 63.1608C229.421 60.9776 228.051 59.3467 226.075 59.3467ZM226.471 67.6852V70H225.654V67.6852C223.415 67.4748 221.913 65.5019 221.913 63.1871C221.913 60.7408 223.599 58.6891 226.049 58.6891C228.499 58.6891 230.185 60.7408 230.185 63.1871C230.185 65.5019 228.71 67.4748 226.444 67.6852H226.471Z" fill="#333436"/>
<path d="M234.382 67.7116C232.169 67.7116 230.931 66.1596 230.931 64.5024V58.8207H231.747V64.555C231.747 66.1333 232.854 67.0277 234.408 67.0277C235.962 67.0277 237.069 66.0281 237.069 64.555V58.8207H237.859V64.5024C237.859 66.1596 236.621 67.7116 234.408 67.7116H234.382Z" fill="#333436"/>
<path d="M239.114 67.5544V58.795H244.962V59.479H239.93V62.6881H244.646V63.372H239.93V66.8705H244.962V67.5544H239.114Z" fill="#333436"/>
</svg>
