<svg width="305" height="88" viewBox="0 0 305 88" fill="none" xmlns="http://www.w3.org/2000/svg">
<path d="M60.3523 28H63.9259V47.4061H60.4051V35.6217L54.2365 47.4061H51.6894L45.516 35.6217V47.4061H42V28H45.5736L52.9605 42.1325L60.3523 28ZM100.237 36.0293L94.0302 28H89.4013L98.4672 39.4738V47.4061H101.988V39.4738L111.073 28H106.593L100.237 36.0293ZM144.228 39.0906H155.865V35.6945H144.228V31.3961H156.359V28H140.707V47.4061H156.498V43.9615H144.228V39.0906ZM179.815 43.9421H168.854V28H165.338V47.4061H179.815V43.9421ZM201.568 43.9421H190.608V28H187.092V47.4061H201.568V43.9421ZM212.092 28H208.576V47.4061H212.092V28ZM234.795 41.2349L224.065 28H220.918V47.4061H224.434V34.1469L234.987 47.1829L235.145 47.3818H238.302V28H234.786L234.795 41.2349ZM262.823 43.9615H250.552V39.11H262.17V35.7139H250.552V31.3961H262.679V28H247.032V47.4061H262.823V43.9615ZM83.5637 41.9335H75.8889L73.4522 47.4061H69.5429L78.3449 28H81.127L89.929 47.4061H86.0244L83.5637 41.9335ZM79.7263 33.4385C79.0932 34.8406 77.9947 37.2712 77.4383 38.5132H82.0192C81.4723 37.2761 80.3739 34.8552 79.7359 33.4385H79.7263ZM132.821 41.5018C132.85 42.997 132.289 44.4422 131.262 45.5188C130.054 46.756 128.284 47.3818 125.986 47.3818H115.913V28H126.144C129.982 28 132.236 30.0182 132.236 33.4046C132.295 34.8087 131.749 36.1697 130.74 37.1354C132.658 38.5084 132.821 40.7789 132.821 41.5018ZM128.744 33.4725C128.744 31.7114 127.938 31.4155 125.516 31.4155H119.453V35.6751H125.689C128.38 35.6751 128.744 34.5592 128.744 33.4725ZM125.492 39.0906H119.453V43.9421H125.77C128.941 43.9421 129.305 42.4866 129.305 41.3853C129.301 39.4253 128.13 39.0906 125.492 39.0906ZM172.98 57.8611L167.732 51.2873H165.334V60.7623H167.583V54.1642L172.86 60.7623H175.258V51.2873H172.999L172.98 57.8611ZM181.182 56.6676H187.178V55.0812H181.201V52.9319H187.682V51.2873H178.851V60.7623H187.821V59.0982H181.201L181.182 56.6676ZM202.288 58.0745L200.033 51.2824H197.712L195.4 58.0745L193.323 51.2824H190.924L194.119 60.6847L194.148 60.7768H196.484L198.853 53.9362L201.16 60.7623H203.463L206.821 51.2679H204.422L202.288 58.0745ZM217.292 55.314L214.236 51.2873H211.478L216.088 57.0751V60.7817H218.434V57.0557L223.024 51.2873H220.352L217.292 55.314ZM235.721 56.0369C235.721 58.9478 233.323 61 229.888 61C226.454 61 224.084 58.9575 224.084 56.0369C224.084 53.1163 226.482 51.069 229.912 51.069C233.342 51.069 235.745 53.1114 235.745 56.0369H235.721ZM233.371 56.0369C233.371 53.5432 231.495 52.6408 229.888 52.6408C227.317 52.6408 226.406 54.465 226.406 56.0369C226.406 57.6088 227.317 59.433 229.888 59.433C231.519 59.4136 233.39 58.5306 233.39 56.0369H233.371ZM249.042 60.5343L249.325 60.772H246.662L246.624 60.7186C246.342 60.2901 246.22 59.7744 246.279 59.2632C246.279 57.701 245.943 56.9587 244.043 56.9587H241.113V60.7574H238.762V51.2873H244.576C247.2 51.2873 248.643 52.2236 248.643 53.9168C248.663 54.9663 248.001 55.905 247.012 56.2261C247.9 56.4564 248.503 57.2897 248.452 58.2152C248.466 59.3505 248.691 60.2189 249.065 60.5343H249.042ZM244.36 52.864H241.113V55.479H244.422C245.29 55.479 246.341 55.2461 246.341 54.14C246.341 53.2279 245.737 52.864 244.384 52.864H244.36ZM262.789 51.2873H259.772L254.654 55.348V51.2873H252.303V60.7623H254.654V57.5942L256.203 56.4056L260.04 60.772H263L257.853 55.1006L262.789 51.2873Z" fill="black"/>
</svg>
