<svg width="305" height="88" viewBox="0 0 305 88" fill="none" xmlns="http://www.w3.org/2000/svg">
<path d="M174.169 13.3913C177.348 13.0732 180.547 13.0587 183.738 13.0188C186.319 13.0273 188.902 12.9716 191.483 13.02C194.949 13.0176 198.421 13.0345 201.882 13.2692C203.311 13.3829 204.781 13.4917 206.101 14.0965C207.42 14.6529 208.531 15.698 209.108 17.0152C209.708 18.284 209.717 19.7197 209.708 21.0938C209.737 22.6105 209.569 24.2096 208.709 25.5038C207.67 27.1802 205.737 28.0765 203.835 28.3184C201.021 28.6813 198.178 28.6873 195.346 28.7563C192.16 28.7865 188.975 28.7865 185.789 28.7817C181.675 28.7284 177.54 28.8034 173.448 28.3027C173.289 28.9824 172.787 29.5509 172.777 30.2682C172.744 30.9407 172.853 31.6967 173.354 32.1914C173.958 32.7623 174.828 32.899 175.628 32.9111C182.561 32.9123 189.494 32.9026 196.427 32.9316C199.329 32.974 202.236 33.0018 205.13 33.2413C206.348 33.3477 207.592 33.4795 208.727 33.967C210.135 34.5258 211.346 35.5817 212.05 36.9268C213.251 39.2164 213.234 42.1605 211.831 44.3594C210.135 43.8188 208.432 43.3047 206.738 42.7628C207.206 41.9065 207.45 40.8614 207.111 39.9156C206.926 39.3217 206.416 38.8923 205.859 38.6552C205.062 38.3081 204.185 38.2548 203.333 38.1702C200.839 37.9609 198.335 37.9404 195.835 37.9017C189.343 37.8617 182.851 37.9137 176.36 37.9029C174.815 37.898 173.246 37.8835 171.743 37.488C170.866 37.2679 170.035 36.7828 169.493 36.051C168.921 35.2757 168.862 34.2549 168.96 33.3308C169.909 32.0462 170.931 30.8064 171.778 29.4469C171.968 29.1336 172.178 28.824 172.288 28.4708C172.315 28.2797 172.251 28.0257 172.039 27.9749C171.188 27.6761 170.352 27.2794 169.688 26.6577C168.597 25.7094 167.945 24.322 167.782 22.8984C167.666 21.7759 167.68 20.645 167.727 19.5213C167.784 17.9163 168.396 16.2858 169.607 15.1972C170.836 14.0457 172.525 13.5474 174.169 13.3913ZM184.493 17.7397C181.658 17.7796 178.816 17.8002 175.991 18.0759C175.369 18.1376 174.693 18.2549 174.237 18.723C173.895 19.052 173.805 19.5443 173.765 19.9967C173.707 20.7261 173.701 21.4663 173.82 22.1896C173.89 22.6964 174.215 23.1572 174.674 23.3871C175.303 23.7124 176.028 23.7028 176.717 23.779C181.181 24.1092 185.664 24.0426 190.138 24.0535C193.407 24.0584 196.68 24.0342 199.945 23.8382C200.735 23.7705 201.538 23.7523 202.309 23.5564C202.909 23.4028 203.449 22.9371 203.565 22.3106C203.71 21.476 203.702 20.6184 203.615 19.7766C203.572 19.3593 203.42 18.9347 203.097 18.6541C202.666 18.2695 202.08 18.1364 201.522 18.088C199.31 17.8606 197.084 17.8122 194.863 17.7651C191.407 17.7082 187.95 17.7167 184.493 17.7397Z" fill="black"/>
<path d="M99.5461 13.6514C102.851 13.4978 106.16 13.5135 109.467 13.5123C112.731 13.5619 115.998 13.4893 119.263 13.5909C120.85 13.6272 122.449 13.7591 123.987 14.1691C125.016 14.4642 126.068 14.9263 126.733 15.7996C127.141 16.3161 127.303 16.9801 127.323 17.6272C127.674 17.6248 128.026 17.626 128.378 17.6284C128.395 16.9233 128.603 16.1975 129.091 15.6702C129.703 14.9577 130.583 14.5501 131.46 14.2647C133.429 13.6841 135.496 13.5958 137.536 13.5668C141.361 13.5123 145.188 13.5365 149.014 13.5196C151.56 13.522 154.108 13.5329 156.649 13.6768C158.385 13.8232 160.148 14.4909 161.33 15.8093C162.254 16.8059 162.772 18.157 162.781 19.5141C162.818 22.267 162.762 25.0188 162.775 27.7729C160.796 27.7729 158.816 27.7717 156.838 27.7729C156.809 25.828 156.829 23.883 156.827 21.9381C156.858 20.9813 156.819 19.9145 156.174 19.1464C155.704 18.5707 154.945 18.3481 154.227 18.3191C151.487 18.1618 148.74 18.1921 145.996 18.1872C143.739 18.1921 141.482 18.1715 139.225 18.2126C137.444 18.2344 135.644 18.238 133.894 18.6094C133.051 18.8005 132.172 19.0787 131.557 19.7173C130.987 20.2979 130.818 21.1458 130.803 21.9308C130.8 23.8733 130.803 25.8171 130.801 27.7596C128.826 27.7572 126.849 27.7681 124.873 27.7536C124.873 25.8159 124.88 23.8794 124.861 21.9417C124.857 21.2075 124.714 20.4358 124.239 19.8516C123.637 19.115 122.687 18.8126 121.793 18.607C119.529 18.1413 117.206 18.2453 114.909 18.1897C110.877 18.1969 106.843 18.1389 102.813 18.2574C101.874 18.3167 100.844 18.2284 100.025 18.7775C99.2473 19.3109 98.997 20.31 98.9788 21.2026C98.9716 23.3931 98.9776 25.5836 98.9764 27.7741C96.9915 27.7741 95.0067 27.7729 93.0218 27.7741C93.0436 24.9813 92.9601 22.1872 93.0266 19.3944C93.0641 17.8425 93.7826 16.3136 94.9788 15.3182C96.2356 14.2272 97.9072 13.7325 99.5461 13.6514Z" fill="black"/>
<path d="M99.257 53.9148C99.401 53.8967 99.5872 53.8072 99.6925 53.9596C100.394 54.6998 101.013 55.5139 101.631 56.323C101.324 56.4162 101.013 56.5009 100.701 56.5758C102.107 56.5771 103.512 56.571 104.919 56.5758C105.669 55.682 106.433 54.7954 107.106 53.8398C107.894 54.0249 108.69 54.1773 109.479 54.3599C108.894 55.1038 108.298 55.8404 107.696 56.5698C109.395 56.5843 111.096 56.5698 112.796 56.5783C112.796 57.177 112.797 57.7757 112.793 58.3744C110.011 58.3757 107.228 58.3732 104.446 58.3757C104.453 58.9103 104.452 59.4449 104.444 59.9795C106.886 59.9795 109.328 59.971 111.77 59.9831C111.766 60.5831 111.766 61.1842 111.769 61.7854C109.328 61.7914 106.886 61.7878 104.445 61.7878C104.452 62.349 104.448 62.9115 104.448 63.4739C107.401 63.463 110.352 63.4679 113.305 63.4715C113.307 64.0751 113.312 64.6786 113.3 65.2822C106.621 65.287 99.9416 65.2846 93.2613 65.2834C93.2613 64.6786 93.2601 64.0751 93.2625 63.4715C96.215 63.4715 99.1675 63.4739 102.119 63.4703C102.126 62.909 102.122 62.3478 102.127 61.7878C99.7433 61.7914 97.3592 61.7914 94.9752 61.7878C94.9704 61.1866 94.9716 60.5855 94.9728 59.9831C97.3568 59.9759 99.7408 59.9807 102.126 59.9807C102.12 59.4461 102.118 58.9115 102.126 58.3781C99.3417 58.3708 96.5573 58.3757 93.7729 58.3757C93.779 57.7757 93.7741 57.1758 93.7778 56.5771C95.5328 56.5795 97.2891 56.5746 99.0454 56.5795C98.4224 55.8598 97.9241 55.0397 97.2601 54.3563C97.9277 54.216 98.5918 54.0648 99.257 53.9148Z" fill="black"/>
<path d="M173.879 54.0309C174.537 54.0104 175.197 54.0213 175.857 54.0237C175.859 55.2417 175.857 56.4609 175.859 57.679C176.735 57.6802 177.612 57.679 178.489 57.6802C178.49 60.6363 178.495 63.5936 178.486 66.551C177.609 66.5546 176.732 66.5558 175.855 66.5486C175.863 67.8222 175.858 69.0971 175.858 70.3708C176.389 70.3187 176.92 70.2571 177.452 70.2111C177.258 69.4418 177.053 68.6762 176.859 67.9069C177.348 67.8283 177.834 67.7327 178.323 67.6444C178.751 69.085 179.177 70.5268 179.511 71.9928C180.662 71.2731 181.48 70.0744 181.759 68.7487C181.945 67.9734 181.864 67.1715 181.964 66.3853C181.284 66.3877 180.604 66.3841 179.925 66.3865C179.923 63.5707 179.927 60.7536 179.924 57.9366C180.721 57.9342 181.52 57.9354 182.318 57.9366C181.736 56.9073 181.048 55.942 180.515 54.8849C181.104 54.5692 181.723 54.3152 182.319 54.014C183.001 55.053 183.605 56.1416 184.296 57.177C183.752 57.4395 183.19 57.6596 182.649 57.9269C183.527 57.9451 184.407 57.9269 185.285 57.9378C186.009 56.6496 186.675 55.3312 187.34 54.0116C188.028 54.2716 188.716 54.5329 189.407 54.7869C188.804 55.8465 188.196 56.9036 187.542 57.933C188.328 57.939 189.114 57.9342 189.902 57.9366C189.905 60.7536 189.892 63.5695 189.909 66.3865C189.085 66.3877 188.262 66.3841 187.438 66.3889C187.44 67.8996 187.434 69.4092 187.44 70.9199C187.432 71.3045 187.541 71.798 187.979 71.8984C188.299 71.919 188.629 71.9371 188.949 71.8754C189.249 71.8174 189.39 71.5029 189.442 71.2307C189.608 70.3333 189.622 69.4164 189.645 68.5068C190.195 68.7173 190.733 68.9568 191.275 69.1854C191.163 70.1809 191.08 71.1812 190.905 72.1694C190.813 72.7003 190.55 73.2265 190.082 73.5192C189.388 73.9776 188.518 73.8712 187.729 73.8869C187.128 73.8978 186.472 73.7889 186.032 73.3414C185.568 72.8673 185.456 72.1706 185.46 71.5319C185.464 69.8168 185.458 68.1016 185.464 66.3865C184.929 66.3889 184.395 66.3853 183.86 66.3865C183.815 67.7956 183.818 69.2555 183.272 70.5812C182.599 72.2407 181.26 73.5361 179.772 74.4856C179.401 73.9038 178.895 73.4249 178.482 72.8745C178.395 72.8902 178.219 72.9229 178.13 72.9386C178.047 72.5987 177.96 72.2613 177.884 71.9214C175.486 72.104 173.098 72.3895 170.724 72.7753C170.641 72.144 170.554 71.5138 170.466 70.8836C171.611 70.8667 172.746 70.707 173.878 70.5473C173.879 69.2144 173.875 67.8815 173.88 66.5486C173.515 66.5522 173.152 66.5522 172.789 66.5498C172.789 67.0046 172.788 67.4606 172.788 67.9154C172.269 67.9142 171.75 67.9166 171.232 67.9081C171.23 64.4996 171.235 61.0923 171.23 57.685C172.113 57.6753 172.996 57.679 173.88 57.6814C173.875 56.4646 173.879 55.2478 173.879 54.0309ZM172.787 64.5855C173.235 64.5867 173.685 64.5879 174.135 64.5879C174.135 62.9465 174.135 61.304 174.135 59.6626C173.685 59.6614 173.237 59.6602 172.789 59.6626C172.784 61.304 172.788 62.9441 172.787 64.5855ZM175.595 59.665C175.593 61.3064 175.598 62.9465 175.593 64.5867C176.044 64.5855 176.495 64.5843 176.946 64.5903C176.945 62.9465 176.946 61.3028 176.946 59.659C176.495 59.659 176.045 59.6566 175.595 59.665ZM181.979 64.4137C183.936 64.4065 185.895 64.4137 187.853 64.4089C187.853 62.9369 187.848 61.4648 187.854 59.994C185.897 59.9856 183.94 59.9892 181.983 59.9916C181.977 61.466 181.984 62.9393 181.979 64.4137Z" fill="black"/>
<path d="M201.064 54.1858C201.918 54.1035 202.773 54.0104 203.628 53.9318C203.883 54.7276 204.142 55.5223 204.395 56.3194C207.125 56.317 209.855 56.3206 212.585 56.3182C212.576 57.004 212.583 57.6898 212.58 58.3756C210.479 58.3732 208.378 58.3781 206.277 58.3732C206.277 60.1077 206.277 61.841 206.277 63.5755C205.532 63.5743 204.787 63.5743 204.043 63.5743C204.045 61.841 204.036 60.1089 204.048 58.3756C203.111 58.3756 202.175 58.3744 201.239 58.3769C201.239 60.1089 201.239 61.8422 201.239 63.5743C200.525 63.5731 199.812 63.5791 199.099 63.5707C199.102 61.8398 199.088 60.1077 199.107 58.3769C197.001 58.3672 194.896 58.3781 192.792 58.372C192.789 57.6862 192.79 57.0004 192.79 56.3146C195.801 56.3218 198.813 56.317 201.824 56.317C201.629 55.5864 201.372 54.8752 201.064 54.1858Z" fill="black"/>
<path d="M153.597 54.3674C154.394 54.2319 155.195 54.1267 155.997 54.0154C156.336 54.8596 156.643 55.716 156.939 56.5772C158.217 56.5699 159.494 56.5675 160.772 56.5784C160.766 57.2606 160.77 57.9428 160.769 58.6262C158.893 58.6407 157.017 58.625 155.141 58.6334C154.224 59.9228 153.314 61.2182 152.337 62.4641C153.382 62.4943 154.422 62.3806 155.466 62.3673C156.047 61.4904 156.597 60.5929 157.077 59.6567C157.71 59.918 158.294 60.2784 158.907 60.5808C156.78 64.4647 153.831 67.9833 150.023 70.308C149.625 69.6379 149.162 69.0126 148.655 68.4211C150.651 67.312 152.584 65.9851 154.01 64.1744C152.708 64.3171 151.39 64.2832 150.099 64.5094C149.846 63.9107 149.586 63.3168 149.338 62.7169C150.329 62.1714 150.943 61.2025 151.599 60.3208C152.007 59.7753 152.36 59.1935 152.748 58.6334C151.552 58.6238 150.354 58.6286 149.158 58.6322C149.159 57.9464 149.156 57.2606 149.162 56.5748C150.922 56.5808 152.683 56.5784 154.443 56.576C154.204 55.8237 153.898 55.0955 153.597 54.3674Z" fill="black"/>
<path d="M166.117 70.8027C166.128 65.2642 166.116 59.7244 166.123 54.1859C166.867 54.1859 167.612 54.1871 168.356 54.1859C168.363 59.8478 168.357 65.5109 168.358 71.1728C168.368 71.907 168.183 72.6932 167.634 73.2145C167.086 73.7455 166.303 73.9161 165.566 73.9669C164.615 74.0225 163.662 74.0516 162.709 74.0516C162.618 73.3234 162.464 72.6013 162.209 71.9131C163.182 71.8853 164.158 71.9433 165.129 71.8816C165.681 71.8514 166.152 71.3639 166.117 70.8027Z" fill="black"/>
<path d="M128.035 70.4324C128.038 65.3003 128.03 60.167 128.039 55.0348C130.969 55.0336 133.897 55.0348 136.827 55.0348C136.81 58.6478 136.828 62.2607 136.817 65.8748C134.629 65.8772 132.442 65.87 130.254 65.8772C130.259 67.492 130.254 69.1067 130.257 70.7203C131.441 70.1675 132.636 69.6402 133.827 69.1019C133.429 68.4778 133.03 67.8536 132.63 67.2307C133.259 66.9695 133.891 66.7118 134.523 66.453C135.696 68.2709 136.889 70.0768 138.018 71.9226C137.393 72.2383 136.769 72.5552 136.14 72.8648C135.723 72.2044 135.298 71.5488 134.85 70.9078C133.579 71.4992 132.217 71.8609 130.942 72.4439C130.166 72.8297 129.328 73.1007 128.63 73.628C128.215 73.0535 127.772 72.4995 127.359 71.9262C127.79 71.5561 128.047 71.0033 128.035 70.4324ZM130.259 57.0088C130.253 57.8277 130.258 58.6453 130.255 59.4642C131.727 59.4654 133.201 59.4618 134.673 59.4654C134.674 58.649 134.669 57.8325 134.675 57.0161C133.203 57.0064 131.731 57.0173 130.259 57.0088ZM130.258 61.443C130.259 62.2921 130.26 63.14 130.257 63.9891C131.73 63.9819 133.202 63.977 134.675 63.9916C134.674 63.1412 134.671 62.2921 134.676 61.4418C133.203 61.4442 131.73 61.4418 130.258 61.443Z" fill="black"/>
<path d="M138.766 55.4595C141.357 55.4595 143.946 55.4583 146.537 55.4595C146.544 59.8901 146.536 64.3195 146.541 68.7488C146.554 69.4153 146.406 70.1253 145.94 70.6273C145.439 71.1812 144.667 71.3651 143.949 71.4026C143.245 71.4111 142.54 71.4062 141.836 71.4002C141.68 70.6926 141.561 69.9777 141.415 69.269C142.097 69.2435 142.78 69.2798 143.461 69.2556C143.976 69.2363 144.406 68.79 144.391 68.2723C144.397 64.715 144.396 61.1577 144.393 57.5992C143.235 57.6089 142.077 57.6016 140.92 57.6041C140.908 63.2018 140.922 68.8009 140.911 74.3999C140.198 74.4011 139.484 74.3962 138.772 74.4035C138.766 68.0884 138.777 61.7746 138.766 55.4595Z" fill="black"/>
<path d="M161.954 56.4864C162.668 56.4852 163.381 56.484 164.096 56.4864C164.099 60.7791 164.097 65.0718 164.097 69.3632C163.38 69.3645 162.664 69.3705 161.948 69.3596C161.952 65.0681 161.939 60.7767 161.954 56.4864Z" fill="black"/>
<path d="M192.366 63.0579C193.832 61.9173 195.214 60.6691 196.465 59.2938C196.928 59.8043 197.372 60.3316 197.844 60.836C196.525 62.1992 195.139 63.5018 193.654 64.6824C193.275 64.103 192.852 63.5514 192.366 63.0579Z" fill="black"/>
<path d="M207.362 60.8395C207.816 60.3485 208.282 59.8671 208.738 59.376C210.188 60.5746 211.587 61.835 212.933 63.1474C212.397 63.6747 211.897 64.2359 211.369 64.7681C210.084 63.4074 208.732 62.1132 207.362 60.8395Z" fill="black"/>
<path d="M158.883 63.5562C159.485 63.8706 160.088 64.1863 160.691 64.4996C159.771 66.1676 158.698 67.7533 157.451 69.1939C158.754 70.222 160.06 71.2477 161.373 72.2637C160.849 72.8286 160.343 73.4103 159.82 73.9776C159.035 73.1261 158.133 72.3943 157.226 71.6771C156.822 71.359 156.487 70.9634 156.076 70.6538C154.429 72.1609 152.538 73.3656 150.618 74.4893C150.172 73.8506 149.704 73.2277 149.243 72.5999C150.884 71.867 152.449 70.9501 153.843 69.8107C155.949 68.1198 157.637 65.9438 158.883 63.5562Z" fill="black"/>
<path d="M194.926 64.5879C199.729 64.5879 204.532 64.5927 209.336 64.5854C209.317 65.2761 209.355 65.968 209.315 66.6574C208.231 68.3205 206.774 69.7454 205.095 70.8074C207.618 71.6299 210.275 71.9262 212.913 72.0822C212.508 72.7753 212.188 73.5119 211.82 74.2256C208.711 73.8071 205.559 73.2652 202.694 71.9335C199.801 73.2422 196.678 73.9304 193.564 74.4844C193.204 73.7623 192.824 73.0499 192.449 72.335C195.126 72.0532 197.812 71.6553 200.376 70.811C198.784 69.72 197.517 68.2044 196.543 66.5485C196.003 66.551 195.463 66.5522 194.925 66.5485C194.925 65.8942 194.924 65.241 194.926 64.5879ZM199.031 66.5485C200.023 67.827 201.276 68.8999 202.687 69.6934C204.183 68.9241 205.449 67.7847 206.583 66.557C204.066 66.5437 201.549 66.5606 199.031 66.5485Z" fill="black"/>
<path d="M102.13 65.9535C102.932 65.9451 103.732 65.9487 104.534 65.9511C104.515 66.3769 104.46 66.8014 104.369 67.2199C107.263 67.2175 110.157 67.2224 113.052 67.2163C113.054 67.8235 113.052 68.4295 113.054 69.0367C110.303 69.0331 107.55 69.0222 104.798 69.0415C105.594 70.3091 107.053 70.9393 108.441 71.3227C110.11 71.7703 111.84 71.9299 113.562 71.9965C113.164 72.7306 112.812 73.4878 112.429 74.2305C110.322 73.9426 108.197 73.5592 106.246 72.6823C105.132 72.1743 104.07 71.4812 103.33 70.4881C102.8 71.3614 101.937 71.9626 101.053 72.4367C98.8675 73.5519 96.4387 74.0636 94.0402 74.4845C93.71 73.7612 93.3641 73.0451 93 72.3388C94.645 72.1985 96.2984 72.0037 97.8914 71.5513C99.2897 71.1401 100.875 70.5027 101.457 69.0439C98.8409 69.0185 96.2247 69.0427 93.6084 69.0319C93.6084 68.4283 93.6084 67.8247 93.6084 67.2212C96.3928 67.2175 99.1772 67.2175 101.962 67.2212C102.057 66.8051 102.126 66.3817 102.13 65.9535Z" fill="black"/>
</svg>
