<svg width="305" height="88" viewBox="0 0 305 88" fill="none" xmlns="http://www.w3.org/2000/svg">
<path fill-rule="evenodd" clip-rule="evenodd" d="M168.275 33.2119L168.249 33.1592L168.242 33.1098V33.0514L168.249 32.9915L168.367 32.7405L168.479 32.5003L168.598 32.2524L168.737 32.0141L168.882 31.7777L169.036 31.5329L169.202 31.3006L169.362 31.0639L169.539 30.837L169.732 30.61L169.925 30.3866L170.128 30.1673L170.348 29.9588L170.569 29.7637L170.812 29.5715L171.059 29.3667L171.321 29.1883L171.583 29.0174L171.874 28.8531L172.164 28.6922L172.478 28.5441L172.788 28.4058L173.125 28.2911L173.46 28.1787L173.82 28.0729L174.195 27.9753L174.575 27.903L174.97 27.8452L175.383 27.7943L175.8 27.7537L176.248 27.7424L176.695 27.7321L177.171 27.7424L177.605 27.7648L178.03 27.8068L178.435 27.866L178.817 27.9356L179.174 28.0256L179.521 28.1168L179.851 28.2281L180.153 28.3518L180.444 28.4834L180.716 28.6262L180.966 28.7868L181.197 28.9434L181.421 29.121L181.607 29.3079L181.793 29.4929L181.962 29.694L182.114 29.9007L182.237 30.1147L182.365 30.3208L182.465 30.5523L182.557 30.7851L182.624 31.0136L182.686 31.2494L182.732 31.492L182.763 31.7295L182.772 31.9752V32.2184L182.763 32.4684L182.74 32.7163L182.711 32.9649L182.655 33.2119L179.376 52.9198L179.304 53.3214L179.262 53.6822L179.246 53.8441L179.238 53.9952L179.229 54.1462L179.238 54.2673L179.262 54.3837L179.282 54.4795L179.312 54.5586L179.356 54.6202L179.405 54.6653L179.469 54.6893L179.546 54.7004L179.627 54.682L179.71 54.6459L179.826 54.5891L179.948 54.5032L180.081 54.3966L180.235 54.2638L180.39 54.1016L180.566 53.9122L180.758 53.6951L180.966 53.454L181.186 53.1749L181.421 52.8777L181.678 52.5316L181.945 52.161L182.234 51.7579L182.546 51.321L182.86 50.8339L182.908 50.7673L182.953 50.7048L182.99 50.6515L183.046 50.6129L183.093 50.5807L183.144 50.5565L183.205 50.5356L183.258 50.5293L183.318 50.5189L183.38 50.5293L183.447 50.5356L183.499 50.5456L183.566 50.5707L183.634 50.5908L183.685 50.6258L183.75 50.6515L183.867 50.7326L183.966 50.8229L184.059 50.9204L184.135 51.0337L184.167 51.0934L184.19 51.147L184.213 51.2004L184.228 51.2528L184.237 51.321L184.241 51.3697L184.237 51.4168L184.228 51.4663L183.923 51.9359L183.634 52.3649L183.351 52.7882L183.069 53.186L182.796 53.5521L182.525 53.9012L182.259 54.2352L181.993 54.542L181.725 54.8466L181.462 55.1229L181.206 55.3725L180.954 55.6156L180.694 55.8318L180.444 56.0316L180.188 56.2304L179.926 56.407L179.664 56.5684L179.405 56.7127L179.148 56.8379L178.881 56.9597L178.611 57.0635L178.344 57.1619L178.061 57.2448L177.777 57.31L177.489 57.3795L177.206 57.4306L176.908 57.4771L176.603 57.5001L176.3 57.5258L175.978 57.5458L175.649 57.5495L175.311 57.5579L174.977 57.5495L174.652 57.5458L174.338 57.5192L174.016 57.4945L173.714 57.4551L173.425 57.4042L173.142 57.3423L172.86 57.2837L172.592 57.2081L172.339 57.1254L172.087 57.0387L171.858 56.9346L171.628 56.8232L171.423 56.7053L171.218 56.5748L171.026 56.442L170.851 56.2968L170.686 56.129L170.529 55.9671L170.388 55.7858L170.264 55.6073L170.139 55.4073L170.05 55.2058L169.966 54.9893L169.889 54.7721L169.842 54.5366L169.806 54.2898L169.776 54.0322L169.767 53.7723L169.776 53.4997L169.806 53.2091L169.842 52.9198L173.2 31.016L173.22 30.9328V30.8472V30.771L173.216 30.7082L173.188 30.6341L173.176 30.5759L173.158 30.5158L173.125 30.4729L173.086 30.4292L173.035 30.3964L172.986 30.3807L172.926 30.3549H172.86L172.788 30.3724L172.7 30.3866L172.619 30.4218L172.514 30.4618L172.406 30.5234L172.298 30.5952L172.168 30.6817L172.04 30.7851L171.906 30.8923L171.75 31.0307L171.6 31.1765L171.432 31.3495L171.25 31.5329L171.059 31.7401L170.868 31.9647L170.653 32.2065L170.438 32.476L170.207 32.7591L169.978 33.0718L169.925 33.1505L169.882 33.229L169.818 33.2973L169.76 33.3706L169.691 33.4188L169.627 33.4677L169.539 33.5132L169.489 33.5519L169.409 33.5825L169.329 33.6L169.253 33.6184L169.18 33.6313L169.104 33.6457H169.028L168.956 33.6313L168.882 33.6221L168.805 33.6184L168.737 33.6L168.669 33.574L168.613 33.5519L168.547 33.5132L168.491 33.478L168.447 33.445L168.395 33.4023L168.348 33.3617L168.316 33.3206L168.287 33.265L168.275 33.2119ZM209.646 36.6958H209.714L209.777 36.7121L209.823 36.7347L209.858 36.7758L209.907 36.82L209.936 36.8799L209.964 36.9571L209.985 37.0354L209.992 37.1285L209.996 37.2227L210 37.3381L209.996 37.4575L209.992 37.5745L209.953 37.8463L209.912 38.1521L209.846 38.4644L209.777 38.7973L209.683 39.1616L209.585 39.5236L206.046 61.1501L205.885 61.753L205.687 62.3523L205.45 62.9303L205.183 63.5048L204.869 64.0721L204.535 64.6263L204.156 65.1659L203.767 65.6923L203.343 66.2153L202.901 66.7132L202.423 67.197L201.931 67.6746L201.41 68.1302L200.88 68.5609L200.33 68.9819L199.762 69.3793L199.184 69.7704L198.596 70.128L197.993 70.4794L197.392 70.7944L196.782 71.0943L196.162 71.3781L195.544 71.6285L194.921 71.8593L194.301 72.0695L193.688 72.2517L193.065 72.4062L192.46 72.5341L191.869 72.6412L191.281 72.7072L190.7 72.7513L190.136 72.7681L189.58 72.7597L189.06 72.7513L188.525 72.7293L188.039 72.678L187.555 72.6412L187.085 72.5804L186.621 72.5195L186.178 72.4514L185.746 72.3622L185.3 72.2747L184.89 72.1731L184.466 72.0628L184.059 71.947L183.656 71.8237L183.255 71.6874L182.855 71.548L182.448 71.4038L182.036 71.247L181.63 71.0861L181.237 70.915L180.407 70.5568L179.546 70.1684L178.651 69.7704L177.712 69.3306L176.727 68.8869L175.673 68.4116L174.777 67.9753L173.916 67.5757L173.07 67.2223L172.249 66.9261L171.468 66.6661L170.706 66.4472L169.966 66.2799L169.253 66.1469L168.572 66.0478L167.907 65.9906L167.263 65.9666L166.671 65.9706L166.067 66.0053L165.511 66.0771L164.972 66.1683L164.465 66.2916L163.968 66.4335L163.499 66.5962L163.049 66.7897L162.633 66.9941L162.239 67.2207L161.862 67.4562L161.512 67.7067L161.182 67.9753L160.88 68.2426L160.582 68.5371L160.32 68.8262L160.077 69.1281L159.863 69.4281L159.664 69.7264L159.469 70.0304L159.322 70.3394L159.252 70.46L159.184 70.5825L159.117 70.6855L159.061 70.7713L158.984 70.8432L158.928 70.8992L158.877 70.9417L158.824 70.9747L158.767 70.9942L158.724 71.0005H158.678L158.633 70.9942L158.592 70.9675L158.553 70.9325L158.518 70.8992L158.495 70.8496L158.466 70.7944L158.444 70.7346L158.418 70.6728L158.406 70.588L158.393 70.5145L158.386 70.4277L158.378 70.3414V70.2491L158.386 70.1516L158.393 70.0645L158.406 69.9567L158.418 69.8574L158.444 69.7531L158.466 69.6473L158.503 69.5431L158.544 69.4448L158.672 69.1115L158.8 68.8003L158.947 68.4984L159.084 68.2175L159.231 67.9432L159.366 67.6863L159.513 67.4378L159.664 67.2096L159.806 66.9747L159.962 66.7563L160.117 66.5265L160.28 66.3183L160.622 65.8938L160.982 65.4715L161.162 65.2634L161.377 65.0515L161.578 64.8325L161.801 64.6022L162.036 64.3621L162.291 64.1309L162.549 63.888L162.831 63.6521L163.117 63.4073L163.403 63.1679L163.717 62.9177L164.039 62.6818L164.361 62.4409L164.711 62.2051L165.073 61.9822L165.431 61.7613L165.813 61.5313L166.188 61.3288L166.583 61.127L166.997 60.9373L167.409 60.7499L167.843 60.5717L168.275 60.4265L168.713 60.2755L169.159 60.1382L169.627 60.0196L170.097 59.9147L170.569 59.8292L171.059 59.7597L171.541 59.7113L172.048 59.6861L172.56 59.6735L173.062 59.6861L173.566 59.7113L174.071 59.7597L174.575 59.8292L175.065 59.9147L175.55 60.0196L176.038 60.1319L176.528 60.2551L177.012 60.394L177.504 60.5517L177.991 60.7027L178.474 60.8684L179.462 61.2071L180.427 61.5522L181.421 61.904L182.418 62.2455L182.929 62.4112L183.447 62.5643L183.94 62.7121L184.466 62.8495L185.001 62.9716L185.525 63.0923L186.058 63.1882L186.603 63.2766L187.159 63.3448L187.717 63.3947L188.279 63.4256L188.864 63.4388L189.277 63.4256L189.691 63.4073L190.103 63.3873L190.494 63.3355L190.892 63.286L191.281 63.2106L191.653 63.1246L192.02 63.0266L192.387 62.912L192.733 62.7943L193.069 62.6543L193.414 62.4923L193.752 62.3356L194.057 62.1442L194.376 61.9475L194.675 61.7373L194.968 61.5092L195.255 61.2603L195.535 60.9971L195.795 60.7195L196.058 60.4302L196.309 60.1282L196.536 59.8032L196.765 59.4543L196.977 59.0933L197.193 58.7196L197.384 58.3249L197.569 57.918L197.743 57.4771L197.915 57.0313L198.069 56.5684L198.216 56.0794V55.9672V55.8642L198.202 55.7976L198.168 55.7342L198.142 55.7022L198.089 55.6814H198.025L197.964 55.6965L197.887 55.7222L197.795 55.759L197.695 55.8144L197.584 55.8696L197.325 56.0187L197.035 56.1926L196.699 56.3813L196.309 56.5747L196.095 56.6722L195.883 56.7625L195.645 56.8591L195.398 56.9449L195.141 57.0313L194.867 57.1022L194.59 57.1674L194.301 57.2244L193.994 57.2649L193.688 57.3063L193.362 57.3324L193.019 57.3367L192.685 57.3324L192.346 57.31L192.027 57.2649L191.71 57.2244L191.408 57.1674L191.117 57.0876L190.829 57.0054L190.554 56.9077L190.293 56.8102L190.035 56.6822L189.79 56.5579L189.552 56.4165L189.341 56.2738L189.126 56.1128L188.928 55.9508L188.747 55.7794L188.569 55.5986L188.416 55.4219L188.255 55.2215L188.113 55.0244L187.988 54.8219L187.877 54.6138L187.784 54.3966L187.688 54.1785L187.632 53.9553L187.567 53.7283L187.526 53.4997L187.501 53.2659L187.485 53.036V52.8049L187.501 52.5626L187.538 52.3261L189.376 41.4836L189.399 41.2997L189.424 41.1386V41.0004L189.399 40.8732L189.388 40.7606L189.358 40.6521L189.311 40.5789L189.265 40.5207L189.201 40.4744L189.141 40.4352L189.06 40.4226H188.976L188.896 40.4471L188.792 40.4797L188.685 40.5303L188.578 40.5972L188.462 40.6824L188.356 40.7891L188.237 40.8978L188.113 41.0339L187.988 41.1928L187.855 41.3671L187.731 41.55L187.593 41.7557L187.459 41.975L187.334 42.2096L187.204 42.4613L187.076 42.7406L186.936 43.0386L186.806 43.3485L186.69 43.6734L186.556 44.0142L186.539 44.0623L186.504 44.1106L186.472 44.152L186.428 44.1889L186.381 44.2261L186.327 44.2501L186.274 44.2703L186.205 44.2924L186.146 44.298L186.065 44.3063L186.007 44.3151H185.932L185.86 44.3063L185.784 44.2924L185.708 44.2703L185.638 44.2501L185.574 44.2261L185.496 44.1889L185.434 44.1432L185.374 44.0927L185.319 44.0411L185.259 43.9812L185.215 43.9129L185.174 43.8354L185.123 43.762L185.104 43.6734L185.086 43.5814L185.078 43.4736V43.3745L185.086 43.2546L185.096 43.1292L185.119 43.0069L185.203 42.7086L185.292 42.413L185.391 42.1314L185.517 41.8482L185.638 41.5804L185.776 41.3168L185.915 41.0612L186.073 40.8131L186.237 40.575L186.419 40.3415L186.603 40.1167L186.801 39.9044L186.995 39.6987L187.212 39.4953L187.426 39.3097L187.657 39.1335L187.877 38.9703L188.13 38.8061L188.36 38.6522L188.625 38.5119L188.896 38.3836L189.141 38.2655L189.424 38.158L189.698 38.0622L189.977 37.9695L190.261 37.8876L190.554 37.8306L190.857 37.77L191.154 37.7343L191.464 37.7002L191.761 37.6877L192.072 37.6766L192.394 37.6877L192.701 37.6936L193.014 37.7098L193.316 37.7455L193.63 37.7832L193.936 37.8306L194.235 37.8876L194.533 37.9555L194.816 38.0354L195.096 38.1287L195.367 38.2353L195.645 38.3489L195.896 38.477L196.141 38.6197L196.376 38.7735L196.608 38.9368L196.817 39.1287L197.022 39.32L197.211 39.5369L197.384 39.7603L197.546 40.008L197.675 40.2667L197.803 40.5411L197.915 40.8379L198.005 41.1467L198.069 41.4836L198.125 41.822L198.148 42.1935L198.156 42.5774L198.142 42.9864L198.101 43.4147L198.025 43.8598L196.309 54.0795L196.292 54.1607V54.2353L196.316 54.3102L196.341 54.3559L196.36 54.4129L196.408 54.4501L196.448 54.4884L196.515 54.52L196.567 54.5365L196.638 54.5419L196.713 54.552L196.798 54.5419L196.872 54.5365L196.965 54.52L197.048 54.4884L197.138 54.4501L197.239 54.4129L197.325 54.3617L197.421 54.3102L197.494 54.2353L197.589 54.1718L197.679 54.0907L197.774 54.0055L197.859 53.9012L197.927 53.8074L198.005 53.6952L198.069 53.579L198.134 53.454L198.185 53.3214L198.236 53.1861L198.273 53.036L198.307 52.885L200.368 41.2601L200.389 41.0973L200.405 40.9503L200.421 40.8131L200.431 40.6824V40.575L200.421 40.4744L200.396 40.3657L200.389 40.2836L200.368 40.198L200.334 40.1304L200.299 40.0588L200.266 40.0021L200.231 39.9481L200.185 39.8953L200.134 39.855L200.092 39.8135L199.986 39.7483L199.869 39.6918L199.747 39.6471L199.619 39.6103L199.503 39.5699L199.377 39.5301L199.253 39.4762L199.148 39.4064L199.111 39.376L199.083 39.3468L199.071 39.2933V39.247L199.079 39.184L199.096 39.1139L199.131 39.0568L199.184 38.9866L199.253 38.9199L199.346 38.8592L199.468 38.7973L199.591 38.7462L199.758 38.7009L199.949 38.6812L200.163 38.6522L200.421 38.6447L201.209 38.6522H201.948L202.626 38.6594H203.27H203.88L204.444 38.6447L204.711 38.6399L204.968 38.6144L205.233 38.5931L205.474 38.5644L205.716 38.534L205.953 38.4972L206.187 38.4467L206.411 38.3973L206.635 38.3489L206.844 38.2804L207.068 38.1964L207.275 38.1169L207.476 38.0274L207.696 37.9291L207.894 37.8143L208.105 37.6936L208.307 37.5586L208.517 37.4125L208.725 37.2601L208.942 37.0843L209.059 36.9945L209.175 36.9046L209.287 36.8274L209.396 36.7758L209.484 36.7347L209.562 36.7121L209.646 36.6958ZM134.748 45.9556V45.8974L134.76 45.8226L134.748 45.7619L134.735 45.7024L134.716 45.6486L134.68 45.5933L134.64 45.5402L134.58 45.5022L134.515 45.4764L134.434 45.4438L134.327 45.4256H134.207L132.658 45.4197L132.547 45.3782L132.459 45.3255L132.397 45.2752L132.345 45.216L132.307 45.16L132.292 45.0988L132.275 45.0378L132.292 44.9781L132.298 44.9162L132.325 44.8639L132.349 44.8108L132.397 44.7693L132.435 44.739L132.489 44.7123L132.543 44.6916L132.588 44.6882L133.228 44.486L133.858 44.282L134.444 44.0623L135.02 43.8533L135.574 43.6416L136.105 43.4147L136.61 43.1854L137.1 42.9617L137.565 42.7306L138.014 42.5009L138.44 42.2652L138.845 42.0402L139.237 41.8065L139.6 41.5715L139.954 41.3511L140.297 41.1204L140.609 40.9033L140.899 40.6823L141.189 40.4744L141.455 40.2667L141.954 39.8624L142.386 39.491L142.759 39.1514L143.096 38.8388L143.378 38.5751L143.615 38.3609L143.726 38.2656L143.833 38.1825L143.944 38.1022L144.044 38.0354L144.145 37.978L144.247 37.9291L144.344 37.8795L144.433 37.8462L144.525 37.8141L144.604 37.7981L144.692 37.7904H144.765H144.845L144.905 37.806L144.97 37.8306L145.041 37.855L145.09 37.9038L145.147 37.9408L145.195 37.9947L145.232 38.0622L145.278 38.1286L145.306 38.2048L145.335 38.292L145.355 38.3836L145.369 38.4886L145.377 38.6033V38.7218L145.369 38.8388L145.363 38.9763L145.338 39.1139L145.316 39.2714L145.286 39.4258L143.206 52.269L143.183 52.4709L143.166 52.6529L143.15 52.8243L143.158 52.968L143.166 53.0885L143.183 53.1923L143.206 53.2772L143.246 53.3471L143.295 53.3995L143.347 53.4242L143.399 53.4389L143.465 53.4299L143.536 53.4058L143.615 53.3653L143.714 53.2926L143.798 53.2207L143.886 53.1208L143.996 53.0027L144.104 52.8777L144.217 52.7216L144.334 52.5536L144.447 52.3749L144.559 52.1706L144.692 51.9598L144.829 51.7248L144.95 51.4819L145.09 51.214L145.216 50.9377L145.355 50.6405L145.485 50.3266L145.624 50.0081L145.753 49.6618L145.783 49.6296L145.805 49.5929L145.836 49.5634L145.878 49.5229L145.918 49.5027L145.972 49.4739L146.037 49.4493L146.085 49.4214L146.227 49.3957L146.359 49.37H146.508L146.65 49.3821L146.725 49.3957L146.788 49.4125L146.866 49.4409L146.925 49.4739L146.983 49.5127L147.041 49.5477L147.096 49.5929L147.148 49.6463L147.187 49.7053L147.213 49.7751L147.247 49.8414L147.265 49.9206L147.279 50.0081V50.101L147.267 50.2079L147.256 50.3164L146.965 50.8881L146.659 51.4259L146.359 51.945L146.074 52.4301L145.783 52.8851L145.485 53.3177L145.195 53.7142L144.898 54.0906L144.615 54.4501L144.316 54.7815L144.036 55.0795L143.746 55.3688L143.456 55.6267L143.176 55.8696L142.88 56.0904L142.593 56.2968L142.313 56.4716L142.027 56.6428L141.729 56.7882L141.449 56.9135L141.157 57.0387L140.869 57.137L140.577 57.2244L140.297 57.3063L139.999 57.3635L139.706 57.4142L139.409 57.4603L139.119 57.4945L138.82 57.5111L138.517 57.5258H138.223H137.926L137.622 57.5192L137.339 57.4945L137.067 57.4603L136.806 57.4142L136.566 57.3635L136.32 57.3002L136.089 57.2244L135.876 57.137L135.664 57.0469L135.469 56.945L135.288 56.836L135.116 56.7127L134.937 56.5821L134.794 56.4468L134.648 56.2985L134.515 56.1531L134.389 55.9975L134.264 55.8318L134.167 55.6644L134.076 55.4863L134.001 55.308L133.925 55.1229L133.858 54.9315L133.804 54.7297L133.754 54.5273L133.717 54.3212L133.694 54.1188L133.679 53.9012L133.667 53.6911V53.4714L133.679 53.2511L133.694 53.0287L134.707 46.1948L134.724 46.0845L134.748 45.9556ZM156.779 49.208V49.3222L156.785 49.4409L156.812 49.5477L156.847 49.6537L156.884 49.7522L156.948 49.8413L157.002 49.9206L157.076 49.9978L157.152 50.0605L157.243 50.124L157.334 50.1739L157.435 50.2105L157.547 50.2456L157.666 50.2648H157.777H158.305H158.426L158.553 50.2456L158.669 50.2105L158.786 50.1739L158.885 50.124L158.984 50.0605L159.087 49.9978L159.184 49.9206L159.272 49.8413L159.348 49.7522L159.423 49.6537L159.477 49.5477L159.541 49.4409L159.588 49.3222L159.618 49.208L159.637 49.0827L161.039 40.1589L161.043 40.0323V39.9214L161.039 39.8136L161.015 39.6987L160.983 39.5943L160.938 39.4953L160.884 39.4065L160.819 39.3199L160.756 39.2535L160.677 39.184L160.582 39.1287L160.494 39.0736L160.395 39.0331L160.288 39.0109L160.177 38.9866L160.053 38.9763H159.517L159.392 38.9866L159.272 39.0109L159.152 39.0331L159.048 39.0736L158.942 39.1287L158.833 39.184L158.732 39.2535L158.633 39.3199L158.553 39.4065L158.466 39.4953L158.406 39.5943L158.337 39.6987L158.274 39.8136L158.237 39.9214L158.205 40.0323L158.176 40.1589L156.795 49.0827L156.779 49.208ZM152.149 41.0004L152.561 40.5442L152.994 40.1305L153.426 39.7417L153.88 39.3971L154.328 39.0921L154.788 38.806L155.252 38.5644L155.706 38.349L156.178 38.1581L156.633 37.9859L157.099 37.8462L157.547 37.7277L157.991 37.6219L158.426 37.5481L158.857 37.4785L159.265 37.4371L159.671 37.4013L160.053 37.3747L160.423 37.3608H160.773H161.13H161.48L161.83 37.3747L162.187 37.3934L162.525 37.4224L162.863 37.4575L163.189 37.4955L163.52 37.5481L163.838 37.607L164.16 37.6877L164.457 37.77L164.755 37.8652L165.045 37.9695L165.331 38.0902L165.59 38.2128L165.859 38.3532L166.107 38.5119L166.349 38.6813L166.571 38.8739L166.789 39.0657L166.989 39.2787L167.187 39.4953L167.365 39.7483L167.529 40.008L167.667 40.2837L167.807 40.5751L167.92 40.8903L168.026 41.2186L168.101 41.555L168.189 41.9256L168.229 42.3075L168.258 42.7148L168.287 43.3079L168.275 43.8825L168.221 44.4357L168.149 44.97L168.049 45.483L167.92 45.9755L167.774 46.4623L167.594 46.9107L167.386 47.3558L167.17 47.7581L166.921 48.1584L166.656 48.5398L166.366 48.9007L166.059 49.2321L165.737 49.5477L165.395 49.8562L165.037 50.1324L164.672 50.3919L164.286 50.6258L163.892 50.8549L163.488 51.0603L163.075 51.2407L162.648 51.3935L162.208 51.5375L161.763 51.6597L161.32 51.76L160.851 51.8391L160.402 51.909L159.942 51.9451L159.477 51.9597H159.017L158.553 51.9541L158.176 51.9126L157.841 51.8779L157.557 51.8391L157.312 51.8023L157.099 51.7682L156.926 51.76H156.853H156.785L156.719 51.7803L156.654 51.8023L156.611 51.8327L156.567 51.8705L156.519 51.9126L156.483 51.976L156.445 52.0546L156.402 52.1381L156.376 52.2333L156.355 52.3414L156.287 52.6104L156.234 52.9329L156.178 53.3341L156.122 53.8075L156.078 54.1462L156.062 54.4351V54.5687V54.7004L156.078 54.8219L156.082 54.9315L156.106 55.0308L156.122 55.1297L156.146 55.214L156.178 55.3006L156.213 55.3725L156.254 55.4459L156.297 55.5067L156.355 55.5639L156.394 55.6156L156.459 55.6588L156.519 55.7021L156.582 55.7343L156.654 55.7711L156.734 55.7977L156.812 55.8197L156.902 55.8398L157.076 55.8696L157.278 55.8935L157.497 55.9082H157.739H157.931L158.146 55.899L158.357 55.8869L158.578 55.8696L158.8 55.8471L159.032 55.8197L159.265 55.7857L159.513 55.7464L159.745 55.7021L159.998 55.6488L160.235 55.5932L160.487 55.5288L160.741 55.4627L160.991 55.3725L161.241 55.2886L161.496 55.1948L161.758 55.1072L162 54.9893L162.259 54.8697L162.501 54.7407L162.757 54.6081L162.998 54.4702L163.245 54.3166L163.488 54.1519L163.717 53.9831L163.944 53.8001L164.166 53.6056L164.389 53.4059L164.601 53.1923L164.814 52.968L165.013 52.7377L165.213 52.4881L165.255 52.4708L165.311 52.4635L165.355 52.4542L165.41 52.4447H165.511L165.621 52.4635L165.737 52.4955L165.844 52.5369L165.959 52.59L166.059 52.6585L166.149 52.7321L166.221 52.8048L166.289 52.9051L166.341 52.9843L166.357 53.036L166.366 53.0885L166.372 53.1372V53.1923V53.2438L166.366 53.2927L166.349 53.347L166.329 53.3995L166.149 53.638L165.975 53.8775L165.785 54.1016L165.585 54.3212L165.379 54.5366L165.153 54.7407L164.929 54.9378L164.7 55.1297L164.457 55.308L164.202 55.4863L163.944 55.6488L163.683 55.8144L163.403 55.9671L163.13 56.1127L162.855 56.248L162.558 56.3813L162.268 56.4935L161.977 56.6208L161.664 56.7221L161.357 56.8232L161.051 56.9135L160.733 57.0053L160.412 57.0792L160.097 57.1472L159.775 57.2191L159.447 57.265L159.131 57.3234L158.8 57.3634L158.475 57.3976L158.146 57.4306L157.815 57.4551L157.492 57.4641H156.853L156.234 57.4551L155.651 57.3976L155.096 57.3323L154.564 57.2348L154.063 57.118L153.575 56.9769L153.129 56.8232L152.696 56.6428L152.291 56.4531L151.909 56.2413L151.551 56.0186L151.222 55.7793L150.911 55.5214L150.612 55.2673L150.346 54.9893L150.107 54.7078L149.879 54.413L149.679 54.1188L149.493 53.8205L149.322 53.5071L149.187 53.1923L149.055 52.8851L148.947 52.5626L148.856 52.2481L148.788 51.9451L148.734 51.6219L148.689 51.321L148.674 51.0198L148.667 50.7253L148.674 50.4333L148.699 50.1507L148.835 49.0958L149.012 48.0923L149.214 47.1489L149.445 46.2676L149.711 45.4367L149.994 44.6556L150.305 43.9337L150.638 43.2546L150.986 42.6187L151.361 42.0402L151.753 41.4947L152.149 41.0004ZM138.54 18L138.729 18.007L138.914 18.0162L139.099 18.0341L139.28 18.053L139.444 18.0871L139.614 18.1183L139.778 18.1625L139.932 18.2095L140.089 18.2596L140.24 18.3172L140.381 18.3817L140.519 18.4485L140.662 18.5166L140.797 18.5865L140.921 18.6628L141.051 18.7452L141.169 18.8218L141.286 18.9124L141.401 18.9926L141.52 19.0832L141.734 19.2631L141.929 19.4404L142.128 19.6287L142.3 19.8044L142.471 19.9826L142.638 20.1556L142.744 20.0051L142.858 19.8754L142.978 19.7475L143.096 19.6203L143.223 19.5047L143.343 19.3903L143.471 19.281L143.591 19.1789L143.727 19.0832L143.855 18.9926L143.99 18.9035L144.126 18.8262L144.264 18.7484L144.41 18.6805L144.551 18.6128L144.696 18.5555L144.847 18.4953L144.99 18.4406L145.138 18.395L145.288 18.3496L145.449 18.3081L145.603 18.2661L145.768 18.2339L145.924 18.2095L146.09 18.1792L146.261 18.1574L146.425 18.1395L146.597 18.1258L146.943 18.0999L147.301 18.0962L147.625 18.0999L147.944 18.1183L148.25 18.1497L148.549 18.1984L148.828 18.2596L149.111 18.3315L149.377 18.4195L149.63 18.5166L149.876 18.6328L150.107 18.7452L150.328 18.882L150.539 19.0233L150.744 19.1674L150.937 19.3234L151.119 19.4924L151.289 19.6677L151.456 19.8506L151.601 20.0347L151.745 20.2325L151.875 20.4304L151.995 20.6329L152.102 20.8447L152.198 21.056L152.29 21.2738L152.372 21.4957L152.44 21.7199L152.495 21.9421L152.539 22.1667L152.574 22.3968L152.598 22.6233L152.618 22.8437L152.624 23.076L152.618 23.2981L152.606 23.5159L152.595 23.7335L152.561 23.9449L152.524 24.1595L152.485 24.3662L152.44 24.5676L152.379 24.7685L152.322 24.9645L152.26 25.155L152.188 25.3454L152.111 25.5301L152.039 25.7179L151.949 25.8964L151.866 26.0682L151.768 26.2404L151.675 26.4144L151.58 26.5769L151.475 26.7333L151.375 26.897L151.16 27.2114L150.937 27.5113L150.715 27.7911L150.486 28.0664L150.266 28.3231L150.043 28.5677L149.933 28.6891L149.782 28.834L149.63 28.98L149.455 29.1445L149.058 29.4924L148.606 29.8828L148.108 30.3086L147.569 30.7682L147.019 31.2572L146.438 31.7731L146.154 32.0387L145.863 32.3026L145.575 32.583L145.283 32.8539L144.999 33.1451L144.716 33.4224L144.449 33.7083L144.183 34.0061L143.928 34.2966L143.675 34.5846L143.437 34.8811L143.218 35.1733L142.994 35.4705L142.799 35.7663L142.614 36.055L142.456 36.3506L142.09 36.014L141.722 35.6733L141.364 35.341L141.002 35.0105L140.645 34.6792L140.292 34.3587L139.932 34.035L139.588 33.7204L139.248 33.4136L138.911 33.1095L138.582 32.817L138.255 32.5198L137.933 32.2456L137.632 31.9662L137.329 31.6986L137.045 31.4464L135.532 30.0612L135.279 29.8266L135.246 29.795L135.02 29.9634L134.76 30.2023L134.49 30.4559L134.219 30.7385L134.076 30.8797L133.944 31.0351L133.81 31.2021L133.679 31.3718L133.544 31.5476L133.411 31.7295L133.276 31.9273L133.138 32.123L133.005 32.3331L132.87 32.5452L132.739 32.7762L132.617 33.0054L132.489 33.2488L132.357 33.4937L132.236 33.7533L132.117 34.0299L131.993 34.3012L131.87 34.5957L131.757 34.8891L131.649 35.1991L131.527 35.522L131.419 35.8438L131.319 36.1814L131.214 36.5384L128.39 53.2092L128.591 53.8268L128.808 54.4445L129.038 55.0527L129.287 55.6587L129.558 56.2481L129.851 56.836L130.137 57.4042L130.467 57.961L130.805 58.5096L131.164 59.0495L131.546 59.5656L131.944 60.073L132.357 60.556L132.796 61.0295L133.26 61.4834L133.747 61.9207L134.249 62.3356L134.788 62.7268L135.344 63.1009L135.92 63.4561L136.526 63.7814L137.158 64.0774L137.824 64.3511L138.504 64.6022L139.213 64.8324L139.954 65.0241L140.715 65.1814L141.516 65.3169L142.333 65.4235L143.198 65.4909L144.072 65.5287L144.991 65.5387L145.886 65.5135L146.733 65.4604L147.537 65.3802L148.282 65.2837L148.988 65.1658L149.652 65.0241L150.266 64.8695L150.864 64.687L151.422 64.5011L151.949 64.2839L152.452 64.0721L152.939 63.8382L153.398 63.6054L153.844 63.3501L154.285 63.1009L154.698 62.8384L155.535 62.3193L156.367 61.7871L156.795 61.5145L157.226 61.2604L157.68 61.0138L158.146 60.7669L158.625 60.5267L159.135 60.2976L159.671 60.0851L160.235 59.8816L160.832 59.6966L161.455 59.5241L162.135 59.3648L162.847 59.2342H162.876H162.907L162.94 59.2603L162.966 59.2803L163.006 59.3201L163.03 59.3474L163.049 59.3868L163.075 59.4266L163.089 59.4675L163.097 59.517L163.106 59.5577L163.097 59.5896L163.08 59.6293L163.049 59.6569L163.018 59.6861L162.975 59.7029L162.276 59.9504L161.578 60.2425L160.892 60.5717L160.203 60.946L159.517 61.3498L158.833 61.7871L158.146 62.2455L157.457 62.7335L156.762 63.2453L156.078 63.7644L155.379 64.3012L154.687 64.8545L153.269 65.9666L151.826 67.0807L151.095 67.6265L150.356 68.1687L149.594 68.6971L148.835 69.2056L148.059 69.7007L147.267 70.1627L146.468 70.6066L145.653 71.021L144.829 71.3947L143.974 71.7382L143.102 72.0371L142.226 72.2968L141.316 72.5102L140.395 72.6732L139.465 72.7758L138.498 72.8232L137.518 72.8326L136.548 72.7911L135.558 72.6998L134.586 72.5582L133.617 72.3684L132.64 72.1337L131.679 71.831L130.734 71.4755L129.787 71.054L128.855 70.5717L127.934 70.0254L127.025 69.4113L126.137 68.7163L125.266 67.9498L124.418 67.1128L123.591 66.195L122.785 65.2063L121.997 64.1225L121.24 62.9454L120.505 61.7027L119.81 60.3547L119.136 58.9148L118.49 57.3739L117.882 55.7463L117.318 54.0055L116.779 52.1705L116.281 50.2253L115.822 48.176L115.415 46.0144L115.047 43.7397L114.716 41.3511L114.443 38.8388L114.328 40.089L114.182 41.3081L114.011 42.4818L113.826 43.6002L113.595 44.6916L113.357 45.7366L113.089 46.741L112.8 47.7011L112.487 48.617L112.153 49.4917L111.801 50.3266L111.433 51.1302L111.032 51.8778L110.619 52.6012L110.187 53.2772L109.74 53.9123L109.267 54.5126L108.789 55.0721L108.285 55.5839L107.757 56.0609L107.221 56.5103L106.679 56.9077L106.115 57.2799L105.533 57.6021L104.954 57.8912L104.357 58.1509L103.733 58.3663L103.111 58.5447L102.483 58.6921L101.837 58.801L101.187 58.8678L100.523 58.9075L99.8596 58.9148L99.2323 58.8891L98.6333 58.8301L98.0577 58.7345L97.4993 58.6206L96.9719 58.4749L96.473 58.3081L95.9916 58.1194L95.547 57.904L95.1143 57.6648L94.7127 57.4042L94.333 57.1253L93.9704 56.836L93.6382 56.514L93.318 56.1927L93.0402 55.8472L92.7604 55.4862L92.5087 55.1228L92.278 54.7407L92.0677 54.3502L91.8746 53.9554L91.7071 53.5424L91.5653 53.1299L91.4319 52.7217L91.3186 52.3015L91.2265 51.8705L91.1519 51.4489L91.0825 51.0272L91.0446 50.6028L91.0122 50.1848L91 49.7751L91.0122 49.36L91.0446 48.9421L91.0901 48.5075L91.1672 48.0618L91.258 47.5969L91.3729 47.126L91.5193 46.6465L91.6806 46.1594L91.8707 45.6614L92.0677 45.1638L92.3097 44.669L92.5591 44.1682L92.8387 43.6825L93.1354 43.1909L93.4572 42.7086L93.7953 42.237L94.1615 41.7703L94.5542 41.3168L94.9688 40.8776L95.3923 40.4596L95.8516 40.0516L96.329 39.6707L96.8336 39.3098L97.3474 38.9703L97.897 38.6522L98.4581 38.3712L99.0471 38.117L99.6687 37.8877L100.302 37.7002L100.957 37.5481L101.636 37.4246L102.339 37.3515L103.061 37.3111L103.127 37.3296L103.178 37.3382L103.21 37.3515L103.235 37.3747L103.248 37.3934L103.252 37.4224L103.248 37.4452L103.235 37.4784L103.156 37.5745L103.111 37.6159L102.209 37.9081L101.354 38.2655L100.558 38.6883L99.8361 39.1723L99.1647 39.7259L98.5595 40.3183L98.0011 40.9502L97.5124 41.627L97.0728 42.3371L96.6918 43.0778L96.3807 43.8354L96.1045 44.615L95.8889 45.4109L95.7483 46.2152L95.6469 47.0103L95.5912 47.816L95.6088 48.6096L95.6719 49.3821L95.7805 50.1507L95.9587 50.888L96.1872 51.5848L96.4609 52.269L96.7908 52.8941L97.173 53.4803L97.6007 54.0152L98.0878 54.4969L98.6176 54.915L99.2015 55.2672L99.8361 55.5382L100.523 55.7463L101.262 55.8545L102.042 55.8936L102.831 55.8398L103.596 55.7112L104.314 55.5067L105.002 55.2373L105.659 54.9048L106.27 54.5126L106.852 54.0623L107.416 53.5716L107.939 53.0288L108.429 52.4447L108.878 51.8181L109.317 51.1632L109.709 50.4749L110.088 49.7686L110.446 49.0406L110.762 48.2817L111.052 47.5282L111.338 46.7627L111.579 45.9755L111.801 45.21L112.006 44.4356L112.178 43.6734L112.337 42.9171L112.481 42.1935L112.593 41.4836L112.689 40.7932L112.786 40.1327L112.849 39.5131L112.892 38.9309L112.922 38.3837L112.949 37.8877V37.4372V37.2315L112.94 37.0184L112.916 36.7988L112.898 36.588L112.866 36.3684L112.84 36.148L112.791 35.9254L112.75 35.7161L112.689 35.4914L112.641 35.2732L112.578 35.0564L112.498 34.8328L112.435 34.6178L112.359 34.4025L112.277 34.1912L112.181 33.9721L112.091 33.7641L111.996 33.5569L111.897 33.3413L111.783 33.1338L111.672 32.9359L111.549 32.7404L111.433 32.5452L111.306 32.3471L111.175 32.1587L111.04 31.9812L110.899 31.7982L110.758 31.6195L110.611 31.4543L110.468 31.2903L110.307 31.1246L110.14 30.9654L110.007 30.8472L109.858 30.7325L109.703 30.6099L109.548 30.4989L109.376 30.3963L109.2 30.2918L109.013 30.1889L108.826 30.1017L108.628 30.0098L108.429 29.9219L108.22 29.8445L108.01 29.7726L107.797 29.7017L107.569 29.6333L107.341 29.5749L107.127 29.5094L106.886 29.4649L106.643 29.409L106.405 29.3556L106.164 29.3161L105.672 29.2461L105.169 29.1882L104.668 29.1351L104.161 29.1093L103.659 29.0837H103.146L99.2979 29.0633L99.2038 29.0554L99.1241 29.0478L99.0471 29.0307L98.9913 29.0174L98.9291 28.9911L98.8652 28.9612L98.8148 28.9226L98.7663 28.8858L98.7295 28.8452L98.6815 28.7913L98.6598 28.7472L98.6333 28.6985L98.6032 28.6475L98.5999 28.5972V28.5441V28.4835V28.4315V28.3822L98.6176 28.334L98.6433 28.281L98.664 28.228L98.7076 28.1787L98.7508 28.13L98.8067 28.093L98.8531 28.0596L98.9193 28.0256L98.9913 27.9845L99.063 27.9597L99.1385 27.943L99.2377 27.9268L99.3376 27.9191H99.438H116.656L117.606 28.0256L118.47 28.1934L119.272 28.4383L119.998 28.7472L120.668 29.1292L121.263 29.5715L121.806 30.0595L122.295 30.6099L122.734 31.2052L123.126 31.853L123.473 32.5452L123.79 33.273L124.057 34.0362L124.301 34.8328L124.508 35.6549L124.697 36.4976L124.852 37.3747L125 38.2655L125.142 39.1723L125.258 40.089L125.491 41.95L125.714 43.8109L125.838 44.739L125.978 45.6548L126.131 46.5482L126.306 47.4365L126.498 48.3004L126.729 49.1493L126.982 49.9614L127.266 50.7388L129.646 35.8004L129.7 35.2208L129.719 34.662L129.696 34.1406L129.636 33.6457L129.537 33.1793L129.401 32.7404L129.247 32.3392L129.066 31.9646L128.847 31.6112L128.609 31.2733L128.359 30.9654L128.096 30.6845L127.82 30.4293L127.524 30.1784L127.235 29.9588L126.926 29.7548L126.62 29.5715L126.306 29.3782L126.01 29.2186L125.714 29.0768L125.142 28.8205L124.637 28.5915L124.407 28.4946L124.205 28.4013L124.027 28.3158L123.868 28.228L123.739 28.1475L123.649 28.0655L123.591 27.9845L123.58 27.903H133.456L133.336 27.7594L133.216 27.6106L133.098 27.4611L132.994 27.2995L132.875 27.1394L132.763 26.9727L132.662 26.8079L132.562 26.6371L132.456 26.4571L132.369 26.2735L132.284 26.0865L132.2 25.8964L132.126 25.7063L132.059 25.5058L131.997 25.3018L131.944 25.0942L131.907 24.8884L131.863 24.669L131.836 24.4461L131.833 24.2238L131.826 23.9938L131.833 23.6388L131.863 23.2929L131.917 22.9535L131.989 22.6233L132.07 22.3113L132.173 22.0042L132.297 21.7133L132.431 21.426L132.578 21.1466L132.75 20.8903L132.92 20.6329L133.122 20.3977L133.324 20.1717L133.539 19.948L133.769 19.7422L134.007 19.541L134.245 19.362L134.5 19.1853L134.763 19.0265L135.035 18.8705L135.31 18.7389L135.587 18.6128L135.876 18.4953L136.172 18.3896L136.457 18.2966L136.754 18.2219L137.051 18.1497L137.35 18.0962L137.649 18.053L137.951 18.0244L138.249 18.007L138.54 18ZM141.966 22.4056L141.811 22.6391L141.557 22.3302L141.305 22.0375L141.057 21.7515L140.81 21.479L140.681 21.3442L140.553 21.2117L140.426 21.0873L140.303 20.9647L140.17 20.8493L140.04 20.7393L139.902 20.6279L139.768 20.5217L139.637 20.4259L139.488 20.3268L139.347 20.2371L139.205 20.1468L139.053 20.0737L138.896 20.001L138.741 19.9315L138.582 19.869L138.414 19.8169L138.255 19.7648L138.069 19.7303L137.892 19.6898L137.706 19.6677L137.516 19.6387L137.321 19.6287L137.119 19.6203L136.883 19.6287L136.643 19.6387L136.41 19.6723L136.187 19.7123L135.973 19.7602L135.752 19.8261L135.547 19.8933L135.339 19.978L135.147 20.0683L134.958 20.1717L134.773 20.2762L134.592 20.3882L134.421 20.5217L134.259 20.6486L134.096 20.7895L133.955 20.9266L133.815 21.0813L133.672 21.2345L133.548 21.3934L133.426 21.5499L133.324 21.7199L133.222 21.8929L133.131 22.0531L133.053 22.2279L132.978 22.4056L132.915 22.5811L132.858 22.7591L132.814 22.9358L132.779 23.1088L132.757 23.2858L132.746 23.4596V23.6314L132.757 23.9642L132.771 24.2596L132.808 24.544L132.847 24.8062L132.875 24.9319L132.899 25.0463L132.934 25.1693L132.963 25.2774L132.997 25.3852L133.03 25.4941L133.068 25.5964L133.104 25.6941L133.196 25.8875L133.291 26.0761L133.395 26.2554L133.506 26.4314L133.63 26.6099L133.762 26.796L133.901 26.9783L134.043 27.1715L134.223 27.3943L134.455 27.6603L134.666 27.903H134.923H138.223L138.214 27.943L138.205 27.9754L138.189 28.0124L138.166 28.0485L138.121 28.1169L138.058 28.1787L137.971 28.2439L137.875 28.3047L137.766 28.3652L137.64 28.4264L137.352 28.5597L137.023 28.7224L136.838 28.8082L136.64 28.9023L136.439 29.0174L136.235 29.1292L135.992 29.2914L136.272 29.5725L136.774 30.0612L137.75 30.9744L138.176 31.3686L138.637 31.782L139.113 32.2066L139.614 32.6394L140.136 33.0851L140.681 33.5463L141.244 34.0141L141.837 34.4957L141.961 34.2665L142.108 34.035L142.25 33.8056L142.41 33.5755L142.579 33.3509L142.756 33.1279L142.934 32.9061L143.12 32.6821L143.319 32.4646L143.516 32.2479L143.715 32.0343L143.928 31.8211L144.343 31.4008L144.78 30.9853L145.215 30.5861L145.648 30.1881L146.079 29.8004L146.506 29.4201L146.907 29.0566L147.29 28.7008L147.473 28.5309L147.652 28.3605L147.82 28.186L147.98 28.0222L148.278 27.7019L148.56 27.4045L148.814 27.1262L149.048 26.8526L149.148 26.7214L149.245 26.5902L149.344 26.4621L149.431 26.3346L149.517 26.2012L149.593 26.0761L149.665 25.9388L149.739 25.8087L149.803 25.6678L149.857 25.5301L149.906 25.3852L149.956 25.2374L149.999 25.0883L150.04 24.9253L150.073 24.7578L150.097 24.5865L150.124 24.4079L150.146 24.2238L150.166 24.0305L150.184 23.8243L150.187 23.6148L150.192 23.3911V23.1535V22.9115L150.187 22.6647L150.166 22.4333L150.136 22.2036L150.097 21.9917L150.043 21.7934L149.982 21.5904L149.92 21.4104L149.854 21.2345L149.761 21.0678L149.665 20.9147L149.572 20.7652L149.47 20.6279L149.358 20.4912L149.237 20.3738L149.111 20.2602L148.983 20.1468L148.846 20.0543L148.704 19.9659L148.56 19.8803L148.414 19.8044L148.256 19.7312L148.102 19.6723L147.944 19.6142L147.784 19.5609L147.621 19.5153L147.449 19.4868L147.283 19.4522L147.115 19.419L146.943 19.4011L146.779 19.3903L146.609 19.3753L146.438 19.3722H146.27L146.106 19.3753L145.949 19.3851L145.784 19.3967L145.637 19.4131L145.489 19.4404L145.336 19.4689L145.195 19.5109L145.049 19.5551L144.906 19.6079L144.762 19.6562L144.626 19.7222L144.489 19.7924L144.354 19.869L144.221 19.9499L144.086 20.0425L143.943 20.1427L143.813 20.2444L143.675 20.3609L143.546 20.4824L143.407 20.6137L143.274 20.7472L143.133 20.9023L142.994 21.056L142.854 21.2203L142.71 21.3934L142.569 21.5801L142.43 21.7686L142.275 21.9752L142.128 22.1851L141.966 22.4056Z" fill="#060000"/>
</svg>
