<svg width="450" height="123" viewBox="0 0 450 123" fill="none" xmlns="http://www.w3.org/2000/svg">
<g clip-path="url(#clip0)">
<path d="M27.7331 98.0581V91.4978H30.2979C32.1973 91.4978 34.5964 91.5742 34.5964 94.4187C34.5964 97.5713 32.3643 98.0581 29.8979 98.0581H27.7331ZM27.7331 99.8526H30.1322C33.6279 99.8526 37.3282 98.699 37.3282 94.3669C37.3282 89.8354 33.1295 89.7059 30.5646 89.7059H25.4001C25.1333 89.7059 25 89.8082 25 90.0128V106.951C25 107.157 25.1295 107.26 25.4001 107.26H27.333C27.5998 107.26 27.7331 107.157 27.7331 106.951V99.8526Z" fill="black"/>
<path d="M49.8234 106.951C49.8234 107.157 49.6939 107.26 49.4233 107.26H47.691C47.4243 107.26 47.2909 107.157 47.2909 106.951V98.1604C47.2987 97.4711 47.1013 96.7951 46.7238 96.2183C46.5567 96.0337 46.4317 95.8151 46.3574 95.5774C46.3725 95.5186 46.4015 95.4644 46.4421 95.4193C46.4827 95.3742 46.5336 95.3396 46.5905 95.3185L47.8243 94.7294C47.9249 94.6633 48.0383 94.6192 48.1571 94.5999C48.7565 94.5999 49.3223 96.1885 49.4518 96.753C50.318 96.0344 51.5233 94.5999 53.4498 94.5999C54.2163 94.5999 55.0825 94.8045 55.0825 95.0349C55.0825 95.0867 55.0164 95.1644 54.9828 95.2408L54.2487 96.5472C54.2163 96.5989 54.1826 96.7271 54.0493 96.7271C53.6957 96.5983 53.3256 96.5203 52.9501 96.4954C51.7849 96.4954 50.6196 97.8289 49.8182 98.4957L49.8234 106.951Z" fill="black"/>
<path d="M68.7209 106.03C65.655 106.03 64.7888 103.851 64.7888 100.928C64.7888 98.3908 65.6887 96.1872 68.6872 96.1872C71.6857 96.1872 72.5856 98.4944 72.5856 101.006C72.5856 103.953 71.6857 106.03 68.7209 106.03ZM75.3239 101.031C75.3239 97.4172 73.3922 94.5986 68.827 94.5986C63.9952 94.5986 62.0635 97.6218 62.0635 101.159C62.0635 104.824 63.9952 107.618 68.4943 107.618C73.3494 107.618 75.3174 104.621 75.3174 101.031H75.3239Z" fill="black"/>
<path d="M88.3513 106.951C88.3513 107.157 88.2219 107.26 87.9513 107.26H86.219C85.9522 107.26 85.8189 107.157 85.8189 106.951V96.5459H83.4884C83.2554 96.5459 83.2554 96.3672 83.2554 96.2391V95.2641C83.2554 95.0855 83.2554 94.9573 83.4884 94.9573H85.8189V92.9582C85.8189 91.0356 86.3186 88.7039 90.45 88.7039C91.983 88.7039 94.1154 89.2153 94.1154 89.6011C94.1154 89.6775 94.0157 89.7798 93.9496 89.9597L93.4823 90.8052C93.4162 90.8815 93.3528 90.9592 93.2492 90.9592C92.2991 90.7017 91.3296 90.5216 90.3504 90.4206C88.4847 90.4206 88.3513 91.4978 88.3513 92.9829V94.9573H93.1495C93.3489 94.9573 93.5159 94.9819 93.5159 95.1373C93.5159 95.1877 93.4823 95.2395 93.4823 95.3159L93.0498 96.3154C93.0045 96.3889 92.9404 96.4489 92.8642 96.4894C92.7879 96.5299 92.7023 96.5494 92.6161 96.5459H88.3513V106.951Z" fill="black"/>
<path d="M103.045 99.929C103.016 99.4308 103.092 98.9321 103.269 98.4654C103.446 97.9988 103.719 97.5749 104.072 97.2215C104.424 96.8682 104.847 96.5933 105.313 96.4151C105.78 96.2368 106.278 96.1592 106.776 96.1873C107.259 96.1736 107.739 96.2632 108.185 96.4502C108.63 96.6373 109.03 96.9173 109.358 97.2717C109.687 97.626 109.935 98.0464 110.088 98.5048C110.24 98.9631 110.293 99.4486 110.242 99.929H103.045ZM111.941 105.004C111.874 104.928 111.841 104.85 111.742 104.85C110.457 105.464 109.064 105.821 107.643 105.901C107.043 105.96 106.437 105.888 105.868 105.692C105.298 105.495 104.777 105.178 104.341 104.762C103.905 104.346 103.563 103.842 103.339 103.282C103.116 102.722 103.015 102.121 103.045 101.519H112.608C112.974 101.519 112.974 101.313 112.974 100.954C112.974 98.7534 112.474 94.5987 106.91 94.5987C106.035 94.5362 105.156 94.6609 104.333 94.9647C103.51 95.2684 102.761 95.7441 102.136 96.3602C101.511 96.9762 101.025 97.7183 100.709 98.5371C100.394 99.3559 100.257 100.232 100.307 101.108C100.307 105.004 102.905 107.592 107.337 107.618C109.797 107.618 112.601 106.567 112.601 106.285C112.601 106.208 112.534 106.155 112.502 106.08L111.941 105.004Z" fill="black"/>
<path d="M130.732 96.6494C130.603 96.854 130.533 96.9563 130.334 96.9563C129.251 96.5619 128.117 96.3286 126.967 96.2636C125.634 96.2636 124.507 96.7815 124.507 97.9558C124.507 100.776 131.904 99.9807 131.904 103.979C131.904 106.388 129.444 107.618 126.572 107.618C124.973 107.618 121.509 106.9 121.509 106.388C121.518 106.274 121.563 106.166 121.638 106.08L122.104 105.285C122.204 105.106 122.304 105.055 122.405 105.055C123.783 105.572 125.232 105.875 126.702 105.952C128.135 105.952 129.368 105.337 129.368 104.107C129.368 101.441 121.971 102.035 121.971 98.1603C121.971 96.0888 124.07 94.5986 127.002 94.5986C128.344 94.6551 129.67 94.9139 130.934 95.3664C131.201 95.47 131.301 95.5722 131.301 95.7004C131.301 95.7768 131.201 95.8545 131.171 95.9594L130.732 96.6494Z" fill="black"/>
<path d="M149.691 96.6494C149.561 96.854 149.491 96.9563 149.291 96.9563C148.209 96.5614 147.074 96.328 145.924 96.2636C144.592 96.2636 143.464 96.7815 143.464 97.9558C143.464 100.776 150.861 99.9807 150.861 103.979C150.861 106.388 148.401 107.618 145.531 107.618C143.93 107.618 140.466 106.9 140.466 106.388C140.475 106.274 140.521 106.167 140.595 106.08L141.063 105.285C141.162 105.106 141.263 105.055 141.363 105.055C142.741 105.572 144.191 105.875 145.661 105.952C147.093 105.952 148.326 105.337 148.326 104.107C148.326 101.441 140.929 102.035 140.929 98.1603C140.929 96.0888 143.028 94.5986 145.961 94.5986C147.302 94.6551 148.628 94.9139 149.893 95.3664C150.159 95.47 150.259 95.5722 150.259 95.7004C150.259 95.7768 150.159 95.8545 150.13 95.9594L149.691 96.6494Z" fill="black"/>
<path d="M164.585 106.951C164.585 107.157 164.456 107.26 164.185 107.26H162.451C162.186 107.26 162.053 107.157 162.053 106.951V96.5459H159.448C159.181 96.5459 159.049 96.4436 159.049 96.239V95.2641C159.049 95.0595 159.178 94.9573 159.448 94.9573H164.146C164.512 94.9573 164.58 95.1113 164.58 95.3457L164.585 106.951ZM163.152 92.0105C162.912 92.0742 162.661 92.082 162.418 92.0333C162.175 91.9846 161.946 91.8807 161.749 91.7295C161.553 91.5784 161.394 91.3841 161.284 91.1616C161.174 90.9392 161.117 90.6945 161.117 90.4465C161.117 90.1985 161.174 89.9538 161.284 89.7314C161.394 89.5089 161.553 89.3146 161.749 89.1635C161.946 89.0123 162.175 88.9084 162.418 88.8597C162.661 88.8109 162.912 88.8188 163.152 88.8825C163.391 88.8188 163.643 88.8109 163.886 88.8597C164.129 88.9084 164.358 89.0123 164.554 89.1635C164.751 89.3146 164.91 89.5089 165.02 89.7314C165.129 89.9538 165.186 90.1985 165.186 90.4465C165.186 90.6945 165.129 90.9392 165.02 91.1616C164.91 91.3841 164.751 91.5784 164.554 91.7295C164.358 91.8807 164.129 91.9846 163.886 92.0333C163.643 92.082 163.391 92.0742 163.152 92.0105V92.0105Z" fill="black"/>
<path d="M181.283 106.03C178.218 106.03 177.352 103.851 177.352 100.928C177.352 98.3908 178.251 96.1872 181.249 96.1872C184.248 96.1872 185.149 98.4944 185.149 101.006C185.149 103.953 184.249 106.03 181.283 106.03ZM187.886 101.031C187.886 97.4172 185.953 94.5986 181.388 94.5986C176.557 94.5986 174.624 97.6218 174.624 101.159C174.624 104.824 176.557 107.618 181.055 107.618C185.914 107.618 187.881 104.621 187.881 101.031H187.886Z" fill="black"/>
<path d="M210.104 106.951C210.104 107.157 209.975 107.26 209.704 107.26H207.972C207.705 107.26 207.572 107.157 207.572 106.951V98.3908C207.572 97.289 207.206 96.3193 205.406 96.3193C203.808 96.3519 202.264 96.9006 201.004 97.8833V106.951C201.004 107.157 200.874 107.26 200.604 107.26H198.871C198.606 107.26 198.471 107.157 198.471 106.951V98.1086C198.519 97.6013 198.475 97.0894 198.342 96.5976C198.189 96.2268 198.012 95.8669 197.81 95.5204C197.81 95.4699 197.842 95.4182 197.976 95.3418L199.475 94.7009C199.557 94.6501 199.648 94.6155 199.743 94.5986C200.341 94.5986 200.741 96.1367 200.779 96.3413C202.358 95.2485 204.223 94.6427 206.143 94.5986C209.842 94.5986 210.108 96.5977 210.108 98.4426L210.104 106.951Z" fill="black"/>
<path d="M228.536 104.44C227.456 105.335 226.133 105.889 224.737 106.03C224.431 106.062 224.122 106.03 223.829 105.935C223.536 105.841 223.266 105.686 223.037 105.48C222.808 105.275 222.624 105.024 222.498 104.743C222.372 104.462 222.306 104.158 222.304 103.851C222.304 101.159 227.069 101.159 228.536 101.132V104.44ZM231.067 98.1863C231.067 96.0332 229.772 94.5986 225.936 94.5986C223.804 94.5986 220.739 95.3418 220.739 95.7768C220.741 95.8951 220.776 96.0107 220.839 96.1109L221.271 97.0068C221.295 97.0477 221.329 97.0813 221.37 97.1041C221.412 97.1269 221.458 97.1381 221.506 97.1362C222.809 96.6519 224.18 96.375 225.57 96.3154C227.935 96.3154 228.536 97.1363 228.536 98.6213V99.5444C226.464 99.5962 219.806 99.6739 219.806 104.005C219.806 106.285 221.506 107.618 224.138 107.618C225.887 107.616 227.582 107.01 228.935 105.901C229.102 106.26 229.702 107.618 230.201 107.618C230.294 107.608 230.384 107.582 230.468 107.542L231.762 106.927C231.892 106.875 232.063 106.823 232.063 106.721C232.063 106.567 231.595 106.08 231.462 105.773C231.104 104.969 230.965 104.085 231.062 103.21L231.067 98.1863Z" fill="black"/>
<path d="M248.56 106.797C248.597 106.851 248.62 106.913 248.627 106.977C248.627 107.26 247.027 107.625 245.794 107.625C245.211 107.702 244.617 107.63 244.069 107.415C243.521 107.2 243.037 106.849 242.663 106.395C242.276 105.196 242.118 103.935 242.196 102.678V89.3693C242.19 89.2983 242.21 89.2273 242.253 89.1705C242.296 89.1137 242.359 89.0752 242.429 89.0625L244.096 88.7544C244.227 88.7268 244.36 88.7099 244.494 88.7039C244.729 88.7039 244.729 88.9084 244.729 89.0366V102.723C244.717 103.527 244.751 104.332 244.829 105.132C244.908 105.416 245.086 105.662 245.33 105.827C245.574 105.991 245.869 106.063 246.162 106.03C246.75 105.982 247.33 105.87 247.893 105.696C248.094 105.696 248.094 105.773 248.127 105.85L248.56 106.797Z" fill="black"/>
<path d="M276.114 98.0581V91.4978H278.68C280.579 91.4978 282.978 91.5742 282.978 94.4187C282.978 97.5713 280.745 98.0581 278.28 98.0581H276.114ZM276.114 99.8526H278.513C282.008 99.8526 285.71 98.699 285.71 94.3669C285.71 89.8354 281.511 89.7059 278.946 89.7059H273.782C273.515 89.7059 273.382 89.8082 273.382 90.0128V106.951C273.382 107.157 273.511 107.26 273.782 107.26H275.712C275.971 107.26 276.111 107.157 276.111 106.951L276.114 99.8526Z" fill="black"/>
<path d="M298.204 106.951C298.204 107.157 298.074 107.26 297.805 107.26H296.072C295.813 107.26 295.673 107.157 295.673 106.951V98.1604C295.681 97.4711 295.483 96.7951 295.106 96.2183C294.939 96.0337 294.814 95.8151 294.739 95.5774C294.754 95.5186 294.783 95.4644 294.824 95.4193C294.865 95.3742 294.915 95.3396 294.972 95.3185L296.205 94.7294C296.306 94.663 296.42 94.6189 296.539 94.5999C297.138 94.5999 297.704 96.1885 297.834 96.753C298.7 96.0344 299.899 94.5999 301.83 94.5999C302.597 94.5999 303.464 94.8045 303.464 95.0349C303.464 95.0867 303.397 95.1644 303.365 95.2408L302.63 96.5472C302.597 96.5989 302.564 96.7271 302.431 96.7271C302.077 96.5984 301.707 96.5204 301.332 96.4954C300.167 96.4954 299.001 97.8289 298.199 98.4957L298.204 106.951Z" fill="black"/>
<path d="M317.103 106.03C314.037 106.03 313.171 103.851 313.171 100.928C313.171 98.3908 314.077 96.1872 317.069 96.1872C320.061 96.1872 320.968 98.4944 320.968 101.006C320.968 103.953 320.068 106.03 317.103 106.03ZM323.706 101.031C323.706 97.4172 321.773 94.5986 317.209 94.5986C312.377 94.5986 310.446 97.6218 310.446 101.159C310.446 104.824 312.377 107.618 316.875 107.618C321.734 107.618 323.699 104.621 323.699 101.031H323.706Z" fill="black"/>
<path d="M342.758 104.389C341.569 105.213 340.196 105.732 338.759 105.901C336.061 105.901 335.827 103.466 335.827 101.313C335.827 98.8272 336.094 96.3154 338.959 96.3154C340.271 96.3206 341.567 96.609 342.758 97.1609V104.389ZM345.29 89.0366C345.29 88.9071 345.29 88.7039 345.023 88.7039C344.889 88.7099 344.755 88.7268 344.623 88.7544L342.991 89.0625C342.921 89.0754 342.858 89.114 342.815 89.1708C342.772 89.2276 342.751 89.2984 342.758 89.3693V95.47C341.485 94.8448 340.077 94.5455 338.66 94.5987C334.795 94.5987 333.093 97.6736 333.093 101.365C333.093 104.543 334.725 107.618 338.291 107.618C340.032 107.578 341.728 107.055 343.189 106.106C343.318 106.516 343.921 107.618 344.388 107.618C344.48 107.608 344.57 107.582 344.654 107.542L345.949 106.927C346.078 106.875 346.249 106.823 346.249 106.721C346.249 106.567 345.816 106.08 345.649 105.773C345.309 104.964 345.183 104.082 345.282 103.21L345.29 89.0366Z" fill="black"/>
<path d="M364.954 95.2641C364.947 95.193 364.968 95.1221 365.011 95.0653C365.054 95.0085 365.117 94.9699 365.187 94.9572L366.853 94.6491C366.985 94.6222 367.119 94.6054 367.253 94.5986C367.486 94.5986 367.486 94.8032 367.486 94.9314V104.055C367.442 104.643 367.569 105.231 367.853 105.747C368.1 106.047 368.312 106.374 368.486 106.721C368.486 106.823 368.32 106.875 368.187 106.927L366.892 107.542C366.808 107.582 366.718 107.608 366.626 107.618C366.126 107.618 365.759 106.695 365.392 106.106C364.011 107.015 362.412 107.537 360.76 107.618C356.263 107.618 355.896 105.619 355.896 103.773V95.2641C355.89 95.193 355.91 95.1221 355.953 95.0653C355.996 95.0085 356.059 94.9699 356.129 94.9572L357.796 94.6491C357.928 94.6222 358.061 94.6054 358.196 94.5986C358.429 94.5986 358.429 94.8032 358.429 94.9314V103.825C358.429 104.928 358.996 105.896 361.161 105.896C362.505 105.733 363.799 105.288 364.959 104.589L364.954 95.2641Z" fill="black"/>
<path d="M388.783 106.08C388.817 106.158 388.883 106.21 388.883 106.285C388.883 106.567 386.085 107.618 383.619 107.618C379.654 107.618 377.355 105.235 377.355 101.493C377.355 97.2126 380.021 94.5986 384.118 94.5986C386.35 94.5986 388.916 95.8027 388.916 96.1872C388.916 96.2636 388.85 96.3167 388.817 96.3918L388.05 97.469C387.984 97.5454 387.951 97.6218 387.851 97.6218C386.822 96.8584 385.597 96.4052 384.319 96.3154C381.054 96.3154 380.087 98.1862 380.087 101.106C380.087 103.436 380.686 105.896 383.919 105.896C385.34 105.816 386.732 105.459 388.017 104.845C388.118 104.845 388.146 104.923 388.217 104.999L388.783 106.08Z" fill="black"/>
<path d="M407.342 106.311C407.377 106.393 407.399 106.48 407.409 106.569C407.409 106.902 404.91 107.621 403.11 107.621C401.994 107.69 400.889 107.373 399.978 106.724C399.603 106.35 399.319 105.893 399.152 105.39C398.984 104.887 398.936 104.352 399.013 103.827V96.5484H396.509C396.276 96.5484 396.276 96.3698 396.276 96.2416V95.2667C396.276 95.088 396.276 94.9599 396.509 94.9599H399.009V91.4486C399.009 91.2945 399.138 91.1897 399.374 91.1405L401.141 90.7521C401.241 90.7521 401.307 90.7261 401.374 90.7261C401.54 90.7261 401.54 90.8556 401.54 91.0084V94.9559H406.478C406.679 94.9559 406.844 94.9806 406.844 95.1359C406.844 95.1864 406.812 95.2382 406.812 95.3146L406.378 96.3141C406.333 96.3875 406.269 96.4475 406.193 96.488C406.116 96.5285 406.031 96.5481 405.945 96.5446H401.543V103.823C401.543 104.849 401.542 105.895 403.543 105.895C404.635 105.807 405.71 105.574 406.741 105.202C406.87 105.202 406.974 105.279 406.974 105.356L407.342 106.311Z" fill="black"/>
<path d="M423.835 96.6494C423.705 96.854 423.634 96.9563 423.435 96.9563C422.353 96.5616 421.218 96.3282 420.068 96.2636C418.736 96.2636 417.608 96.7815 417.608 97.9558C417.608 100.776 425.004 99.9807 425.004 103.979C425.004 106.388 422.544 107.618 419.674 107.618C418.073 107.618 414.609 106.9 414.609 106.388C414.618 106.274 414.663 106.166 414.738 106.08L415.204 105.285C415.305 105.106 415.405 105.055 415.505 105.055C416.883 105.572 418.333 105.875 419.803 105.952C421.235 105.952 422.468 105.337 422.468 104.107C422.468 101.441 415.071 102.035 415.071 98.1603C415.071 96.0888 417.171 94.5986 420.102 94.5986C421.444 94.6551 422.77 94.9139 424.034 95.3664C424.301 95.47 424.401 95.5722 424.401 95.7004C424.401 95.7768 424.301 95.8545 424.271 95.9594L423.835 96.6494Z" fill="black"/>
<path d="M236.474 62.543H272.821V58.0607H242.677V43.8991H265.347V39.3547H242.677V26.3274H272.821V21.77H236.474V62.543Z" fill="black"/>
<path d="M255.374 15.3185L250.397 20.8507L265.908 15.3185H255.374Z" fill="black"/>
<path d="M333.81 58.0659V21.77H328.148V62.5533H364.857V58.071L333.81 58.0659Z" fill="black"/>
<path d="M296.333 21.7713L275.684 62.543H282.704L287.954 52.0105H312.715L318.106 62.543H324.997L304.282 21.7661L296.333 21.7713ZM290.602 46.8679L300.344 27.5341L310.197 46.8679H290.602Z" fill="black"/>
<path d="M216.737 45.5681C226.05 43.0563 226.965 36.1465 226.923 33.6464C226.36 26.4077 221.513 21.7714 212.718 21.7714H187.044V62.543H192.931V45.5124H209.59L221.871 62.5482H229.232C229.232 62.5482 220.417 51.0499 216.737 45.5681ZM211.917 40.6547H192.931V26.7145H212.59C217.058 26.7145 219.627 28.8016 220.558 31.4687C220.832 32.4641 220.903 33.5046 220.766 34.528C220.628 35.5513 220.286 36.5364 219.759 37.4244C218.098 40.0721 214.952 40.6547 211.917 40.6547Z" fill="black"/>
<path d="M151.938 15C135.472 15 124.311 26.6459 124.311 40.6728C124.311 55.4907 136.661 65.9196 151.938 65.9196C167.306 65.9196 179.654 55.6033 179.654 40.6728C179.653 26.6459 168.353 15 151.938 15ZM151.745 60.9168C147.733 60.7533 143.857 59.4116 140.603 57.0591C137.348 54.7066 134.858 51.4475 133.444 47.6888C132.03 43.93 131.755 39.8381 132.652 35.9237C133.55 32.0094 135.58 28.446 138.49 25.6785C141.4 22.911 145.061 21.062 149.015 20.3622C152.97 19.6624 157.043 20.1429 160.726 21.7437C164.409 23.3445 167.539 25.9946 169.725 29.3633C171.911 32.732 173.057 36.67 173.019 40.6857C173.017 51.7477 163.163 60.9168 151.744 60.9168H151.745Z" fill="black"/>
<path d="M109.539 36.2889H113.799L121.437 21.77H115.311L109.539 36.2889Z" fill="black"/>
<path d="M88.9584 58.0659V21.77H83.3472V62.5533H120.009V58.071L88.9584 58.0659Z" fill="black"/>
</g>
<defs>
<clipPath id="clip0">
<rect width="400" height="92.6182" fill="white" transform="translate(25 15)"/>
</clipPath>
</defs>
</svg>
