<svg width="305" height="88" viewBox="0 0 305 88" fill="none" xmlns="http://www.w3.org/2000/svg">
<path fill-rule="evenodd" clip-rule="evenodd" d="M79.2188 28.275H86.1088C90.6479 28.275 93.5409 30.0849 93.5409 32.9285C93.5409 35.7468 90.6699 37.511 86.1088 37.511H82.3802V44.5146H79.2188V28.275ZM82.3802 35.4592H85.7828C88.9335 35.4592 90.16 34.7283 90.16 32.9285C90.16 31.1511 88.839 30.372 85.7828 30.372H82.3802V35.4592ZM115.695 38.6899C115.695 42.5034 112.293 44.7419 105.866 44.7419C102.705 44.7419 96.6379 44.0256 96.6379 37.6718V28.271H99.8049V37.576C99.8049 40.6565 101.548 42.5739 105.981 42.5739C110.463 42.5739 112.617 41.2464 112.617 38.6417V28.271H115.695V38.6899ZM137.404 44.5146H133.558L128.333 38.7421C127.296 37.576 126.232 37.2909 123.554 37.267V44.5146H120.392V28.275H126.811C130.989 28.275 133.838 29.9429 133.838 32.3609C133.838 34.8206 132.702 35.9107 129.668 36.7689C130.827 37.3132 130.272 36.6477 137.404 44.5146ZM123.554 35.3182C127.526 35.3182 130.572 35.2487 130.572 32.786C130.572 31.174 130.272 30.2487 125.263 30.2487C125.031 30.2487 123.784 30.2746 123.554 30.2746V35.3182ZM138.688 44.5111V28.275H152.038V30.372H141.851V35.2766H151.74V37.3736H141.851V42.4156H152.364V44.5111H138.688ZM178.8 36.4139C178.8 41.1044 173.449 44.7865 166.968 44.7865C160.561 44.7865 155.12 40.9365 155.12 36.4407C155.12 31.8456 160.468 28.0453 166.92 28.0453C173.518 28.0453 178.8 31.774 178.8 36.4139ZM167.199 30.2376C162.41 30.2376 158.548 32.9833 158.548 36.3697C158.548 39.7784 162.387 42.5967 166.943 42.5967C171.571 42.5967 175.37 39.8028 175.37 36.3697C175.37 32.6739 170.854 30.2376 167.199 30.2376ZM182.428 44.5111V28.271H185.612V42.4156H196.105V44.5111H182.428ZM221.154 36.4139C221.154 41.1044 215.804 44.7865 209.324 44.7865C202.917 44.7865 197.477 40.9365 197.477 36.4407C197.477 31.8456 202.822 28.0453 209.281 28.0453C215.874 28.0453 221.154 31.774 221.154 36.4139ZM209.554 30.2376C204.768 30.2376 200.904 32.9833 200.904 36.3697C200.904 39.7784 204.743 42.5967 209.298 42.5967C213.93 42.5967 217.726 39.8028 217.726 36.3697C217.726 32.6739 213.21 30.2376 209.554 30.2376ZM235.462 44.7865C228.787 44.7865 223.439 41.0466 223.439 36.4128C223.439 31.7335 228.882 28.0006 235.69 28.0006C236.702 28.0006 238.481 27.9281 243.299 29.357V31.876C239.966 30.6667 237.928 30.2132 235.599 30.2132C230.483 30.2132 226.866 33.3714 226.866 36.4595C226.866 39.8951 230.643 42.5739 235.462 42.5739C236.381 42.5739 237.532 42.5485 240.29 41.8693V38.7462H236.106V36.5539H243.506V43.3804C240.752 44.1672 238.368 44.7865 235.462 44.7865ZM256.129 36.5001V44.5146H252.89V36.4027L244.452 28.271H248.178L254.557 34.4533L261.201 28.271H265L256.129 36.5001ZM85.5038 54.3629C84.9507 54.2274 84.4807 54.1696 84.085 54.1696C83.4819 54.1696 83.0263 54.4212 83.0263 54.7433C83.0263 55.1085 83.4968 55.42 84.5233 55.7999L84.8369 55.9171C84.8799 55.9338 84.964 55.9597 85.108 56.0084C85.1758 56.0343 85.2633 56.0667 85.3182 56.0794L85.4751 56.1398L85.5606 56.1651C86.7608 56.608 87.4756 57.2258 87.4756 57.9151C87.4756 59.13 86.2028 59.9355 84.2685 59.9355C83.7832 59.9355 83.2841 59.8878 82.7691 59.8036C82.1839 59.7012 81.846 59.5992 81.0767 59.3202V57.9151C81.8168 58.2383 82.1571 58.3711 82.6118 58.504C83.1846 58.679 83.6689 58.7546 84.124 58.7546C84.9368 58.7546 85.5038 58.4604 85.5038 58.0196C85.5038 57.8441 85.3915 57.6955 85.2059 57.5616C85.0209 57.4307 84.3808 57.1507 83.7832 56.9336L83.5121 56.8296C82.54 56.4771 82.2981 56.3741 81.9306 56.0926C81.475 55.7558 81.1905 55.2424 81.1905 54.756C81.1905 53.6761 82.3263 53.0065 84.1666 53.0065C84.6093 53.0065 85.0635 53.046 85.5038 53.1191C86.0479 53.2246 86.3329 53.3098 87.0343 53.5584V54.8453C86.278 54.5825 85.9609 54.4618 85.5038 54.3629ZM98.8849 56.679H92.1259C92.3259 57.9425 93.3569 58.6922 94.8709 58.6922C96.8539 58.6922 98.4269 57.8847 98.7279 57.7381V59.0549C98.1269 59.3136 97.1299 59.9127 94.8579 59.9127C92.0839 59.9127 90.2249 58.4843 90.2249 56.3264C90.2249 54.3958 92.0549 53.0283 94.6549 53.0283C96.4119 53.0283 98.8569 53.6532 98.8849 56.679ZM96.8829 55.7654C96.67 54.6997 95.8849 54.1615 94.5709 54.1615C93.8269 54.1615 92.7549 54.2645 92.1259 55.7654H96.8829ZM107.75 54.8493C107.051 54.4836 106.577 54.3517 106.08 54.3517C105.593 54.3517 105.179 54.4958 104.79 54.791C104.621 54.9224 104.476 55.0832 104.376 55.244C104.322 55.3317 104.236 55.4484 104.177 55.5514C104.048 55.7893 103.992 55.9348 103.992 56.0226V59.7752H102.223V53.1729H103.992V54.5855C105.077 53.4194 105.692 53.0724 106.591 53.0724C107.22 53.0724 107.793 53.2464 108.734 53.7126L107.75 54.8493ZM111.345 59.7747V53.1708H113.123V59.7747H111.345ZM112.225 51.9418C111.642 51.9418 111.23 51.6521 111.23 51.2423C111.23 50.8055 111.63 50.5144 112.225 50.5144C112.824 50.5144 113.238 50.8055 113.238 51.2149V51.2281C113.238 51.6648 112.824 51.9418 112.225 51.9418ZM126.104 56.4213C126.104 58.3783 123.904 59.8878 121.297 59.8878C118.705 59.8878 116.494 58.3047 116.494 56.4512C116.494 54.5698 118.69 53.0283 121.354 53.0283C123.862 53.0283 126.104 54.6003 126.104 56.4213ZM121.297 54.2756C119.707 54.2756 118.359 55.2881 118.359 56.4654C118.359 57.624 119.748 58.6684 121.311 58.6684C122.891 58.6684 124.189 57.6696 124.189 56.4512C124.189 55.3175 122.891 54.2756 121.297 54.2756ZM135.286 59.7651V58.9646C134.358 59.5444 133.674 59.7488 132.933 59.8376L132.662 59.866H132.43C132.401 59.866 132.361 59.8518 132.304 59.8518C132.23 59.8518 132.187 59.8518 132.159 59.8518H132.03C130.529 59.8518 129.345 58.8333 129.345 57.5438V53.1622H131.144V57.1908C131.144 58.2464 131.76 58.7724 132.989 58.7724C133.86 58.7724 134.543 58.5238 135.286 57.9096V53.1622H137.059V59.7651H135.286ZM144.782 54.3629C144.228 54.2274 143.759 54.1696 143.359 54.1696C142.762 54.1696 142.304 54.4212 142.304 54.7433C142.304 55.1085 142.775 55.42 143.802 55.7999L144.116 55.9171C144.158 55.9338 144.24 55.9597 144.383 56.0084C144.456 56.0343 144.54 56.0667 144.597 56.0794L144.754 56.1398L144.838 56.1651C146.039 56.608 146.755 57.2258 146.755 57.9151C146.755 59.13 145.481 59.9355 143.545 59.9355C143.06 59.9355 142.561 59.8878 142.047 59.8036C141.463 59.7012 141.124 59.5992 140.357 59.3202V57.9151C141.095 58.2383 141.434 58.3711 141.89 58.504C142.461 58.679 142.946 58.7546 143.404 58.7546C144.213 58.7546 144.782 58.4604 144.782 58.0196C144.782 57.8441 144.669 57.6955 144.483 57.5616C144.298 57.4307 143.659 57.1507 143.06 56.9336L142.789 56.8296C141.819 56.4771 141.577 56.3741 141.207 56.0926C140.753 55.7558 140.467 55.2424 140.467 54.756C140.467 53.6761 141.605 53.0065 143.447 53.0065C143.887 53.0065 144.342 53.046 144.782 53.1191C145.324 53.2246 145.609 53.3098 146.31 53.5584V54.8453C145.553 54.5825 145.238 54.4618 144.782 54.3629ZM161.241 59.9127C158.725 59.9127 156.26 58.6628 156.26 56.4837C156.26 54.5698 158.481 53.0283 161.196 53.0283C161.399 53.0283 162.027 52.9537 163.785 53.4194V54.8194C162.726 54.4075 162.054 54.2903 161.284 54.2903C159.497 54.2903 158.155 55.2328 158.155 56.4548C158.155 57.765 159.485 58.6745 161.385 58.6745C162.156 58.6745 162.84 58.5903 163.942 58.2205V59.549C163.026 59.7818 162.184 59.9127 161.241 59.9127ZM176.294 56.4213C176.294 58.3783 174.094 59.8878 171.487 59.8878C168.894 59.8878 166.684 58.3047 166.684 56.4512C166.684 54.5698 168.882 53.0283 171.545 53.0283C174.052 53.0283 176.294 54.6003 176.294 56.4213ZM171.487 54.2756C169.897 54.2756 168.551 55.2881 168.551 56.4654C168.551 57.624 169.94 58.6684 171.502 58.6684C173.085 58.6684 174.381 57.6696 174.381 56.4512C174.381 55.3175 173.085 54.2756 171.487 54.2756ZM179.653 59.7752V49.755H181.437V59.7752H179.653ZM194.411 56.4213C194.411 58.3783 192.213 59.8878 189.606 59.8878C187.009 59.8878 184.801 58.3047 184.801 56.4512C184.801 54.5698 186.996 53.0283 189.663 53.0283C192.167 53.0283 194.411 54.6003 194.411 56.4213ZM189.606 54.2756C188.013 54.2756 186.668 55.2881 186.668 56.4654C186.668 57.624 188.057 58.6684 189.616 58.6684C191.199 58.6684 192.495 57.6696 192.495 56.4512C192.495 55.3175 191.199 54.2756 189.606 54.2756ZM203.593 59.7651V58.9646C202.666 59.5444 201.982 59.7488 201.24 59.8376L200.969 59.866H200.74C200.712 59.866 200.669 59.8518 200.61 59.8518C200.541 59.8518 200.498 59.8518 200.466 59.8518H200.341C198.835 59.8518 197.652 58.8333 197.652 57.5438V53.1622H199.454V57.1908C199.454 58.2464 200.067 58.7724 201.297 58.7724C202.167 58.7724 202.852 58.5238 203.593 57.9096V53.1622H205.365V59.7651H203.593ZM214.833 54.8493C214.134 54.4836 213.66 54.3517 213.164 54.3517C212.676 54.3517 212.262 54.4958 211.878 54.791C211.702 54.9224 211.564 55.0832 211.459 55.244C211.402 55.3317 211.316 55.4484 211.26 55.5514C211.132 55.7893 211.074 55.9348 211.074 56.0226V59.7752H209.306V53.1729H211.074V54.5855C212.163 53.4194 212.775 53.0724 213.674 53.0724C214.306 53.0724 214.876 53.2464 215.821 53.7126L214.833 54.8493ZM229.507 59.9127C226.993 59.9127 224.529 58.6628 224.529 56.4837C224.529 54.5698 226.748 53.0283 229.461 53.0283C229.664 53.0283 230.292 52.9537 232.05 53.4194V54.8194C230.991 54.4075 230.319 54.2903 229.55 54.2903C227.763 54.2903 226.418 55.2328 226.418 56.4548C226.418 57.765 227.75 58.6745 229.65 58.6745C230.42 58.6745 231.104 58.5903 232.207 58.2205V59.549C231.29 59.7818 230.449 59.9127 229.507 59.9127ZM243.15 59.2994C242.434 59.6799 241.606 59.9127 241.037 59.9127C240.408 59.9127 240.133 59.7214 240.005 59.2411C238.882 59.7529 238.314 59.8954 237.442 59.8954C235.855 59.8954 234.82 59.2558 234.82 58.2722C234.82 57.4013 235.94 56.6206 237.844 56.1641L239.977 55.6487V55.4124C239.977 54.6003 239.452 54.234 238.314 54.234C237.342 54.234 236.41 54.4689 235.145 55.1603V53.8693C236.283 53.288 237.384 53.0283 238.514 53.0283C239.635 53.0283 241.806 53.0689 241.806 55.3829V58.2144C241.806 58.6121 241.949 58.8333 242.205 58.8333C242.394 58.8333 242.647 58.745 243.15 58.4949V59.2994ZM239.977 58.4366V56.473C238.244 56.8413 236.756 57.3744 236.756 58.1251C236.756 58.6288 237.255 58.921 238.154 58.921C238.809 58.921 239.31 58.7912 239.977 58.4366ZM251.409 54.8493C250.709 54.4836 250.236 54.3517 249.736 54.3517C249.251 54.3517 248.834 54.4958 248.45 54.791C248.277 54.9224 248.135 55.0832 248.035 55.244C247.978 55.3317 247.893 55.4484 247.836 55.5514C247.707 55.7893 247.65 55.9348 247.65 56.0226V59.7752H245.882V53.1729H247.65V54.5855C248.737 53.4194 249.351 53.0724 250.25 53.0724C250.881 53.0724 251.451 53.2464 252.393 53.7126L251.409 54.8493ZM263.002 56.679H256.244C256.444 57.9425 257.475 58.6922 258.987 58.6922C260.972 58.6922 262.546 57.8847 262.845 57.7381V59.0549C262.246 59.3136 261.248 59.9127 258.972 59.9127C256.202 59.9127 254.343 58.4843 254.343 56.3264C254.343 54.3958 256.173 53.0283 258.772 53.0283C260.53 53.0283 262.974 53.6532 263.002 56.679ZM261.001 55.7654C260.787 54.6997 260.003 54.1615 258.686 54.1615C257.945 54.1615 256.872 54.2645 256.244 55.7654H261.001Z" fill="black"/>
<path fill-rule="evenodd" clip-rule="evenodd" d="M55.4372 30.8416C58.9396 34.4344 58.9396 40.2556 55.4372 43.8439C51.9372 47.4347 46.2581 47.4347 42.7562 43.8439C39.2537 40.2556 39.2537 34.4344 42.7596 30.8441C46.2606 27.2523 51.9362 27.2523 55.4372 30.8416Z" fill="#A7A9AD"/>
<path fill-rule="evenodd" clip-rule="evenodd" d="M68.0935 43.8666C71.5955 47.4584 71.5955 53.2847 68.0935 56.8694C64.593 60.4663 58.9125 60.4663 55.41 56.8694C51.9076 53.2847 51.9105 47.4584 55.41 43.8666C58.9144 40.2788 64.593 40.2788 68.0935 43.8666Z" fill="#939598"/>
<path fill-rule="evenodd" clip-rule="evenodd" d="M42.6261 43.9292C46.128 40.342 51.8096 40.342 55.3076 43.9292C58.8155 47.5211 58.8155 53.3473 55.3076 56.9366C51.8096 60.5279 46.1315 60.5279 42.6261 56.9326C39.1246 53.3438 39.1246 47.5226 42.6261 43.9292Z" fill="#6D6E70"/>
<path fill-rule="evenodd" clip-rule="evenodd" d="M55.3294 30.9578C58.8319 27.3644 64.512 27.3644 68.0159 30.9532C71.5144 34.5451 71.5144 40.3708 68.0159 43.9652C64.512 47.5535 58.8339 47.5504 55.3294 43.9586C51.83 40.3678 51.83 34.5451 55.3294 30.9578Z" fill="#BBBDC0"/>
<path fill-rule="evenodd" clip-rule="evenodd" d="M55.4481 30.8442C55.41 30.8797 55.3705 30.9102 55.3319 30.9487C51.8344 34.538 51.8344 40.3557 55.3269 43.9465C55.366 43.9084 55.4061 43.8775 55.4432 43.8384C58.9422 40.2517 58.9422 34.4345 55.4481 30.8442Z" fill="#58595B"/>
<path fill-rule="evenodd" clip-rule="evenodd" d="M42.7393 43.8376C42.7462 43.8386 42.7536 43.8441 42.7595 43.8543C46.2244 47.405 51.8189 47.435 55.3293 43.9552C55.3253 43.9532 55.3233 43.942 55.3139 43.9385C51.8486 40.3837 46.2521 40.3517 42.7393 43.8376Z" fill="#58595B"/>
<path fill-rule="evenodd" clip-rule="evenodd" d="M55.4041 43.8632C55.3735 43.8957 55.3517 43.9261 55.3235 43.953C55.3255 43.953 55.3255 43.953 55.3255 43.953C58.8259 47.5449 64.5026 47.5449 68.004 43.9551C68.0322 43.9282 68.0584 43.8957 68.0851 43.8632C68.0851 43.8632 68.0851 43.8632 68.0851 43.8622C64.5807 40.2684 58.9046 40.275 55.4041 43.8632Z" fill="#58595B"/>
<path fill-rule="evenodd" clip-rule="evenodd" d="M55.3883 56.8468C58.7943 53.259 58.7814 47.521 55.3294 43.9551C51.918 47.5449 51.9309 53.2844 55.3883 56.8468Z" fill="#58595B"/>
</svg>
