<svg width="305" height="88" viewBox="0 0 305 88" fill="none" xmlns="http://www.w3.org/2000/svg">
<path d="M16 54.352V53.716H17.7001V34.8806H16V34.2324H24.2558C29.0258 34.2324 30.7014 36.5562 30.7014 39.088C30.7014 41.9011 28.5488 43.858 24.4515 44.1149L31.2029 53.7038H32.5972V54.3398H28.084L20.8801 44.1149H20.77V53.7038H22.9349V54.3398H16V54.352ZM20.77 43.6623H22.4456C25.8213 43.6623 27.4725 41.9745 27.4725 39.1002C27.4725 37.0577 26.4818 34.8806 23.3507 34.8806H20.7578V43.6623H20.77Z" fill="black"/>
<path d="M38.5045 54.352V53.716H40.1434L46.7236 34H48.5338L54.7837 53.716H55.9089V54.352H49.6101V53.716H51.7138L49.3899 46.2797H43.3968L40.9262 53.716H43.6537V54.352H38.5045ZM43.617 45.6437H49.2065L46.5035 37.1311H46.4423L43.617 45.6437Z" fill="black"/>
<path d="M69.0696 53.716H73.2647C75.1483 53.716 75.6864 53.3613 77.3865 46.2797H78.0103V54.352H64.2996V53.716H65.9996V34.8806H64.2996V34.2324H71.9071V34.8806H69.0696V53.716Z" fill="black"/>
<path d="M87.9049 54.352V53.716H89.605V34.8806H87.9049V34.2324H96.0506C100.564 34.2324 102.998 36.4462 102.998 39.4916C102.998 42.5493 100.735 44.5796 96.0751 44.5796H92.6627V53.7038H95.2801V54.3398H87.9049V54.352ZM92.6749 43.9559H95.3412C98.4112 43.9559 99.7688 42.9896 99.7688 39.5039C99.7688 36.7764 98.5579 34.8806 95.5981 34.8806H92.6749V43.9559Z" fill="black"/>
<path d="M116.317 44.2372V53.716H118.201V54.352H111.559V53.716H113.259V34.8806H111.559V34.2324H118.201V34.8806H116.317V43.6012H123.839V34.8806H121.968V34.2324H128.609V34.8806H126.909V53.716H128.609V54.352H121.968V53.716H123.839V44.2372H116.317Z" fill="black"/>
<path d="M157.266 53.716H161.473C163.344 53.716 163.882 53.3613 165.583 46.2797H166.206V54.352H152.496V53.716H154.196V34.8806H152.496V34.2324H160.103V34.8806H157.266V53.716Z" fill="black"/>
<path d="M173.948 54.352V53.716H175.599L182.18 34H183.99L190.24 53.716H191.377V54.352H185.078V53.716H187.182L184.858 46.2797H178.865L176.394 53.716H179.122V54.352H173.948ZM179.061 45.6437H184.65L181.947 37.1311H181.886L179.061 45.6437Z" fill="black"/>
<path d="M206.213 34.2324V34.8806H204.171V49.5086C204.171 53.0556 206.128 54.193 207.925 54.193C210.628 54.193 212.524 52.334 212.524 49.313V34.8806H209.968V34.2324H215.019V34.8806H213.319V49.3252C213.319 52.6887 211.13 54.8168 207.815 54.8168C203.217 54.8168 201.113 52.8354 201.113 48.8237V34.8806H199.401V34.2324H206.213Z" fill="black"/>
<path d="M223.899 54.352V53.716H225.599V34.8806H223.899V34.2324H232.155C236.925 34.2324 238.6 36.5562 238.6 39.088C238.6 41.9011 236.448 43.858 232.35 44.1149L239.102 53.7038H240.496V54.3398H235.983L228.767 44.1149H228.657V53.7038H230.809V54.3398H223.899V54.352ZM228.657 43.6623H230.332C233.708 43.6623 235.359 41.9745 235.359 39.1002C235.359 37.0577 234.368 34.8806 231.25 34.8806H228.669V43.6623H228.657Z" fill="black"/>
<path d="M248.043 54.352V53.716H249.755V34.8806H248.043V34.2324H262.463V40.6902H261.839C260.31 35.2598 259.858 34.8806 258.427 34.8806H252.813V43.6012H255.027C256.458 43.6012 257.13 42.6961 257.705 39.5895H258.329V48.2489H257.705C257.143 45.1423 256.458 44.2372 255.027 44.2372H252.813V53.716H257.803C259.821 53.716 260.42 52.9333 262.096 46.9157H262.72V54.352H248.043Z" fill="black"/>
<path d="M274.913 35.4677H274.852V53.7283H277.237V54.3643H272.186V53.7283H274.057V34.8928H272.186V34.2446H277.641L285.982 48.7748H286.044V34.8806H283.769V34.2324H288.71V34.8806H286.839V54.352H285.872L274.913 35.4677Z" fill="black"/>
</svg>
