<svg width="305" height="88" viewBox="0 0 305 88" fill="none" xmlns="http://www.w3.org/2000/svg">
<path d="M77.0642 41.4181V57.0262H74.0321C74.0321 57.0262 74.0084 42.6094 74.0321 42.5657C73.8941 39.7665 71.2398 37.3894 67.561 37.5629C58.5067 37.9878 58.3798 44.2542 58.3798 44.2542V57.0262H55.3464V30H58.3812V38.757C58.3812 38.757 60.91 35.067 67.7575 34.8006C73.8621 34.5615 76.8607 38.7077 77.0642 41.4181ZM79.7435 35.5369H82.7714V51.2543C82.7714 51.6805 84.3424 55.1669 89.9074 55.0098C95.7689 54.8458 98.3474 50.548 98.4465 48.8008V35.5369H101.471V57.0208H98.4465V54.033C98.4465 54.033 95.6066 57.3472 89.6384 57.7298C83.6677 58.1123 79.94 54.4347 79.7449 50.9879V35.5369H79.7435ZM118.018 35.5369H121.042V51.2543C121.042 51.6805 122.613 55.1669 128.179 55.0098C134.04 54.8458 136.617 50.548 136.717 48.8008V35.5369H139.743V57.0208H136.717V54.033C136.717 54.033 133.878 57.3472 127.907 57.7298C121.937 58.1123 118.21 54.4347 118.018 50.9879V35.5369ZM208.343 35.5369H211.368V51.2543C211.368 51.6805 212.939 55.1669 218.504 55.0098C224.366 54.8458 226.942 50.548 227.042 48.8008V35.5369H230.065V57.0208H227.042V54.033C227.042 54.033 224.202 57.3472 218.232 57.7298C212.261 58.1123 208.536 54.4347 208.343 50.9879V35.5369ZM163.389 44.5343H145.346C145.346 44.5343 145.974 37.455 154.261 37.2104C161.772 36.9891 163.389 43.8349 163.389 44.5343ZM154.261 34.5615C144.92 34.4454 142.184 42.6395 141.993 44.69C141.532 49.6723 143.996 57.3199 154.261 57.6465C163.662 57.9456 166.09 49.7584 166.09 49.7584H162.848C161.72 52.921 158.048 55.4155 154.261 55.1574C145.158 54.5453 145.184 46.8758 145.184 46.8758H166.738C167.114 42.373 164.06 34.6831 154.261 34.5615ZM172.263 44.2529V57.0194H169.238V35.5369H172.263V38.108C172.263 38.108 175.511 34.5464 180.753 34.7036C185.992 34.8594 187.292 37.7774 188.181 38.6845C188.181 38.6845 191.409 34.8594 197.212 34.7363C203.385 34.608 205.508 39.3703 205.508 40.6695V57.0208H202.483V42.2036C202.483 41.466 201.966 37.3539 196.91 37.317C191.605 37.2774 189.316 41.455 189.026 43.0001V57.0194H185.992V42.8307C186.078 41.7883 184.963 37.1667 180.057 37.3184C173.561 37.5205 172.215 42.2897 172.263 44.2529ZM236.119 38.0602V35.5369H233.094V57.0208H236.119V42.6381C236.119 42.6381 236.859 37.3225 243.218 37.2528C248.919 37.1914 248.995 41.9018 249.088 42.1422H252.022C252.022 42.1422 252.242 34.5643 243.218 34.8321C241.274 34.8894 237.272 35.9946 236.119 38.0602ZM271.975 45.1382V49.3403C271.975 49.3403 270.835 54.7448 263.113 54.9552C256.514 55.1328 255.934 52.0835 255.934 51.0248C255.934 50.0603 255.914 47.4291 263.172 47.3253C268.31 47.2543 270.763 45.9154 271.975 45.1382ZM271.975 53.8882V57.0194H275V41.9728C274.905 38.5848 273.111 34.7582 264.493 34.787C254.223 34.8197 253.738 40.8512 253.51 42.1531H256.591C256.591 42.1531 256.417 37.1108 264.523 37.2855C272.215 37.4522 271.869 40.966 271.863 41.0848C271.838 41.5602 272.186 44.3376 263.319 44.6545C254.449 44.9687 252.433 48.3348 252.541 50.9564C252.655 53.7543 255.067 57.891 263.25 57.4866C269.584 57.1738 271.171 54.5098 271.975 53.8882ZM33.1323 49.7543H30.0069C30.0069 49.7543 29.3084 57.6984 42.0053 57.645C53.2442 57.6014 53.4547 51.2461 53.4547 50.7461C53.4547 47.8308 51.2088 45.2187 42.3023 44.5138C33.3944 43.8061 33.8628 41.5151 33.8628 41.1872C33.8628 39.4181 36.2759 37.2897 41.537 37.4044C46.5708 37.5165 48.9881 39.5834 49.1624 42.1422H52.2167C52.2167 42.1422 52.7325 35.0137 41.438 34.8771C31.472 34.7569 30.7917 40.2638 30.7512 41.1326C30.6955 42.3567 30.9729 46.7911 41.576 47.3089C44.8465 47.4674 50.201 47.9551 50.187 50.8718C50.1786 52.9661 47.7363 55.0877 42.2145 55.1943C36.2382 55.3104 33.5003 53.0481 33.1323 49.7543Z" fill="black"/>
</svg>
