<svg width="305" height="88" viewBox="0 0 305 88" fill="none" xmlns="http://www.w3.org/2000/svg">
<path fill-rule="evenodd" clip-rule="evenodd" d="M42 35.4373L49.7176 58.1727H52.0412L59.6563 35.4454L56.9438 35.4391L50.9201 54.6325H50.8474L44.8336 35.4373H42Z" fill="#231F20"/>
<path fill-rule="evenodd" clip-rule="evenodd" d="M65.3262 35.4453H67.8337L67.8213 58.1788H65.3237L65.3262 35.4453Z" fill="#231F20"/>
<path fill-rule="evenodd" clip-rule="evenodd" d="M75.5225 35.4518H78.0238L78.0176 46.178H78.0741L87.4302 35.4575H90.8079L80.8512 46.3311L90.9471 58.1853H87.4911L78.0723 46.6598H78.0176V58.179H75.5126L75.5225 35.4518Z" fill="#231F20"/>
<path fill-rule="evenodd" clip-rule="evenodd" d="M99.8783 37.7488H93.0918V35.4639H109.188V37.7551H102.39L102.377 58.1917H99.8702L99.8783 37.7488Z" fill="#231F20"/>
<path fill-rule="evenodd" clip-rule="evenodd" d="M122.854 37.3446C116.623 37.3446 114.142 42.2388 114.142 46.8314C114.141 50.5806 116.557 56.3169 122.846 56.327C129.142 56.3352 131.547 50.5888 131.547 46.8333C131.552 42.2451 129.089 37.3509 122.854 37.3446ZM122.854 35.0414C129.443 35.0477 134.237 39.5496 134.237 46.8333C134.229 53.7007 129.311 58.6321 122.846 58.6321C116.261 58.6245 111.458 54.117 111.458 46.8314C111.466 39.9703 116.388 35.0288 122.854 35.0414Z" fill="#231F20"/>
<path fill-rule="evenodd" clip-rule="evenodd" d="M146.353 46.1784C149.295 46.1784 151.295 44.7632 151.301 42.0374C151.301 38.6805 148.797 37.7736 146.202 37.7736H141.888L141.882 46.1721L146.353 46.1784ZM146.256 48.474H141.882L141.879 58.2102H139.363L139.375 35.4805H146.329C152.316 35.4861 153.974 38.7145 153.981 41.6815C153.974 45.7595 151.361 47.6181 148.878 48.2309L154.838 58.2159H151.769L146.256 48.474Z" fill="#231F20"/>
<path fill-rule="evenodd" clip-rule="evenodd" d="M197.694 46.2029C200.645 46.1966 202.645 44.7795 202.645 42.0612C202.648 38.7044 200.135 37.7855 197.555 37.7855H193.217V46.1966L197.694 46.2029ZM197.609 48.4941H193.217L193.211 58.2284H190.71L190.717 35.4987L197.664 35.5068C203.663 35.5068 205.331 38.7289 205.331 41.7004C205.331 45.7777 202.703 47.6426 200.225 48.2554L206.192 58.2378H203.111L197.609 48.4941Z" fill="#231F20"/>
<path fill-rule="evenodd" clip-rule="evenodd" d="M220.607 37.3812C214.368 37.3812 211.901 42.2798 211.901 46.8705C211.901 50.6197 214.308 56.3661 220.595 56.3661C226.874 56.3718 229.301 50.6298 229.301 46.8743C229.301 42.2861 226.83 37.3875 220.607 37.3812ZM220.607 35.078C227.192 35.0843 231.989 39.5862 231.989 46.8743C231.989 53.7379 227.077 58.6693 220.595 58.663C214.005 58.663 209.214 54.1523 209.214 46.8705C209.214 40.0132 214.145 35.078 220.607 35.078Z" fill="#231F20"/>
<path fill-rule="evenodd" clip-rule="evenodd" d="M236.962 35.517H239.468L239.459 55.9548H249.944L249.948 58.2524L236.952 58.2461L236.962 35.517Z" fill="#231F20"/>
<mask id="mask0" mask-type="alpha" maskUnits="userSpaceOnUse" x="254" y="35" width="13" height="24">
<path d="M254.364 35.5253H267V58.2563H254.364V35.5253Z" fill="white"/>
</mask>
<g mask="url(#mask0)">
<path fill-rule="evenodd" clip-rule="evenodd" d="M254.373 35.5253L267 35.5309V37.8266L256.871 37.8165V45.4365L266.698 45.4428L266.707 47.7385L256.871 47.7341L256.86 58.2518L254.364 58.2563L254.373 35.5253Z" fill="#231F20"/>
</g>
<path fill-rule="evenodd" clip-rule="evenodd" d="M170.254 45.9209L169.49 46.4719C167.918 47.6157 166.81 48.4861 166.801 50.3686C166.801 52.3839 168.402 53.9578 170.365 53.9578C171.74 53.9578 173.154 53.0805 174.67 51.3794L170.254 45.9209ZM171.468 43.7581C172.64 42.9312 173.223 42.0312 173.223 41.014C173.223 39.8621 172.286 39.0415 171.151 39.0415C169.897 39.0415 168.985 39.8376 168.975 41.014C168.975 41.5941 169.244 42.3001 169.761 43.0049L170.71 44.3016L171.468 43.7581ZM175.441 52.3877C173.83 54.2746 172.208 55.208 170.29 55.208C167.299 55.208 165.335 53.0944 165.342 50.446C165.342 48.345 166.731 46.7396 169.511 44.9207L168.895 44.0566C168.157 43.0968 167.568 42.268 167.565 40.9284C167.568 39.2172 169.057 37.8568 171.241 37.8568C173.195 37.8568 174.573 39.1945 174.576 41.0323C174.573 42.6962 173.537 43.8727 171.468 45.1985L175.606 50.417C176.316 49.5397 176.995 48.6284 177.6 47.5974L178.612 48.1693C177.866 49.4251 177.113 50.4907 176.316 51.4468L179.217 54.8994H177.546L175.441 52.3877Z" fill="#231F20"/>
<path fill-rule="evenodd" clip-rule="evenodd" d="M160.318 47.2807C160.315 53.7501 165.502 59.0115 171.875 59.0115C178.27 59.0222 183.454 53.7539 183.457 47.2914C183.464 40.8183 178.277 35.5556 171.885 35.55C165.517 35.55 160.321 40.812 160.318 47.2807ZM184.977 47.2914C184.977 54.6199 179.116 60.5722 171.875 60.5678C164.656 60.5615 158.78 54.6117 158.78 47.2807C158.783 39.9397 164.665 34 171.885 34C179.125 34.012 184.977 39.9479 184.977 47.2914Z" fill="#231F20"/>
</svg>
