<svg width="305" height="88" viewBox="0 0 305 88" fill="none" xmlns="http://www.w3.org/2000/svg">
<path d="M172.697 51.3586V42.1949L164.193 29.0782H167.205L174.114 39.8591L180.669 29.0782H183.681L175.354 42.1949V51.3586H172.697ZM193.602 51.8977C190.768 51.8977 188.465 51.1789 187.047 49.9212C185.453 48.4837 184.567 46.3276 184.567 43.4527V29.0782H187.224V43.4527C187.224 45.6088 187.756 47.0463 188.819 48.1244C189.882 49.2024 191.476 49.7415 193.425 49.7415C195.374 49.7415 196.791 49.2024 197.854 48.1244C198.917 47.0463 199.272 45.4291 199.272 43.4527V29.0782H201.929V43.4527C201.929 46.3276 201.221 48.4837 199.626 49.9212C198.563 51.1789 196.437 51.8977 193.602 51.8977ZM204.764 51.3586V29.0782H219.823V31.2344H207.421V38.781H219.114V40.9371H207.421V49.0228H220V51.3586H204.764ZM229.744 51.8977C228.504 51.8977 227.264 51.718 226.201 51.3586C225.138 50.9992 224.075 50.6399 223.366 49.9212C222.48 49.3821 221.949 48.4837 221.417 47.4056C220.886 46.3276 220.709 45.2495 220.709 43.9917H223.189C223.189 44.8901 223.366 45.6088 223.721 46.3276C224.075 47.0463 224.606 47.5853 225.138 48.1244C225.669 48.6634 226.555 48.8431 227.264 49.2024C227.972 49.3821 228.858 49.5618 229.744 49.5618C230.453 49.5618 231.161 49.5618 231.87 49.3821C232.579 49.2024 233.287 49.0228 233.819 48.6634C234.35 48.304 234.882 47.9447 235.236 47.4056C235.591 46.8666 235.768 46.1479 235.768 45.2495C235.768 44.5307 235.591 43.812 235.059 43.273C234.528 42.7339 233.996 42.3746 233.465 42.0152C232.756 41.6559 232.047 41.4762 231.161 41.2965L228.504 40.7575C227.618 40.5778 226.732 40.2184 225.846 40.0387C224.961 39.6794 224.252 39.4997 223.543 38.9607C222.835 38.6013 222.303 38.0622 221.949 37.3435C221.595 36.6248 221.417 35.9061 221.417 34.828C221.417 33.7499 221.595 32.6718 222.126 31.9531C222.658 31.2344 223.189 30.5157 223.898 29.9766C224.606 29.4376 225.492 29.0782 226.378 28.7189C227.264 28.3595 228.327 28.3595 229.39 28.3595C230.453 28.3595 231.516 28.5392 232.579 28.7189C233.465 29.0782 234.35 29.4376 235.059 29.9766C235.768 30.5157 236.299 31.2344 236.831 32.1328C237.185 33.0312 237.362 33.9296 237.539 35.1874H234.882C234.705 33.5702 234.173 32.4921 233.11 31.7734C232.047 31.0547 230.807 30.6953 229.213 30.6953C228.681 30.6953 227.972 30.6953 227.264 30.875C226.732 31.0547 226.024 31.2344 225.669 31.5937C225.138 31.9531 224.784 32.3125 224.429 32.8515C224.075 33.3906 223.898 34.1093 223.898 34.828C223.898 35.5467 224.075 36.2654 224.606 36.6248C225.138 37.1638 225.669 37.3435 226.201 37.7029C226.91 38.0622 227.618 38.2419 228.504 38.4216L231.161 38.9607C232.047 39.1403 232.933 39.4997 233.819 39.6794C234.705 40.0387 235.413 40.3981 236.122 40.7575C236.831 41.2965 237.362 41.8355 237.717 42.5543C238.071 43.273 238.248 44.1714 238.248 45.2495C238.248 46.5072 237.894 47.4056 237.539 48.304C237.008 49.2024 236.299 49.7415 235.591 50.2805C234.705 50.8196 233.819 51.1789 232.933 51.3586C231.87 51.718 230.807 51.8977 229.744 51.8977ZM257.736 51.3586L254.902 44.5307H243.917L241.083 51.3586H237.894L247.815 29.0782H251.358L261.28 51.3586H257.736ZM244.803 42.1949H254.016L249.587 31.4141H249.232L244.803 42.1949ZM262.343 29.0782H265V51.3586H262.343V29.0782ZM109.626 38.781C109.98 38.2419 110.335 37.7029 109.449 37.7029C108.563 37.7029 107.677 37.7029 107.146 36.8045V38.781C107.146 39.6794 106.969 41.2965 106.969 42.7339V43.9917C107.677 45.0698 111.752 48.8431 112.815 49.5618C113.878 50.2805 114.055 49.5618 114.055 49.0228C114.055 48.4837 114.587 35.367 114.587 32.6718C114.764 29.9766 114.941 28.3595 113.169 29.0782C111.398 29.6173 108.917 31.9531 106.969 33.9296V35.1874C107.854 35.0077 108.74 35.0077 110.158 35.0077C111.575 35.5467 112.284 35.9061 112.638 36.6248C112.815 37.5232 112.461 38.0622 111.752 38.781C110.866 39.6794 110.335 40.0387 110.335 40.9371C110.335 41.8355 111.043 41.8355 111.398 42.0152C111.752 42.1949 111.752 42.9136 111.575 43.4527C111.398 43.812 111.398 44.7104 110.689 44.7104C109.98 44.7104 108.209 43.9917 107.854 42.7339C107.5 41.4762 108.209 40.9371 108.386 40.3981C108.74 39.6794 109.272 39.32 109.626 38.781ZM106.614 50.2805C106.614 51.1789 106.437 51.8977 106.26 52.4367H111.752C110.689 51.5383 109.803 50.2805 108.917 49.0228C107.854 47.5853 107.146 46.5072 106.791 45.6088C106.614 47.9447 106.614 49.5618 106.614 50.2805Z" fill="black"/>
<path d="M100.768 49.921C100.413 49.2023 100.236 48.3039 100.236 48.1242V47.4055C100.236 47.0461 100.236 46.8665 100.768 47.0461C101.299 47.4055 101.831 48.1242 102.539 48.8429L103.602 49.921C103.957 50.1007 104.311 50.2804 104.311 49.382C104.311 48.4836 104.665 39.6792 104.665 38.6012C104.665 37.5231 104.843 36.8043 104.134 37.7028C103.602 38.6012 101.122 42.3744 99.7047 45.0697C98.8189 46.6868 98.6417 47.2258 98.4646 47.4055C98.2874 47.5852 98.1102 47.7649 97.4016 47.9445C96.8701 47.9445 95.9843 48.4836 96.5158 46.8665C97.2244 45.429 98.4646 42.9135 99.1732 41.8354C99.7047 40.7573 100.413 39.6792 99.5276 39.4996C98.6417 39.3199 97.5787 39.1402 97.0472 39.1402C96.5157 39.1402 96.3386 38.7808 96.5158 38.4215C96.6929 37.8824 96.6929 37.5231 96.8701 37.3434C97.0472 37.1637 96.8701 36.8043 97.7559 36.984C98.6417 37.1637 99.5276 37.1637 100.236 37.3434C100.768 37.5231 100.768 38.0621 100.945 38.7808C101.122 39.3199 101.122 40.2183 101.831 39.3199C102.539 38.4215 103.957 36.8043 104.311 36.0856C104.665 35.5466 104.843 35.5466 104.843 34.6482C104.843 33.5701 105.02 32.3123 105.02 31.2343C105.02 30.6952 105.02 29.7968 103.78 30.6952C102.539 31.5936 99.8819 33.7498 98.4646 34.4685C98.1102 34.6482 97.4016 35.0075 97.2244 34.4685C98.2874 33.5701 98.9961 33.0311 99.8819 32.3123C102.185 30.5155 104.134 28.7187 105.551 28.1797C106.969 27.6406 106.969 28.8984 106.969 30.3358V32.8514C108.209 31.5936 109.449 30.3358 110.512 29.6171C111.22 29.0781 111.752 28.539 112.283 28.1797H40V52.4366H102.008C101.654 51.7178 101.122 50.8194 100.768 49.921ZM137.618 28V28.3594C137.795 28.8984 137.795 29.0781 135.846 29.7968C135.138 30.1562 134.252 30.3358 133.366 30.5155C133.366 32.1327 133.012 34.6482 133.012 35.1872C136.555 33.9295 137.972 33.5701 138.858 33.3904C139.921 33.2107 140.807 33.7498 140.63 35.9059C140.276 39.3199 139.921 45.7884 139.744 46.6868C139.567 50.4601 138.681 51.8975 138.681 52.0772H153.386V28H137.618Z" fill="black"/>
<path d="M137.441 36.984C137.264 36.984 135.492 37.5231 133.189 38.2418C133.189 39.4996 133.366 40.5777 133.721 41.1167C134.252 41.8354 134.961 42.1948 135.138 42.3745C135.315 42.5541 135.315 42.9135 134.961 43.4525C134.606 43.8119 134.252 44.351 134.075 44.7103C133.898 45.0697 133.366 45.2494 132.658 44.89C131.949 44.5306 131.417 43.4525 131.24 42.3745C131.24 41.8354 131.063 40.5777 131.063 39.1402C130.177 39.3199 129.291 39.6793 128.406 39.8589C128.583 41.2964 128.583 42.9135 128.583 43.4525C128.583 44.7103 128.937 45.9681 127.697 46.1478C127.343 46.1478 126.988 46.1478 126.634 46.3274C126.28 46.3274 125.925 45.9681 125.925 45.429L126.457 40.5777C124.862 40.937 123.799 41.2964 123.268 41.4761C121.85 41.8354 121.319 41.4761 121.85 40.937C122.559 40.2183 123.799 39.4996 126.634 38.4215C126.811 37.1637 126.988 35.5466 127.165 35.1872C127.343 34.6482 127.874 33.9295 128.051 35.3669C128.228 35.906 128.228 36.8044 128.228 37.8825C128.937 36.984 129.646 36.6247 130.354 36.445C130.709 36.2653 130.886 36.2653 131.063 36.2653V35.0076C131.063 34.2888 131.24 32.492 131.417 31.5936C128.937 32.3124 126.28 32.8514 123.799 33.2108C123.445 33.2108 122.382 33.3904 122.205 33.2108C121.85 32.8514 122.913 31.7733 123.445 31.414C123.976 30.8749 125.039 30.5155 125.748 30.3359C126.28 30.1562 129.646 29.2578 132.303 28.5391H116.358C116.713 29.6171 116.713 31.0546 116.536 32.8514C116.536 33.9295 116.181 47.7649 116.004 50.4601C116.004 51.5382 115.827 52.2569 115.473 52.7959H134.252C134.252 52.4366 133.189 50.8195 133.012 50.1007C131.595 50.2804 129.469 50.6398 128.406 50.6398C127.52 50.6398 126.634 50.8195 125.748 50.6398C125.394 50.6398 124.685 50.2804 124.154 49.921V50.1007C124.685 51.5382 123.799 52.0772 123.268 52.2569C122.205 52.6163 121.85 50.9991 121.673 50.4601C121.496 49.921 120.61 45.429 120.433 42.9135C120.256 40.398 121.142 42.7338 121.142 42.7338C121.142 42.7338 122.913 47.2258 123.799 49.2023C124.154 49.0226 125.039 48.6633 125.394 48.6633C126.457 48.3039 130.354 47.5852 132.48 47.4055C134.784 47.2258 134.784 47.4055 134.606 47.9446C134.429 48.4836 134.784 49.7414 133.721 49.7414H133.012C133.543 50.1007 134.429 50.9991 135.492 50.9991C136.024 50.9991 136.555 49.921 136.732 48.843C136.91 47.4055 137.441 39.4996 137.618 38.4215C138.327 37.3434 138.15 36.6247 137.441 36.984Z" fill="black"/>
<path d="M133.366 49.7413H133.72C133.543 49.7413 133.543 49.5616 133.543 49.5616C133.366 49.3819 133.366 49.5616 133.366 49.7413ZM124.331 49.0226C124.154 49.2023 124.331 49.3819 124.685 49.5616C124.508 49.3819 124.508 49.0226 124.331 49.0226Z" fill="black"/>
</svg>
